<svg width="180" height="202" viewBox="0 0 180 202" fill="none" xmlns="http://www.w3.org/2000/svg">
<path fill-rule="evenodd" clip-rule="evenodd" d="M62.0357 68.8841L141.733 66.6075C166.699 80.7928 186.078 110.243 177.32 139.752C175.807 144.802 174.206 149.209 172.868 154.434C172.198 157.061 170.773 159.337 169.26 160.651C164.982 164.328 154.333 166.43 147.553 169.378C142.519 171.567 137.485 173.464 132.48 175.624C111.909 184.614 67.4187 184.059 47.5161 162.198C46.003 160.534 44.6355 159.162 42.9478 157.644C40.4454 155.368 38.1468 152.916 36.139 150.201C19.6408 119.35 37.6521 84.1786 62.0357 68.8549V68.8841Z" fill="url(#paint0_radial_9_16864)"/>
<path style="mix-blend-mode:multiply" opacity="0.75" fill-rule="evenodd" clip-rule="evenodd" d="M140.075 160.913C134.721 169.553 128.407 174.135 114.149 176.179C99.3676 178.309 82.9276 176.908 70.4157 171.771C60.6681 167.772 50.8622 161.76 49.4365 152.069C49.1164 149.88 48.9127 147.808 48.5635 146.64C47.7488 144.014 44.7518 150.435 44.519 150.698C43.5006 151.894 41.0855 149.413 40.4745 148.684C31.658 137.942 30.2904 126.18 30.4359 116.343C28.7191 127.464 30.174 139.139 36.139 150.289C38.1467 152.974 40.4454 155.455 42.9477 157.732C44.6354 159.25 46.003 160.592 47.516 162.285C67.4187 184.118 111.909 184.701 132.48 175.712C137.485 173.522 142.548 171.625 147.553 169.465C154.333 166.547 164.982 164.416 169.259 160.738C170.773 159.425 172.198 157.148 172.868 154.521C174.177 149.297 175.806 144.889 177.319 139.84C186.078 110.36 166.67 80.8803 141.733 66.695L130.327 67.0161C145.72 76.4437 165.302 98.8892 168.998 124.72C170.714 136.717 170.511 142.963 166.844 147.633C164.633 150.435 167.339 157.031 154.711 160.972C152.121 161.789 148.6 160.767 146.796 159.337C145.662 158.432 144.527 157.557 143.392 157.44C141.879 157.265 141.588 158.607 140.104 161.001L140.075 160.913Z" fill="url(#paint1_radial_9_16864)"/>
<path style="mix-blend-mode:screen" fill-rule="evenodd" clip-rule="evenodd" d="M62.0357 68.8841L141.733 66.6075C166.699 80.7928 186.078 110.243 177.32 139.752C175.807 144.802 174.206 149.209 172.868 154.434C172.198 157.061 170.773 159.337 169.26 160.651C164.982 164.328 154.333 166.43 147.553 169.378C142.519 171.567 137.485 173.464 132.48 175.624C111.909 184.614 67.4187 184.059 47.5161 162.198C46.003 160.534 44.6355 159.162 42.9478 157.644C40.4454 155.368 38.1468 152.916 36.139 150.201C19.6408 119.35 37.6521 84.1786 62.0357 68.8549V68.8841Z" fill="url(#paint2_radial_9_16864)"/>
<path fill-rule="evenodd" clip-rule="evenodd" d="M112.723 63.7471C108.766 63.7471 101.346 63.2801 96.2541 60.1861C91.5695 57.3257 88.747 55.6037 83.8296 55.6037C82.4911 55.6037 81.0071 55.7204 79.2904 55.9831C77.9228 56.1874 76.2351 56.5377 74.4311 56.9171C70.5903 57.7344 66.2256 58.6392 62.6467 58.6392C61.3373 58.6392 60.2607 58.5224 59.3005 58.2889C54.8777 57.1506 51.5315 55.6328 49.0582 53.6773C47.8361 52.7141 46.2357 51.1963 46.1485 49.1531C46.0903 47.4311 47.0505 45.7382 49.3201 43.6367C51.6479 41.5059 53.2482 39.5212 53.6265 36.9235C53.8011 35.7268 53.5683 34.5884 53.0154 33.596C51.997 31.7864 50.6294 30.5897 49.4365 29.5098C47.0505 27.4082 44.6063 25.2191 47.8652 20.1113C50.2512 16.4044 54.4703 13.8651 61.2209 12.1722C65.8183 11.0047 70.6775 10.742 75.3622 10.5085C78.3884 10.3625 81.5309 10.1874 84.5279 9.77878C88.6597 9.19503 91.9186 8.29021 95.0321 7.41457C99.6004 6.13031 103.936 4.90442 110.337 4.90442C112.752 4.90442 115.284 5.07955 118.077 5.4298C126.341 6.48056 132.393 8.69884 136.525 12.2014C137.951 13.3981 139.231 14.7699 140.482 16.0542C141.995 17.6303 143.421 19.1481 145.08 20.4031C146.214 21.2496 148.135 22.0377 150.172 22.8549C152.296 23.7014 154.507 24.6062 156.282 25.7737C161.636 29.2471 161.811 32.8372 160.996 35.2306C160.239 37.478 156.573 39.3752 153.227 40.9806L152.849 41.1557C151.51 41.7978 150.172 42.3232 148.862 42.8194C145.167 44.2496 142.257 45.3879 140.657 48.7445C140.337 49.445 140.046 50.8169 139.813 52.0136C139.609 53.0643 139.406 54.0567 139.144 54.7864C136.874 61.0326 120.929 63.1925 119.125 63.426C117.088 63.6887 114.876 63.8054 112.723 63.8054V63.7471Z" fill="url(#paint3_radial_9_16864)"/>
<path fill-rule="evenodd" clip-rule="evenodd" d="M43.0641 28.9844C51.8806 31.5237 56.769 34.5009 49.3783 42.7026C47.9525 37.5948 45.6247 33.3917 43.0641 28.9844Z" fill="url(#paint4_radial_9_16864)"/>
<path fill-rule="evenodd" clip-rule="evenodd" d="M63.1995 51.0504C59.9988 45.242 56.8854 39.0834 54.4994 33.6252C54.9649 34.7052 55.1104 35.9019 54.9359 37.0986C54.5285 40.1925 52.6081 42.44 50.2221 44.6291C46.5267 48.044 46.7013 50.1164 49.8729 52.6557C49.9893 52.7433 50.1348 52.86 50.2512 52.9476C52.899 54.9324 56.3616 56.1874 59.6205 57.0339C61.4537 57.5009 63.956 57.4133 66.6039 57.0339C65.4691 55.1075 64.3343 53.1227 63.1995 51.0796V51.0504Z" fill="url(#paint5_radial_9_16864)"/>
<path fill-rule="evenodd" clip-rule="evenodd" d="M42.5695 24.577C44.1698 18.0681 49.1746 12.8435 60.2898 10.0414C66.9531 8.34855 76.497 8.81555 84.7898 7.67722C95.9632 6.13027 102.83 1.69372 118.455 3.64931C126.952 4.72926 133.732 7.06428 138.474 11.063C140.802 13.0186 143.159 15.7623 146.185 17.747C151.423 21.162 157.97 22.0376 162.189 26.9996C164.051 29.1886 164.895 31.8739 163.702 35.4348C161.927 40.6886 152.674 42.9653 147.378 46.5554C141.879 50.2623 142.955 53.3562 141.384 56.129C140.424 57.8219 137.776 60.5364 132.83 62.3752C120.55 66.9577 103.325 67.7749 94.3919 62.346C82.2292 54.9615 69.5136 63.2508 58.8058 60.478C50.3094 58.2889 45.5956 54.8447 43.5006 50.3498C40.649 44.2496 49.902 42.2356 50.6294 36.8067C51.3278 31.582 40.6199 32.4577 42.5695 24.6062V24.577ZM54.1502 32.8955C54.8777 34.1798 55.1395 35.61 54.9359 37.0694C54.5285 40.1633 52.6081 42.4107 50.2221 44.5998C46.5267 48.0148 46.7013 50.0871 49.8729 52.6265C52.579 54.7864 56.2161 56.129 59.6205 57.0046C64.538 58.2597 73.9946 55.4285 79.0576 54.6696C87.6122 53.4145 90.7547 55.3117 96.9234 59.0478C102.597 62.4919 112.229 62.8714 118.95 62.0541C123.606 61.4704 136.176 59.0478 137.893 54.2902C138.416 52.8308 138.765 49.6493 139.464 48.1607C141.879 42.9945 147.116 42.4107 152.296 39.9298C154.216 38.9958 159.075 36.8067 159.745 34.7635C160.85 31.4945 158.581 28.8092 155.584 26.8536C152.179 24.6353 146.767 23.3219 144.265 21.4247C141.093 19.0021 138.678 15.7623 135.623 13.1937C130.938 9.25337 124.159 7.53129 117.844 6.74321C101.433 4.67088 97.0107 9.39931 84.6152 11.1214C76.9626 12.1721 68.9317 11.5884 61.4537 13.4856C56.2161 14.8282 51.4151 16.9006 48.8836 20.8409C44.8391 27.1747 50.804 27.2039 54.092 32.9247L54.1502 32.8955Z" fill="url(#paint6_radial_9_16864)"/>
<path fill-rule="evenodd" clip-rule="evenodd" d="M48.8545 33.3334C48.709 33.5961 48.5926 33.888 48.4762 34.1798C47.4869 36.8943 48.0107 40.3677 49.6983 43.987C51.7061 48.3067 55.4596 52.9184 60.4353 56.8004C65.4109 60.6824 70.7648 63.1925 75.4495 64.0974C79.3777 64.8562 82.8403 64.506 85.2262 62.8715C85.4881 62.6963 85.7209 62.5212 85.9537 62.3169C86.9139 60.8867 91.1912 55.7205 92.4424 54.5821L54.7613 25.1316C53.9465 26.6202 50.0184 32.0491 48.8545 33.3334Z" fill="url(#paint7_linear_9_16864)"/>
<path style="mix-blend-mode:multiply" fill-rule="evenodd" clip-rule="evenodd" d="M48.5053 34.1798C47.807 36.077 47.8652 38.3537 48.5053 40.7763C49.291 39.3753 53.8884 33.3918 54.5285 32.9539C54.1793 31.8448 53.9757 30.794 53.9175 29.7725C53.8593 29.0136 53.8884 28.2839 53.9757 27.5834C54.092 26.7078 54.3539 25.8905 54.7613 25.1608C53.9466 26.6494 50.0184 32.0783 48.8545 33.3626C48.709 33.6253 48.5926 33.9171 48.4762 34.209L48.5053 34.1798Z" fill="url(#paint8_linear_9_16864)"/>
<path style="mix-blend-mode:multiply" fill-rule="evenodd" clip-rule="evenodd" d="M80.2797 56.1583C79.6977 57.5009 75.2167 63.2801 74.2565 63.8347C74.6639 63.9222 75.0713 64.0098 75.4786 64.0973C79.4068 64.8562 82.8694 64.506 85.2553 62.8715C85.5172 62.6963 85.75 62.5212 85.9828 62.3169C86.943 60.8867 91.1912 55.7496 92.4424 54.5821C90.7547 56.1291 88.2815 56.8004 85.3135 56.7128C83.7714 56.742 82.0546 56.5377 80.2797 56.1291V56.1583Z" fill="url(#paint9_linear_9_16864)"/>
<path style="mix-blend-mode:screen" fill-rule="evenodd" clip-rule="evenodd" d="M55.1686 24.8397C53.3355 27.2039 53.19 30.5897 54.4121 34.2966C54.1211 36.7484 55.5178 41.4184 56.9145 43.4324C57.5546 44.3372 60.057 44.8334 60.959 44.6874C62.443 46.2928 64.1306 47.8689 66.022 49.3283C76.2933 57.355 88.0778 59.3981 92.3551 53.9108C96.6324 48.3943 91.7731 37.4489 81.5018 29.393C71.2304 21.3664 59.446 19.3232 55.1686 24.8105V24.8397Z" fill="url(#paint10_linear_9_16864)"/>
<path fill-rule="evenodd" clip-rule="evenodd" d="M55.3723 24.1975C51.1532 29.6265 56.187 40.6595 66.633 48.8321C77.079 57.0046 88.9798 59.2229 93.1989 53.7648C97.418 48.3359 92.3842 37.3029 81.9382 29.1303C71.4923 20.9577 59.5914 18.7394 55.3723 24.1975Z" fill="url(#paint11_radial_9_16864)"/>
<path style="mix-blend-mode:screen" fill-rule="evenodd" clip-rule="evenodd" d="M90.842 50.5541C91.8314 49.7077 93.9846 50.9628 94.0137 52.393C96.6033 46.6138 91.5404 36.6607 81.9382 29.1303C71.4923 20.9577 59.5915 18.7394 55.3723 24.1975C54.2084 25.7153 53.7429 27.6125 53.9175 29.7724C54.3248 29.1011 56.2162 29.6848 57.1182 31.5529C57.0891 31.1734 90.9293 50.4082 90.8711 50.5541H90.842Z" fill="url(#paint12_linear_9_16864)"/>
<g style="mix-blend-mode:screen" opacity="0.75">
<path fill-rule="evenodd" clip-rule="evenodd" d="M58.5439 26.3575C55.0814 30.9691 59.5042 40.1925 68.4371 46.9641C77.37 53.7356 87.4376 55.4869 90.9293 50.846C94.3919 46.2344 89.9691 37.011 81.0362 30.2394C72.1033 23.4679 62.0356 21.7166 58.5439 26.3575Z" fill="#F6A410"/>
</g>
<path fill-rule="evenodd" clip-rule="evenodd" d="M58.3112 26.5034C54.7322 31.0858 59.0095 40.4259 67.826 47.3143C76.6425 54.2026 86.7102 56.0998 90.2601 51.4881C93.8391 46.9056 89.5618 37.5655 80.7453 30.6772C71.9287 23.7889 61.8611 21.8917 58.3112 26.5034Z" fill="url(#paint13_radial_9_16864)"/>
<path fill-rule="evenodd" clip-rule="evenodd" d="M58.3112 26.5034C54.7322 31.0858 59.0095 40.4259 67.826 47.3143C76.6425 54.2026 86.7102 56.0998 90.2601 51.4881C93.8391 46.9056 89.5618 37.5655 80.7453 30.6772C71.9287 23.7889 61.8611 21.8917 58.3112 26.5034Z" fill="url(#paint14_radial_9_16864)"/>
<path fill-rule="evenodd" clip-rule="evenodd" d="M78.9994 32.9247C87.0885 39.2584 91.3076 47.6061 89.2417 52.4805C89.6199 52.1886 89.9982 51.8676 90.2892 51.4881C93.8682 46.9056 89.5908 37.5655 80.7743 30.6772C71.9578 23.7889 61.8901 21.8917 58.3402 26.5034C58.0493 26.8828 57.8165 27.3206 57.6419 27.7584C61.861 24.5186 70.9685 26.6201 79.0576 32.9247H78.9994Z" fill="url(#paint15_linear_9_16864)"/>
<path fill-rule="evenodd" clip-rule="evenodd" d="M54.7613 35.3473C56.9727 36.4272 58.864 38.4704 59.155 38.9666C59.5332 39.5503 60.5225 41.8854 60.5516 44.2788C58.282 44.1912 57.3218 43.7534 57.0891 43.3448C56.3907 42.1772 54.8777 38.0034 54.7613 35.3765V35.3473Z" fill="url(#paint16_radial_9_16864)"/>
<path style="mix-blend-mode:screen" fill-rule="evenodd" clip-rule="evenodd" d="M57.0891 43.3155C57.3218 43.695 58.1075 44.0744 59.8824 44.2204C60.0861 44.2204 60.3189 44.2496 60.5807 44.2496C60.5807 43.6658 60.5225 43.1112 60.4062 42.5567C60.1152 40.8346 59.475 39.4044 59.1841 38.9374C58.2529 37.4488 56.7399 42.6734 57.1181 43.2864L57.0891 43.3155Z" fill="url(#paint17_radial_9_16864)"/>
<path style="mix-blend-mode:screen" opacity="0.5" fill-rule="evenodd" clip-rule="evenodd" d="M146.825 22.8258C140.191 19.7318 140.162 17.2217 134.721 13.077C124.74 5.51738 107.573 6.07195 95.7304 8.87398C91.1912 9.95393 89.4453 10.4501 84.6734 11.0923C94.1009 9.0491 100.037 6.4222 108.039 6.13032C122.296 5.60494 130.385 8.87398 135.216 12.5516C139.027 15.4412 141.355 19.9653 146.825 22.8549V22.8258Z" fill="url(#paint18_radial_9_16864)"/>
<path fill-rule="evenodd" clip-rule="evenodd" d="M81.3272 15.2953C81.2399 15.5871 81.1817 15.9082 81.1526 16.2001C80.7743 19.0605 82.0255 22.3295 84.4697 25.511C87.3794 29.3054 92.0059 32.9831 97.709 35.6975C103.412 38.412 109.173 39.6963 113.945 39.5503C117.932 39.4336 121.249 38.3245 123.227 36.2229C123.431 35.9894 123.635 35.7559 123.809 35.5224C124.42 33.9171 127.476 27.9336 128.465 26.5618L85.3135 6.04272C84.848 7.67724 82.171 13.8359 81.3272 15.3245V15.2953Z" fill="url(#paint19_linear_9_16864)"/>
<path style="mix-blend-mode:multiply" fill-rule="evenodd" clip-rule="evenodd" d="M81.1525 16.2001C80.8906 18.2141 81.4144 20.4032 82.6074 22.6214C83.0729 21.0745 86.2736 14.2445 86.7974 13.6608C86.2154 12.6684 85.779 11.6468 85.488 10.6836C85.2552 9.95392 85.1388 9.22422 85.0806 8.52372C85.0225 7.64808 85.0806 6.77245 85.3134 5.98438C84.8479 7.61889 82.1709 13.7775 81.3271 15.2661C81.2398 15.558 81.1816 15.879 81.1525 16.1709V16.2001Z" fill="url(#paint20_linear_9_16864)"/>
<path style="mix-blend-mode:multiply" fill-rule="evenodd" clip-rule="evenodd" d="M116.913 30.7356C116.651 32.1658 113.509 38.7915 112.694 39.5503C113.102 39.5503 113.538 39.5503 113.945 39.5503C117.932 39.4336 121.249 38.3245 123.227 36.2229C123.431 35.9894 123.635 35.7559 123.809 35.5224C124.42 33.9171 127.476 27.9628 128.436 26.5618C127.126 28.4298 124.857 29.6557 121.947 30.2102C120.434 30.5897 118.746 30.7648 116.913 30.7356Z" fill="url(#paint21_linear_9_16864)"/>
<path style="mix-blend-mode:screen" fill-rule="evenodd" clip-rule="evenodd" d="M85.6336 5.63408C82.6657 11.9387 89.7654 21.5998 101.55 27.1747C113.334 32.7496 125.264 32.195 128.261 25.8904C131.229 19.5859 124.129 9.92469 112.345 4.34982C100.561 -1.22505 88.6306 -0.670486 85.6336 5.63408Z" fill="url(#paint22_linear_9_16864)"/>
<path fill-rule="evenodd" clip-rule="evenodd" d="M85.6918 4.96278C82.753 11.1798 90.0564 20.841 102.015 26.5326C113.974 32.2242 126.079 31.7864 129.018 25.5694C131.957 19.3524 124.653 9.69121 112.694 3.99958C100.735 -1.69204 88.6306 -1.25423 85.6918 4.96278Z" fill="url(#paint23_radial_9_16864)"/>
<path style="mix-blend-mode:screen" fill-rule="evenodd" clip-rule="evenodd" d="M126.021 22.9425C126.806 21.8917 129.192 22.6506 129.512 24.0516C130.764 17.8638 123.693 9.25339 112.665 3.99958C100.706 -1.69204 88.6015 -1.25423 85.6627 4.96278C84.848 6.68486 84.8189 8.64044 85.4299 10.7128C85.6918 9.9539 87.6704 10.129 88.9216 11.7635C88.8052 11.4133 125.992 22.7673 125.992 22.9425H126.021Z" fill="url(#paint24_linear_9_16864)"/>
<g style="mix-blend-mode:screen" opacity="0.75">
<path fill-rule="evenodd" clip-rule="evenodd" d="M89.2417 6.3638C86.8557 11.6176 93.1698 19.6734 103.383 24.3143C113.596 28.9552 123.78 28.459 126.166 23.2052C128.552 17.9514 122.238 9.89553 112.025 5.25467C101.812 0.613803 91.6277 1.11 89.2417 6.3638Z" fill="#F6A410"/>
</g>
<path fill-rule="evenodd" clip-rule="evenodd" d="M89.038 6.56812C86.5647 11.8219 92.7334 19.9945 102.83 24.8105C112.927 29.6265 123.14 29.2471 125.643 23.9932C128.116 18.7394 121.947 10.5669 111.85 5.75086C101.754 0.934874 91.5404 1.31432 89.038 6.56812Z" fill="url(#paint25_radial_9_16864)"/>
<path fill-rule="evenodd" clip-rule="evenodd" d="M110.628 8.3194C119.881 12.7268 125.846 19.9362 124.857 25.1608C125.177 24.7813 125.439 24.4019 125.643 23.9641C128.116 18.7103 121.947 10.5377 111.85 5.72169C101.754 0.905699 91.5404 1.28514 89.038 6.53895C88.8343 6.97677 88.7179 7.44377 88.6015 7.91078C92.0059 3.82448 101.346 3.88286 110.628 8.29022V8.3194Z" fill="url(#paint26_linear_9_16864)"/>
<path style="mix-blend-mode:multiply" fill-rule="evenodd" clip-rule="evenodd" d="M136.438 26.5326C136.438 37.8575 127.272 47.0516 115.982 47.0516C104.692 47.0516 95.5267 37.8575 95.5267 26.5326C95.5267 15.2077 104.692 6.01355 115.982 6.01355C127.272 6.01355 136.438 15.2077 136.438 26.5326Z" fill="url(#paint27_radial_9_16864)"/>
<path style="mix-blend-mode:multiply" opacity="0.5" fill-rule="evenodd" clip-rule="evenodd" d="M98 51.1379C98 61.6163 89.5326 70.0808 79.1158 70.0808C68.6989 70.0808 60.2316 61.5871 60.2316 51.1379C60.2316 40.6887 68.6989 32.195 79.1158 32.195C89.5326 32.195 98 40.6887 98 51.1379Z" fill="url(#paint28_radial_9_16864)"/>
<path fill-rule="evenodd" clip-rule="evenodd" d="M78.3592 49.445C78.5629 49.6785 78.7666 49.912 78.9994 50.1163C81.0944 52.1011 84.4697 52.9767 88.456 52.86C93.228 52.714 98.902 51.0503 104.43 47.9856C109.959 44.9209 114.353 40.9513 117.03 37.011C119.27 33.6836 120.289 30.3562 119.765 27.5249C119.707 27.2331 119.619 26.912 119.532 26.6201C118.601 25.1899 115.546 19.2064 114.993 17.6011L73.209 40.8054C74.2565 42.1188 77.69 47.898 78.4174 49.4742L78.3592 49.445Z" fill="url(#paint29_linear_9_16864)"/>
<path style="mix-blend-mode:multiply" fill-rule="evenodd" clip-rule="evenodd" d="M78.9994 50.1164C80.4833 51.4882 82.5784 52.3346 85.0516 52.6849C84.0623 51.4006 80.3961 44.8042 80.2506 44.0453C79.1158 43.9285 78.0392 43.695 77.079 43.374C76.3515 43.1405 75.6823 42.8194 75.1003 42.44C74.3438 41.973 73.7037 41.4184 73.1799 40.7471C74.2274 42.0605 77.6609 47.8397 78.3883 49.4159C78.592 49.6494 78.7957 49.8829 79.0285 50.0872L78.9994 50.1164Z" fill="url(#paint30_linear_9_16864)"/>
<path style="mix-blend-mode:multiply" fill-rule="evenodd" clip-rule="evenodd" d="M111.618 29.4221C112.636 30.4729 116.157 36.8942 116.302 38.0034C116.564 37.6531 116.797 37.332 117.03 36.9818C119.27 33.6544 120.289 30.327 119.765 27.4957C119.707 27.2039 119.619 26.8828 119.532 26.5909C118.601 25.1607 115.546 19.2064 114.993 17.6011C115.749 19.761 115.4 22.3295 114.149 25.0148C113.567 26.4742 112.723 27.9628 111.647 29.4221H111.618Z" fill="url(#paint31_linear_9_16864)"/>
<path style="mix-blend-mode:screen" fill-rule="evenodd" clip-rule="evenodd" d="M73.0344 40.28C76.4097 46.3803 88.3687 46.2052 99.7749 39.9006C111.181 33.596 117.67 23.497 114.295 17.3968C110.919 11.2965 98.9602 11.4717 87.554 17.7762C76.1478 24.11 69.6591 34.1798 73.0344 40.28Z" fill="url(#paint32_radial_9_16864)"/>
<path fill-rule="evenodd" clip-rule="evenodd" d="M72.5398 39.8422C75.8569 45.8841 87.9614 45.563 99.5422 39.1125C111.123 32.6912 117.815 22.5922 114.498 16.5503C111.181 10.5084 99.0766 10.8295 87.4958 17.28C75.9151 23.7013 69.2227 33.8003 72.5398 39.8422Z" fill="url(#paint33_radial_9_16864)"/>
<path style="mix-blend-mode:screen" fill-rule="evenodd" clip-rule="evenodd" d="M110.628 17.4552C110.25 16.2001 112.258 14.7115 113.567 15.2661C109.29 10.6252 98.1746 11.3549 87.4958 17.28C75.9151 23.7014 69.2227 33.8004 72.5398 39.8422C73.4709 41.5059 75.0421 42.6734 77.079 43.374C76.6134 42.7318 77.8937 41.2141 79.9887 41.1265C79.6395 41.0097 110.541 17.3384 110.657 17.4552H110.628Z" fill="url(#paint34_linear_9_16864)"/>
<g style="mix-blend-mode:screen" opacity="0.75">
<path fill-rule="evenodd" clip-rule="evenodd" d="M75.7405 37.7699C78.6211 42.7902 88.8052 42.3232 98.5237 36.7191C108.242 31.1151 113.8 22.5047 110.919 17.5136C108.039 12.4932 97.8545 12.9603 88.136 18.5643C78.4175 24.1684 72.8599 32.7788 75.7405 37.7699Z" fill="#F6A410"/>
</g>
<path fill-rule="evenodd" clip-rule="evenodd" d="M75.7987 38.0326C78.6211 43.1404 88.8343 42.8485 98.611 37.4196C108.388 31.9907 114.062 23.4386 111.239 18.36C108.417 13.2813 98.2036 13.544 88.4269 18.9729C78.6502 24.4018 72.9762 32.9539 75.7987 38.0326Z" fill="url(#paint35_radial_9_16864)"/>
<path fill-rule="evenodd" clip-rule="evenodd" d="M89.8236 21.4831C98.7856 16.492 108.097 15.879 111.763 19.7318C111.647 19.2648 111.501 18.7978 111.268 18.3892C108.446 13.2813 98.2328 13.5732 88.456 19.0021C78.6793 24.431 73.0053 32.9831 75.8278 38.0618C76.0606 38.4996 76.3806 38.8498 76.7007 39.2001C75.3913 34.0338 80.8616 26.4742 89.8527 21.4831H89.8236Z" fill="url(#paint36_linear_9_16864)"/>
<path fill-rule="evenodd" clip-rule="evenodd" d="M115.778 59.544C116.011 59.7483 116.273 59.9234 116.535 60.0694C118.979 61.5872 122.471 61.8207 126.341 60.9158C130.967 59.8359 136.234 57.1214 141.064 53.0643C145.894 49.0072 149.444 44.2496 151.306 39.8714C152.849 36.1937 153.227 32.6912 152.15 30.0351C152.034 29.7432 151.888 29.4806 151.743 29.1887C150.55 27.9628 146.418 22.6798 145.545 21.2204L108.97 52.0427C110.25 53.1519 114.731 58.143 115.72 59.544H115.778Z" fill="url(#paint37_linear_9_16864)"/>
<path style="mix-blend-mode:multiply" fill-rule="evenodd" clip-rule="evenodd" d="M116.535 60.0694C118.252 61.1493 120.463 61.558 122.966 61.4412C121.743 60.3613 116.884 54.6113 116.593 53.9107C115.458 53.9983 114.353 53.9983 113.363 53.8524C112.607 53.7356 111.909 53.5605 111.239 53.327C110.395 53.0059 109.668 52.5973 109.028 52.0427C110.308 53.1519 114.789 58.143 115.778 59.544C116.011 59.7483 116.273 59.9234 116.535 60.0694Z" fill="url(#paint38_linear_9_16864)"/>
<path style="mix-blend-mode:multiply" fill-rule="evenodd" clip-rule="evenodd" d="M144.585 33.4793C145.778 34.3257 150.463 39.9298 150.812 41.0097C150.986 40.6303 151.161 40.2509 151.335 39.8714C152.878 36.1937 153.256 32.6912 152.179 30.0351C152.063 29.7432 151.917 29.4806 151.772 29.1887C150.579 27.9628 146.447 22.709 145.574 21.2204C146.709 23.2052 146.884 25.7737 146.185 28.6633C145.894 30.2102 145.341 31.8156 144.585 33.4793Z" fill="url(#paint39_linear_9_16864)"/>
<path style="mix-blend-mode:screen" fill-rule="evenodd" clip-rule="evenodd" d="M108.824 51.5757C113.305 56.9171 125.002 54.4362 134.983 46.0301C144.963 37.624 149.415 26.4742 144.934 21.1329C140.453 15.7915 128.756 18.2725 118.776 26.6785C108.795 35.0846 104.343 46.2344 108.824 51.5757Z" fill="url(#paint40_radial_9_16864)"/>
<path fill-rule="evenodd" clip-rule="evenodd" d="M108.242 51.2255C112.665 56.5085 124.45 53.8524 134.604 45.3004C144.73 36.7483 149.386 25.5402 144.963 20.2864C140.54 15.0326 128.756 17.6595 118.601 26.2115C108.475 34.7635 103.819 45.9717 108.242 51.2255Z" fill="url(#paint41_radial_9_16864)"/>
<path fill-rule="evenodd" clip-rule="evenodd" d="M108.242 51.2255C112.665 56.5085 124.45 53.8524 134.604 45.3004C144.73 36.7483 149.386 25.5402 144.963 20.2864C140.54 15.0326 128.756 17.6595 118.601 26.2115C108.475 34.7635 103.819 45.9717 108.242 51.2255Z" fill="url(#paint42_radial_9_16864)"/>
<path style="mix-blend-mode:screen" fill-rule="evenodd" clip-rule="evenodd" d="M141.326 21.921C140.715 20.7827 142.374 18.9146 143.77 19.2065C138.678 15.4705 127.912 18.3601 118.572 26.2116C108.446 34.7636 103.79 45.9717 108.213 51.2255C109.435 52.6849 111.21 53.5314 113.334 53.8233C112.752 53.2687 113.713 51.5466 115.749 51.0504C115.371 51.0212 141.151 21.8042 141.297 21.8918L141.326 21.921Z" fill="url(#paint43_linear_9_16864)"/>
<g style="mix-blend-mode:screen" opacity="0.75">
<path fill-rule="evenodd" clip-rule="evenodd" d="M110.977 48.5694C114.76 52.9475 124.682 50.4958 133.121 43.1404C141.559 35.7851 145.371 26.2699 141.617 21.8917C140.657 20.7826 139.318 20.1112 137.689 19.8486C136.438 19.2356 134.721 18.7102 133.732 18.7978C132.48 18.9437 129.92 20.2572 128.349 21.5414C125.41 22.8257 122.355 24.7813 119.445 27.2914C110.977 34.6468 107.195 44.162 110.948 48.5402L110.977 48.5694Z" fill="#F6A410"/>
</g>
<path fill-rule="evenodd" clip-rule="evenodd" d="M111.065 48.8321C114.789 53.2978 124.77 51.0504 133.353 43.841C141.908 36.6316 145.836 27.1455 142.112 22.6798C138.387 18.2141 128.407 20.4615 119.823 27.6709C111.268 34.8803 107.34 44.3664 111.065 48.8321Z" fill="url(#paint44_radial_9_16864)"/>
<path fill-rule="evenodd" clip-rule="evenodd" d="M111.065 48.8321C114.789 53.2978 124.77 51.0504 133.353 43.841C141.908 36.6316 145.836 27.1455 142.112 22.6798C138.387 18.2141 128.407 20.4615 119.823 27.6709C111.268 34.8803 107.34 44.3664 111.065 48.8321Z" fill="url(#paint45_radial_9_16864)"/>
<path fill-rule="evenodd" clip-rule="evenodd" d="M121.656 29.8892C129.512 23.2635 138.533 20.841 142.868 23.9349C142.664 23.4971 142.432 23.0884 142.112 22.709C138.387 18.2432 128.407 20.4907 119.823 27.7001C111.268 34.9095 107.34 44.3955 111.065 48.8613C111.385 49.2407 111.734 49.5326 112.141 49.8245C109.872 45.0085 113.8 36.5148 121.656 29.9184V29.8892Z" fill="url(#paint46_linear_9_16864)"/>
<path fill-rule="evenodd" clip-rule="evenodd" d="M128.669 22.1252C129.018 22.3295 129.658 22.5922 130.124 22.5922C131.637 22.5922 134.692 22.3295 136.467 21.6874C137.194 21.4247 137.689 20.8409 137.863 20.4907C136.147 19.3815 134.314 18.9145 133.819 18.9437C133.062 19.0021 130.444 20.1988 128.698 22.1252H128.669Z" fill="url(#paint47_radial_9_16864)"/>
<path style="mix-blend-mode:screen" fill-rule="evenodd" clip-rule="evenodd" d="M132.859 19.2356C133.266 19.0605 133.586 18.9729 133.79 18.9729C134.168 18.9729 135.361 19.2064 136.67 19.8485C137.049 20.0237 137.456 20.2572 137.834 20.5199C137.66 20.8409 137.194 21.4539 136.438 21.7166C136.176 21.8041 135.914 21.8917 135.623 21.9792C135.128 22.096 131.898 19.6442 132.859 19.2648V19.2356Z" fill="url(#paint48_radial_9_16864)"/>
<path fill-rule="evenodd" clip-rule="evenodd" d="M81.3854 51.138C81.3854 51.4591 81.3854 51.751 81.3854 52.072C81.6182 54.9616 83.5095 57.8804 86.5647 60.4781C90.2019 63.572 95.4976 66.1989 101.637 67.6291C107.777 69.0594 113.683 69.1177 118.31 67.9794C122.18 67.0162 125.206 65.2357 126.69 62.784C126.865 62.5213 126.981 62.2586 127.126 61.9667C127.388 60.2738 129.134 53.7941 129.803 52.218L83.3349 41.2142C83.2185 42.9071 81.9091 49.5035 81.3854 51.138Z" fill="url(#paint49_linear_9_16864)"/>
<path style="mix-blend-mode:multiply" fill-rule="evenodd" clip-rule="evenodd" d="M81.4145 52.072C81.5891 54.086 82.5493 56.1291 84.1787 58.0555C84.3242 56.4502 86.0119 49.0949 86.3901 48.4236C85.6336 47.5479 84.9935 46.6723 84.4988 45.7966C84.1205 45.1253 83.8587 44.454 83.655 43.7827C83.3931 42.9362 83.3058 42.0898 83.364 41.2433C83.2476 42.9362 81.9382 49.5327 81.4145 51.1672C81.4145 51.4883 81.4145 51.7802 81.4145 52.1012V52.072Z" fill="url(#paint50_linear_9_16864)"/>
<path style="mix-blend-mode:multiply" fill-rule="evenodd" clip-rule="evenodd" d="M119.416 58.756C119.445 60.2154 117.786 67.3372 117.117 68.2712C117.524 68.1837 117.932 68.0961 118.339 68.0085C122.209 67.0453 125.235 65.2649 126.719 62.8131C126.894 62.5504 127.01 62.2877 127.156 61.9958C127.417 60.303 129.163 53.8233 129.833 52.2763C128.931 54.3778 126.952 56.0415 124.246 57.209C122.849 57.8804 121.22 58.4349 119.445 58.7852L119.416 58.756Z" fill="url(#paint51_linear_9_16864)"/>
<path style="mix-blend-mode:screen" fill-rule="evenodd" clip-rule="evenodd" d="M83.5968 40.7763C81.9964 47.577 90.9875 55.5161 103.645 58.5224C116.302 61.5288 127.883 58.4349 129.483 51.6633C131.084 44.8626 122.093 36.9235 109.435 33.9171C96.7779 30.9108 85.1971 34.0047 83.5968 40.7763Z" fill="url(#paint52_linear_9_16864)"/>
<path fill-rule="evenodd" clip-rule="evenodd" d="M83.5095 40.1049C81.9382 46.8181 91.1039 54.728 103.994 57.7635C116.884 60.8283 128.61 57.8511 130.182 51.1379C131.753 44.4247 122.587 36.5148 109.697 33.4793C96.807 30.4146 85.0807 33.3917 83.5095 40.1049Z" fill="url(#paint53_radial_9_16864)"/>
<path style="mix-blend-mode:screen" fill-rule="evenodd" clip-rule="evenodd" d="M126.719 49.2115C127.272 48.0148 129.745 48.2775 130.356 49.5618C130.298 43.228 121.569 36.3105 109.697 33.4793C96.807 30.4146 85.0807 33.3917 83.5095 40.1049C83.073 41.9729 83.4513 43.8993 84.4988 45.7674C84.5861 44.9793 86.5647 44.7166 88.136 46.0592C87.9614 45.7382 126.69 49.0364 126.69 49.2115H126.719Z" fill="url(#paint54_linear_9_16864)"/>
<g style="mix-blend-mode:screen" opacity="0.75">
<path fill-rule="evenodd" clip-rule="evenodd" d="M87.2921 40.7471C86.041 46.3803 93.9264 52.9184 104.867 55.341C115.808 57.7344 125.701 55.1075 126.923 49.4743C128.145 43.841 120.289 37.3029 109.348 34.8803C98.4074 32.4578 88.5142 35.1139 87.2921 40.7471Z" fill="#F6A410"/>
</g>
<path fill-rule="evenodd" clip-rule="evenodd" d="M87.1176 40.9805C85.7791 46.643 93.519 53.327 104.431 55.9247C115.313 58.4932 125.235 56.0123 126.574 50.3207C127.912 44.6582 120.172 37.9742 109.261 35.3765C98.3783 32.808 88.456 35.2889 87.1176 40.9805Z" fill="url(#paint55_radial_9_16864)"/>
<path fill-rule="evenodd" clip-rule="evenodd" d="M108.591 38.1493C118.572 40.5136 125.904 46.3219 126.021 51.6341C126.254 51.1963 126.428 50.7585 126.545 50.2915C127.883 44.629 120.143 37.945 109.232 35.3473C98.3491 32.7788 88.4269 35.2597 87.0885 40.9514C86.9721 41.4184 86.943 41.9146 86.9721 42.3816C89.4454 37.6823 98.5819 35.7559 108.562 38.1202L108.591 38.1493Z" fill="url(#paint56_linear_9_16864)"/>
<path style="mix-blend-mode:multiply" opacity="0.5" fill-rule="evenodd" clip-rule="evenodd" d="M140.89 61.9666C140.89 72.445 132.422 80.9095 122.005 80.9095C111.588 80.9095 103.121 72.4158 103.121 61.9666C103.121 51.5173 111.588 43.0237 122.005 43.0237C132.422 43.0237 140.89 51.5173 140.89 61.9666Z" fill="url(#paint57_radial_9_16864)"/>
<path fill-rule="evenodd" clip-rule="evenodd" d="M159.366 37.3321C157.795 38.6747 155.467 39.8714 153.256 40.9222L152.878 41.0973C151.539 41.7395 150.201 42.2648 148.891 42.761C145.196 44.1912 142.286 45.3296 140.686 48.6862C140.366 49.3867 140.075 50.7585 139.842 51.9552C139.638 53.0059 139.435 53.9983 139.173 54.728C136.903 60.9742 120.958 63.1341 119.154 63.3676C117.117 63.6303 114.906 63.7471 112.752 63.7471C108.795 63.7471 101.375 63.2801 96.2832 60.1862C91.5985 57.3258 88.7761 55.6037 83.8586 55.6037C82.5202 55.6037 81.0362 55.7204 79.3194 55.9831C77.9519 56.1874 76.2642 56.5377 74.4602 56.9171C70.6193 57.7344 66.2547 58.6392 62.6757 58.6392C61.3664 58.6392 60.2898 58.5224 59.3295 58.2889C54.9067 57.1506 51.5605 55.6329 49.0873 53.6773C48.2434 53.0059 47.225 52.0428 46.6431 50.8461L43.9661 51.1671C49.6401 58.0846 53.0445 65.4108 55.1977 69.643C56.9727 73.1164 59.0095 75.3054 61.3955 76.8816C78.883 88.4692 98.6401 87.3016 108.009 86.7471C123.344 85.8131 139.115 79.275 145.923 67.3955C148.397 63.0757 150.87 57.6468 153.023 53.6189C155.555 48.8029 158.988 42.7318 162.974 36.9235L159.395 37.3613L159.366 37.3321Z" fill="url(#paint58_radial_9_16864)"/>
<path style="mix-blend-mode:multiply" fill-rule="evenodd" clip-rule="evenodd" d="M123.315 79.2749C111.879 83.1861 97.709 84.4995 86.943 82.6607C68.5825 79.5084 59.7369 72.9412 51.6479 62.7838C53.1027 65.4399 54.2375 67.8333 55.1686 69.6138C56.9436 73.0871 58.9804 75.2762 61.3664 76.8523C78.8539 88.4399 98.611 87.2724 107.98 86.7178C123.315 85.7838 139.086 79.2457 145.894 67.3663C147.32 64.8561 148.746 61.9957 150.143 59.2521C148.542 61.1493 146.971 63.0757 145.312 64.9145C142.053 68.5338 143.683 65.4983 141.53 66.695C140.017 67.5122 138.591 69.7889 136.379 71.7445C133.353 74.4006 128.931 77.3777 123.344 79.2749H123.315Z" fill="url(#paint59_radial_9_16864)"/>
<path fill-rule="evenodd" clip-rule="evenodd" d="M159.861 34.2966C159.832 34.4425 159.803 34.5884 159.774 34.7344C159.075 36.7775 154.245 38.9666 152.325 39.9006C147.175 42.3816 141.937 42.9653 139.493 48.1316C138.795 49.6202 138.445 52.8016 137.922 54.261C136.205 59.0186 123.635 61.4412 118.979 62.025C112.258 62.8714 102.626 62.4628 96.9525 59.0186C90.7838 55.2826 87.6413 53.3854 79.0867 54.6405C73.9946 55.3993 64.538 58.2306 59.6496 56.9755C56.2452 56.0999 52.6081 54.7572 49.902 52.5973C49 51.8676 48.3598 51.1963 47.9525 50.4958L43.937 51.0795C46.2066 55.1658 50.804 58.3473 58.8058 60.4197C69.5136 63.1925 82.2292 54.9032 94.3919 62.2877C103.325 67.7166 120.55 66.8993 132.83 62.3169C137.776 60.478 140.424 57.7636 141.384 56.0707C142.955 53.2978 141.879 50.2039 147.378 46.4971C152.674 42.907 161.927 40.6011 163.702 35.3765C163.906 34.7636 164.022 34.209 164.109 33.6544L159.832 34.2674L159.861 34.2966Z" fill="url(#paint60_radial_9_16864)"/>
<path style="mix-blend-mode:screen" opacity="0.5" fill-rule="evenodd" clip-rule="evenodd" d="M53.4228 58.6975C59.1259 61.7039 64.1306 61.7622 71.8123 60.7115C81.3563 59.398 86.4774 58.3181 93.6354 62.3752C102.714 67.5414 112.781 67.3955 123.344 65.1772C125.09 64.7978 126.108 64.5643 127.621 64.0097C118.892 66.2571 104.518 67.4247 95.323 61.9957C87.7868 57.5592 81.3563 58.3472 71.3177 59.9526C62.2393 61.412 59.7078 60.9158 53.4228 58.7267V58.6975Z" fill="url(#paint61_radial_9_16864)"/>
<g style="mix-blend-mode:screen">
<path d="M61.0463 43.8701C61.0463 44.0453 60.9008 44.1912 60.7263 44.1912C60.5517 44.1912 60.4062 44.0453 60.4062 43.8701C60.4062 43.695 60.5517 43.5491 60.7263 43.5491C60.9008 43.5491 61.0463 43.695 61.0463 43.8701Z" fill="#E0AD4F"/>
</g>
<g style="mix-blend-mode:screen">
<path d="M60.7262 44.6582C61.1601 44.6582 61.5119 44.3054 61.5119 43.8702C61.5119 43.4349 61.1601 43.0821 60.7262 43.0821C60.2924 43.0821 59.9406 43.4349 59.9406 43.8702C59.9406 44.3054 60.2924 44.6582 60.7262 44.6582Z" fill="#FFF276"/>
</g>
<g opacity="0.75">
<g style="mix-blend-mode:screen">
<path d="M138.038 20.4908C138.038 20.4908 137.951 20.6951 137.834 20.6951C137.718 20.6951 137.631 20.6075 137.631 20.4908C137.631 20.374 137.718 20.2864 137.834 20.2864C137.951 20.2864 138.038 20.374 138.038 20.4908Z" fill="#E0AD4F"/>
</g>
<g style="mix-blend-mode:screen">
<path d="M138.387 20.4907C138.387 20.7825 138.154 21.0452 137.834 21.0452C137.514 21.0452 137.281 20.8117 137.281 20.4907C137.281 20.1696 137.514 19.9361 137.834 19.9361C138.154 19.9361 138.387 20.1696 138.387 20.4907Z" fill="#FFF276"/>
</g>
</g>
<g opacity="0.8">
<g style="mix-blend-mode:screen">
<path d="M97.6217 55.954C97.6217 56.0999 97.5053 56.2459 97.3307 56.2459C97.1561 56.2459 97.0398 56.1291 97.0398 55.954C97.0398 55.7789 97.1561 55.6621 97.3307 55.6621C97.5053 55.6621 97.6217 55.7789 97.6217 55.954Z" fill="#E0AD4F"/>
</g>
<g style="mix-blend-mode:screen">
<path d="M98.0582 55.9539C98.0582 56.3334 97.7381 56.6544 97.3598 56.6544C96.9816 56.6544 96.6615 56.3334 96.6615 55.9539C96.6615 55.5745 96.9816 55.2534 97.3598 55.2534C97.7381 55.2534 98.0582 55.5745 98.0582 55.9539Z" fill="#FFF276"/>
</g>
</g>
<path d="M146.767 65.8195C149.444 66.0821 152.703 70.0809 151.743 73.204C153.314 76.8525 148.629 83.6532 144.236 84.9959C142.752 88.586 134.255 93.4019 128.087 93.4019C125.439 96.8169 113.48 98.9184 106.991 97.5466C98.902 100.816 86.041 99.4146 80.1051 95.9413C75.9442 96.9921 67.5641 94.8905 62.7049 90.2497C59.2132 88.7903 55.9543 86.1926 53.3355 83.5365C48.6217 78.6913 47.196 70.3728 54.1212 67.6583C54.7031 68.9717 55.6924 70.0809 56.5362 71.2192C58.6312 72.6202 64.7126 76.4438 67.5351 79.6837C70.7649 78.8372 84.7316 83.624 88.0487 85.2294C93.0535 84.0035 108.33 84.3245 112.345 85.1126C114.906 82.9235 124.362 80.2091 129.716 80.3258C130.909 77.6405 138.416 73.2915 141.442 72.4159C142.955 69.3804 145.4 68.3296 146.767 65.8486V65.8195Z" fill="url(#paint62_radial_9_16864)"/>
<path style="mix-blend-mode:multiply" fill-rule="evenodd" clip-rule="evenodd" d="M91.7732 87.5935C95.0321 89.3156 98.0582 91.9425 100.706 94.1608C101.87 95.124 102.888 95.8537 103.878 96.379C104.954 96.9336 105.944 97.2839 106.991 97.5174C113.451 98.8892 125.439 96.7877 128.087 93.3727C127.534 93.3727 127.01 93.3143 126.457 93.1684C118.659 98.5973 109.697 98.1011 102.277 91.7966C98.9602 88.9945 97.4763 88.3232 91.7732 87.5643V87.5935Z" fill="url(#paint63_radial_9_16864)"/>
<path style="mix-blend-mode:screen" fill-rule="evenodd" clip-rule="evenodd" d="M141.064 84.9957C141.326 89.6658 131.52 92.1176 127.126 90.483C125.788 89.9869 124.304 89.1696 122.267 88.0605C119.998 86.8346 118.368 86.3968 114.382 86.3676C117.524 87.3308 119.532 89.6074 121.54 90.8333C123.606 92.0884 125.031 92.8473 126.457 93.1683C126.981 93.2851 127.505 93.3435 128.087 93.3726C134.226 93.3726 142.752 88.5567 144.236 84.9666C143.276 85.2292 142.257 85.2876 141.064 84.9957Z" fill="url(#paint64_radial_9_16864)"/>
<path style="mix-blend-mode:screen" fill-rule="evenodd" clip-rule="evenodd" d="M141.064 84.9958C142.257 85.2584 143.276 85.2293 144.236 84.9666C148.6 83.6239 153.285 76.8232 151.743 73.1747C151.51 73.5249 151.103 73.6417 150.55 73.6125C150.404 73.6125 150.288 73.6125 150.172 73.5833C152.354 78.7787 146.709 81.9894 140.919 81.0554C138.009 80.5884 135.914 79.7711 131.317 80.7343C133.819 81.3181 135.681 82.544 137.718 83.6531C138.969 84.3244 140.075 84.7914 141.064 84.9958Z" fill="url(#paint65_radial_9_16864)"/>
<path style="mix-blend-mode:screen" fill-rule="evenodd" clip-rule="evenodd" d="M144.032 71.978C147.087 72.1239 148.251 73.2914 150.143 73.5833C150.259 73.5833 150.404 73.6125 150.521 73.6125C151.074 73.6417 151.481 73.5249 151.714 73.1747C151.859 72.7369 151.888 72.2407 151.888 71.7737C151.801 69.9348 150.579 68.0376 149.124 66.8701C149.793 68.096 149.852 69.643 147.727 70.3143C146.447 70.7229 145.632 70.7521 144.032 71.9488V71.978Z" fill="url(#paint66_radial_9_16864)"/>
<path style="mix-blend-mode:multiply" fill-rule="evenodd" clip-rule="evenodd" d="M80.1342 95.912C79.4359 95.5034 78.8248 95.0364 78.272 94.5694C70.5321 96.1163 63.927 89.6366 61.3082 81.8143C60.4935 79.3917 59.5624 77.4069 57.7583 74.5173C58.6313 77.4361 58.4858 79.1874 58.9222 82.077C59.0095 82.6024 59.0968 83.1277 59.2132 83.5947C59.9115 86.7762 61.0754 88.8485 62.734 90.2204C67.5641 94.8321 75.9733 96.9628 80.1342 95.912Z" fill="url(#paint67_radial_9_16864)"/>
<path style="mix-blend-mode:multiply" fill-rule="evenodd" clip-rule="evenodd" d="M78.272 94.5694C78.8248 95.0364 79.4359 95.5034 80.1342 95.912C86.0701 99.3854 98.9311 100.757 107.02 97.5174C106.002 97.2839 104.983 96.9336 103.907 96.379C97.4472 99.9399 85.6045 99.0059 79.9887 92.176C76.7589 88.2648 74.082 84.2369 69.4264 81.3181C73.5291 85.8422 74.1402 90.9501 78.272 94.5694Z" fill="url(#paint68_radial_9_16864)"/>
<path style="mix-blend-mode:multiply" fill-rule="evenodd" clip-rule="evenodd" d="M62.734 90.2204C61.0754 88.8486 59.9115 86.7763 59.2132 83.5948C56.4489 83.2737 53.2773 79.5961 52.2007 76.7065C51.1823 73.9044 51.0077 70.6938 53.6556 67.8334C47.2833 70.8397 48.7963 78.808 53.3355 83.478C55.9252 86.1633 59.1841 88.761 62.7049 90.1912L62.734 90.2204Z" fill="url(#paint69_radial_9_16864)"/>
<path style="mix-blend-mode:screen" fill-rule="evenodd" clip-rule="evenodd" d="M91.7732 87.5935C95.0321 89.3156 98.0582 91.9425 100.706 94.1608C101.87 95.124 102.888 95.8537 103.878 96.379C104.954 96.9336 105.944 97.2839 106.991 97.5174C113.451 98.8892 125.439 96.7877 128.087 93.3727C127.534 93.3727 127.01 93.3143 126.457 93.1684C118.659 98.5973 109.697 98.1011 102.277 91.7966C98.9602 88.9945 97.4763 88.3232 91.7732 87.5643V87.5935Z" fill="url(#paint70_radial_9_16864)"/>
<g style="mix-blend-mode:multiply" opacity="0.5">
<path d="M90.7547 193.925C90.4056 198.215 80.8034 200.959 69.2518 200.054C57.7001 199.149 48.6217 194.946 48.9709 190.656C49.3201 186.365 58.9222 183.621 70.4739 184.526C82.0255 185.431 91.1039 189.634 90.7547 193.925Z" fill="#261710"/>
</g>
<g style="mix-blend-mode:multiply" opacity="0.5">
<path d="M47.8652 176.033C47.516 180.323 37.9139 183.067 26.3622 182.162C14.8106 181.257 5.73217 177.054 6.08134 172.764C6.43051 168.473 16.0326 165.729 27.5843 166.634C39.136 167.539 48.2144 171.742 47.8652 176.033Z" fill="#261710"/>
</g>
<path fill-rule="evenodd" clip-rule="evenodd" d="M0.465546 173.114C0.523741 173.406 0.611033 173.698 0.698325 174.019C1.57125 176.733 4.10272 179.156 7.6235 180.965C11.8426 183.125 17.5748 184.439 23.8307 184.439C30.0867 184.439 35.8189 183.125 40.038 180.965C43.5588 179.156 46.0903 176.762 46.9632 174.019C47.0505 173.727 47.1378 173.435 47.196 173.114C47.0796 171.421 47.2832 164.737 47.5742 163.073H0.0872803C0.378254 164.737 0.581936 171.421 0.465546 173.114Z" fill="url(#paint71_linear_9_16864)"/>
<path style="mix-blend-mode:multiply" fill-rule="evenodd" clip-rule="evenodd" d="M0.698342 174.019C1.30939 175.916 2.73516 177.667 4.74288 179.185C4.5101 177.58 4.481 170.108 4.68468 169.349C3.75357 168.677 2.93884 167.977 2.2696 167.218C1.77494 166.663 1.33848 166.08 0.989316 165.467C0.552855 164.708 0.261881 163.891 0.116394 163.073C0.407368 164.737 0.61105 171.421 0.49466 173.114C0.552855 173.406 0.640147 173.698 0.727439 174.019H0.698342Z" fill="url(#paint72_linear_9_16864)"/>
<path style="mix-blend-mode:multiply" fill-rule="evenodd" clip-rule="evenodd" d="M38.9614 171.771C39.3397 173.172 39.3397 180.469 38.9032 181.491C39.2815 181.316 39.6597 181.141 40.0089 180.965C43.5297 179.156 46.0612 176.762 46.9341 174.019C47.0214 173.727 47.1087 173.435 47.1669 173.114C47.0505 171.421 47.2541 164.766 47.5451 163.102C47.1669 165.35 45.6247 167.393 43.2678 169.144C42.0748 170.137 40.6199 171.012 38.9614 171.771Z" fill="url(#paint73_linear_9_16864)"/>
<path style="mix-blend-mode:screen" fill-rule="evenodd" clip-rule="evenodd" d="M0.232788 162.606C0.232788 169.553 10.7078 175.157 23.6562 175.157C36.6045 175.157 47.0796 169.524 47.0796 162.606C47.0796 155.689 36.6045 150.055 23.6562 150.055C10.7078 150.055 0.232788 155.689 0.232788 162.606Z" fill="url(#paint74_linear_9_16864)"/>
<path fill-rule="evenodd" clip-rule="evenodd" d="M0 161.964C0 168.823 10.6787 174.369 23.8308 174.369C36.9828 174.369 47.6615 168.823 47.6615 161.964C47.6615 155.105 36.9828 149.559 23.8308 149.559C10.6787 149.559 0 155.105 0 161.964Z" fill="url(#paint75_radial_9_16864)"/>
<g style="mix-blend-mode:screen" opacity="0.75">
<path fill-rule="evenodd" clip-rule="evenodd" d="M3.78265 161.701C3.86994 167.451 12.9774 171.946 24.0926 171.771C35.2078 171.596 44.1698 166.78 44.0825 161.03C43.9952 155.28 34.8878 150.785 23.7726 150.96C12.6283 151.135 3.69536 155.951 3.78265 161.701Z" fill="#F6A410"/>
</g>
<path fill-rule="evenodd" clip-rule="evenodd" d="M3.69537 161.964C3.69537 167.743 12.7156 172.443 23.8308 172.443C34.946 172.443 43.9662 167.743 43.9662 161.964C43.9662 156.185 34.946 151.486 23.8308 151.486C12.7156 151.486 3.69537 156.185 3.69537 161.964Z" fill="url(#paint76_radial_9_16864)"/>
<path style="mix-blend-mode:multiply" opacity="0.45" fill-rule="evenodd" clip-rule="evenodd" d="M6.63419 164.825C5.4412 170.837 13.2975 177.492 24.2381 179.71C35.1787 181.929 45.0136 178.835 46.2066 172.822C47.3996 166.809 39.5433 160.154 28.6027 157.936C17.6621 155.718 7.82718 158.812 6.63419 164.825Z" fill="url(#paint77_radial_9_16864)"/>
<path fill-rule="evenodd" clip-rule="evenodd" d="M23.8308 154.346C34.0148 154.346 42.424 158.286 43.7625 163.394C43.8789 162.927 43.9662 162.46 43.9662 161.964C43.9662 156.185 34.946 151.486 23.8308 151.486C12.7156 151.486 3.69537 156.185 3.69537 161.964C3.69537 162.46 3.78267 162.927 3.89906 163.394C5.23754 158.286 13.6467 154.346 23.8308 154.346Z" fill="url(#paint78_linear_9_16864)"/>
<path fill-rule="evenodd" clip-rule="evenodd" d="M42.9477 190.568C43.0059 190.86 43.0932 191.152 43.1805 191.473C44.0534 194.187 46.5849 196.61 50.1057 198.42C54.3248 200.58 60.057 201.893 66.3129 201.893C72.5689 201.893 78.3011 200.58 82.5202 198.42C86.041 196.61 88.5724 194.217 89.4454 191.473C89.5326 191.181 89.6199 190.889 89.6781 190.568C89.5617 188.875 89.7654 182.191 90.0564 180.527H42.5695C42.8604 182.191 43.0641 188.875 42.9477 190.568Z" fill="url(#paint79_linear_9_16864)"/>
<path style="mix-blend-mode:multiply" fill-rule="evenodd" clip-rule="evenodd" d="M43.1805 191.444C43.7916 193.341 45.2173 195.092 47.2251 196.61C46.9923 195.005 46.9632 187.533 47.1669 186.774C46.2357 186.102 45.421 185.402 44.7518 184.643C44.2571 184.088 43.8207 183.505 43.4715 182.892C43.035 182.133 42.7441 181.315 42.5986 180.498C42.8895 182.162 43.0932 188.846 42.9768 190.539C43.035 190.831 43.1223 191.123 43.2096 191.444H43.1805Z" fill="url(#paint80_linear_9_16864)"/>
<path style="mix-blend-mode:multiply" fill-rule="evenodd" clip-rule="evenodd" d="M81.4727 189.196C81.8509 190.597 81.8509 197.894 81.4145 198.916C81.7927 198.741 82.171 198.566 82.5202 198.39C86.0409 196.581 88.5724 194.187 89.4453 191.444C89.5326 191.152 89.6199 190.86 89.6781 190.539C89.5617 188.846 89.7654 182.191 90.0564 180.527C89.6781 182.775 88.136 184.818 85.7791 186.569C84.5861 187.562 83.1312 188.437 81.4727 189.196Z" fill="url(#paint81_linear_9_16864)"/>
<path style="mix-blend-mode:screen" fill-rule="evenodd" clip-rule="evenodd" d="M42.715 180.031C42.715 183.008 44.6645 185.752 47.8943 187.912C49.1455 190.013 53.1027 192.816 55.4305 193.545C56.478 193.866 58.7476 192.728 59.3587 192.057C61.5119 192.407 63.7815 192.582 66.1384 192.582C79.0867 192.582 89.5618 186.949 89.5618 180.031C89.5618 173.114 79.0867 167.48 66.1384 167.48C53.19 167.48 42.715 173.114 42.715 180.031Z" fill="url(#paint82_linear_9_16864)"/>
<path fill-rule="evenodd" clip-rule="evenodd" d="M42.4822 179.418C42.4822 186.278 53.1609 191.823 66.3129 191.823C79.465 191.823 90.1437 186.278 90.1437 179.418C90.1437 172.559 79.465 167.014 66.3129 167.014C53.1609 167.014 42.4822 172.559 42.4822 179.418Z" fill="url(#paint83_radial_9_16864)"/>
<path style="mix-blend-mode:screen" fill-rule="evenodd" clip-rule="evenodd" d="M86.3319 178.309C86.5938 177.025 89.0671 176.704 89.94 177.813C88.456 171.713 78.4466 166.984 66.3129 166.984C53.1609 166.984 42.4822 172.53 42.4822 179.389C42.4822 181.286 43.2969 183.067 44.7227 184.643C44.6354 183.855 46.4685 183.154 48.3308 184.088C48.0689 183.826 86.3028 178.134 86.3319 178.28V178.309Z" fill="url(#paint84_linear_9_16864)"/>
<g style="mix-blend-mode:screen" opacity="0.75">
<path fill-rule="evenodd" clip-rule="evenodd" d="M46.2649 179.156C46.3521 184.906 55.4596 189.401 66.5748 189.225C77.69 189.05 86.652 184.234 86.5647 178.484C86.4774 172.734 77.37 168.239 66.2548 168.414C55.1105 168.59 46.1776 173.406 46.2649 179.156Z" fill="#F6A410"/>
</g>
<path fill-rule="evenodd" clip-rule="evenodd" d="M46.1776 179.418C46.1776 185.198 55.1977 189.897 66.3129 189.897C77.4281 189.897 86.4483 185.198 86.4483 179.418C86.4483 173.639 77.4281 168.94 66.3129 168.94C55.1977 168.94 46.1776 173.639 46.1776 179.418Z" fill="url(#paint85_radial_9_16864)"/>
<path fill-rule="evenodd" clip-rule="evenodd" d="M66.3129 171.771C76.497 171.771 84.9062 175.712 86.2447 180.819C86.361 180.352 86.4483 179.885 86.4483 179.389C86.4483 173.61 77.4281 168.911 66.3129 168.911C55.1977 168.911 46.1776 173.61 46.1776 179.389C46.1776 179.885 46.2648 180.352 46.3812 180.819C47.7197 175.712 56.1289 171.771 66.3129 171.771Z" fill="url(#paint86_linear_9_16864)"/>
<path fill-rule="evenodd" clip-rule="evenodd" d="M48.7963 188.525C51.2114 188.029 53.8884 188.467 54.4412 188.671C55.1105 188.904 57.2928 190.13 58.7476 191.969C56.9145 193.283 55.8961 193.516 55.4596 193.341C54.2084 192.845 50.484 190.481 48.7963 188.525Z" fill="url(#paint87_radial_9_16864)"/>
<path style="mix-blend-mode:screen" fill-rule="evenodd" clip-rule="evenodd" d="M55.4596 193.341C55.867 193.487 56.7108 193.341 58.1948 192.349C58.3694 192.232 58.5731 192.115 58.7476 191.969C58.3985 191.531 57.9911 191.123 57.5838 190.743C56.3035 189.576 54.9359 188.846 54.4121 188.671C52.7536 188.087 54.7613 193.107 55.4305 193.341H55.4596Z" fill="url(#paint88_radial_9_16864)"/>
<path fill-rule="evenodd" clip-rule="evenodd" d="M3.75356 164.533C3.81175 164.824 3.89904 165.116 3.98634 165.437C4.85926 168.152 7.39073 170.574 10.9115 172.384C15.1306 174.544 20.8628 175.857 27.1188 175.857C33.3747 175.857 39.1069 174.544 43.326 172.384C46.8468 170.574 49.3492 168.181 50.2512 165.437C50.3385 165.145 50.4258 164.854 50.484 164.533C50.3676 162.84 50.5713 156.156 50.8622 154.492H3.40439C3.69536 156.156 3.89904 162.84 3.78265 164.533H3.75356Z" fill="url(#paint89_linear_9_16864)"/>
<path style="mix-blend-mode:multiply" fill-rule="evenodd" clip-rule="evenodd" d="M3.98634 165.408C4.59738 167.305 6.02315 169.057 8.03087 170.574C7.79809 168.969 7.769 161.497 7.97268 160.738C7.04156 160.067 6.22683 159.366 5.55759 158.607C5.06294 158.053 4.62648 157.469 4.27731 156.856C3.84085 156.097 3.54988 155.28 3.40439 154.463C3.69536 156.126 3.89904 162.81 3.78265 164.503C3.84085 164.795 3.92814 165.087 4.01543 165.408H3.98634Z" fill="url(#paint90_linear_9_16864)"/>
<path style="mix-blend-mode:multiply" fill-rule="evenodd" clip-rule="evenodd" d="M42.2785 163.161C42.6568 164.562 42.6568 171.859 42.2203 172.88C42.5986 172.705 42.9768 172.53 43.326 172.355C46.8468 170.545 49.3492 168.152 50.2512 165.408C50.3385 165.116 50.4258 164.824 50.484 164.503C50.3676 162.81 50.5713 156.156 50.8622 154.492C50.484 156.739 48.9418 158.783 46.5849 160.534C45.3919 161.526 43.9371 162.402 42.2785 163.161Z" fill="url(#paint91_linear_9_16864)"/>
<path style="mix-blend-mode:screen" fill-rule="evenodd" clip-rule="evenodd" d="M3.52078 153.996C3.52078 160.738 13.4721 166.255 25.9258 166.547C28.6609 168.298 31.9198 168.152 32.269 168.123C33.6948 167.918 34.9169 166.751 36.3717 165.525C44.6063 163.569 50.3676 159.162 50.3676 154.025C50.3676 147.078 39.8925 141.474 26.9442 141.474C13.9958 141.474 3.52078 147.107 3.52078 154.025V153.996Z" fill="url(#paint92_linear_9_16864)"/>
<path fill-rule="evenodd" clip-rule="evenodd" d="M3.28799 153.354C3.28799 160.213 13.9667 165.758 27.1188 165.758C40.2708 165.758 50.9495 160.213 50.9495 153.354C50.9495 146.494 40.2708 140.949 27.1188 140.949C13.9667 140.949 3.28799 146.494 3.28799 153.354Z" fill="url(#paint93_radial_9_16864)"/>
<path style="mix-blend-mode:screen" fill-rule="evenodd" clip-rule="evenodd" d="M47.1378 152.274C47.3996 150.989 49.8729 150.668 50.7458 151.777C49.2619 145.677 39.2524 140.949 27.1188 140.949C13.9667 140.949 3.28799 146.494 3.28799 153.354C3.28799 155.251 4.10272 157.031 5.52849 158.607C5.4412 157.819 7.27434 157.119 9.13657 158.053C8.87469 157.79 47.1087 152.099 47.1378 152.244V152.274Z" fill="url(#paint94_linear_9_16864)"/>
<g style="mix-blend-mode:screen" opacity="0.75">
<path fill-rule="evenodd" clip-rule="evenodd" d="M7.09976 153.12C7.18705 158.87 16.2945 163.365 27.4097 163.19C38.5249 163.015 47.4869 158.199 47.3996 152.449C47.3123 146.699 38.2049 142.204 27.0897 142.379C15.9454 142.554 7.01246 147.37 7.09976 153.12Z" fill="#F6A410"/>
</g>
<path fill-rule="evenodd" clip-rule="evenodd" d="M6.98337 153.354C6.98337 159.133 16.0036 163.832 27.1188 163.832C38.234 163.832 47.2541 159.133 47.2541 153.354C47.2541 147.574 38.234 142.875 27.1188 142.875C16.0036 142.875 6.98337 147.574 6.98337 153.354Z" fill="url(#paint95_radial_9_16864)"/>
<path fill-rule="evenodd" clip-rule="evenodd" d="M27.1188 145.736C37.3028 145.736 45.712 149.676 47.0505 154.784C47.1669 154.317 47.2541 153.85 47.2541 153.354C47.2541 147.574 38.234 142.875 27.1188 142.875C16.0036 142.875 6.98337 147.574 6.98337 153.354C6.98337 153.85 7.07066 154.317 7.18705 154.784C8.52553 149.676 16.9347 145.736 27.1188 145.736Z" fill="url(#paint96_linear_9_16864)"/>
<path fill-rule="evenodd" clip-rule="evenodd" d="M26.5368 165.758C27.7007 165.233 29.9121 164.679 30.3486 164.62C32.0944 164.416 34.5968 164.62 35.2951 165.058C34.4513 166.838 32.8218 167.656 32.1817 167.714C31.2215 167.802 28.0499 167.276 26.5368 165.758Z" fill="url(#paint97_radial_9_16864)"/>
<path style="mix-blend-mode:screen" fill-rule="evenodd" clip-rule="evenodd" d="M32.1817 167.714C32.6181 167.685 33.5202 167.276 34.3058 166.459C34.6841 166.08 35.0041 165.613 35.2951 165.058C35.0914 164.941 34.7423 164.824 34.2767 164.766C33.2001 164.562 31.5706 164.503 30.3486 164.62C29.2138 164.737 31.6579 167.772 32.1817 167.714Z" fill="url(#paint98_radial_9_16864)"/>
<g opacity="0.8">
<g style="mix-blend-mode:screen">
<path d="M18.5059 165.146C18.5059 165.292 18.3895 165.437 18.215 165.437C18.0404 165.437 17.924 165.321 17.924 165.146C17.924 164.97 18.0404 164.854 18.215 164.854C18.3895 164.854 18.5059 164.97 18.5059 165.146Z" fill="#E0AD4F"/>
</g>
<g style="mix-blend-mode:screen">
<path d="M18.9424 165.146C18.9424 165.525 18.6223 165.846 18.2441 165.846C17.8658 165.846 17.5457 165.525 17.5457 165.146C17.5457 164.766 17.8658 164.445 18.2441 164.445C18.6223 164.445 18.9424 164.766 18.9424 165.146Z" fill="#FFF276"/>
</g>
</g>
<g opacity="0.8">
<g style="mix-blend-mode:screen">
<path d="M59.5914 191.794C59.5914 191.794 59.5042 191.998 59.3878 191.998C59.2714 191.998 59.1841 191.911 59.1841 191.794C59.1841 191.677 59.2714 191.59 59.3878 191.59C59.5042 191.59 59.5914 191.677 59.5914 191.794Z" fill="#E0AD4F"/>
</g>
<g style="mix-blend-mode:screen">
<path d="M59.9115 191.794C59.9115 192.086 59.6787 192.349 59.3587 192.349C59.0386 192.349 58.8058 192.115 58.8058 191.794C58.8058 191.473 59.0386 191.239 59.3587 191.239C59.6787 191.239 59.9115 191.473 59.9115 191.794Z" fill="#FFF276"/>
</g>
</g>
<defs>
<radialGradient id="paint0_radial_9_16864" cx="0" cy="0" r="1" gradientUnits="userSpaceOnUse" gradientTransform="translate(92.006 102.8) scale(112.17 112.519)">
<stop stop-color="#7A4037"/>
<stop offset="0.21" stop-color="#67362E"/>
<stop offset="0.64" stop-color="#381E16"/>
<stop offset="0.71" stop-color="#301A13"/>
</radialGradient>
<radialGradient id="paint1_radial_9_16864" cx="0" cy="0" r="1" gradientUnits="userSpaceOnUse" gradientTransform="translate(100.764 103.734) scale(90.7547 91.0368)">
<stop offset="0.64" stop-color="white"/>
<stop offset="0.73" stop-color="#E4E2F5"/>
<stop offset="0.84" stop-color="#C7C3EB"/>
<stop offset="0.93" stop-color="#B6B0E5"/>
<stop offset="1" stop-color="#B0AAE3"/>
</radialGradient>
<radialGradient id="paint2_radial_9_16864" cx="0" cy="0" r="1" gradientUnits="userSpaceOnUse" gradientTransform="translate(74.6931 107.149) scale(120.812 121.188)">
<stop offset="0.75"/>
<stop offset="0.78" stop-color="#030200"/>
<stop offset="0.82" stop-color="#0E0B00"/>
<stop offset="0.85" stop-color="#201A00"/>
<stop offset="0.88" stop-color="#3A2E00"/>
<stop offset="0.91" stop-color="#5B4900"/>
<stop offset="0.93" stop-color="#846900"/>
<stop offset="0.96" stop-color="#B49000"/>
<stop offset="0.99" stop-color="#EABB00"/>
<stop offset="1" stop-color="#FFCC00"/>
</radialGradient>
<radialGradient id="paint3_radial_9_16864" cx="0" cy="0" r="1" gradientUnits="userSpaceOnUse" gradientTransform="translate(83.5968 74.1087) scale(99.3385 99.6472)">
<stop stop-color="#2E1912"/>
<stop offset="0.04" stop-color="#311A13"/>
<stop offset="0.68" stop-color="#602C22"/>
<stop offset="1" stop-color="#733329"/>
</radialGradient>
<radialGradient id="paint4_radial_9_16864" cx="0" cy="0" r="1" gradientUnits="userSpaceOnUse" gradientTransform="translate(39.8343 30.5605) scale(17.7494 17.8046)">
<stop stop-color="#8C493F"/>
<stop offset="0.43" stop-color="#62342A"/>
<stop offset="0.79" stop-color="#45251C"/>
<stop offset="1" stop-color="#3B2017"/>
</radialGradient>
<radialGradient id="paint5_radial_9_16864" cx="0" cy="0" r="1" gradientUnits="userSpaceOnUse" gradientTransform="translate(63.4032 31.9907) scale(28.8937 28.9835)">
<stop stop-color="#82453B"/>
<stop offset="0.27" stop-color="#6F3B32"/>
<stop offset="0.81" stop-color="#40221A"/>
<stop offset="1" stop-color="#2E1912"/>
</radialGradient>
<radialGradient id="paint6_radial_9_16864" cx="0" cy="0" r="1" gradientUnits="userSpaceOnUse" gradientTransform="translate(77.8355 76.3562) scale(106.235 106.565)">
<stop stop-color="#B36F63"/>
<stop offset="0.23" stop-color="#A06256"/>
<stop offset="0.69" stop-color="#714236"/>
<stop offset="1" stop-color="#4D2A1E"/>
</radialGradient>
<linearGradient id="paint7_linear_9_16864" x1="48.1514" y1="33.5983" x2="85.897" y2="62.9336" gradientUnits="userSpaceOnUse">
<stop stop-color="#7A412D"/>
<stop offset="0.29" stop-color="#DB9F42"/>
<stop offset="0.35" stop-color="#CA8C38"/>
<stop offset="0.47" stop-color="#A05D21"/>
<stop offset="0.53" stop-color="#8C4616"/>
<stop offset="0.57" stop-color="#844116"/>
<stop offset="0.62" stop-color="#713517"/>
<stop offset="0.68" stop-color="#522219"/>
</linearGradient>
<linearGradient id="paint8_linear_9_16864" x1="49.7794" y1="31.5035" x2="53.4596" y2="34.3638" gradientUnits="userSpaceOnUse">
<stop stop-color="#C9A58D"/>
<stop offset="1" stop-color="#EFEDF2"/>
</linearGradient>
<linearGradient id="paint9_linear_9_16864" x1="79.8827" y1="56.5254" x2="86.7371" y2="61.8526" gradientUnits="userSpaceOnUse">
<stop offset="0.06" stop-color="white"/>
<stop offset="1" stop-color="#C9A58D"/>
</linearGradient>
<linearGradient id="paint10_linear_9_16864" x1="54.8492" y1="25.23" x2="92.1348" y2="54.2078" gradientUnits="userSpaceOnUse">
<stop stop-color="#FFF480"/>
<stop offset="1" stop-color="#995506"/>
</linearGradient>
<radialGradient id="paint11_radial_9_16864" cx="0" cy="0" r="1" gradientUnits="userSpaceOnUse" gradientTransform="translate(56.5097 37.1139) rotate(38.0262) scale(45.2414 45.2754)">
<stop stop-color="#FFD561"/>
<stop offset="0.03" stop-color="#F6CB5B"/>
<stop offset="0.21" stop-color="#C69640"/>
<stop offset="0.39" stop-color="#9E6A29"/>
<stop offset="0.57" stop-color="#7F4817"/>
<stop offset="0.73" stop-color="#692F0A"/>
<stop offset="0.88" stop-color="#5B2102"/>
<stop offset="1" stop-color="#571C00"/>
</radialGradient>
<linearGradient id="paint12_linear_9_16864" x1="81.3403" y1="13.2537" x2="67.8272" y2="62.0888" gradientUnits="userSpaceOnUse">
<stop stop-color="#D7924E"/>
<stop offset="0.19" stop-color="#A5703B"/>
<stop offset="0.48" stop-color="#5E4022"/>
<stop offset="0.72" stop-color="#2B1D0F"/>
<stop offset="0.9" stop-color="#0B0804"/>
<stop offset="1"/>
</linearGradient>
<radialGradient id="paint13_radial_9_16864" cx="0" cy="0" r="1" gradientUnits="userSpaceOnUse" gradientTransform="translate(504.91 84.3122) scale(37.1175 36.4956)">
<stop stop-color="#FFD561"/>
<stop offset="1" stop-color="#571C00"/>
</radialGradient>
<radialGradient id="paint14_radial_9_16864" cx="0" cy="0" r="1" gradientUnits="userSpaceOnUse" gradientTransform="translate(504.91 84.3122) scale(37.1175 36.4956)">
<stop stop-color="#FFD561"/>
<stop offset="1" stop-color="#571C00"/>
</radialGradient>
<linearGradient id="paint15_linear_9_16864" x1="61.1094" y1="22.8717" x2="93.1507" y2="47.7736" gradientUnits="userSpaceOnUse">
<stop stop-color="#592C0E"/>
<stop offset="0.4" stop-color="#9D6D2F"/>
<stop offset="0.71" stop-color="#CD9B46"/>
<stop offset="0.87" stop-color="#E0AD4F"/>
<stop offset="1" stop-color="#7A412D"/>
</linearGradient>
<radialGradient id="paint16_radial_9_16864" cx="0" cy="0" r="1" gradientUnits="userSpaceOnUse" gradientTransform="translate(49.9218 32.5246) rotate(54.4741) scale(19.4478 17.8741)">
<stop stop-color="#FFB736"/>
<stop offset="0.11" stop-color="#ECA433"/>
<stop offset="0.32" stop-color="#BC752B"/>
<stop offset="0.56" stop-color="#823C23"/>
<stop offset="1" stop-color="#4D2D18"/>
</radialGradient>
<radialGradient id="paint17_radial_9_16864" cx="0" cy="0" r="1" gradientUnits="userSpaceOnUse" gradientTransform="translate(54.3181 29.3662) rotate(54.4741) scale(8.07654 7.42296)">
<stop stop-color="#FFD642"/>
<stop offset="1"/>
</radialGradient>
<radialGradient id="paint18_radial_9_16864" cx="0" cy="0" r="1" gradientUnits="userSpaceOnUse" gradientTransform="translate(119.59 -0.553688) scale(36.5754 36.6891)">
<stop stop-color="#FFCC00"/>
<stop offset="0.15" stop-color="#EAB200"/>
<stop offset="0.35" stop-color="#D69800"/>
<stop offset="0.55" stop-color="#C78600"/>
<stop offset="0.76" stop-color="#BE7B00"/>
<stop offset="1" stop-color="#BC7800"/>
</radialGradient>
<linearGradient id="paint19_linear_9_16864" x1="80.696" y1="15.7083" x2="123.915" y2="36.1391" gradientUnits="userSpaceOnUse">
<stop stop-color="#7A412D"/>
<stop offset="0.29" stop-color="#DB9F42"/>
<stop offset="0.39" stop-color="#C98C39"/>
<stop offset="0.61" stop-color="#9B5D22"/>
<stop offset="0.73" stop-color="#7D3E14"/>
<stop offset="0.76" stop-color="#844411"/>
<stop offset="0.81" stop-color="#97560B"/>
<stop offset="0.86" stop-color="#BC7800"/>
<stop offset="0.89" stop-color="#B07007"/>
<stop offset="0.94" stop-color="#915C1C"/>
<stop offset="1" stop-color="#664039"/>
</linearGradient>
<linearGradient id="paint20_linear_9_16864" x1="81.8304" y1="13.3084" x2="86.0418" y2="15.2992" gradientUnits="userSpaceOnUse">
<stop stop-color="#C9A58D"/>
<stop offset="1" stop-color="#EFEDF2"/>
</linearGradient>
<linearGradient id="paint21_linear_9_16864" x1="116.629" y1="31.185" x2="124.499" y2="34.9054" gradientUnits="userSpaceOnUse">
<stop offset="0.06" stop-color="white"/>
<stop offset="1" stop-color="#C9A58D"/>
</linearGradient>
<linearGradient id="paint22_linear_9_16864" x1="85.6057" y1="5.62135" x2="128.272" y2="25.7909" gradientUnits="userSpaceOnUse">
<stop stop-color="#FFCC00"/>
<stop offset="1" stop-color="#EEDD79"/>
</linearGradient>
<radialGradient id="paint23_radial_9_16864" cx="0" cy="0" r="1" gradientUnits="userSpaceOnUse" gradientTransform="translate(89.6327 17.3237) rotate(25.4389) scale(45.2141 45.3028)">
<stop stop-color="#FFBE4F"/>
<stop offset="1" stop-color="#571C00"/>
</radialGradient>
<linearGradient id="paint24_linear_9_16864" x1="108.676" y1="-11.394" x2="106.134" y2="39.2502" gradientUnits="userSpaceOnUse">
<stop stop-color="#FFCC00"/>
<stop offset="0.11" stop-color="#CAA100"/>
<stop offset="0.24" stop-color="#957700"/>
<stop offset="0.37" stop-color="#675200"/>
<stop offset="0.5" stop-color="#423400"/>
<stop offset="0.63" stop-color="#251D00"/>
<stop offset="0.75" stop-color="#100D00"/>
<stop offset="0.88" stop-color="#040300"/>
<stop offset="1"/>
</linearGradient>
<radialGradient id="paint25_radial_9_16864" cx="0" cy="0" r="1" gradientUnits="userSpaceOnUse" gradientTransform="translate(87.565 27.4202) rotate(25.4389) scale(53.104 53.2082)">
<stop stop-color="#FFC145"/>
<stop offset="1" stop-color="#571C00"/>
</radialGradient>
<linearGradient id="paint26_linear_9_16864" x1="90.9798" y1="2.42772" x2="127.645" y2="19.7603" gradientUnits="userSpaceOnUse">
<stop stop-color="#592C0E"/>
<stop offset="0.4" stop-color="#9D6D2F"/>
<stop offset="0.71" stop-color="#CD9B46"/>
<stop offset="0.87" stop-color="#E0AD4F"/>
<stop offset="1" stop-color="#7A412D"/>
</linearGradient>
<radialGradient id="paint27_radial_9_16864" cx="0" cy="0" r="1" gradientUnits="userSpaceOnUse" gradientTransform="translate(116.011 26.5326) scale(20.4555 20.519)">
<stop stop-color="#9C71E3"/>
<stop offset="1" stop-color="white"/>
</radialGradient>
<radialGradient id="paint28_radial_9_16864" cx="0" cy="0" r="1" gradientUnits="userSpaceOnUse" gradientTransform="translate(79.1158 51.1379) scale(18.8842 18.9429)">
<stop stop-color="#9C71E3"/>
<stop offset="1" stop-color="white"/>
</radialGradient>
<linearGradient id="paint29_linear_9_16864" x1="78.3669" y1="50.1865" x2="120.21" y2="27.112" gradientUnits="userSpaceOnUse">
<stop stop-color="#7A412D"/>
<stop offset="0.29" stop-color="#DB9F42"/>
<stop offset="0.39" stop-color="#C98C39"/>
<stop offset="0.61" stop-color="#9B5D22"/>
<stop offset="0.73" stop-color="#7D3E14"/>
<stop offset="0.76" stop-color="#834515"/>
<stop offset="0.79" stop-color="#965819"/>
<stop offset="0.83" stop-color="#B6791F"/>
<stop offset="0.86" stop-color="#DEA228"/>
<stop offset="0.89" stop-color="#D29829"/>
<stop offset="0.92" stop-color="#B37F2E"/>
<stop offset="0.97" stop-color="#815635"/>
<stop offset="1" stop-color="#664039"/>
</linearGradient>
<linearGradient id="paint30_linear_9_16864" x1="77.0993" y1="47.8879" x2="81.179" y2="45.6381" gradientUnits="userSpaceOnUse">
<stop stop-color="#C9A58D"/>
<stop offset="1" stop-color="#EFEDF2"/>
</linearGradient>
<linearGradient id="paint31_linear_9_16864" x1="111.857" y1="29.9352" x2="119.456" y2="25.7449" gradientUnits="userSpaceOnUse">
<stop offset="0.06" stop-color="white"/>
<stop offset="1" stop-color="#C9A58D"/>
</linearGradient>
<radialGradient id="paint32_radial_9_16864" cx="0" cy="0" r="1" gradientUnits="userSpaceOnUse" gradientTransform="translate(114.585 24.4894) scale(18.9133 18.9721)">
<stop stop-color="#FFAA00"/>
<stop offset="1"/>
</radialGradient>
<radialGradient id="paint33_radial_9_16864" cx="0" cy="0" r="1" gradientUnits="userSpaceOnUse" gradientTransform="translate(84.8534 43.8551) rotate(-29.0254) scale(45.2212 45.2957)">
<stop stop-color="#FFD561"/>
<stop offset="1" stop-color="#571C00"/>
</radialGradient>
<linearGradient id="paint34_linear_9_16864" x1="72.7141" y1="11.5949" x2="112.372" y2="43.0582" gradientUnits="userSpaceOnUse">
<stop stop-color="#D7924E"/>
<stop offset="0.19" stop-color="#A5703B"/>
<stop offset="0.48" stop-color="#5E4022"/>
<stop offset="0.72" stop-color="#2B1D0F"/>
<stop offset="0.9" stop-color="#0B0804"/>
<stop offset="1"/>
</linearGradient>
<radialGradient id="paint35_radial_9_16864" cx="0" cy="0" r="1" gradientUnits="userSpaceOnUse" gradientTransform="translate(91.8486 51.4146) rotate(-29.0254) scale(53.1123 53.1998)">
<stop stop-color="#FFD561"/>
<stop offset="1" stop-color="#571C00"/>
</radialGradient>
<linearGradient id="paint36_linear_9_16864" x1="73.6087" y1="34.0551" x2="109.103" y2="14.4819" gradientUnits="userSpaceOnUse">
<stop stop-color="#592C0E"/>
<stop offset="0.4" stop-color="#9D6D2F"/>
<stop offset="0.71" stop-color="#CD9B46"/>
<stop offset="0.87" stop-color="#E0AD4F"/>
<stop offset="1" stop-color="#7A412D"/>
</linearGradient>
<linearGradient id="paint37_linear_9_16864" x1="115.895" y1="60.2351" x2="152.567" y2="29.515" gradientUnits="userSpaceOnUse">
<stop offset="0.22" stop-color="#4F1C0A"/>
<stop offset="0.31" stop-color="#541F0A"/>
<stop offset="0.43" stop-color="#642A0A"/>
<stop offset="0.49" stop-color="#70330B"/>
<stop offset="0.55" stop-color="#773A0C"/>
<stop offset="0.63" stop-color="#8A4D11"/>
<stop offset="0.73" stop-color="#AA6E1A"/>
<stop offset="0.85" stop-color="#D69A26"/>
<stop offset="0.86" stop-color="#DEA228"/>
<stop offset="0.89" stop-color="#D29829"/>
<stop offset="0.92" stop-color="#B37F2E"/>
<stop offset="0.97" stop-color="#815635"/>
<stop offset="1" stop-color="#664039"/>
</linearGradient>
<linearGradient id="paint38_linear_9_16864" x1="114.21" y1="58.2239" x2="117.784" y2="55.2305" gradientUnits="userSpaceOnUse">
<stop stop-color="#C9A58D"/>
<stop offset="1" stop-color="#EFEDF2"/>
</linearGradient>
<linearGradient id="paint39_linear_9_16864" x1="144.877" y1="33.9" x2="151.555" y2="28.3061" gradientUnits="userSpaceOnUse">
<stop offset="0.06" stop-color="white"/>
<stop offset="1" stop-color="#C9A58D"/>
</linearGradient>
<radialGradient id="paint40_radial_9_16864" cx="0" cy="0" r="1" gradientUnits="userSpaceOnUse" gradientTransform="translate(149.03 32.8135) rotate(-40.1276) scale(27.7364 27.7511)">
<stop stop-color="#FFAA00"/>
<stop offset="1"/>
</radialGradient>
<radialGradient id="paint41_radial_9_16864" cx="0" cy="0" r="1" gradientUnits="userSpaceOnUse" gradientTransform="translate(814.703 -52.9161) scale(45.6401 44.8754)">
<stop stop-color="#FFD561"/>
<stop offset="1" stop-color="#571C00"/>
</radialGradient>
<radialGradient id="paint42_radial_9_16864" cx="0" cy="0" r="1" gradientUnits="userSpaceOnUse" gradientTransform="translate(814.703 -52.9161) scale(45.6401 44.8754)">
<stop stop-color="#FFD561"/>
<stop offset="1" stop-color="#571C00"/>
</radialGradient>
<linearGradient id="paint43_linear_9_16864" x1="102.989" y1="23.4585" x2="147.887" y2="46.7008" gradientUnits="userSpaceOnUse">
<stop stop-color="#D7924E"/>
<stop offset="0.19" stop-color="#A5703B"/>
<stop offset="0.48" stop-color="#5E4022"/>
<stop offset="0.72" stop-color="#2B1D0F"/>
<stop offset="0.9" stop-color="#0B0804"/>
<stop offset="1"/>
</linearGradient>
<radialGradient id="paint44_radial_9_16864" cx="0" cy="0" r="1" gradientUnits="userSpaceOnUse" gradientTransform="translate(818.054 -58.5219) scale(53.6044 52.7062)">
<stop stop-color="#FFD561"/>
<stop offset="1" stop-color="#571C00"/>
</radialGradient>
<radialGradient id="paint45_radial_9_16864" cx="0" cy="0" r="1" gradientUnits="userSpaceOnUse" gradientTransform="translate(818.054 -58.5219) scale(53.6044 52.7062)">
<stop stop-color="#FFD561"/>
<stop offset="1" stop-color="#571C00"/>
</radialGradient>
<linearGradient id="paint46_linear_9_16864" x1="108.149" y1="45.3513" x2="139.26" y2="19.2898" gradientUnits="userSpaceOnUse">
<stop stop-color="#592400"/>
<stop offset="0.12" stop-color="#5F2A02"/>
<stop offset="0.29" stop-color="#723B08"/>
<stop offset="0.49" stop-color="#915712"/>
<stop offset="0.7" stop-color="#BB7E20"/>
<stop offset="0.87" stop-color="#E0A12D"/>
<stop offset="1" stop-color="#7A412D"/>
</linearGradient>
<radialGradient id="paint47_radial_9_16864" cx="0" cy="0" r="1" gradientUnits="userSpaceOnUse" gradientTransform="translate(170.223 18.6318) rotate(9.72957) scale(14.2473 14.2891)">
<stop stop-color="#FFB736"/>
<stop offset="0.11" stop-color="#ECA433"/>
<stop offset="0.32" stop-color="#BC752B"/>
<stop offset="0.56" stop-color="#823C23"/>
<stop offset="1" stop-color="#4D2D18"/>
</radialGradient>
<radialGradient id="paint48_radial_9_16864" cx="0" cy="0" r="1" gradientUnits="userSpaceOnUse" gradientTransform="translate(175.689 19.5992) rotate(9.72957) scale(8.16253 8.18646)">
<stop stop-color="#FFD642"/>
<stop offset="1"/>
</radialGradient>
<linearGradient id="paint49_linear_9_16864" x1="80.8752" y1="51.7146" x2="127.36" y2="62.6607" gradientUnits="userSpaceOnUse">
<stop stop-color="#7A412D"/>
<stop offset="0.29" stop-color="#DB9F42"/>
<stop offset="0.39" stop-color="#C98C39"/>
<stop offset="0.61" stop-color="#9B5D22"/>
<stop offset="0.73" stop-color="#7D3E14"/>
<stop offset="0.76" stop-color="#844411"/>
<stop offset="0.81" stop-color="#97560B"/>
<stop offset="0.86" stop-color="#BC7800"/>
<stop offset="0.89" stop-color="#B07007"/>
<stop offset="0.94" stop-color="#915C1C"/>
<stop offset="1" stop-color="#664039"/>
</linearGradient>
<linearGradient id="paint50_linear_9_16864" x1="81.4839" y1="49.1297" x2="86.0163" y2="50.1969" gradientUnits="userSpaceOnUse">
<stop stop-color="#C9A58D"/>
<stop offset="1" stop-color="#EFEDF2"/>
</linearGradient>
<linearGradient id="paint51_linear_9_16864" x1="119.248" y1="59.277" x2="127.689" y2="61.2647" gradientUnits="userSpaceOnUse">
<stop offset="0.06" stop-color="white"/>
<stop offset="1" stop-color="#C9A58D"/>
</linearGradient>
<linearGradient id="paint52_linear_9_16864" x1="83.5937" y1="40.7924" x2="129.484" y2="51.5984" gradientUnits="userSpaceOnUse">
<stop stop-color="#EEDD79"/>
<stop offset="1" stop-color="#FFAA00"/>
</linearGradient>
<radialGradient id="paint53_radial_9_16864" cx="0" cy="0" r="1" gradientUnits="userSpaceOnUse" gradientTransform="translate(90.0051 51.4091) rotate(13.3198) scale(45.1957 45.3212)">
<stop stop-color="#FFD561"/>
<stop offset="1" stop-color="#571C00"/>
</radialGradient>
<linearGradient id="paint54_linear_9_16864" x1="102.553" y1="19.332" x2="110.733" y2="69.356" gradientUnits="userSpaceOnUse">
<stop stop-color="#D7924E"/>
<stop offset="0.19" stop-color="#A5703B"/>
<stop offset="0.48" stop-color="#5E4022"/>
<stop offset="0.72" stop-color="#2B1D0F"/>
<stop offset="0.9" stop-color="#0B0804"/>
<stop offset="1"/>
</linearGradient>
<radialGradient id="paint55_radial_9_16864" cx="0" cy="0" r="1" gradientUnits="userSpaceOnUse" gradientTransform="translate(90.1263 61.6943) rotate(13.3198) scale(53.0824 53.2298)">
<stop stop-color="#FFD561"/>
<stop offset="1" stop-color="#571C00"/>
</radialGradient>
<linearGradient id="paint56_linear_9_16864" x1="88.1542" y1="36.5346" x2="127.614" y2="45.8264" gradientUnits="userSpaceOnUse">
<stop stop-color="#592C0E"/>
<stop offset="0.4" stop-color="#9D6D2F"/>
<stop offset="0.71" stop-color="#CD9B46"/>
<stop offset="0.87" stop-color="#E0AD4F"/>
<stop offset="1" stop-color="#7A412D"/>
</linearGradient>
<radialGradient id="paint57_radial_9_16864" cx="0" cy="0" r="1" gradientUnits="userSpaceOnUse" gradientTransform="translate(121.976 61.9666) scale(18.8842 18.9429)">
<stop stop-color="#9C71E3"/>
<stop offset="1" stop-color="white"/>
</radialGradient>
<radialGradient id="paint58_radial_9_16864" cx="0" cy="0" r="1" gradientUnits="userSpaceOnUse" gradientTransform="translate(86.8848 49.0072) scale(82.6366 82.8934)">
<stop stop-color="#8C493F"/>
<stop offset="0.2" stop-color="#793F35"/>
<stop offset="0.59" stop-color="#4A271E"/>
<stop offset="0.71" stop-color="#3B2017"/>
<stop offset="0.8" stop-color="#402317"/>
<stop offset="0.91" stop-color="#502C18"/>
<stop offset="1" stop-color="#63381A"/>
</radialGradient>
<radialGradient id="paint59_radial_9_16864" cx="0" cy="0" r="1" gradientUnits="userSpaceOnUse" gradientTransform="translate(97.5635 14.1861) scale(74.0237 74.2538)">
<stop offset="0.89" stop-color="white"/>
<stop offset="0.9" stop-color="#FAF9F9"/>
<stop offset="0.92" stop-color="#EDEBE9"/>
<stop offset="0.94" stop-color="#D8D2CF"/>
<stop offset="0.96" stop-color="#BBB0AA"/>
<stop offset="0.98" stop-color="#95857B"/>
<stop offset="1" stop-color="#695244"/>
</radialGradient>
<radialGradient id="paint60_radial_9_16864" cx="0" cy="0" r="1" gradientUnits="userSpaceOnUse" gradientTransform="translate(78.9412 71.3651) scale(104.169 104.492)">
<stop stop-color="#B36F63"/>
<stop offset="0.23" stop-color="#A06256"/>
<stop offset="0.69" stop-color="#714236"/>
<stop offset="1" stop-color="#4D2A1E"/>
</radialGradient>
<radialGradient id="paint61_radial_9_16864" cx="0" cy="0" r="1" gradientUnits="userSpaceOnUse" gradientTransform="translate(87.4958 55.7495) scale(33.9276 34.033)">
<stop stop-color="#664039"/>
<stop offset="0.13" stop-color="#694337"/>
<stop offset="0.24" stop-color="#744D33"/>
<stop offset="0.35" stop-color="#865D2C"/>
<stop offset="0.46" stop-color="#A07523"/>
<stop offset="0.56" stop-color="#C19316"/>
<stop offset="0.67" stop-color="#E9B808"/>
<stop offset="0.71" stop-color="#FFCC00"/>
<stop offset="1" stop-color="#000300"/>
</radialGradient>
<radialGradient id="paint62_radial_9_16864" cx="0" cy="0" r="1" gradientUnits="userSpaceOnUse" gradientTransform="translate(78.7084 68.5923) scale(80.4543 80.7043)">
<stop stop-color="#DEB98E"/>
<stop offset="0.08" stop-color="#C09B74"/>
<stop offset="0.17" stop-color="#A47E5C"/>
<stop offset="0.26" stop-color="#8E6849"/>
<stop offset="0.37" stop-color="#7F583C"/>
<stop offset="0.49" stop-color="#754E34"/>
<stop offset="0.66" stop-color="#734C32"/>
<stop offset="1" stop-color="#4F2D17"/>
</radialGradient>
<radialGradient id="paint63_radial_9_16864" cx="0" cy="0" r="1" gradientUnits="userSpaceOnUse" gradientTransform="translate(122.645 74.926) scale(35.4697 35.58)">
<stop offset="0.6" stop-color="white"/>
<stop offset="0.64" stop-color="#FBFAF9"/>
<stop offset="0.69" stop-color="#F2ECE9"/>
<stop offset="0.75" stop-color="#E2D6CF"/>
<stop offset="0.82" stop-color="#CBB7AA"/>
<stop offset="0.88" stop-color="#AF8F7B"/>
<stop offset="0.95" stop-color="#8D5F42"/>
<stop offset="1" stop-color="#733B17"/>
</radialGradient>
<radialGradient id="paint64_radial_9_16864" cx="0" cy="0" r="1" gradientUnits="userSpaceOnUse" gradientTransform="translate(116.273 61.1493) scale(39.9216 40.0457)">
<stop offset="0.43"/>
<stop offset="0.49" stop-color="#050300"/>
<stop offset="0.56" stop-color="#150E00"/>
<stop offset="0.64" stop-color="#2F1F00"/>
<stop offset="0.72" stop-color="#543700"/>
<stop offset="0.81" stop-color="#835600"/>
<stop offset="0.91" stop-color="#BD7C00"/>
<stop offset="1" stop-color="#FFA700"/>
</radialGradient>
<radialGradient id="paint65_radial_9_16864" cx="0" cy="0" r="1" gradientUnits="userSpaceOnUse" gradientTransform="translate(131.986 62.8714) scale(30.1158 30.2094)">
<stop offset="0.43"/>
<stop offset="0.49" stop-color="#050300"/>
<stop offset="0.56" stop-color="#150E00"/>
<stop offset="0.64" stop-color="#2F1F00"/>
<stop offset="0.72" stop-color="#543700"/>
<stop offset="0.81" stop-color="#835600"/>
<stop offset="0.91" stop-color="#BD7C00"/>
<stop offset="1" stop-color="#FFA700"/>
</radialGradient>
<radialGradient id="paint66_radial_9_16864" cx="0" cy="0" r="1" gradientUnits="userSpaceOnUse" gradientTransform="translate(137.631 66.0237) scale(19.2624 19.3223)">
<stop offset="0.43"/>
<stop offset="0.49" stop-color="#050300"/>
<stop offset="0.56" stop-color="#150E00"/>
<stop offset="0.64" stop-color="#2F1F00"/>
<stop offset="0.72" stop-color="#543700"/>
<stop offset="0.81" stop-color="#835600"/>
<stop offset="0.91" stop-color="#BD7C00"/>
<stop offset="1" stop-color="#FFA700"/>
</radialGradient>
<radialGradient id="paint67_radial_9_16864" cx="0" cy="0" r="1" gradientUnits="userSpaceOnUse" gradientTransform="translate(78.9121 62.813) scale(35.7025 35.8134)">
<stop offset="0.6" stop-color="white"/>
<stop offset="0.64" stop-color="#FBFAF9"/>
<stop offset="0.69" stop-color="#F2ECE9"/>
<stop offset="0.75" stop-color="#E2D6CF"/>
<stop offset="0.82" stop-color="#CBB7AA"/>
<stop offset="0.88" stop-color="#AF8F7B"/>
<stop offset="0.95" stop-color="#8D5F42"/>
<stop offset="1" stop-color="#733B17"/>
</radialGradient>
<radialGradient id="paint68_radial_9_16864" cx="0" cy="0" r="1" gradientUnits="userSpaceOnUse" gradientTransform="translate(92.7916 64.4476) scale(38.4958 38.6155)">
<stop offset="0.6" stop-color="white"/>
<stop offset="0.64" stop-color="#FBFAF9"/>
<stop offset="0.69" stop-color="#F2ECE9"/>
<stop offset="0.75" stop-color="#E2D6CF"/>
<stop offset="0.82" stop-color="#CBB7AA"/>
<stop offset="0.88" stop-color="#AF8F7B"/>
<stop offset="0.95" stop-color="#8D5F42"/>
<stop offset="1" stop-color="#733B17"/>
</radialGradient>
<radialGradient id="paint69_radial_9_16864" cx="0" cy="0" r="1" gradientUnits="userSpaceOnUse" gradientTransform="translate(67.0113 65.9654) scale(25.1692 25.2475)">
<stop offset="0.6" stop-color="white"/>
<stop offset="0.64" stop-color="#FBFAF9"/>
<stop offset="0.69" stop-color="#F2ECE9"/>
<stop offset="0.75" stop-color="#E2D6CF"/>
<stop offset="0.82" stop-color="#CBB7AA"/>
<stop offset="0.88" stop-color="#AF8F7B"/>
<stop offset="0.95" stop-color="#8D5F42"/>
<stop offset="1" stop-color="#733B17"/>
</radialGradient>
<radialGradient id="paint70_radial_9_16864" cx="0" cy="0" r="1" gradientUnits="userSpaceOnUse" gradientTransform="translate(107.544 78.6037) scale(28.1663 28.2538)">
<stop offset="0.43"/>
<stop offset="0.49" stop-color="#050300"/>
<stop offset="0.56" stop-color="#150E00"/>
<stop offset="0.64" stop-color="#2F1F00"/>
<stop offset="0.72" stop-color="#543700"/>
<stop offset="0.81" stop-color="#835600"/>
<stop offset="0.91" stop-color="#BD7C00"/>
<stop offset="1" stop-color="#FFA700"/>
</radialGradient>
<linearGradient id="paint71_linear_9_16864" x1="0.116378" y1="173.756" x2="47.5742" y2="173.756" gradientUnits="userSpaceOnUse">
<stop stop-color="#7A412D"/>
<stop offset="0.29" stop-color="#DB9F42"/>
<stop offset="0.35" stop-color="#C68937"/>
<stop offset="0.5" stop-color="#9E6024"/>
<stop offset="0.61" stop-color="#864718"/>
<stop offset="0.68" stop-color="#7D3E14"/>
<stop offset="0.72" stop-color="#834510"/>
<stop offset="0.77" stop-color="#955806"/>
<stop offset="0.8" stop-color="#A16600"/>
<stop offset="0.93" stop-color="#804710"/>
<stop offset="1" stop-color="#733B17"/>
</linearGradient>
<linearGradient id="paint72_linear_9_16864" x1="0.116394" y1="171.129" x2="4.74288" y2="171.129" gradientUnits="userSpaceOnUse">
<stop stop-color="#C9A58D"/>
<stop offset="1" stop-color="#EFEDF2"/>
</linearGradient>
<linearGradient id="paint73_linear_9_16864" x1="38.9323" y1="172.297" x2="47.5742" y2="172.297" gradientUnits="userSpaceOnUse">
<stop offset="0.06" stop-color="white"/>
<stop offset="1" stop-color="#C9A58D"/>
</linearGradient>
<linearGradient id="paint74_linear_9_16864" x1="0.232788" y1="162.606" x2="47.0796" y2="162.606" gradientUnits="userSpaceOnUse">
<stop stop-color="#EEDD79"/>
<stop offset="1" stop-color="#995506"/>
</linearGradient>
<radialGradient id="paint75_radial_9_16864" cx="0" cy="0" r="1" gradientUnits="userSpaceOnUse" gradientTransform="translate(8.81651 171.392) scale(44.9264 45.066)">
<stop stop-color="#EBB932"/>
<stop offset="1" stop-color="#571C00"/>
</radialGradient>
<radialGradient id="paint76_radial_9_16864" cx="0" cy="0" r="1" gradientUnits="userSpaceOnUse" gradientTransform="translate(11.2607 181.316) scale(52.7536 52.9175)">
<stop stop-color="#FFD561"/>
<stop offset="1" stop-color="#571C00"/>
</radialGradient>
<radialGradient id="paint77_radial_9_16864" cx="0" cy="0" r="1" gradientUnits="userSpaceOnUse" gradientTransform="translate(30.3486 146.378) scale(34.655 34.7627)">
<stop offset="0.92" stop-color="#733B17"/>
<stop offset="0.93" stop-color="#8D5F42"/>
<stop offset="0.95" stop-color="#AF8F7B"/>
<stop offset="0.96" stop-color="#CBB7AA"/>
<stop offset="0.97" stop-color="#E2D6CF"/>
<stop offset="0.98" stop-color="#F2ECE9"/>
<stop offset="0.99" stop-color="#FBFAF9"/>
<stop offset="1" stop-color="white"/>
</radialGradient>
<linearGradient id="paint78_linear_9_16864" x1="3.69537" y1="157.44" x2="43.9662" y2="157.44" gradientUnits="userSpaceOnUse">
<stop stop-color="#592C0E"/>
<stop offset="0.4" stop-color="#9D6D2F"/>
<stop offset="0.71" stop-color="#CD9B46"/>
<stop offset="0.87" stop-color="#E0AD4F"/>
<stop offset="1" stop-color="#7A412D"/>
</linearGradient>
<linearGradient id="paint79_linear_9_16864" x1="42.5986" y1="191.181" x2="90.0564" y2="191.181" gradientUnits="userSpaceOnUse">
<stop stop-color="#7A412D"/>
<stop offset="0.29" stop-color="#DB9F42"/>
<stop offset="0.37" stop-color="#C98C39"/>
<stop offset="0.54" stop-color="#9B5D22"/>
<stop offset="0.64" stop-color="#7D3E14"/>
<stop offset="0.67" stop-color="#844411"/>
<stop offset="0.72" stop-color="#97560B"/>
<stop offset="0.77" stop-color="#B77401"/>
<stop offset="0.78" stop-color="#BC7800"/>
<stop offset="0.84" stop-color="#9B6215"/>
<stop offset="0.9" stop-color="#7E4F28"/>
<stop offset="0.96" stop-color="#6C4434"/>
<stop offset="1" stop-color="#664039"/>
</linearGradient>
<linearGradient id="paint80_linear_9_16864" x1="42.5986" y1="188.554" x2="47.2251" y2="188.554" gradientUnits="userSpaceOnUse">
<stop stop-color="#C9A58D"/>
<stop offset="1" stop-color="#EFEDF2"/>
</linearGradient>
<linearGradient id="paint81_linear_9_16864" x1="81.4145" y1="189.722" x2="90.0564" y2="189.722" gradientUnits="userSpaceOnUse">
<stop offset="0.06" stop-color="white"/>
<stop offset="1" stop-color="#C97A1F"/>
</linearGradient>
<linearGradient id="paint82_linear_9_16864" x1="42.715" y1="180.527" x2="89.5618" y2="180.527" gradientUnits="userSpaceOnUse">
<stop stop-color="#EEDD79"/>
<stop offset="1" stop-color="#FFAA00"/>
</linearGradient>
<radialGradient id="paint83_radial_9_16864" cx="0" cy="0" r="1" gradientUnits="userSpaceOnUse" gradientTransform="translate(51.2987 188.817) scale(44.9264 45.066)">
<stop stop-color="#FFD561"/>
<stop offset="1" stop-color="#571C00"/>
</radialGradient>
<linearGradient id="paint84_linear_9_16864" x1="56.187" y1="154.901" x2="75.5517" y2="201.413" gradientUnits="userSpaceOnUse">
<stop stop-color="#D7924E"/>
<stop offset="0.19" stop-color="#A5703B"/>
<stop offset="0.48" stop-color="#5E4022"/>
<stop offset="0.72" stop-color="#2B1D0F"/>
<stop offset="0.9" stop-color="#0B0804"/>
<stop offset="1"/>
</linearGradient>
<radialGradient id="paint85_radial_9_16864" cx="0" cy="0" r="1" gradientUnits="userSpaceOnUse" gradientTransform="translate(53.7429 198.741) scale(52.7536 52.9175)">
<stop stop-color="#FFD561"/>
<stop offset="1" stop-color="#571C00"/>
</radialGradient>
<linearGradient id="paint86_linear_9_16864" x1="46.1776" y1="174.865" x2="86.4483" y2="174.865" gradientUnits="userSpaceOnUse">
<stop stop-color="#592C0E"/>
<stop offset="0.4" stop-color="#9D6D2F"/>
<stop offset="0.71" stop-color="#CD9B46"/>
<stop offset="0.87" stop-color="#E0AD4F"/>
<stop offset="1" stop-color="#7A412D"/>
</linearGradient>
<radialGradient id="paint87_radial_9_16864" cx="0" cy="0" r="1" gradientUnits="userSpaceOnUse" gradientTransform="translate(47.9961 191.424) rotate(16.4984) scale(19.2964 17.799)">
<stop stop-color="#FFB736"/>
<stop offset="0.11" stop-color="#ECA433"/>
<stop offset="0.32" stop-color="#BC752B"/>
<stop offset="0.56" stop-color="#823C23"/>
<stop offset="1" stop-color="#4D2D18"/>
</radialGradient>
<radialGradient id="paint88_radial_9_16864" cx="0" cy="0" r="1" gradientUnits="userSpaceOnUse" gradientTransform="translate(49.5198 186.248) rotate(16.4984) scale(8.00378 7.3827)">
<stop stop-color="#FFD642"/>
<stop offset="1"/>
</radialGradient>
<linearGradient id="paint89_linear_9_16864" x1="3.40439" y1="165.145" x2="50.8622" y2="165.145" gradientUnits="userSpaceOnUse">
<stop stop-color="#7A412D"/>
<stop offset="0.29" stop-color="#DB9F42"/>
<stop offset="0.37" stop-color="#C98C39"/>
<stop offset="0.54" stop-color="#9B5D22"/>
<stop offset="0.64" stop-color="#7D3E14"/>
<stop offset="0.67" stop-color="#844411"/>
<stop offset="0.72" stop-color="#97560B"/>
<stop offset="0.77" stop-color="#B77401"/>
<stop offset="0.78" stop-color="#BC7800"/>
<stop offset="0.84" stop-color="#9B6215"/>
<stop offset="0.9" stop-color="#7E4F28"/>
<stop offset="0.96" stop-color="#6C4434"/>
<stop offset="1" stop-color="#664039"/>
</linearGradient>
<linearGradient id="paint90_linear_9_16864" x1="3.40439" y1="162.519" x2="8.03087" y2="162.519" gradientUnits="userSpaceOnUse">
<stop stop-color="#C9A58D"/>
<stop offset="1" stop-color="#EFEDF2"/>
</linearGradient>
<linearGradient id="paint91_linear_9_16864" x1="42.2494" y1="163.686" x2="50.8622" y2="163.686" gradientUnits="userSpaceOnUse">
<stop offset="0.06" stop-color="white"/>
<stop offset="1" stop-color="#C97A1F"/>
</linearGradient>
<linearGradient id="paint92_linear_9_16864" x1="3.52078" y1="154.784" x2="50.3967" y2="154.784" gradientUnits="userSpaceOnUse">
<stop stop-color="#EEDD79"/>
<stop offset="1" stop-color="#FFAA00"/>
</linearGradient>
<radialGradient id="paint93_radial_9_16864" cx="0" cy="0" r="1" gradientUnits="userSpaceOnUse" gradientTransform="translate(12.1336 162.781) scale(44.9264 45.066)">
<stop stop-color="#FFD561"/>
<stop offset="1" stop-color="#571C00"/>
</radialGradient>
<linearGradient id="paint94_linear_9_16864" x1="17.022" y1="128.865" x2="36.3574" y2="175.348" gradientUnits="userSpaceOnUse">
<stop stop-color="#D7924E"/>
<stop offset="0.19" stop-color="#A5703B"/>
<stop offset="0.48" stop-color="#5E4022"/>
<stop offset="0.72" stop-color="#2B1D0F"/>
<stop offset="0.9" stop-color="#0B0804"/>
<stop offset="1"/>
</linearGradient>
<radialGradient id="paint95_radial_9_16864" cx="0" cy="0" r="1" gradientUnits="userSpaceOnUse" gradientTransform="translate(14.5778 172.705) scale(52.7536 52.9175)">
<stop stop-color="#FFD561"/>
<stop offset="1" stop-color="#571C00"/>
</radialGradient>
<linearGradient id="paint96_linear_9_16864" x1="6.98337" y1="148.83" x2="47.2541" y2="148.83" gradientUnits="userSpaceOnUse">
<stop stop-color="#592C0E"/>
<stop offset="0.4" stop-color="#9D6D2F"/>
<stop offset="0.71" stop-color="#CD9B46"/>
<stop offset="0.87" stop-color="#E0AD4F"/>
<stop offset="1" stop-color="#7A412D"/>
</linearGradient>
<radialGradient id="paint97_radial_9_16864" cx="0" cy="0" r="1" gradientUnits="userSpaceOnUse" gradientTransform="translate(44.6609 165.076) rotate(-34.4329) scale(14.6205 14.9268)">
<stop stop-color="#FFB736"/>
<stop offset="0.11" stop-color="#ECA433"/>
<stop offset="0.32" stop-color="#BC752B"/>
<stop offset="0.56" stop-color="#823C23"/>
<stop offset="1" stop-color="#4D2D18"/>
</radialGradient>
<radialGradient id="paint98_radial_9_16864" cx="0" cy="0" r="1" gradientUnits="userSpaceOnUse" gradientTransform="translate(47.5247 159.144) rotate(-34.4329) scale(8.23689 8.40945)">
<stop stop-color="#FFD642"/>
<stop offset="1"/>
</radialGradient>
</defs>
</svg>
