<svg width="179" height="133" viewBox="0 0 179 133" fill="none" xmlns="http://www.w3.org/2000/svg">
<g style="mix-blend-mode:multiply" opacity="0.5">
<path d="M119.789 90.0346C119.396 95.3032 107.616 98.6516 93.4791 97.519C79.3426 96.3865 68.2495 91.2656 68.6421 85.9969C69.0348 80.7282 80.8152 77.3799 94.9516 78.5124C109.088 79.645 120.181 84.7659 119.789 90.0346Z" fill="#261710"/>
</g>
<path fill-rule="evenodd" clip-rule="evenodd" d="M61.8684 86.4893C61.9175 86.834 62.0156 87.2279 62.1629 87.5726C63.2428 90.9209 66.286 93.8753 70.6055 96.0418C75.7594 98.7008 82.7785 100.276 90.4358 100.276C98.093 100.276 105.112 98.6516 110.266 96.0418C114.586 93.826 117.629 90.8717 118.709 87.5726C118.807 87.2279 118.905 86.834 119.003 86.4893C118.856 84.4212 119.101 76.2474 119.445 74.2286H61.4266C61.7702 76.2474 62.0156 84.4212 61.8684 86.4893Z" fill="url(#paint0_linear_9_15825)"/>
<path style="mix-blend-mode:multiply" fill-rule="evenodd" clip-rule="evenodd" d="M62.1138 87.5726C62.8501 89.8868 64.6171 92.0534 67.0223 93.8753C66.7278 91.9057 66.6787 82.7471 66.9732 81.8607C65.8442 81.0729 64.8135 80.1866 63.979 79.251C63.3409 78.5617 62.8501 77.8231 62.4083 77.0845C61.8684 76.1489 61.5248 75.1641 61.3284 74.1793C61.672 76.1982 61.9174 84.372 61.7702 86.4401C61.8193 86.7847 61.9174 87.1787 62.0647 87.5233L62.1138 87.5726Z" fill="url(#paint1_linear_9_15825)"/>
<path style="mix-blend-mode:multiply" fill-rule="evenodd" clip-rule="evenodd" d="M108.941 84.8644C109.383 86.5878 109.383 95.5002 108.892 96.7805C109.334 96.5835 109.824 96.3373 110.266 96.1404C114.586 93.9246 117.629 90.9702 118.709 87.6711C118.807 87.3264 118.905 86.9325 119.003 86.5878C118.856 84.5197 119.101 76.3952 119.445 74.3271C118.954 77.0845 117.089 79.5958 114.193 81.7131C112.72 82.8948 110.953 83.9781 108.941 84.9137V84.8644Z" fill="url(#paint2_linear_9_15825)"/>
<path style="mix-blend-mode:screen" fill-rule="evenodd" clip-rule="evenodd" d="M61.5738 73.6377C61.5738 82.1069 74.385 89.0005 90.2394 89.0005C106.094 89.0005 118.905 82.1069 118.905 73.6377C118.905 65.1684 106.094 58.2748 90.2394 58.2748C74.385 58.2748 61.5738 65.1684 61.5738 73.6377Z" fill="url(#paint3_linear_9_15825)"/>
<path fill-rule="evenodd" clip-rule="evenodd" d="M61.2793 72.8498C61.2793 81.2206 74.3359 88.0157 90.4358 88.0157C106.536 88.0157 119.592 81.2206 119.592 72.8498C119.592 64.4791 106.536 57.684 90.4358 57.684C74.3359 57.684 61.2793 64.4791 61.2793 72.8498Z" fill="url(#paint4_radial_9_15825)"/>
<g style="mix-blend-mode:screen" opacity="0.75">
<path fill-rule="evenodd" clip-rule="evenodd" d="M65.9424 72.5543C66.0406 79.5957 77.1829 85.1105 90.7794 84.8643C104.376 84.6674 115.322 78.7586 115.224 71.7665C115.126 64.7252 103.983 59.2103 90.3867 59.4565C76.7902 59.6535 65.8443 65.5623 65.9424 72.5543Z" fill="#F6A410"/>
</g>
<path fill-rule="evenodd" clip-rule="evenodd" d="M65.7952 72.8498C65.7952 79.9403 76.8393 85.6522 90.4358 85.6522C104.032 85.6522 115.076 79.8911 115.076 72.8498C115.076 65.8085 104.032 60.0474 90.4358 60.0474C76.8393 60.0474 65.7952 65.8085 65.7952 72.8498Z" fill="url(#paint5_radial_9_15825)"/>
<path style="mix-blend-mode:multiply" opacity="0.45" fill-rule="evenodd" clip-rule="evenodd" d="M69.3783 76.3459C67.9058 83.6826 77.5264 91.8564 90.9266 94.5646C104.278 97.2728 116.304 93.4813 117.776 86.1446C119.249 78.8079 109.628 70.634 96.2278 67.9258C82.8767 65.2177 70.8509 69.0091 69.3783 76.3459Z" fill="url(#paint6_radial_9_15825)"/>
<path fill-rule="evenodd" clip-rule="evenodd" d="M90.4358 63.5435C102.903 63.5435 113.162 68.369 114.782 74.6224C114.929 74.0316 115.027 73.4899 115.027 72.899C115.027 65.8085 103.983 60.0967 90.3867 60.0967C76.7902 60.0967 65.7461 65.8577 65.7461 72.899C65.7461 73.4899 65.8443 74.0808 65.9915 74.6224C67.6113 68.369 77.9192 63.5435 90.3377 63.5435H90.4358Z" fill="url(#paint7_linear_9_15825)"/>
<path fill-rule="evenodd" clip-rule="evenodd" d="M65.8934 76.0012C65.9425 76.3459 66.0407 76.7398 66.1879 77.0845C67.2678 80.4328 70.3111 83.3872 74.6305 85.5537C79.7844 88.2127 86.8036 89.7883 94.4608 89.7883C102.118 89.7883 109.137 88.1634 114.291 85.5537C118.611 83.3379 121.654 80.3835 122.734 77.0845C122.832 76.7398 122.93 76.3459 123.028 76.0012C122.881 73.9331 123.126 65.7593 123.47 63.7404H65.4517C65.7952 65.7593 66.0407 73.9331 65.8934 76.0012Z" fill="url(#paint8_linear_9_15825)"/>
<path style="mix-blend-mode:multiply" fill-rule="evenodd" clip-rule="evenodd" d="M66.1879 77.0845C66.9242 79.3988 68.6912 81.5653 71.0964 83.3872C70.8019 81.4176 70.7528 72.259 71.0473 71.3727C69.9183 70.5848 68.8876 69.6985 68.0531 68.763C67.415 68.0736 66.9242 67.335 66.4824 66.5964C65.9425 65.6608 65.5989 64.6761 65.4025 63.6913C65.7461 65.7101 65.9916 73.8839 65.8443 75.952C65.8934 76.2967 65.9916 76.6906 66.1388 77.0353L66.1879 77.0845Z" fill="url(#paint9_linear_9_15825)"/>
<path style="mix-blend-mode:multiply" fill-rule="evenodd" clip-rule="evenodd" d="M112.966 74.3271C113.408 76.0505 113.408 84.9629 112.917 86.2432C113.359 86.0462 113.849 85.8 114.291 85.603C118.611 83.3872 121.654 80.4328 122.734 77.1338C122.832 76.7891 122.93 76.3952 123.028 76.0505C122.881 73.9824 123.126 65.8578 123.47 63.7898C122.979 66.5472 121.114 69.0584 118.218 71.1757C116.745 72.3575 114.978 73.4408 112.966 74.3763V74.3271Z" fill="url(#paint10_linear_9_15825)"/>
<path style="mix-blend-mode:screen" fill-rule="evenodd" clip-rule="evenodd" d="M65.5989 63.1004C65.5989 71.3727 77.7719 78.1186 92.9882 78.4632C96.326 80.5806 100.351 80.4328 100.744 80.3836C102.511 80.1374 103.983 78.7094 105.75 77.183C115.813 74.8195 122.881 69.4031 122.881 63.1004C122.881 54.6311 110.07 47.7375 94.2154 47.7375C78.3609 47.7375 65.5989 54.6311 65.5989 63.1004Z" fill="url(#paint11_linear_9_15825)"/>
<path fill-rule="evenodd" clip-rule="evenodd" d="M65.3044 62.3618C65.3044 70.7326 78.3609 77.5277 94.4608 77.5277C110.561 77.5277 123.617 70.7326 123.617 62.3618C123.617 53.991 110.561 47.1959 94.4608 47.1959C78.3609 47.1959 65.3044 53.991 65.3044 62.3618Z" fill="url(#paint12_radial_9_15825)"/>
<path style="mix-blend-mode:screen" fill-rule="evenodd" clip-rule="evenodd" d="M118.954 61.0323C119.249 59.4567 122.292 59.0627 123.372 60.4415C121.556 53.0062 109.284 47.1959 94.4608 47.1959C78.3609 47.1959 65.3044 53.991 65.3044 62.3618C65.3044 64.6761 66.2861 66.8426 68.0531 68.8122C67.9549 67.8274 70.2128 66.9904 72.4707 68.1229C72.1762 67.7782 118.905 60.8354 118.954 61.0323Z" fill="url(#paint13_linear_9_15825)"/>
<g style="mix-blend-mode:screen" opacity="0.75">
<path fill-rule="evenodd" clip-rule="evenodd" d="M69.9675 62.0171C70.0656 69.0584 81.2079 74.5733 94.8044 74.3271C108.401 74.1301 119.347 68.2213 119.249 61.2293C119.151 54.188 108.008 48.6731 94.4118 48.9193C80.8152 49.1163 69.8693 55.0251 69.9675 62.0171Z" fill="#F6A410"/>
</g>
<path fill-rule="evenodd" clip-rule="evenodd" d="M69.8202 62.3618C69.8202 69.4524 80.8643 75.1642 94.4608 75.1642C108.057 75.1642 119.101 69.4031 119.101 62.3618C119.101 55.3205 108.057 49.5594 94.4608 49.5594C80.8643 49.5594 69.8202 55.3205 69.8202 62.3618Z" fill="url(#paint14_radial_9_15825)"/>
<path fill-rule="evenodd" clip-rule="evenodd" d="M94.4609 53.0062C106.928 53.0062 117.187 57.8317 118.807 64.0852C118.954 63.4943 119.052 62.9527 119.052 62.3618C119.052 55.2713 108.008 49.5594 94.4118 49.5594C80.8152 49.5594 69.7711 55.3205 69.7711 62.3618C69.7711 62.9527 69.8693 63.5436 70.0166 64.0852C71.6364 57.8317 81.9442 53.0062 94.3627 53.0062H94.4609Z" fill="url(#paint15_linear_9_15825)"/>
<path fill-rule="evenodd" clip-rule="evenodd" d="M93.7246 77.4783C95.1481 76.8382 97.8478 76.1488 98.3877 76.0996C100.547 75.8534 103.591 76.0996 104.425 76.6412C103.394 78.857 101.382 79.7926 100.646 79.891C99.4676 79.9895 95.5899 79.3494 93.7246 77.4783Z" fill="url(#paint16_radial_9_15825)"/>
<path style="mix-blend-mode:screen" fill-rule="evenodd" clip-rule="evenodd" d="M100.645 79.8913C101.185 79.8421 102.265 79.3497 103.247 78.3649C103.689 77.9217 104.13 77.3308 104.425 76.6415C104.18 76.4938 103.738 76.3953 103.198 76.2476C101.873 76.0014 99.9092 75.9029 98.3875 76.0998C97.0132 76.2476 100.007 79.9405 100.645 79.8913Z" fill="url(#paint17_radial_9_15825)"/>
<g opacity="0.8">
<g style="mix-blend-mode:screen">
<path d="M83.9075 76.7398C83.9075 76.7398 83.7602 77.0844 83.5639 77.0844C83.3675 77.0844 83.2203 76.9367 83.2203 76.7398C83.2203 76.5428 83.3675 76.3951 83.5639 76.3951C83.7602 76.3951 83.9075 76.5428 83.9075 76.7398Z" fill="#E0AD4F"/>
</g>
<g style="mix-blend-mode:screen">
<path d="M84.4474 76.7398C84.4474 77.2322 84.0547 77.6261 83.5639 77.6261C83.073 77.6261 82.6803 77.2322 82.6803 76.7398C82.6803 76.2474 83.073 75.8535 83.5639 75.8535C84.0547 75.8535 84.4474 76.2474 84.4474 76.7398Z" fill="#FFF276"/>
</g>
</g>
<path fill-rule="evenodd" clip-rule="evenodd" d="M63.4391 62.5095C63.4882 62.8542 63.5864 63.2481 63.7336 63.5928C64.8135 66.9411 67.8568 69.8955 72.1762 72.062C77.3301 74.721 84.3493 76.2967 92.0065 76.2967C99.6638 76.2967 106.683 74.6718 111.837 72.062C116.156 69.8463 119.2 66.8919 120.279 63.5928C120.378 63.2481 120.476 62.8542 120.574 62.5095C120.427 60.4414 120.672 52.2676 121.016 50.2488H62.9973C63.3409 52.2676 63.5864 60.4414 63.4391 62.5095Z" fill="url(#paint18_linear_9_15825)"/>
<path style="mix-blend-mode:multiply" fill-rule="evenodd" clip-rule="evenodd" d="M63.7336 63.5928C64.4699 65.907 66.2369 68.0736 68.6421 69.8955C68.3476 67.9259 68.2985 58.7673 68.593 57.8809C67.4641 57.0931 66.4333 56.2068 65.5988 55.2712C64.9607 54.5819 64.4699 53.8433 64.0281 53.1047C63.4882 52.1691 63.1446 51.1843 62.9483 50.1995C63.2919 52.2184 63.5373 60.3922 63.39 62.4603C63.4391 62.8049 63.5373 63.1989 63.6845 63.5435L63.7336 63.5928Z" fill="url(#paint19_linear_9_15825)"/>
<path style="mix-blend-mode:multiply" fill-rule="evenodd" clip-rule="evenodd" d="M110.561 60.8354C111.002 62.5588 111.002 71.4712 110.512 72.7514C110.953 72.5545 111.444 72.3083 111.886 72.1113C116.205 69.8955 119.249 66.9411 120.329 63.642C120.427 63.2974 120.525 62.9034 120.623 62.5588C120.476 60.4907 120.721 52.3661 121.065 50.298C120.574 53.0555 118.709 55.5667 115.813 57.684C114.34 58.8658 112.573 59.9491 110.561 60.8846V60.8354Z" fill="url(#paint20_linear_9_15825)"/>
<path style="mix-blend-mode:screen" fill-rule="evenodd" clip-rule="evenodd" d="M63.1446 49.6579C63.1446 53.3016 65.5007 56.65 69.4765 59.2597C70.9982 61.8201 75.8576 65.2669 78.7045 66.1532C79.9807 66.5472 82.7786 65.1685 83.5148 64.3314C86.1163 64.7745 88.9142 64.9715 91.8102 64.9715C107.616 64.9715 120.476 58.0779 120.476 49.6086C120.476 41.1394 107.616 34.295 91.8102 34.295C76.0048 34.295 63.1446 41.1394 63.1446 49.6579Z" fill="url(#paint21_linear_9_15825)"/>
<path fill-rule="evenodd" clip-rule="evenodd" d="M62.8992 48.87C62.8992 57.2408 75.9558 64.0359 92.0556 64.0359C108.155 64.0359 121.212 57.2408 121.212 48.87C121.212 40.4993 108.106 33.7042 92.0065 33.7042C75.9067 33.7042 62.8992 40.4993 62.8992 48.87Z" fill="url(#paint22_radial_9_15825)"/>
<path style="mix-blend-mode:screen" fill-rule="evenodd" clip-rule="evenodd" d="M116.5 47.5406C116.794 45.9649 119.838 45.571 120.918 46.9497C119.101 39.5145 106.83 33.7042 92.0065 33.7042C75.9067 33.7042 62.8992 40.4993 62.8992 48.87C62.8992 51.1843 63.8809 53.3509 65.6479 55.3205C65.5498 54.3357 67.8077 53.4986 70.0656 54.6311C69.7711 54.2864 116.5 47.3436 116.549 47.5406H116.5Z" fill="url(#paint23_linear_9_15825)"/>
<g style="mix-blend-mode:screen" opacity="0.75">
<path fill-rule="evenodd" clip-rule="evenodd" d="M67.5132 48.5746C67.6114 55.6159 78.7536 61.1307 92.3502 60.8845C105.947 60.6876 116.893 54.7788 116.794 47.7867C116.696 40.7454 105.554 35.2305 91.9575 35.4767C78.361 35.6737 67.415 41.5825 67.5132 48.5746Z" fill="#F6A410"/>
</g>
<path fill-rule="evenodd" clip-rule="evenodd" d="M67.415 48.87C67.415 55.9605 78.4591 61.6724 92.0556 61.6724C105.652 61.6724 116.696 55.9113 116.696 48.87C116.696 41.8287 105.652 36.0676 92.0556 36.0676C78.4591 36.0676 67.415 41.7795 67.415 48.87Z" fill="url(#paint24_radial_9_15825)"/>
<path fill-rule="evenodd" clip-rule="evenodd" d="M92.0066 39.5144C104.474 39.5144 114.733 44.3399 116.353 50.5934C116.5 50.0025 116.598 49.4609 116.598 48.87C116.598 41.7795 105.554 36.0676 91.9575 36.0676C78.361 36.0676 67.415 41.7795 67.415 48.87C67.415 49.4609 67.5132 50.0518 67.6604 50.5934C69.2803 44.3399 79.5881 39.5144 92.0066 39.5144Z" fill="url(#paint25_linear_9_15825)"/>
<path fill-rule="evenodd" clip-rule="evenodd" d="M70.6055 60.0475C73.5506 59.4074 76.8393 59.949 77.5265 60.1952C78.3119 60.4906 81.0115 61.9678 82.8277 64.2329C80.5698 65.8085 79.3426 66.1532 78.8027 65.907C77.2811 65.3162 72.7162 62.411 70.6546 59.9982L70.6055 60.0475Z" fill="url(#paint26_radial_9_15825)"/>
<path style="mix-blend-mode:screen" fill-rule="evenodd" clip-rule="evenodd" d="M78.7536 65.907C79.2445 66.104 80.2752 65.907 82.0914 64.676C82.2877 64.5283 82.5331 64.3806 82.7786 64.1836C82.3368 63.642 81.846 63.1496 81.3551 62.7064C79.7844 61.2785 78.1155 60.3921 77.4774 60.1459C75.4649 59.4073 77.9192 65.5623 78.7536 65.8578V65.907Z" fill="url(#paint27_radial_9_15825)"/>
<g style="mix-blend-mode:multiply" opacity="0.5">
<path d="M172.26 111.946C171.868 117.215 160.087 120.563 145.951 119.431C131.814 118.298 120.721 113.177 121.114 107.909C121.506 102.64 133.287 99.2917 147.423 100.424C161.56 101.557 172.653 106.678 172.26 111.946Z" fill="#261710"/>
</g>
<path fill-rule="evenodd" clip-rule="evenodd" d="M115.665 105.299C115.714 105.644 115.813 106.038 115.96 106.382C117.04 109.731 120.083 112.685 124.402 114.852C129.556 117.51 136.575 119.086 144.233 119.086C151.89 119.086 158.909 117.461 164.063 114.852C168.382 112.636 171.426 109.681 172.506 106.382C172.604 106.038 172.702 105.644 172.8 105.299C172.653 103.231 172.898 95.0571 173.242 93.0383H115.224C115.567 95.0571 115.813 103.231 115.665 105.299Z" fill="url(#paint28_linear_9_15825)"/>
<path style="mix-blend-mode:multiply" fill-rule="evenodd" clip-rule="evenodd" d="M115.96 106.382C116.696 108.697 118.463 110.863 120.868 112.685C120.574 110.715 120.525 101.557 120.819 100.67C119.69 99.8827 118.66 98.9963 117.825 98.0608C117.187 97.3714 116.696 96.6328 116.254 95.8942C115.714 94.9587 115.371 93.9739 115.174 92.9891C115.518 95.0079 115.763 103.182 115.616 105.25C115.665 105.594 115.763 105.988 115.911 106.333L115.96 106.382Z" fill="url(#paint29_linear_9_15825)"/>
<path style="mix-blend-mode:multiply" fill-rule="evenodd" clip-rule="evenodd" d="M162.787 103.625C163.229 105.348 163.229 114.261 162.738 115.541C163.18 115.344 163.67 115.098 164.112 114.901C168.432 112.685 171.475 109.731 172.555 106.432C172.653 106.087 172.751 105.693 172.849 105.348C172.702 103.28 172.947 95.1556 173.291 93.0875C172.8 95.845 170.935 98.3562 168.039 100.474C166.566 101.655 164.799 102.739 162.787 103.674V103.625Z" fill="url(#paint30_linear_9_15825)"/>
<path style="mix-blend-mode:screen" fill-rule="evenodd" clip-rule="evenodd" d="M115.371 92.3981C115.371 100.867 128.182 107.761 144.036 107.761C159.891 107.761 172.702 100.867 172.702 92.3981C172.702 83.9288 159.891 77.0352 144.036 77.0352C128.182 77.0352 115.371 83.9288 115.371 92.3981Z" fill="url(#paint31_linear_9_15825)"/>
<path fill-rule="evenodd" clip-rule="evenodd" d="M115.125 91.6595C115.125 100.03 128.182 106.825 144.282 106.825C160.382 106.825 173.438 100.03 173.438 91.6595C173.438 83.2887 160.382 76.4936 144.282 76.4936C128.182 76.4936 115.125 83.2887 115.125 91.6595Z" fill="url(#paint32_radial_9_15825)"/>
<g style="mix-blend-mode:screen" opacity="0.75">
<path fill-rule="evenodd" clip-rule="evenodd" d="M119.739 91.3148C119.838 98.3561 130.98 103.871 144.576 103.625C158.173 103.428 169.119 97.519 169.021 90.5269C168.922 83.4856 157.78 77.9708 144.184 78.217C130.587 78.4139 119.641 84.3227 119.739 91.3148Z" fill="#F6A410"/>
</g>
<g opacity="0.5">
<path fill-rule="evenodd" clip-rule="evenodd" d="M119.641 91.6595C119.641 98.75 130.685 104.462 144.282 104.462C157.878 104.462 168.923 98.7008 168.923 91.6595C168.923 84.6182 157.878 78.8571 144.282 78.8571C130.685 78.8571 119.641 84.6182 119.641 91.6595Z" fill="url(#paint33_radial_9_15825)"/>
</g>
<path fill-rule="evenodd" clip-rule="evenodd" d="M144.233 82.3039C156.7 82.3039 166.959 87.1294 168.579 93.3829C168.726 92.792 168.824 92.2504 168.824 91.6595C168.824 84.5689 157.78 78.8571 144.184 78.8571C130.587 78.8571 119.543 84.6182 119.543 91.6595C119.543 92.2504 119.641 92.8412 119.789 93.3829C121.408 87.1294 131.716 82.3039 144.135 82.3039H144.233Z" fill="url(#paint34_linear_9_15825)"/>
<path fill-rule="evenodd" clip-rule="evenodd" d="M120.378 92.5459C120.427 92.8906 120.525 93.2845 120.672 93.6292C121.752 96.9775 124.795 99.9319 129.115 102.098C134.269 104.757 141.288 106.333 148.945 106.333C156.602 106.333 163.621 104.708 168.775 102.098C173.095 99.8827 176.138 96.9283 177.218 93.6292C177.316 93.2845 177.414 92.8906 177.512 92.5459C177.365 90.4779 177.611 82.3041 177.954 80.2852H119.936C120.279 82.3041 120.525 90.4779 120.378 92.5459Z" fill="url(#paint35_linear_9_15825)"/>
<path style="mix-blend-mode:multiply" fill-rule="evenodd" clip-rule="evenodd" d="M120.672 93.6292C121.408 95.9435 123.175 98.11 125.581 99.9319C125.286 97.9623 125.237 88.8037 125.531 87.9174C124.402 87.1295 123.372 86.2432 122.537 85.3077C121.899 84.6183 121.408 83.8797 120.967 83.1411C120.427 82.2056 120.083 81.2208 119.887 80.236C120.23 82.2548 120.476 90.4286 120.328 92.4967C120.378 92.8414 120.476 93.2353 120.623 93.58L120.672 93.6292Z" fill="url(#paint36_linear_9_15825)"/>
<path style="mix-blend-mode:multiply" fill-rule="evenodd" clip-rule="evenodd" d="M167.499 90.8718C167.941 92.5952 167.941 101.508 167.45 102.788C167.892 102.591 168.383 102.345 168.824 102.148C173.144 99.9319 176.187 96.9776 177.267 93.6785C177.365 93.3338 177.463 92.9399 177.561 92.5952C177.414 90.5271 177.66 82.4025 178.003 80.3345C177.512 83.0919 175.647 85.6031 172.751 87.7205C171.279 88.9022 169.512 89.9855 167.499 90.921V90.8718Z" fill="url(#paint37_linear_9_15825)"/>
<path style="mix-blend-mode:screen" fill-rule="evenodd" clip-rule="evenodd" d="M120.083 79.6943C120.083 88.1635 132.894 95.0571 148.749 95.0571C164.603 95.0571 177.414 88.1635 177.414 79.6943C177.414 71.225 164.603 64.3314 148.749 64.3314C132.894 64.3314 120.083 71.225 120.083 79.6943Z" fill="url(#paint38_linear_9_15825)"/>
<path fill-rule="evenodd" clip-rule="evenodd" d="M119.838 78.9064C119.838 87.2771 132.894 94.0722 148.994 94.0722C165.094 94.0722 178.151 87.2771 178.151 78.9064C178.151 70.5356 165.094 63.7405 148.994 63.7405C132.894 63.7405 119.838 70.5356 119.838 78.9064Z" fill="url(#paint39_radial_9_15825)"/>
<g style="mix-blend-mode:screen" opacity="0.75">
<path fill-rule="evenodd" clip-rule="evenodd" d="M124.452 78.6109C124.55 85.6522 135.692 91.1671 149.289 90.9209C162.885 90.7239 173.831 84.8152 173.733 77.8231C173.635 70.7818 162.492 65.2669 148.896 65.5131C135.299 65.7593 124.353 71.6189 124.452 78.6109Z" fill="#F6A410"/>
</g>
<g opacity="0.5">
<path fill-rule="evenodd" clip-rule="evenodd" d="M124.353 78.9063C124.353 85.9969 135.398 91.7087 148.994 91.7087C162.591 91.7087 173.635 85.9476 173.635 78.9063C173.635 71.865 162.591 66.1039 148.994 66.1039C135.398 66.1039 124.353 71.865 124.353 78.9063Z" fill="url(#paint40_radial_9_15825)"/>
</g>
<path fill-rule="evenodd" clip-rule="evenodd" d="M148.945 69.6001C161.413 69.6001 171.671 74.4256 173.291 80.679C173.438 80.0881 173.537 79.5465 173.537 78.9556C173.537 71.8651 162.492 66.1533 148.896 66.1533C135.299 66.1533 124.255 71.9143 124.255 78.9556C124.255 79.5465 124.353 80.1374 124.501 80.679C126.121 74.4256 136.428 69.6001 148.847 69.6001H148.945Z" fill="url(#paint41_linear_9_15825)"/>
<g style="mix-blend-mode:multiply" opacity="0.5">
<path d="M129.704 122.927C129.311 128.196 117.531 131.544 103.394 130.411C89.2577 129.279 78.1645 124.158 78.5572 118.889C78.9499 113.621 90.7302 110.272 104.867 111.405C119.003 112.537 130.096 117.658 129.704 122.927Z" fill="#261710"/>
</g>
<path fill-rule="evenodd" clip-rule="evenodd" d="M69.3293 118.298C69.3784 118.643 69.4766 119.037 69.6238 119.382C70.7037 122.73 73.747 125.684 78.0664 127.851C83.2204 130.51 90.2395 132.086 97.8967 132.086C105.554 132.086 112.573 130.461 117.727 127.851C122.047 125.635 125.09 122.681 126.17 119.382C126.268 119.037 126.366 118.643 126.464 118.298C126.317 116.23 126.562 108.056 126.906 106.038H68.8876C69.2312 108.056 69.4766 116.23 69.3293 118.298Z" fill="url(#paint42_linear_9_15825)"/>
<path style="mix-blend-mode:multiply" fill-rule="evenodd" clip-rule="evenodd" d="M69.6238 119.382C70.3601 121.696 72.1271 123.863 74.5323 125.684C74.2378 123.715 74.1887 114.556 74.4832 113.67C73.3543 112.882 72.3235 111.996 71.489 111.06C70.8509 110.371 70.3601 109.632 69.9183 108.894C69.3784 107.958 69.0348 106.973 68.8384 105.988C69.182 108.007 69.4275 116.181 69.2802 118.249C69.3293 118.594 69.4275 118.988 69.5747 119.332L69.6238 119.382Z" fill="url(#paint43_linear_9_15825)"/>
<path style="mix-blend-mode:multiply" fill-rule="evenodd" clip-rule="evenodd" d="M116.451 116.624C116.893 118.348 116.893 127.26 116.402 128.54C116.893 128.343 117.334 128.097 117.776 127.9C122.096 125.684 125.139 122.73 126.219 119.431C126.317 119.086 126.415 118.692 126.513 118.348C126.366 116.28 126.611 108.155 126.955 106.087C126.464 108.844 124.599 111.356 121.703 113.473C120.23 114.655 118.463 115.738 116.451 116.673V116.624Z" fill="url(#paint44_linear_9_15825)"/>
<path style="mix-blend-mode:screen" fill-rule="evenodd" clip-rule="evenodd" d="M69.0348 105.447C69.0348 113.916 81.8459 120.81 97.7004 120.81C113.555 120.81 126.366 113.916 126.366 105.447C126.366 96.9775 113.555 90.0839 97.7004 90.0839C81.8459 90.0839 69.0348 96.9775 69.0348 105.447Z" fill="url(#paint45_linear_9_15825)"/>
<path fill-rule="evenodd" clip-rule="evenodd" d="M68.7893 104.659C68.7893 113.03 81.8459 119.825 97.9458 119.825C114.046 119.825 127.102 113.03 127.102 104.659C127.102 96.2881 114.046 89.493 97.9458 89.493C81.8459 89.493 68.7893 96.2881 68.7893 104.659Z" fill="url(#paint46_radial_9_15825)"/>
<g style="mix-blend-mode:screen" opacity="0.75">
<path fill-rule="evenodd" clip-rule="evenodd" d="M73.4034 104.314C73.5016 111.355 84.6438 116.87 98.2403 116.624C111.837 116.427 122.783 110.518 122.685 103.526C122.586 96.485 111.444 90.9702 97.8477 91.2164C84.2511 91.4133 73.3052 97.3221 73.4034 104.314Z" fill="#F6A410"/>
</g>
<g opacity="0.5">
<path fill-rule="evenodd" clip-rule="evenodd" d="M73.3052 104.659C73.3052 111.749 84.3493 117.461 97.9458 117.461C111.542 117.461 122.586 111.7 122.586 104.659C122.586 97.6175 111.542 91.8564 97.9458 91.8564C84.3493 91.8564 73.3052 97.6175 73.3052 104.659Z" fill="url(#paint47_radial_9_15825)"/>
</g>
<path fill-rule="evenodd" clip-rule="evenodd" d="M97.8968 95.3033C110.364 95.3033 120.623 100.129 122.243 106.382C122.39 105.791 122.488 105.25 122.488 104.659C122.488 97.5683 111.444 91.8565 97.8477 91.8565C84.2512 91.8565 73.2071 97.6176 73.2071 104.659C73.2071 105.25 73.3052 105.841 73.4525 106.382C75.0723 100.129 85.3801 95.3033 97.7986 95.3033H97.8968Z" fill="url(#paint48_linear_9_15825)"/>
<path fill-rule="evenodd" clip-rule="evenodd" d="M9.11773 117.8C9.16681 118.144 9.26498 118.538 9.41224 118.883C10.4921 122.231 13.5354 125.186 17.8548 127.352C23.0088 130.011 30.0279 131.587 37.6851 131.587C45.3424 131.587 52.3615 129.962 57.5155 127.352C61.8349 125.137 64.8782 122.182 65.9581 118.883C66.0562 118.538 66.1544 118.144 66.2526 117.8C66.1053 115.732 66.3507 107.558 66.6943 105.539H8.67596C9.01956 107.558 9.26498 115.732 9.11773 117.8Z" fill="url(#paint49_linear_9_15825)"/>
<path style="mix-blend-mode:multiply" fill-rule="evenodd" clip-rule="evenodd" d="M9.41226 118.883C10.1485 121.197 11.9156 123.364 14.3207 125.186C14.0262 123.216 13.9772 114.058 14.2717 113.171C13.1427 112.383 12.1119 111.497 11.2775 110.562C10.6394 109.872 10.1485 109.134 9.70677 108.395C9.16683 107.459 8.82324 106.475 8.6269 105.49C8.97049 107.509 9.21592 115.683 9.06866 117.751C9.11775 118.095 9.21592 118.489 9.36317 118.834L9.41226 118.883Z" fill="url(#paint50_linear_9_15825)"/>
<path style="mix-blend-mode:multiply" fill-rule="evenodd" clip-rule="evenodd" d="M56.2393 116.126C56.681 117.849 56.681 126.762 56.1902 128.042C56.6319 127.845 57.1228 127.599 57.5646 127.402C61.884 125.186 64.9273 122.231 66.0072 118.932C66.1053 118.588 66.2035 118.194 66.3017 117.849C66.1544 115.781 66.3998 107.656 66.7434 105.588C66.2526 108.346 64.3874 110.857 61.4914 112.974C60.0188 114.156 58.2518 115.239 56.2393 116.175V116.126Z" fill="url(#paint51_linear_9_15825)"/>
<path style="mix-blend-mode:screen" fill-rule="evenodd" clip-rule="evenodd" d="M8.82323 104.948C8.82323 108.592 11.1793 111.94 15.1552 114.55C16.6768 117.111 21.5362 120.557 24.3832 121.444C25.6594 121.838 28.4572 120.459 29.1935 119.622C31.795 120.065 34.5928 120.262 37.4888 120.262C53.2942 120.262 66.1544 113.368 66.1544 104.899C66.1544 96.4298 53.2942 89.5854 37.4888 89.5854C21.6835 89.5854 8.82323 96.4298 8.82323 104.948Z" fill="url(#paint52_linear_9_15825)"/>
<path fill-rule="evenodd" clip-rule="evenodd" d="M8.57779 104.16C8.57779 112.531 21.6344 119.326 37.7342 119.326C53.8341 119.326 66.8907 112.531 66.8907 104.16C66.8907 95.7896 53.785 88.9945 37.6851 88.9945C21.5853 88.9945 8.57779 95.7896 8.57779 104.16Z" fill="url(#paint53_radial_9_15825)"/>
<path style="mix-blend-mode:screen" fill-rule="evenodd" clip-rule="evenodd" d="M62.1785 102.831C62.473 101.255 65.5163 100.861 66.5962 102.24C64.78 94.8048 52.5088 88.9945 37.6851 88.9945C21.5853 88.9945 8.57779 95.7896 8.57779 104.16C8.57779 106.475 9.55949 108.641 11.3265 110.611C11.2284 109.626 13.4863 108.789 15.7442 109.921C15.4497 109.577 62.1785 102.634 62.2276 102.831H62.1785Z" fill="url(#paint54_linear_9_15825)"/>
<g style="mix-blend-mode:screen" opacity="0.75">
<path fill-rule="evenodd" clip-rule="evenodd" d="M13.1918 103.865C13.2899 110.906 24.4322 116.421 38.0287 116.175C51.6253 115.978 62.5712 110.069 62.473 103.077C62.3749 96.0358 51.2326 90.5209 37.6361 90.7671C24.0395 90.964 13.0936 96.8728 13.1918 103.865Z" fill="#F6A410"/>
</g>
<path fill-rule="evenodd" clip-rule="evenodd" d="M13.0936 104.16C13.0936 111.251 24.1377 116.963 37.7342 116.963C51.3308 116.963 62.3749 111.202 62.3749 104.16C62.3749 97.1191 51.3308 91.358 37.7342 91.358C24.1377 91.358 13.0936 97.0699 13.0936 104.16Z" fill="url(#paint55_radial_9_15825)"/>
<path fill-rule="evenodd" clip-rule="evenodd" d="M37.6851 94.8048C50.1527 94.8048 60.4115 99.6303 62.0313 105.884C62.1785 105.293 62.2767 104.751 62.2767 104.16C62.2767 97.0699 51.2326 91.358 37.6361 91.358C24.0395 91.358 13.0936 97.0699 13.0936 104.16C13.0936 104.751 13.1918 105.342 13.339 105.884C14.9588 99.6303 25.2667 94.8048 37.6851 94.8048Z" fill="url(#paint56_linear_9_15825)"/>
<path fill-rule="evenodd" clip-rule="evenodd" d="M16.2842 115.338C19.2293 114.698 22.5179 115.239 23.2051 115.486C23.9905 115.781 26.6902 117.258 28.5063 119.523C26.2484 121.099 25.0213 121.444 24.4813 121.197C22.9597 120.607 18.3948 117.701 16.3333 115.289L16.2842 115.338Z" fill="url(#paint57_radial_9_15825)"/>
<path style="mix-blend-mode:screen" fill-rule="evenodd" clip-rule="evenodd" d="M24.4323 121.197C24.9231 121.394 25.9539 121.197 27.7701 119.966C27.9664 119.819 28.2118 119.671 28.4573 119.474C28.0155 118.932 27.5246 118.44 27.0338 117.997C25.4631 116.569 23.7942 115.683 23.1561 115.436C21.1436 114.698 23.5978 120.853 24.4323 121.148V121.197Z" fill="url(#paint58_radial_9_15825)"/>
<path fill-rule="evenodd" clip-rule="evenodd" d="M9.11749 106.005C9.16658 106.35 9.26475 106.744 9.412 107.088C10.4919 110.437 13.5351 113.391 17.8546 115.558C23.0085 118.217 30.0277 119.792 37.6849 119.792C45.3422 119.792 52.3613 118.167 57.5152 115.558C61.8347 113.342 64.878 110.388 65.9578 107.088C66.056 106.744 66.1542 106.35 66.2523 106.005C66.1051 103.937 66.3505 95.7633 66.6941 93.7444H8.67573C9.01932 95.7633 9.26475 103.937 9.11749 106.005Z" fill="url(#paint59_linear_9_15825)"/>
<path style="mix-blend-mode:multiply" fill-rule="evenodd" clip-rule="evenodd" d="M9.41226 107.089C10.1485 109.403 11.9156 111.57 14.3207 113.391C14.0262 111.422 13.9772 102.263 14.2717 101.377C13.1427 100.589 12.1119 99.7028 11.2775 98.7672C10.6394 98.0778 10.1485 97.3392 9.70677 96.6006C9.16683 95.6651 8.82324 94.6803 8.6269 93.6955C8.97049 95.7143 9.21592 103.888 9.06866 105.956C9.11775 106.301 9.21592 106.695 9.36317 107.04L9.41226 107.089Z" fill="url(#paint60_linear_9_15825)"/>
<path style="mix-blend-mode:multiply" fill-rule="evenodd" clip-rule="evenodd" d="M56.2393 104.331C56.681 106.055 56.681 114.967 56.1902 116.247C56.6319 116.05 57.1228 115.804 57.5646 115.607C61.884 113.391 64.9273 110.437 66.0072 107.138C66.1053 106.793 66.2035 106.399 66.3017 106.055C66.1544 103.987 66.3998 95.862 66.7434 93.7939C66.2526 96.5514 64.3874 99.0626 61.4914 101.18C60.0188 102.362 58.2518 103.445 56.2393 104.381V104.331Z" fill="url(#paint61_linear_9_15825)"/>
<path style="mix-blend-mode:screen" fill-rule="evenodd" clip-rule="evenodd" d="M8.82323 93.1539C8.82323 96.7976 11.1793 100.146 15.1552 102.756C16.6768 105.316 21.5362 108.763 24.3832 109.649C25.6594 110.043 28.4572 108.664 29.1935 107.827C31.795 108.271 34.5928 108.467 37.4888 108.467C53.2942 108.467 66.1544 101.574 66.1544 93.1046C66.1544 84.6354 53.2942 77.791 37.4888 77.791C21.6835 77.791 8.82323 84.6354 8.82323 93.1539Z" fill="url(#paint62_linear_9_15825)"/>
<path fill-rule="evenodd" clip-rule="evenodd" d="M8.57779 92.366C8.57779 100.737 21.6344 107.532 37.7342 107.532C53.8341 107.532 66.8907 100.737 66.8907 92.366C66.8907 83.9952 53.785 77.2001 37.6851 77.2001C21.5853 77.2001 8.57779 83.9952 8.57779 92.366Z" fill="url(#paint63_radial_9_15825)"/>
<path style="mix-blend-mode:screen" fill-rule="evenodd" clip-rule="evenodd" d="M62.1785 91.0365C62.473 89.4608 65.5163 89.0669 66.5962 90.4456C64.78 83.0104 52.5088 77.2001 37.6851 77.2001C21.5853 77.2001 8.57779 83.9952 8.57779 92.366C8.57779 94.6802 9.55949 96.8468 11.3265 98.8164C11.2284 97.8316 13.4863 96.9945 15.7442 98.127C15.4497 97.7823 62.1785 90.8395 62.2276 91.0365H62.1785Z" fill="url(#paint64_linear_9_15825)"/>
<g style="mix-blend-mode:screen" opacity="0.75">
<path fill-rule="evenodd" clip-rule="evenodd" d="M13.1918 92.0705C13.2899 99.1118 24.4322 104.627 38.0287 104.38C51.6253 104.184 62.5712 98.2748 62.473 91.2827C62.3749 84.2414 51.2326 78.7265 37.6361 78.9727C24.0395 79.1697 13.0936 85.0785 13.1918 92.0705Z" fill="#F6A410"/>
</g>
<path fill-rule="evenodd" clip-rule="evenodd" d="M13.0936 92.366C13.0936 99.4565 24.1377 105.168 37.7342 105.168C51.3308 105.168 62.3749 99.4073 62.3749 92.366C62.3749 85.3247 51.3308 79.5636 37.7342 79.5636C24.1377 79.5636 13.0936 85.2754 13.0936 92.366Z" fill="url(#paint65_radial_9_15825)"/>
<path fill-rule="evenodd" clip-rule="evenodd" d="M37.6851 83.0104C50.1527 83.0104 60.4115 87.8359 62.0313 94.0894C62.1785 93.4985 62.2767 92.9568 62.2767 92.366C62.2767 85.2754 51.2326 79.5636 37.6361 79.5636C24.0395 79.5636 13.0936 85.2754 13.0936 92.366C13.0936 92.9568 13.1918 93.5477 13.339 94.0894C14.9588 87.8359 25.2667 83.0104 37.6851 83.0104Z" fill="url(#paint66_linear_9_15825)"/>
<path fill-rule="evenodd" clip-rule="evenodd" d="M16.2842 103.543C19.2293 102.903 22.5179 103.445 23.2051 103.691C23.9905 103.987 26.6902 105.464 28.5063 107.729C26.2484 109.304 25.0213 109.649 24.4813 109.403C22.9597 108.812 18.3948 105.907 16.3333 103.494L16.2842 103.543Z" fill="url(#paint67_radial_9_15825)"/>
<path style="mix-blend-mode:screen" fill-rule="evenodd" clip-rule="evenodd" d="M24.4323 109.403C24.9231 109.6 25.9539 109.403 27.7701 108.172C27.9664 108.024 28.2118 107.877 28.4573 107.68C28.0155 107.138 27.5246 106.646 27.0338 106.202C25.4631 104.774 23.7942 103.888 23.1561 103.642C21.1436 102.903 23.5978 109.058 24.4323 109.354V109.403Z" fill="url(#paint68_radial_9_15825)"/>
<path fill-rule="evenodd" clip-rule="evenodd" d="M0.539939 94.211C0.589024 94.5557 0.687194 94.9496 0.834449 95.2943C1.91432 98.6426 4.95758 101.597 9.27705 103.764C14.431 106.422 21.4501 107.998 29.1074 107.998C36.7646 107.998 43.7837 106.373 48.9377 103.764C53.2571 101.548 56.3004 98.5933 57.3803 95.2943C57.4784 94.9496 57.5766 94.5557 57.6748 94.211C57.5275 92.1429 57.7729 83.9691 58.1165 81.9503H0.098175C0.441769 83.9691 0.687194 92.1429 0.539939 94.211Z" fill="url(#paint69_linear_9_15825)"/>
<path style="mix-blend-mode:multiply" fill-rule="evenodd" clip-rule="evenodd" d="M0.834446 95.2942C1.57072 97.6085 3.33778 99.7751 5.74294 101.597C5.44843 99.6274 5.39934 90.4687 5.69385 89.5824C4.5649 88.7946 3.53412 87.9083 2.69967 86.9727C2.06157 86.2833 1.57072 85.5448 1.12896 84.8062C0.589021 83.8706 0.245427 82.8858 0.0490875 81.901C0.392682 83.9198 0.638106 92.0937 0.490852 94.1617C0.539937 94.5064 0.638106 94.9003 0.785361 95.245L0.834446 95.2942Z" fill="url(#paint70_linear_9_15825)"/>
<path style="mix-blend-mode:multiply" fill-rule="evenodd" clip-rule="evenodd" d="M47.6615 92.5368C48.1033 94.2602 48.1032 103.173 47.6124 104.453C48.0542 104.256 48.545 104.01 48.9868 103.813C53.3062 101.597 56.3495 98.6426 57.4294 95.3435C57.5276 94.9988 57.6257 94.6049 57.7239 94.2602C57.5766 92.1922 57.8221 84.0676 58.1657 81.9995C57.6748 84.7569 55.8096 87.2682 52.9136 89.3855C51.441 90.5673 49.674 91.6505 47.6615 92.5861V92.5368Z" fill="url(#paint71_linear_9_15825)"/>
<path style="mix-blend-mode:screen" fill-rule="evenodd" clip-rule="evenodd" d="M0.245407 81.3594C0.245407 85.0031 2.60148 88.3514 6.57736 90.9611C8.09899 93.5216 12.9584 96.9684 15.8053 97.8547C17.0815 98.2486 19.8794 96.8699 20.6156 96.0329C23.2171 96.476 26.015 96.673 28.911 96.673C44.7163 96.673 57.5766 89.7794 57.5766 81.3101C57.5766 72.8409 44.7163 65.9965 28.911 65.9965C13.1057 65.9965 0.245407 72.8409 0.245407 81.3594Z" fill="url(#paint72_linear_9_15825)"/>
<path fill-rule="evenodd" clip-rule="evenodd" d="M0 80.5715C0 88.9423 13.0566 95.7374 29.1564 95.7374C45.2563 95.7374 58.3129 88.9423 58.3129 80.5715C58.3129 72.2007 45.2072 65.4056 29.1074 65.4056C13.0075 65.4056 0 72.2007 0 80.5715Z" fill="url(#paint73_radial_9_15825)"/>
<path style="mix-blend-mode:screen" fill-rule="evenodd" clip-rule="evenodd" d="M53.6007 79.242C53.8952 77.6664 56.9385 77.2725 58.0184 78.6512C56.2022 71.2159 43.931 65.4056 29.1074 65.4056C13.0075 65.4056 0 72.2007 0 80.5715C0 82.8858 0.981698 85.0524 2.74875 87.022C2.65059 86.0372 4.90849 85.2001 7.1664 86.3326C6.87189 85.9879 53.6007 79.0451 53.6498 79.242H53.6007Z" fill="url(#paint74_linear_9_15825)"/>
<g style="mix-blend-mode:screen" opacity="0.75">
<path fill-rule="evenodd" clip-rule="evenodd" d="M4.61395 80.276C4.71212 87.3173 15.8544 92.8322 29.4509 92.586C43.0474 92.389 53.9934 86.4803 53.8952 79.4882C53.797 72.4469 42.6548 66.932 29.0582 67.1782C15.4617 67.3752 4.51578 73.284 4.61395 80.276Z" fill="#F6A410"/>
</g>
<path fill-rule="evenodd" clip-rule="evenodd" d="M4.51579 80.5715C4.51579 87.662 15.5599 93.3738 29.1564 93.3738C42.7529 93.3738 53.797 87.6128 53.797 80.5715C53.797 73.5302 42.7529 67.7691 29.1564 67.7691C15.5599 67.7691 4.51579 73.4809 4.51579 80.5715Z" fill="url(#paint75_radial_9_15825)"/>
<path fill-rule="evenodd" clip-rule="evenodd" d="M29.1073 71.2159C41.5749 71.2159 51.8336 76.0414 53.4534 82.2949C53.6007 81.704 53.6989 81.1624 53.6989 80.5715C53.6989 73.4809 42.6548 67.7691 29.0582 67.7691C15.4617 67.7691 4.51579 73.4809 4.51579 80.5715C4.51579 81.1624 4.61395 81.7532 4.76121 82.2949C6.38101 76.0414 16.6888 71.2159 29.1073 71.2159Z" fill="url(#paint76_linear_9_15825)"/>
<path fill-rule="evenodd" clip-rule="evenodd" d="M7.70634 91.749C10.6514 91.1088 13.9401 91.6505 14.6273 91.8967C15.4127 92.1921 18.1123 93.6693 19.9285 95.9344C17.6706 97.51 16.4435 97.8547 15.9035 97.6085C14.3819 97.0176 9.817 94.1125 7.75543 91.6997L7.70634 91.749Z" fill="url(#paint77_radial_9_15825)"/>
<path style="mix-blend-mode:screen" fill-rule="evenodd" clip-rule="evenodd" d="M15.8544 97.6085C16.3453 97.8055 17.3761 97.6085 19.1922 96.3775C19.3886 96.2298 19.634 96.0821 19.8794 95.8851C19.4376 95.3435 18.9468 94.8511 18.4559 94.4079C16.8852 92.9799 15.2163 92.0936 14.5782 91.8474C12.5657 91.1088 15.02 97.2638 15.8544 97.5593V97.6085Z" fill="url(#paint78_radial_9_15825)"/>
<path fill-rule="evenodd" clip-rule="evenodd" d="M6.97327 81.3443C7.02235 81.689 7.12052 82.0829 7.26778 82.4276C8.34764 85.7759 11.3909 88.7303 15.7104 90.8968C20.8643 93.5558 27.8834 95.1315 35.5407 95.1315C43.1979 95.1315 50.2171 93.5065 55.371 90.8968C59.6905 88.681 62.7337 85.7266 63.8136 82.4276C63.9118 82.0829 64.0099 81.689 64.1081 81.3443C63.9608 79.2762 64.2063 71.1024 64.5499 69.0836H6.5315C6.8751 71.1024 7.12052 79.2762 6.97327 81.3443Z" fill="url(#paint79_linear_9_15825)"/>
<path style="mix-blend-mode:multiply" fill-rule="evenodd" clip-rule="evenodd" d="M7.26777 82.4276C8.00405 84.7418 9.7711 86.9084 12.1763 88.7303C11.8818 86.7607 11.8327 77.602 12.1272 76.7157C10.9982 75.9279 9.96744 75.0416 9.133 74.106C8.4949 73.4167 8.00405 72.6781 7.56228 71.9395C7.02235 71.0039 6.67875 70.0191 6.48241 69.0343C6.82601 71.0531 7.07143 79.227 6.92418 81.295C6.97326 81.6397 7.07143 82.0336 7.21869 82.3783L7.26777 82.4276Z" fill="url(#paint80_linear_9_15825)"/>
<path style="mix-blend-mode:multiply" fill-rule="evenodd" clip-rule="evenodd" d="M54.0948 79.6701C54.5366 81.3935 54.5366 90.306 54.0457 91.5862C54.4875 91.3892 54.9783 91.143 55.4201 90.9461C59.7396 88.7303 62.7828 85.7759 63.8627 82.4768C63.9609 82.1321 64.059 81.7382 64.1572 81.3935C64.01 79.3255 64.2554 71.2009 64.599 69.1328C64.1081 71.8902 62.2429 74.4015 59.3469 76.5188C57.8743 77.7006 56.1073 78.7838 54.0948 79.7194V79.6701Z" fill="url(#paint81_linear_9_15825)"/>
<path style="mix-blend-mode:screen" fill-rule="evenodd" clip-rule="evenodd" d="M6.67875 68.4927C6.67875 72.1364 9.03483 75.4847 13.0107 78.0944C14.5323 80.6549 19.3917 84.1017 22.2387 84.988C23.5149 85.3819 26.3127 84.0032 27.049 83.1662C29.6505 83.6093 32.4483 83.8063 35.3443 83.8063C51.1497 83.8063 64.0099 76.9127 64.0099 68.4434C64.0099 59.9742 51.1497 53.1298 35.3443 53.1298C19.539 53.1298 6.67875 59.9742 6.67875 68.4927Z" fill="url(#paint82_linear_9_15825)"/>
<path fill-rule="evenodd" clip-rule="evenodd" d="M6.43334 67.7048C6.43334 76.0756 19.4899 82.8707 35.5898 82.8707C51.6896 82.8707 64.7462 76.0756 64.7462 67.7048C64.7462 59.334 51.6405 52.5389 35.5407 52.5389C19.4408 52.5389 6.43334 59.334 6.43334 67.7048Z" fill="url(#paint83_radial_9_15825)"/>
<path style="mix-blend-mode:screen" fill-rule="evenodd" clip-rule="evenodd" d="M60.0341 66.3753C60.3286 64.7997 63.3718 64.4058 64.4517 65.7845C62.6356 58.3492 50.3643 52.5389 35.5407 52.5389C19.4408 52.5389 6.43334 59.334 6.43334 67.7048C6.43334 70.0191 7.41504 72.1857 9.1821 74.1553C9.08393 73.1705 11.3418 72.3334 13.5997 73.4659C13.3052 73.1212 60.0341 66.1784 60.0831 66.3753H60.0341Z" fill="url(#paint84_linear_9_15825)"/>
<g style="mix-blend-mode:screen" opacity="0.75">
<path fill-rule="evenodd" clip-rule="evenodd" d="M11.0473 67.4093C11.1455 74.4506 22.2877 79.9655 35.8843 79.7193C49.4808 79.5223 60.4267 73.6136 60.3285 66.6215C60.2304 59.5802 49.0881 54.0653 35.4916 54.3115C21.895 54.5085 10.9491 60.4173 11.0473 67.4093Z" fill="#F6A410"/>
</g>
<path fill-rule="evenodd" clip-rule="evenodd" d="M10.9491 67.7048C10.9491 74.7953 21.9932 80.5071 35.5897 80.5071C49.1863 80.5071 60.2304 74.7461 60.2304 67.7048C60.2304 60.6635 49.1863 54.9024 35.5897 54.9024C21.9932 54.9024 10.9491 60.6142 10.9491 67.7048Z" fill="url(#paint85_radial_9_15825)"/>
<path fill-rule="evenodd" clip-rule="evenodd" d="M35.5407 58.3492C48.0082 58.3492 58.267 63.1747 59.8868 69.4282C60.034 68.8373 60.1322 68.2957 60.1322 67.7048C60.1322 60.6142 49.0881 54.9024 35.4916 54.9024C21.8951 54.9024 10.9491 60.6142 10.9491 67.7048C10.9491 68.2957 11.0473 68.8865 11.1945 69.4282C12.8143 63.1747 23.1222 58.3492 35.5407 58.3492Z" fill="url(#paint86_linear_9_15825)"/>
<path fill-rule="evenodd" clip-rule="evenodd" d="M14.1397 78.8823C17.0848 78.2422 20.3735 78.7838 21.0607 79.03C21.846 79.3255 24.5457 80.8027 26.3618 83.0677C24.1039 84.6434 22.8768 84.9881 22.3369 84.7419C20.8152 84.151 16.2503 81.2458 14.1888 78.8331L14.1397 78.8823Z" fill="url(#paint87_radial_9_15825)"/>
<path style="mix-blend-mode:screen" fill-rule="evenodd" clip-rule="evenodd" d="M22.2878 84.7419C22.7786 84.9388 23.8094 84.7419 25.6255 83.5109C25.8219 83.3631 26.0673 83.2154 26.3127 83.0185C25.871 82.4768 25.3801 81.9844 24.8893 81.5413C23.3185 80.1133 21.6497 79.227 21.0116 78.9808C18.9991 78.2422 21.4533 84.3972 22.2878 84.6926V84.7419Z" fill="url(#paint88_radial_9_15825)"/>
<path fill-rule="evenodd" clip-rule="evenodd" d="M4.82886 68.4776C4.87795 68.8223 4.97612 69.2162 5.12337 69.5609C6.20324 72.9092 9.24651 75.8636 13.566 78.0301C18.7199 80.6891 25.739 82.2648 33.3963 82.2648C41.0535 82.2648 48.0727 80.6398 53.2266 78.0301C57.5461 75.8143 60.5893 72.8599 61.6692 69.5609C61.7674 69.2162 61.8655 68.8223 61.9637 68.4776C61.8164 66.4095 62.0619 58.2357 62.4055 56.2169H4.3871C4.73069 58.2357 4.97612 66.4095 4.82886 68.4776Z" fill="url(#paint89_linear_9_15825)"/>
<path style="mix-blend-mode:multiply" fill-rule="evenodd" clip-rule="evenodd" d="M5.12336 69.5609C5.85963 71.8752 7.62669 74.0417 10.0318 75.8636C9.73734 73.894 9.68825 64.7354 9.98276 63.8491C8.85381 63.0612 7.82303 62.1749 6.98858 61.2394C6.35048 60.55 5.85963 59.8114 5.41787 59.0728C4.87793 58.1373 4.53434 57.1525 4.338 56.1677C4.68159 58.1865 4.92702 66.3603 4.77976 68.4284C4.82885 68.7731 4.92702 69.167 5.07427 69.5117L5.12336 69.5609Z" fill="url(#paint90_linear_9_15825)"/>
<path style="mix-blend-mode:multiply" fill-rule="evenodd" clip-rule="evenodd" d="M51.9504 66.8034C52.3922 68.5268 52.3922 77.4393 51.9013 78.7195C52.3431 78.5225 52.8339 78.2763 53.2757 78.0794C57.5952 75.8636 60.6384 72.9092 61.7183 69.6101C61.8165 69.2654 61.9146 68.8715 62.0128 68.5268C61.8656 66.4588 62.111 58.3342 62.4546 56.2661C61.9637 59.0235 60.0985 61.5348 57.2025 63.6521C55.7299 64.8339 53.9629 65.9171 51.9504 66.8527V66.8034Z" fill="url(#paint91_linear_9_15825)"/>
<path style="mix-blend-mode:screen" fill-rule="evenodd" clip-rule="evenodd" d="M4.53432 55.626C4.53432 59.2697 6.89039 62.618 10.8663 65.2277C12.3879 67.7882 17.2473 71.235 20.0942 72.1213C21.3704 72.5152 24.1683 71.1365 24.9046 70.2995C27.5061 70.7426 30.3039 70.9396 33.1999 70.9396C49.0053 70.9396 61.8655 64.046 61.8655 55.5767C61.8655 47.1075 49.0053 40.2631 33.1999 40.2631C17.3946 40.2631 4.53432 47.1075 4.53432 55.626Z" fill="url(#paint92_linear_9_15825)"/>
<path fill-rule="evenodd" clip-rule="evenodd" d="M4.28889 54.8381C4.28889 63.2089 17.3455 70.004 33.4453 70.004C49.5452 70.004 62.6018 63.2089 62.6018 54.8381C62.6018 46.4673 49.4961 39.6722 33.3962 39.6722C17.2964 39.6722 4.28889 46.4673 4.28889 54.8381Z" fill="url(#paint93_radial_9_15825)"/>
<path style="mix-blend-mode:screen" fill-rule="evenodd" clip-rule="evenodd" d="M57.8896 53.5086C58.1841 51.933 61.2274 51.5391 62.3073 52.9178C60.4911 45.4825 48.2199 39.6722 33.3962 39.6722C17.2964 39.6722 4.28889 46.4673 4.28889 54.8381C4.28889 57.1524 5.27059 59.319 7.03765 61.2886C6.93948 60.3038 9.19739 59.4667 11.4553 60.5992C11.1608 60.2545 57.8896 53.3117 57.9387 53.5086H57.8896Z" fill="url(#paint94_linear_9_15825)"/>
<g style="mix-blend-mode:screen" opacity="0.75">
<path fill-rule="evenodd" clip-rule="evenodd" d="M8.90287 54.5427C9.00104 61.584 20.1433 67.0989 33.7398 66.8527C47.3363 66.6557 58.2823 60.7469 58.1841 53.7549C58.0859 46.7136 46.9437 41.1987 33.3471 41.4449C19.7506 41.6418 8.8047 47.5506 8.90287 54.5427Z" fill="#F6A410"/>
</g>
<path fill-rule="evenodd" clip-rule="evenodd" d="M8.8047 54.8381C8.8047 61.9287 19.8488 67.6405 33.4453 67.6405C47.0418 67.6405 58.086 61.8794 58.086 54.8381C58.086 47.7968 47.0418 42.0358 33.4453 42.0358C19.8488 42.0358 8.8047 47.7476 8.8047 54.8381Z" fill="url(#paint95_radial_9_15825)"/>
<path fill-rule="evenodd" clip-rule="evenodd" d="M33.3962 45.4826C45.8638 45.4826 56.1226 50.3081 57.7424 56.5615C57.8896 55.9707 57.9878 55.429 57.9878 54.8381C57.9878 47.7476 46.9437 42.0358 33.3472 42.0358C19.7506 42.0358 8.8047 47.7476 8.8047 54.8381C8.8047 55.429 8.90287 56.0199 9.05012 56.5615C10.6699 50.3081 20.9778 45.4826 33.3962 45.4826Z" fill="url(#paint96_linear_9_15825)"/>
<path fill-rule="evenodd" clip-rule="evenodd" d="M11.9953 66.0156C14.9403 65.3754 18.229 65.9171 18.9162 66.1633C19.7016 66.4587 22.4013 67.9359 24.2174 70.201C21.9595 71.7766 20.7324 72.1213 20.1924 71.8751C18.6708 71.2842 14.1059 68.3791 12.0443 65.9663L11.9953 66.0156Z" fill="url(#paint97_radial_9_15825)"/>
<path style="mix-blend-mode:screen" fill-rule="evenodd" clip-rule="evenodd" d="M20.1434 71.8752C20.6342 72.0721 21.665 71.8752 23.4811 70.6442C23.6775 70.4964 23.9229 70.3487 24.1683 70.1518C23.7266 69.6101 23.2357 69.1177 22.7449 68.6746C21.1741 67.2466 19.5053 66.3603 18.8672 66.1141C16.8547 65.3755 19.3089 71.5305 20.1434 71.8259V71.8752Z" fill="url(#paint98_radial_9_15825)"/>
<path fill-rule="evenodd" clip-rule="evenodd" d="M10.1899 55.6109C10.239 55.9556 10.3372 56.3495 10.4844 56.6942C11.5643 60.0425 14.6076 62.9969 18.927 65.1634C24.081 67.8224 31.1001 69.3981 38.7573 69.3981C46.4146 69.3981 53.4337 67.7731 58.5877 65.1634C62.9071 62.9476 65.9504 59.9932 67.0303 56.6942C67.1284 56.3495 67.2266 55.9556 67.3248 55.6109C67.1775 53.5428 67.4229 45.369 67.7665 43.3502H9.74817C10.0918 45.369 10.3372 53.5428 10.1899 55.6109Z" fill="url(#paint99_linear_9_15825)"/>
<path style="mix-blend-mode:multiply" fill-rule="evenodd" clip-rule="evenodd" d="M10.4844 56.6942C11.2207 59.0085 12.9878 61.175 15.3929 62.9969C15.0984 61.0273 15.0493 51.8687 15.3439 50.9824C14.2149 50.1946 13.1841 49.3082 12.3497 48.3727C11.7116 47.6833 11.2207 46.9447 10.779 46.2061C10.239 45.2706 9.89542 44.2858 9.69909 43.301C10.0427 45.3198 10.2881 53.4936 10.1409 55.5617C10.1899 55.9064 10.2881 56.3003 10.4354 56.645L10.4844 56.6942Z" fill="url(#paint100_linear_9_15825)"/>
<path style="mix-blend-mode:multiply" fill-rule="evenodd" clip-rule="evenodd" d="M57.3115 53.9368C57.7532 55.6602 57.7532 64.5726 57.2624 65.8529C57.7042 65.6559 58.195 65.4097 58.6368 65.2127C62.9562 62.997 65.9995 60.0426 67.0794 56.7435C67.1775 56.3988 67.2757 56.0049 67.3739 55.6602C67.2266 53.5921 67.472 45.4676 67.8156 43.3995C67.3248 46.1569 65.4596 48.6681 62.5636 50.7855C61.091 51.9672 59.324 53.0505 57.3115 53.986V53.9368Z" fill="url(#paint101_linear_9_15825)"/>
<path style="mix-blend-mode:screen" fill-rule="evenodd" clip-rule="evenodd" d="M9.89541 42.7593C9.89541 51.2286 22.7066 58.1222 38.561 58.1222C54.4154 58.1222 67.2266 51.2286 67.2266 42.7593C67.2266 34.2901 54.4154 27.3965 38.561 27.3965C22.7066 27.3965 9.89541 34.2901 9.89541 42.7593Z" fill="url(#paint102_linear_9_15825)"/>
<path fill-rule="evenodd" clip-rule="evenodd" d="M9.65001 41.9715C9.65001 50.3423 22.7066 57.1374 38.8065 57.1374C54.9063 57.1374 67.9629 50.3423 67.9629 41.9715C67.9629 33.6007 54.9063 26.8056 38.8065 26.8056C22.7066 26.8056 9.65001 33.6007 9.65001 41.9715Z" fill="url(#paint103_radial_9_15825)"/>
<g style="mix-blend-mode:screen" opacity="0.75">
<path fill-rule="evenodd" clip-rule="evenodd" d="M14.264 41.676C14.3622 48.7173 25.5045 54.2322 39.101 53.986C52.6975 53.789 63.6434 47.8802 63.5453 40.8882C63.4471 33.8469 52.3048 28.332 38.7083 28.5782C25.1118 28.8244 14.1658 34.6839 14.264 41.676Z" fill="#F6A410"/>
</g>
<g opacity="0.5">
<path fill-rule="evenodd" clip-rule="evenodd" d="M14.1658 41.9715C14.1658 49.062 25.2099 54.7739 38.8064 54.7739C52.4029 54.7739 63.447 49.0128 63.447 41.9715C63.447 34.9302 52.4029 29.1691 38.8064 29.1691C25.2099 29.1691 14.1658 34.9302 14.1658 41.9715Z" fill="url(#paint104_radial_9_15825)"/>
</g>
<path fill-rule="evenodd" clip-rule="evenodd" d="M38.7573 32.6651C51.2249 32.6651 61.4837 37.4906 63.1035 43.7441C63.2507 43.1532 63.3489 42.6116 63.3489 42.0207C63.3489 34.9302 52.3048 29.2183 38.7082 29.2183C25.1117 29.2183 14.0676 34.9794 14.0676 42.0207C14.0676 42.6116 14.1658 43.2024 14.313 43.7441C15.9329 37.4906 26.2407 32.6651 38.6592 32.6651H38.7573Z" fill="url(#paint105_linear_9_15825)"/>
<path fill-rule="evenodd" clip-rule="evenodd" d="M17.6955 41.672C17.7446 42.0167 17.8428 42.4106 17.99 42.7553C19.0699 46.1036 22.1132 49.058 26.4326 51.2246C31.5866 53.8835 38.6057 55.4592 46.2629 55.4592C53.9202 55.4592 60.9393 53.8343 66.0932 51.2246C70.4127 49.0088 73.456 46.0544 74.5359 42.7553C74.634 42.4106 74.7322 42.0167 74.8304 41.672C74.6831 39.604 74.9285 31.4302 75.2721 29.4113H17.2538C17.5974 31.4302 17.8428 39.604 17.6955 41.672Z" fill="url(#paint106_linear_9_15825)"/>
<path style="mix-blend-mode:multiply" fill-rule="evenodd" clip-rule="evenodd" d="M17.99 42.7554C18.7263 45.0696 20.4934 47.2362 22.8985 49.0581C22.604 47.0885 22.5549 37.9299 22.8494 37.0435C21.7205 36.2557 20.6897 35.3694 19.8552 34.4338C19.2171 33.7445 18.7263 33.0059 18.2845 32.2673C17.7446 31.3317 17.401 30.3469 17.2047 29.3621C17.5483 31.381 17.7937 39.5548 17.6464 41.6229C17.6955 41.9675 17.7937 42.3615 17.9409 42.7061L17.99 42.7554Z" fill="url(#paint107_linear_9_15825)"/>
<path style="mix-blend-mode:multiply" fill-rule="evenodd" clip-rule="evenodd" d="M64.8171 39.9979C65.2588 41.7213 65.2588 50.6337 64.768 51.914C65.2097 51.717 65.7006 51.4708 66.1423 51.2738C70.4618 49.058 73.5051 46.1037 74.585 42.8046C74.6831 42.4599 74.7813 42.066 74.8795 41.7213C74.7322 39.6532 74.9776 31.5286 75.3212 29.4606C74.8304 32.218 72.9652 34.7292 70.0691 36.8466C68.5966 38.0283 66.8295 39.1116 64.8171 40.0471V39.9979Z" fill="url(#paint108_linear_9_15825)"/>
<path style="mix-blend-mode:screen" fill-rule="evenodd" clip-rule="evenodd" d="M17.401 28.8204C17.401 32.4642 19.7571 35.8125 23.7329 38.4222C25.2546 40.9827 30.114 44.4295 32.9609 45.3158C34.2371 45.7097 37.035 44.331 37.7712 43.4939C40.3727 43.9371 43.1706 44.134 46.0666 44.134C61.8719 44.134 74.7322 37.2404 74.7322 28.7712C74.7322 20.3019 61.8719 13.4576 46.0666 13.4576C30.2612 13.4576 17.401 20.3019 17.401 28.8204Z" fill="url(#paint109_linear_9_15825)"/>
<path fill-rule="evenodd" clip-rule="evenodd" d="M17.1556 28.0326C17.1556 36.4034 30.2122 43.1985 46.312 43.1985C62.4119 43.1985 75.4685 36.4034 75.4685 28.0326C75.4685 19.6618 62.3628 12.8667 46.2629 12.8667C30.1631 12.8667 17.1556 19.6618 17.1556 28.0326Z" fill="url(#paint110_radial_9_15825)"/>
<path style="mix-blend-mode:screen" fill-rule="evenodd" clip-rule="evenodd" d="M70.7563 26.7031C71.0508 25.1274 74.0941 24.7335 75.1739 26.1122C73.3578 18.677 61.0866 12.8667 46.2629 12.8667C30.1631 12.8667 17.1556 19.6618 17.1556 28.0326C17.1556 30.3469 18.1373 32.5134 19.9043 34.483C19.8062 33.4982 22.0641 32.6611 24.322 33.7937C24.0275 33.449 70.7563 26.5061 70.8054 26.7031H70.7563Z" fill="url(#paint111_linear_9_15825)"/>
<g style="mix-blend-mode:screen" opacity="0.75">
<path fill-rule="evenodd" clip-rule="evenodd" d="M21.7695 27.7371C21.8677 34.7784 33.01 40.2933 46.6065 40.0471C60.203 39.8501 71.149 33.9413 71.0508 26.9493C70.9526 19.9079 59.8103 14.3931 46.2138 14.6393C32.6173 14.8362 21.6714 20.745 21.7695 27.7371Z" fill="#F6A410"/>
</g>
<path fill-rule="evenodd" clip-rule="evenodd" d="M21.6714 28.0325C21.6714 35.1231 32.7155 40.8349 46.312 40.8349C59.9085 40.8349 70.9526 35.0738 70.9526 28.0325C70.9526 20.9912 59.9085 15.2302 46.312 15.2302C32.7155 15.2302 21.6714 20.942 21.6714 28.0325Z" fill="url(#paint112_radial_9_15825)"/>
<path fill-rule="evenodd" clip-rule="evenodd" d="M46.2629 18.677C58.7305 18.677 68.9892 23.5025 70.609 29.7559C70.7563 29.1651 70.8544 28.6234 70.8544 28.0325C70.8544 20.942 59.8103 15.2302 46.2138 15.2302C32.6173 15.2302 21.6714 20.942 21.6714 28.0325C21.6714 28.6234 21.7695 29.2143 21.9168 29.7559C23.5366 23.5025 33.8444 18.677 46.2629 18.677Z" fill="url(#paint113_linear_9_15825)"/>
<path fill-rule="evenodd" clip-rule="evenodd" d="M24.8619 39.21C27.807 38.5699 31.0957 39.1115 31.7829 39.3577C32.5683 39.6532 35.2679 41.1304 37.0841 43.3954C34.8262 44.9711 33.599 45.3158 33.0591 45.0696C31.5375 44.4787 26.9726 41.5735 24.911 39.1608L24.8619 39.21Z" fill="url(#paint114_radial_9_15825)"/>
<path style="mix-blend-mode:screen" fill-rule="evenodd" clip-rule="evenodd" d="M33.01 45.0696C33.5009 45.2665 34.5316 45.0696 36.3478 43.8386C36.5441 43.6908 36.7896 43.5431 37.035 43.3462C36.5932 42.8045 36.1024 42.3121 35.6115 41.869C34.0408 40.441 32.3719 39.5547 31.7338 39.3085C29.7213 38.5699 32.1756 44.7249 33.01 45.0203V45.0696Z" fill="url(#paint115_radial_9_15825)"/>
<path fill-rule="evenodd" clip-rule="evenodd" d="M23.0566 28.8053C23.1057 29.15 23.2038 29.5439 23.3511 29.8886C24.431 33.2369 27.4742 36.1913 31.7937 38.3578C36.9476 41.0168 43.9668 42.5925 51.624 42.5925C59.2812 42.5925 66.3004 40.9675 71.4543 38.3578C75.7738 36.142 78.817 33.1876 79.8969 29.8886C79.9951 29.5439 80.0932 29.15 80.1914 28.8053C80.0442 26.7372 80.2896 18.5634 80.6332 16.5446H22.6148C22.9584 18.5634 23.2038 26.7372 23.0566 28.8053Z" fill="url(#paint116_linear_9_15825)"/>
<path style="mix-blend-mode:multiply" fill-rule="evenodd" clip-rule="evenodd" d="M23.3511 29.8886C24.0874 32.2028 25.8544 34.3694 28.2596 36.1913C27.9651 34.2217 27.916 25.063 28.2105 24.1767C27.0816 23.3889 26.0508 22.5026 25.2163 21.567C24.5782 20.8777 24.0874 20.1391 23.6456 19.4005C23.1057 18.4649 22.7621 17.4801 22.5658 16.4953C22.9093 18.5141 23.1548 26.688 23.0075 28.756C23.0566 29.1007 23.1548 29.4946 23.302 29.8393L23.3511 29.8886Z" fill="url(#paint117_linear_9_15825)"/>
<path style="mix-blend-mode:multiply" fill-rule="evenodd" clip-rule="evenodd" d="M70.1781 27.1311C70.6199 28.8545 70.6199 37.767 70.129 39.0472C70.5708 38.8502 71.0616 38.604 71.5034 38.4071C75.8229 36.1913 78.8662 33.2369 79.946 29.9378C80.0442 29.5931 80.1424 29.1992 80.2405 28.8545C80.0933 26.7865 80.3387 18.6619 80.6823 16.5938C80.1914 19.3512 78.3262 21.8625 75.4302 23.9798C73.9577 25.1616 72.1906 26.2448 70.1781 27.1804V27.1311Z" fill="url(#paint118_linear_9_15825)"/>
<path style="mix-blend-mode:screen" fill-rule="evenodd" clip-rule="evenodd" d="M22.7621 15.9537C22.7621 24.423 35.5732 31.3166 51.4277 31.3166C67.2821 31.3166 80.0933 24.423 80.0933 15.9537C80.0933 7.48447 67.2821 0.590881 51.4277 0.590881C35.5732 0.590881 22.7621 7.48447 22.7621 15.9537Z" fill="url(#paint119_linear_9_15825)"/>
<path fill-rule="evenodd" clip-rule="evenodd" d="M22.5167 15.1658C22.5167 23.5366 35.5733 30.3317 51.6731 30.3317C67.773 30.3317 80.8296 23.5366 80.8296 15.1658C80.8296 6.79504 67.773 -6.10352e-05 51.6731 -6.10352e-05C35.5733 -6.10352e-05 22.5167 6.79504 22.5167 15.1658Z" fill="url(#paint120_radial_9_15825)"/>
<g style="mix-blend-mode:screen" opacity="0.75">
<path fill-rule="evenodd" clip-rule="evenodd" d="M27.1307 14.8703C27.2289 21.9116 38.3711 27.4265 51.9676 27.1803C65.5642 26.9833 76.5101 21.0746 76.4119 14.0825C76.3138 7.04119 65.1715 1.52632 51.575 1.77252C37.9784 2.01872 27.0325 7.87826 27.1307 14.8703Z" fill="#F6A410"/>
</g>
<g opacity="0.5">
<path fill-rule="evenodd" clip-rule="evenodd" d="M27.0325 15.1658C27.0325 22.2564 38.0766 27.9682 51.6731 27.9682C65.2696 27.9682 76.3137 22.2071 76.3137 15.1658C76.3137 8.12453 65.2696 2.36346 51.6731 2.36346C38.0766 2.36346 27.0325 8.12453 27.0325 15.1658Z" fill="url(#paint121_radial_9_15825)"/>
</g>
<path fill-rule="evenodd" clip-rule="evenodd" d="M51.624 5.85951C64.0916 5.85951 74.3503 10.685 75.9701 16.9385C76.1174 16.3476 76.2155 15.806 76.2155 15.2151C76.2155 8.12455 65.1714 2.41272 51.5749 2.41272C37.9784 2.41272 26.9343 8.17379 26.9343 15.2151C26.9343 15.806 27.0325 16.3968 27.1797 16.9385C28.7995 10.685 39.1073 5.85951 51.5258 5.85951H51.624Z" fill="url(#paint122_linear_9_15825)"/>
<defs>
<linearGradient id="paint0_linear_9_15825" x1="61.4266" y1="87.2771" x2="119.445" y2="87.2771" gradientUnits="userSpaceOnUse">
<stop stop-color="#7A412D"/>
<stop offset="0.29" stop-color="#DB9F42"/>
<stop offset="0.35" stop-color="#C68937"/>
<stop offset="0.5" stop-color="#9E6024"/>
<stop offset="0.61" stop-color="#864718"/>
<stop offset="0.68" stop-color="#7D3E14"/>
<stop offset="0.72" stop-color="#834510"/>
<stop offset="0.77" stop-color="#955806"/>
<stop offset="0.8" stop-color="#A16600"/>
<stop offset="0.93" stop-color="#804710"/>
<stop offset="1" stop-color="#733B17"/>
</linearGradient>
<linearGradient id="paint1_linear_9_15825" x1="61.4266" y1="84.0273" x2="67.0714" y2="84.0273" gradientUnits="userSpaceOnUse">
<stop stop-color="#C9A58D"/>
<stop offset="1" stop-color="#EFEDF2"/>
</linearGradient>
<linearGradient id="paint2_linear_9_15825" x1="108.892" y1="85.4553" x2="119.445" y2="85.4553" gradientUnits="userSpaceOnUse">
<stop offset="0.06" stop-color="white"/>
<stop offset="1" stop-color="#C9A58D"/>
</linearGradient>
<linearGradient id="paint3_linear_9_15825" x1="61.5738" y1="73.6377" x2="118.856" y2="73.6377" gradientUnits="userSpaceOnUse">
<stop stop-color="#EEDD79"/>
<stop offset="1" stop-color="#995506"/>
</linearGradient>
<radialGradient id="paint4_radial_9_15825" cx="0" cy="0" r="1" gradientUnits="userSpaceOnUse" gradientTransform="translate(72.078 84.372) scale(54.926 55.0994)">
<stop stop-color="#EBB932"/>
<stop offset="1" stop-color="#571C00"/>
</radialGradient>
<radialGradient id="paint5_radial_9_15825" cx="0" cy="0" r="1" gradientUnits="userSpaceOnUse" gradientTransform="translate(75.0722 96.4849) scale(64.4976 64.7012)">
<stop stop-color="#FFD561"/>
<stop offset="1" stop-color="#571C00"/>
</radialGradient>
<radialGradient id="paint6_radial_9_15825" cx="0" cy="0" r="1" gradientUnits="userSpaceOnUse" gradientTransform="translate(98.3875 53.794) scale(42.4094 42.5433)">
<stop offset="0.92" stop-color="#733B17"/>
<stop offset="0.93" stop-color="#8D5F42"/>
<stop offset="0.95" stop-color="#AF8F7B"/>
<stop offset="0.96" stop-color="#CBB7AA"/>
<stop offset="0.97" stop-color="#E2D6CF"/>
<stop offset="0.98" stop-color="#F2ECE9"/>
<stop offset="0.99" stop-color="#FBFAF9"/>
<stop offset="1" stop-color="white"/>
</radialGradient>
<linearGradient id="paint7_linear_9_15825" x1="65.7952" y1="67.3349" x2="115.027" y2="67.3349" gradientUnits="userSpaceOnUse">
<stop stop-color="#592C0E"/>
<stop offset="0.4" stop-color="#9D6D2F"/>
<stop offset="0.71" stop-color="#CD9B46"/>
<stop offset="0.87" stop-color="#E0AD4F"/>
<stop offset="1" stop-color="#7A412D"/>
</linearGradient>
<linearGradient id="paint8_linear_9_15825" x1="65.4517" y1="76.7398" x2="123.519" y2="76.7398" gradientUnits="userSpaceOnUse">
<stop stop-color="#7A412D"/>
<stop offset="0.29" stop-color="#DB9F42"/>
<stop offset="0.37" stop-color="#C98C39"/>
<stop offset="0.54" stop-color="#9B5D22"/>
<stop offset="0.64" stop-color="#7D3E14"/>
<stop offset="0.67" stop-color="#844411"/>
<stop offset="0.72" stop-color="#97560B"/>
<stop offset="0.77" stop-color="#B77401"/>
<stop offset="0.78" stop-color="#BC7800"/>
<stop offset="0.84" stop-color="#9B6215"/>
<stop offset="0.9" stop-color="#7E4F28"/>
<stop offset="0.96" stop-color="#6C4434"/>
<stop offset="1" stop-color="#664039"/>
</linearGradient>
<linearGradient id="paint9_linear_9_15825" x1="65.4516" y1="73.5392" x2="71.0964" y2="73.5392" gradientUnits="userSpaceOnUse">
<stop stop-color="#C9A58D"/>
<stop offset="1" stop-color="#EFEDF2"/>
</linearGradient>
<linearGradient id="paint10_linear_9_15825" x1="112.966" y1="74.9672" x2="123.47" y2="74.9672" gradientUnits="userSpaceOnUse">
<stop offset="0.06" stop-color="white"/>
<stop offset="1" stop-color="#C97A1F"/>
</linearGradient>
<linearGradient id="paint11_linear_9_15825" x1="65.5989" y1="64.0852" x2="122.881" y2="64.0852" gradientUnits="userSpaceOnUse">
<stop stop-color="#EEDD79"/>
<stop offset="1" stop-color="#FFAA00"/>
</linearGradient>
<radialGradient id="paint12_radial_9_15825" cx="0" cy="0" r="1" gradientUnits="userSpaceOnUse" gradientTransform="translate(76.103 73.8347) scale(54.926 55.0994)">
<stop stop-color="#FFD561"/>
<stop offset="1" stop-color="#571C00"/>
</radialGradient>
<linearGradient id="paint13_linear_9_15825" x1="82.0914" y1="32.3747" x2="105.73" y2="89.2433" gradientUnits="userSpaceOnUse">
<stop stop-color="#D7924E"/>
<stop offset="0.19" stop-color="#A5703B"/>
<stop offset="0.48" stop-color="#5E4022"/>
<stop offset="0.72" stop-color="#2B1D0F"/>
<stop offset="0.9" stop-color="#0B0804"/>
<stop offset="1"/>
</linearGradient>
<radialGradient id="paint14_radial_9_15825" cx="0" cy="0" r="1" gradientUnits="userSpaceOnUse" gradientTransform="translate(79.0973 85.997) scale(64.4976 64.7012)">
<stop stop-color="#FFD561"/>
<stop offset="1" stop-color="#571C00"/>
</radialGradient>
<linearGradient id="paint15_linear_9_15825" x1="69.8202" y1="56.7977" x2="119.052" y2="56.7977" gradientUnits="userSpaceOnUse">
<stop stop-color="#592C0E"/>
<stop offset="0.4" stop-color="#9D6D2F"/>
<stop offset="0.71" stop-color="#CD9B46"/>
<stop offset="0.87" stop-color="#E0AD4F"/>
<stop offset="1" stop-color="#7A412D"/>
</linearGradient>
<radialGradient id="paint16_radial_9_15825" cx="0" cy="0" r="1" gradientUnits="userSpaceOnUse" gradientTransform="translate(130.649 69.2087) rotate(-34.4342) scale(17.8652 18.2398)">
<stop stop-color="#FFB736"/>
<stop offset="0.11" stop-color="#ECA433"/>
<stop offset="0.32" stop-color="#BC752B"/>
<stop offset="0.56" stop-color="#823C23"/>
<stop offset="1" stop-color="#4D2D18"/>
</radialGradient>
<radialGradient id="paint17_radial_9_15825" cx="0" cy="0" r="1" gradientUnits="userSpaceOnUse" gradientTransform="translate(134.137 61.9025) rotate(-34.4342) scale(10.074 10.2852)">
<stop stop-color="#FFD642"/>
<stop offset="1"/>
</radialGradient>
<linearGradient id="paint18_linear_9_15825" x1="62.9973" y1="63.2481" x2="121.065" y2="63.2481" gradientUnits="userSpaceOnUse">
<stop stop-color="#7A412D"/>
<stop offset="0.29" stop-color="#DB9F42"/>
<stop offset="0.37" stop-color="#C98C39"/>
<stop offset="0.54" stop-color="#9B5D22"/>
<stop offset="0.64" stop-color="#7D3E14"/>
<stop offset="0.67" stop-color="#844411"/>
<stop offset="0.72" stop-color="#97560B"/>
<stop offset="0.77" stop-color="#B77401"/>
<stop offset="0.78" stop-color="#BC7800"/>
<stop offset="0.84" stop-color="#9B6215"/>
<stop offset="0.9" stop-color="#7E4F28"/>
<stop offset="0.96" stop-color="#6C4434"/>
<stop offset="1" stop-color="#664039"/>
</linearGradient>
<linearGradient id="paint19_linear_9_15825" x1="62.9973" y1="60.0475" x2="68.6912" y2="60.0475" gradientUnits="userSpaceOnUse">
<stop stop-color="#C9A58D"/>
<stop offset="1" stop-color="#EFEDF2"/>
</linearGradient>
<linearGradient id="paint20_linear_9_15825" x1="110.512" y1="61.4755" x2="121.065" y2="61.4755" gradientUnits="userSpaceOnUse">
<stop offset="0.06" stop-color="white"/>
<stop offset="1" stop-color="#C97A1F"/>
</linearGradient>
<linearGradient id="paint21_linear_9_15825" x1="63.1446" y1="50.2488" x2="120.476" y2="50.2488" gradientUnits="userSpaceOnUse">
<stop stop-color="#EEDD79"/>
<stop offset="1" stop-color="#FFAA00"/>
</linearGradient>
<radialGradient id="paint22_radial_9_15825" cx="0" cy="0" r="1" gradientUnits="userSpaceOnUse" gradientTransform="translate(73.6979 60.3922) scale(54.926 55.0994)">
<stop stop-color="#FFD561"/>
<stop offset="1" stop-color="#571C00"/>
</radialGradient>
<linearGradient id="paint23_linear_9_15825" x1="79.6371" y1="18.883" x2="103.325" y2="75.7514" gradientUnits="userSpaceOnUse">
<stop stop-color="#D7924E"/>
<stop offset="0.19" stop-color="#A5703B"/>
<stop offset="0.48" stop-color="#5E4022"/>
<stop offset="0.72" stop-color="#2B1D0F"/>
<stop offset="0.9" stop-color="#0B0804"/>
<stop offset="1"/>
</linearGradient>
<radialGradient id="paint24_radial_9_15825" cx="0" cy="0" r="1" gradientUnits="userSpaceOnUse" gradientTransform="translate(76.643 72.5051) scale(64.4976 64.7012)">
<stop stop-color="#FFD561"/>
<stop offset="1" stop-color="#571C00"/>
</radialGradient>
<linearGradient id="paint25_linear_9_15825" x1="67.415" y1="43.3551" x2="116.647" y2="43.3551" gradientUnits="userSpaceOnUse">
<stop stop-color="#592C0E"/>
<stop offset="0.4" stop-color="#9D6D2F"/>
<stop offset="0.71" stop-color="#CD9B46"/>
<stop offset="0.87" stop-color="#E0AD4F"/>
<stop offset="1" stop-color="#7A412D"/>
</linearGradient>
<radialGradient id="paint26_radial_9_15825" cx="0" cy="0" r="1" gradientUnits="userSpaceOnUse" gradientTransform="translate(74.4469 65.6584) rotate(16.4991) scale(23.5667 21.7388)">
<stop stop-color="#FFB736"/>
<stop offset="0.11" stop-color="#ECA433"/>
<stop offset="0.32" stop-color="#BC752B"/>
<stop offset="0.56" stop-color="#823C23"/>
<stop offset="1" stop-color="#4D2D18"/>
</radialGradient>
<radialGradient id="paint27_radial_9_15825" cx="0" cy="0" r="1" gradientUnits="userSpaceOnUse" gradientTransform="translate(76.3139 59.3152) rotate(16.4991) scale(9.77037 9.01255)">
<stop stop-color="#FFD642"/>
<stop offset="1"/>
</radialGradient>
<linearGradient id="paint28_linear_9_15825" x1="115.224" y1="106.038" x2="173.291" y2="106.038" gradientUnits="userSpaceOnUse">
<stop stop-color="#7A412D"/>
<stop offset="0.29" stop-color="#DB9F42"/>
<stop offset="0.35" stop-color="#C68937"/>
<stop offset="0.5" stop-color="#9E6024"/>
<stop offset="0.61" stop-color="#864718"/>
<stop offset="0.68" stop-color="#7D3E14"/>
<stop offset="0.72" stop-color="#834510"/>
<stop offset="0.77" stop-color="#955806"/>
<stop offset="0.8" stop-color="#A16600"/>
<stop offset="0.93" stop-color="#804710"/>
<stop offset="1" stop-color="#733B17"/>
</linearGradient>
<linearGradient id="paint29_linear_9_15825" x1="115.224" y1="102.837" x2="120.917" y2="102.837" gradientUnits="userSpaceOnUse">
<stop stop-color="#C9A58D"/>
<stop offset="1" stop-color="#EFEDF2"/>
</linearGradient>
<linearGradient id="paint30_linear_9_15825" x1="162.738" y1="104.265" x2="173.291" y2="104.265" gradientUnits="userSpaceOnUse">
<stop offset="0.06" stop-color="white"/>
<stop offset="1" stop-color="#C9A58D"/>
</linearGradient>
<linearGradient id="paint31_linear_9_15825" x1="115.371" y1="92.3981" x2="172.702" y2="92.3981" gradientUnits="userSpaceOnUse">
<stop stop-color="#EEDD79"/>
<stop offset="1" stop-color="#995506"/>
</linearGradient>
<radialGradient id="paint32_radial_9_15825" cx="0" cy="0" r="1" gradientUnits="userSpaceOnUse" gradientTransform="translate(125.924 103.132) scale(54.926 55.0994)">
<stop stop-color="#EBB932"/>
<stop offset="1" stop-color="#571C00"/>
</radialGradient>
<radialGradient id="paint33_radial_9_15825" cx="0" cy="0" r="1" gradientUnits="userSpaceOnUse" gradientTransform="translate(128.869 115.295) scale(2.45425 2.46199)">
<stop stop-color="#FFD561"/>
<stop offset="1" stop-color="#571C00"/>
</radialGradient>
<linearGradient id="paint34_linear_9_15825" x1="119.641" y1="86.0954" x2="168.873" y2="86.0954" gradientUnits="userSpaceOnUse">
<stop stop-color="#592C0E"/>
<stop offset="0.4" stop-color="#9D6D2F"/>
<stop offset="0.71" stop-color="#CD9B46"/>
<stop offset="0.87" stop-color="#E0AD4F"/>
<stop offset="1" stop-color="#7A412D"/>
</linearGradient>
<linearGradient id="paint35_linear_9_15825" x1="119.936" y1="93.3338" x2="178.003" y2="93.3338" gradientUnits="userSpaceOnUse">
<stop stop-color="#7A412D"/>
<stop offset="0.29" stop-color="#DB9F42"/>
<stop offset="0.35" stop-color="#C68937"/>
<stop offset="0.5" stop-color="#9E6024"/>
<stop offset="0.61" stop-color="#864718"/>
<stop offset="0.68" stop-color="#7D3E14"/>
<stop offset="0.72" stop-color="#834510"/>
<stop offset="0.77" stop-color="#955806"/>
<stop offset="0.8" stop-color="#A16600"/>
<stop offset="0.93" stop-color="#804710"/>
<stop offset="1" stop-color="#733B17"/>
</linearGradient>
<linearGradient id="paint36_linear_9_15825" x1="119.936" y1="90.0839" x2="125.63" y2="90.0839" gradientUnits="userSpaceOnUse">
<stop stop-color="#C9A58D"/>
<stop offset="1" stop-color="#EFEDF2"/>
</linearGradient>
<linearGradient id="paint37_linear_9_15825" x1="167.45" y1="91.5119" x2="178.003" y2="91.5119" gradientUnits="userSpaceOnUse">
<stop offset="0.06" stop-color="white"/>
<stop offset="1" stop-color="#C9A58D"/>
</linearGradient>
<linearGradient id="paint38_linear_9_15825" x1="120.083" y1="79.6943" x2="177.414" y2="79.6943" gradientUnits="userSpaceOnUse">
<stop stop-color="#EEDD79"/>
<stop offset="1" stop-color="#995506"/>
</linearGradient>
<radialGradient id="paint39_radial_9_15825" cx="0" cy="0" r="1" gradientUnits="userSpaceOnUse" gradientTransform="translate(130.636 90.4285) scale(54.926 55.0994)">
<stop stop-color="#EBB932"/>
<stop offset="1" stop-color="#571C00"/>
</radialGradient>
<radialGradient id="paint40_radial_9_15825" cx="0" cy="0" r="1" gradientUnits="userSpaceOnUse" gradientTransform="translate(133.581 102.591) scale(64.4976 64.7012)">
<stop stop-color="#FFD561"/>
<stop offset="1" stop-color="#571C00"/>
</radialGradient>
<linearGradient id="paint41_linear_9_15825" x1="124.353" y1="73.3915" x2="173.586" y2="73.3915" gradientUnits="userSpaceOnUse">
<stop stop-color="#592C0E"/>
<stop offset="0.4" stop-color="#9D6D2F"/>
<stop offset="0.71" stop-color="#CD9B46"/>
<stop offset="0.87" stop-color="#E0AD4F"/>
<stop offset="1" stop-color="#7A412D"/>
</linearGradient>
<linearGradient id="paint42_linear_9_15825" x1="68.9366" y1="119.037" x2="126.955" y2="119.037" gradientUnits="userSpaceOnUse">
<stop stop-color="#7A412D"/>
<stop offset="0.29" stop-color="#DB9F42"/>
<stop offset="0.35" stop-color="#C68937"/>
<stop offset="0.5" stop-color="#9E6024"/>
<stop offset="0.61" stop-color="#864718"/>
<stop offset="0.68" stop-color="#7D3E14"/>
<stop offset="0.72" stop-color="#834510"/>
<stop offset="0.77" stop-color="#955806"/>
<stop offset="0.8" stop-color="#A16600"/>
<stop offset="0.93" stop-color="#804710"/>
<stop offset="1" stop-color="#733B17"/>
</linearGradient>
<linearGradient id="paint43_linear_9_15825" x1="68.9366" y1="115.836" x2="74.5814" y2="115.836" gradientUnits="userSpaceOnUse">
<stop stop-color="#C9A58D"/>
<stop offset="1" stop-color="#EFEDF2"/>
</linearGradient>
<linearGradient id="paint44_linear_9_15825" x1="116.402" y1="117.264" x2="126.955" y2="117.264" gradientUnits="userSpaceOnUse">
<stop offset="0.06" stop-color="white"/>
<stop offset="1" stop-color="#C9A58D"/>
</linearGradient>
<linearGradient id="paint45_linear_9_15825" x1="69.0348" y1="105.447" x2="126.366" y2="105.447" gradientUnits="userSpaceOnUse">
<stop stop-color="#EEDD79"/>
<stop offset="1" stop-color="#995506"/>
</linearGradient>
<radialGradient id="paint46_radial_9_15825" cx="0" cy="0" r="1" gradientUnits="userSpaceOnUse" gradientTransform="translate(79.588 116.132) scale(54.926 55.0994)">
<stop stop-color="#EBB932"/>
<stop offset="1" stop-color="#571C00"/>
</radialGradient>
<radialGradient id="paint47_radial_9_15825" cx="0" cy="0" r="1" gradientUnits="userSpaceOnUse" gradientTransform="translate(82.5332 128.294) scale(64.4976 64.7012)">
<stop stop-color="#FFD561"/>
<stop offset="1" stop-color="#571C00"/>
</radialGradient>
<linearGradient id="paint48_linear_9_15825" x1="73.3052" y1="99.0948" x2="122.537" y2="99.0948" gradientUnits="userSpaceOnUse">
<stop stop-color="#592C0E"/>
<stop offset="0.4" stop-color="#9D6D2F"/>
<stop offset="0.71" stop-color="#CD9B46"/>
<stop offset="0.87" stop-color="#E0AD4F"/>
<stop offset="1" stop-color="#7A412D"/>
</linearGradient>
<linearGradient id="paint49_linear_9_15825" x1="8.67596" y1="118.538" x2="66.7434" y2="118.538" gradientUnits="userSpaceOnUse">
<stop stop-color="#7A412D"/>
<stop offset="0.29" stop-color="#DB9F42"/>
<stop offset="0.37" stop-color="#C98C39"/>
<stop offset="0.54" stop-color="#9B5D22"/>
<stop offset="0.64" stop-color="#7D3E14"/>
<stop offset="0.67" stop-color="#844411"/>
<stop offset="0.72" stop-color="#97560B"/>
<stop offset="0.77" stop-color="#B77401"/>
<stop offset="0.78" stop-color="#BC7800"/>
<stop offset="0.84" stop-color="#9B6215"/>
<stop offset="0.9" stop-color="#7E4F28"/>
<stop offset="0.96" stop-color="#6C4434"/>
<stop offset="1" stop-color="#664039"/>
</linearGradient>
<linearGradient id="paint50_linear_9_15825" x1="8.67598" y1="115.338" x2="14.3698" y2="115.338" gradientUnits="userSpaceOnUse">
<stop stop-color="#C9A58D"/>
<stop offset="1" stop-color="#EFEDF2"/>
</linearGradient>
<linearGradient id="paint51_linear_9_15825" x1="56.1902" y1="116.766" x2="66.7434" y2="116.766" gradientUnits="userSpaceOnUse">
<stop offset="0.06" stop-color="white"/>
<stop offset="1" stop-color="#C97A1F"/>
</linearGradient>
<linearGradient id="paint52_linear_9_15825" x1="8.82323" y1="105.539" x2="66.1544" y2="105.539" gradientUnits="userSpaceOnUse">
<stop stop-color="#EEDD79"/>
<stop offset="1" stop-color="#FFAA00"/>
</linearGradient>
<radialGradient id="paint53_radial_9_15825" cx="0" cy="0" r="1" gradientUnits="userSpaceOnUse" gradientTransform="translate(19.3765 115.683) scale(54.926 55.0994)">
<stop stop-color="#FFD561"/>
<stop offset="1" stop-color="#571C00"/>
</radialGradient>
<linearGradient id="paint54_linear_9_15825" x1="25.3157" y1="74.1733" x2="49.0035" y2="131.042" gradientUnits="userSpaceOnUse">
<stop stop-color="#D7924E"/>
<stop offset="0.19" stop-color="#A5703B"/>
<stop offset="0.48" stop-color="#5E4022"/>
<stop offset="0.72" stop-color="#2B1D0F"/>
<stop offset="0.9" stop-color="#0B0804"/>
<stop offset="1"/>
</linearGradient>
<radialGradient id="paint55_radial_9_15825" cx="0" cy="0" r="1" gradientUnits="userSpaceOnUse" gradientTransform="translate(22.3216 127.796) scale(64.4976 64.7012)">
<stop stop-color="#FFD561"/>
<stop offset="1" stop-color="#571C00"/>
</radialGradient>
<linearGradient id="paint56_linear_9_15825" x1="13.0936" y1="98.6455" x2="62.3258" y2="98.6455" gradientUnits="userSpaceOnUse">
<stop stop-color="#592C0E"/>
<stop offset="0.4" stop-color="#9D6D2F"/>
<stop offset="0.71" stop-color="#CD9B46"/>
<stop offset="0.87" stop-color="#E0AD4F"/>
<stop offset="1" stop-color="#7A412D"/>
</linearGradient>
<radialGradient id="paint57_radial_9_15825" cx="0" cy="0" r="1" gradientUnits="userSpaceOnUse" gradientTransform="translate(20.1255 120.949) rotate(16.4991) scale(23.5667 21.7388)">
<stop stop-color="#FFB736"/>
<stop offset="0.11" stop-color="#ECA433"/>
<stop offset="0.32" stop-color="#BC752B"/>
<stop offset="0.56" stop-color="#823C23"/>
<stop offset="1" stop-color="#4D2D18"/>
</radialGradient>
<radialGradient id="paint58_radial_9_15825" cx="0" cy="0" r="1" gradientUnits="userSpaceOnUse" gradientTransform="translate(21.9926 114.606) rotate(16.4991) scale(9.77037 9.01255)">
<stop stop-color="#FFD642"/>
<stop offset="1"/>
</radialGradient>
<linearGradient id="paint59_linear_9_15825" x1="8.67573" y1="106.744" x2="66.7432" y2="106.744" gradientUnits="userSpaceOnUse">
<stop stop-color="#7A412D"/>
<stop offset="0.29" stop-color="#DB9F42"/>
<stop offset="0.37" stop-color="#C98C39"/>
<stop offset="0.54" stop-color="#9B5D22"/>
<stop offset="0.64" stop-color="#7D3E14"/>
<stop offset="0.67" stop-color="#844411"/>
<stop offset="0.72" stop-color="#97560B"/>
<stop offset="0.77" stop-color="#B77401"/>
<stop offset="0.78" stop-color="#BC7800"/>
<stop offset="0.84" stop-color="#9B6215"/>
<stop offset="0.9" stop-color="#7E4F28"/>
<stop offset="0.96" stop-color="#6C4434"/>
<stop offset="1" stop-color="#664039"/>
</linearGradient>
<linearGradient id="paint60_linear_9_15825" x1="8.67598" y1="103.543" x2="14.3698" y2="103.543" gradientUnits="userSpaceOnUse">
<stop stop-color="#C9A58D"/>
<stop offset="1" stop-color="#EFEDF2"/>
</linearGradient>
<linearGradient id="paint61_linear_9_15825" x1="56.1902" y1="104.971" x2="66.7434" y2="104.971" gradientUnits="userSpaceOnUse">
<stop offset="0.06" stop-color="white"/>
<stop offset="1" stop-color="#C97A1F"/>
</linearGradient>
<linearGradient id="paint62_linear_9_15825" x1="8.82323" y1="93.7447" x2="66.1544" y2="93.7447" gradientUnits="userSpaceOnUse">
<stop stop-color="#EEDD79"/>
<stop offset="1" stop-color="#FFAA00"/>
</linearGradient>
<radialGradient id="paint63_radial_9_15825" cx="0" cy="0" r="1" gradientUnits="userSpaceOnUse" gradientTransform="translate(19.3765 103.888) scale(54.926 55.0994)">
<stop stop-color="#FFD561"/>
<stop offset="1" stop-color="#571C00"/>
</radialGradient>
<linearGradient id="paint64_linear_9_15825" x1="25.3157" y1="62.3789" x2="49.0035" y2="119.247" gradientUnits="userSpaceOnUse">
<stop stop-color="#D7924E"/>
<stop offset="0.19" stop-color="#A5703B"/>
<stop offset="0.48" stop-color="#5E4022"/>
<stop offset="0.72" stop-color="#2B1D0F"/>
<stop offset="0.9" stop-color="#0B0804"/>
<stop offset="1"/>
</linearGradient>
<radialGradient id="paint65_radial_9_15825" cx="0" cy="0" r="1" gradientUnits="userSpaceOnUse" gradientTransform="translate(22.3216 116.001) scale(64.4976 64.7012)">
<stop stop-color="#FFD561"/>
<stop offset="1" stop-color="#571C00"/>
</radialGradient>
<linearGradient id="paint66_linear_9_15825" x1="13.0936" y1="86.8511" x2="62.3258" y2="86.8511" gradientUnits="userSpaceOnUse">
<stop stop-color="#592C0E"/>
<stop offset="0.4" stop-color="#9D6D2F"/>
<stop offset="0.71" stop-color="#CD9B46"/>
<stop offset="0.87" stop-color="#E0AD4F"/>
<stop offset="1" stop-color="#7A412D"/>
</linearGradient>
<radialGradient id="paint67_radial_9_15825" cx="0" cy="0" r="1" gradientUnits="userSpaceOnUse" gradientTransform="translate(20.1255 109.154) rotate(16.4991) scale(23.5667 21.7388)">
<stop stop-color="#FFB736"/>
<stop offset="0.11" stop-color="#ECA433"/>
<stop offset="0.32" stop-color="#BC752B"/>
<stop offset="0.56" stop-color="#823C23"/>
<stop offset="1" stop-color="#4D2D18"/>
</radialGradient>
<radialGradient id="paint68_radial_9_15825" cx="0" cy="0" r="1" gradientUnits="userSpaceOnUse" gradientTransform="translate(21.9926 102.811) rotate(16.4991) scale(9.77037 9.01255)">
<stop stop-color="#FFD642"/>
<stop offset="1"/>
</radialGradient>
<linearGradient id="paint69_linear_9_15825" x1="0.098175" y1="94.9496" x2="58.1656" y2="94.9496" gradientUnits="userSpaceOnUse">
<stop stop-color="#7A412D"/>
<stop offset="0.29" stop-color="#DB9F42"/>
<stop offset="0.37" stop-color="#C98C39"/>
<stop offset="0.54" stop-color="#9B5D22"/>
<stop offset="0.64" stop-color="#7D3E14"/>
<stop offset="0.67" stop-color="#844411"/>
<stop offset="0.72" stop-color="#97560B"/>
<stop offset="0.77" stop-color="#B77401"/>
<stop offset="0.78" stop-color="#BC7800"/>
<stop offset="0.84" stop-color="#9B6215"/>
<stop offset="0.9" stop-color="#7E4F28"/>
<stop offset="0.96" stop-color="#6C4434"/>
<stop offset="1" stop-color="#664039"/>
</linearGradient>
<linearGradient id="paint70_linear_9_15825" x1="0.0981724" y1="91.749" x2="5.79202" y2="91.749" gradientUnits="userSpaceOnUse">
<stop stop-color="#C9A58D"/>
<stop offset="1" stop-color="#EFEDF2"/>
</linearGradient>
<linearGradient id="paint71_linear_9_15825" x1="47.6124" y1="93.177" x2="58.1657" y2="93.177" gradientUnits="userSpaceOnUse">
<stop offset="0.06" stop-color="white"/>
<stop offset="1" stop-color="#C97A1F"/>
</linearGradient>
<linearGradient id="paint72_linear_9_15825" x1="0.245407" y1="81.9502" x2="57.5766" y2="81.9502" gradientUnits="userSpaceOnUse">
<stop stop-color="#EEDD79"/>
<stop offset="1" stop-color="#FFAA00"/>
</linearGradient>
<radialGradient id="paint73_radial_9_15825" cx="0" cy="0" r="1" gradientUnits="userSpaceOnUse" gradientTransform="translate(10.7987 92.0937) scale(54.926 55.0994)">
<stop stop-color="#FFD561"/>
<stop offset="1" stop-color="#571C00"/>
</radialGradient>
<linearGradient id="paint74_linear_9_15825" x1="16.738" y1="50.5844" x2="40.4257" y2="107.453" gradientUnits="userSpaceOnUse">
<stop stop-color="#D7924E"/>
<stop offset="0.19" stop-color="#A5703B"/>
<stop offset="0.48" stop-color="#5E4022"/>
<stop offset="0.72" stop-color="#2B1D0F"/>
<stop offset="0.9" stop-color="#0B0804"/>
<stop offset="1"/>
</linearGradient>
<radialGradient id="paint75_radial_9_15825" cx="0" cy="0" r="1" gradientUnits="userSpaceOnUse" gradientTransform="translate(13.7437 104.207) scale(64.4976 64.7012)">
<stop stop-color="#FFD561"/>
<stop offset="1" stop-color="#571C00"/>
</radialGradient>
<linearGradient id="paint76_linear_9_15825" x1="4.51579" y1="75.0566" x2="53.7479" y2="75.0566" gradientUnits="userSpaceOnUse">
<stop stop-color="#592C0E"/>
<stop offset="0.4" stop-color="#9D6D2F"/>
<stop offset="0.71" stop-color="#CD9B46"/>
<stop offset="0.87" stop-color="#E0AD4F"/>
<stop offset="1" stop-color="#7A412D"/>
</linearGradient>
<radialGradient id="paint77_radial_9_15825" cx="0" cy="0" r="1" gradientUnits="userSpaceOnUse" gradientTransform="translate(11.5477 97.3599) rotate(16.4991) scale(23.5667 21.7388)">
<stop stop-color="#FFB736"/>
<stop offset="0.11" stop-color="#ECA433"/>
<stop offset="0.32" stop-color="#BC752B"/>
<stop offset="0.56" stop-color="#823C23"/>
<stop offset="1" stop-color="#4D2D18"/>
</radialGradient>
<radialGradient id="paint78_radial_9_15825" cx="0" cy="0" r="1" gradientUnits="userSpaceOnUse" gradientTransform="translate(13.4147 91.0167) rotate(16.4991) scale(9.77037 9.01255)">
<stop stop-color="#FFD642"/>
<stop offset="1"/>
</radialGradient>
<linearGradient id="paint79_linear_9_15825" x1="6.5315" y1="82.0829" x2="64.599" y2="82.0829" gradientUnits="userSpaceOnUse">
<stop stop-color="#7A412D"/>
<stop offset="0.29" stop-color="#DB9F42"/>
<stop offset="0.37" stop-color="#C98C39"/>
<stop offset="0.54" stop-color="#9B5D22"/>
<stop offset="0.64" stop-color="#7D3E14"/>
<stop offset="0.67" stop-color="#844411"/>
<stop offset="0.72" stop-color="#97560B"/>
<stop offset="0.77" stop-color="#B77401"/>
<stop offset="0.78" stop-color="#BC7800"/>
<stop offset="0.84" stop-color="#9B6215"/>
<stop offset="0.9" stop-color="#7E4F28"/>
<stop offset="0.96" stop-color="#6C4434"/>
<stop offset="1" stop-color="#664039"/>
</linearGradient>
<linearGradient id="paint80_linear_9_15825" x1="6.5315" y1="78.8823" x2="12.2253" y2="78.8823" gradientUnits="userSpaceOnUse">
<stop stop-color="#C9A58D"/>
<stop offset="1" stop-color="#EFEDF2"/>
</linearGradient>
<linearGradient id="paint81_linear_9_15825" x1="54.0457" y1="80.3103" x2="64.599" y2="80.3103" gradientUnits="userSpaceOnUse">
<stop offset="0.06" stop-color="white"/>
<stop offset="1" stop-color="#C97A1F"/>
</linearGradient>
<linearGradient id="paint82_linear_9_15825" x1="6.67875" y1="69.0835" x2="64.0099" y2="69.0835" gradientUnits="userSpaceOnUse">
<stop stop-color="#EEDD79"/>
<stop offset="1" stop-color="#FFAA00"/>
</linearGradient>
<radialGradient id="paint83_radial_9_15825" cx="0" cy="0" r="1" gradientUnits="userSpaceOnUse" gradientTransform="translate(17.232 79.227) scale(54.926 55.0994)">
<stop stop-color="#FFD561"/>
<stop offset="1" stop-color="#571C00"/>
</radialGradient>
<linearGradient id="paint84_linear_9_15825" x1="23.1713" y1="37.7177" x2="46.859" y2="94.5862" gradientUnits="userSpaceOnUse">
<stop stop-color="#D7924E"/>
<stop offset="0.19" stop-color="#A5703B"/>
<stop offset="0.48" stop-color="#5E4022"/>
<stop offset="0.72" stop-color="#2B1D0F"/>
<stop offset="0.9" stop-color="#0B0804"/>
<stop offset="1"/>
</linearGradient>
<radialGradient id="paint85_radial_9_15825" cx="0" cy="0" r="1" gradientUnits="userSpaceOnUse" gradientTransform="translate(20.1771 91.3399) scale(64.4976 64.7012)">
<stop stop-color="#FFD561"/>
<stop offset="1" stop-color="#571C00"/>
</radialGradient>
<linearGradient id="paint86_linear_9_15825" x1="10.9491" y1="62.1899" x2="60.1813" y2="62.1899" gradientUnits="userSpaceOnUse">
<stop stop-color="#592C0E"/>
<stop offset="0.4" stop-color="#9D6D2F"/>
<stop offset="0.71" stop-color="#CD9B46"/>
<stop offset="0.87" stop-color="#E0AD4F"/>
<stop offset="1" stop-color="#7A412D"/>
</linearGradient>
<radialGradient id="paint87_radial_9_15825" cx="0" cy="0" r="1" gradientUnits="userSpaceOnUse" gradientTransform="translate(17.981 84.4932) rotate(16.4991) scale(23.5667 21.7388)">
<stop stop-color="#FFB736"/>
<stop offset="0.11" stop-color="#ECA433"/>
<stop offset="0.32" stop-color="#BC752B"/>
<stop offset="0.56" stop-color="#823C23"/>
<stop offset="1" stop-color="#4D2D18"/>
</radialGradient>
<radialGradient id="paint88_radial_9_15825" cx="0" cy="0" r="1" gradientUnits="userSpaceOnUse" gradientTransform="translate(19.848 78.15) rotate(16.4991) scale(9.77037 9.01255)">
<stop stop-color="#FFD642"/>
<stop offset="1"/>
</radialGradient>
<linearGradient id="paint89_linear_9_15825" x1="4.3871" y1="69.2162" x2="62.4546" y2="69.2162" gradientUnits="userSpaceOnUse">
<stop stop-color="#7A412D"/>
<stop offset="0.29" stop-color="#DB9F42"/>
<stop offset="0.37" stop-color="#C98C39"/>
<stop offset="0.54" stop-color="#9B5D22"/>
<stop offset="0.64" stop-color="#7D3E14"/>
<stop offset="0.67" stop-color="#844411"/>
<stop offset="0.72" stop-color="#97560B"/>
<stop offset="0.77" stop-color="#B77401"/>
<stop offset="0.78" stop-color="#BC7800"/>
<stop offset="0.84" stop-color="#9B6215"/>
<stop offset="0.9" stop-color="#7E4F28"/>
<stop offset="0.96" stop-color="#6C4434"/>
<stop offset="1" stop-color="#664039"/>
</linearGradient>
<linearGradient id="paint90_linear_9_15825" x1="4.38708" y1="66.0156" x2="10.0809" y2="66.0156" gradientUnits="userSpaceOnUse">
<stop stop-color="#C9A58D"/>
<stop offset="1" stop-color="#EFEDF2"/>
</linearGradient>
<linearGradient id="paint91_linear_9_15825" x1="51.9013" y1="67.4436" x2="62.4546" y2="67.4436" gradientUnits="userSpaceOnUse">
<stop offset="0.06" stop-color="white"/>
<stop offset="1" stop-color="#C97A1F"/>
</linearGradient>
<linearGradient id="paint92_linear_9_15825" x1="4.53432" y1="56.2168" x2="61.8655" y2="56.2168" gradientUnits="userSpaceOnUse">
<stop stop-color="#EEDD79"/>
<stop offset="1" stop-color="#FFAA00"/>
</linearGradient>
<radialGradient id="paint93_radial_9_15825" cx="0" cy="0" r="1" gradientUnits="userSpaceOnUse" gradientTransform="translate(15.0876 66.3603) scale(54.926 55.0994)">
<stop stop-color="#FFD561"/>
<stop offset="1" stop-color="#571C00"/>
</radialGradient>
<linearGradient id="paint94_linear_9_15825" x1="21.0268" y1="24.851" x2="44.7146" y2="81.7195" gradientUnits="userSpaceOnUse">
<stop stop-color="#D7924E"/>
<stop offset="0.19" stop-color="#A5703B"/>
<stop offset="0.48" stop-color="#5E4022"/>
<stop offset="0.72" stop-color="#2B1D0F"/>
<stop offset="0.9" stop-color="#0B0804"/>
<stop offset="1"/>
</linearGradient>
<radialGradient id="paint95_radial_9_15825" cx="0" cy="0" r="1" gradientUnits="userSpaceOnUse" gradientTransform="translate(18.0327 78.4733) scale(64.4976 64.7012)">
<stop stop-color="#FFD561"/>
<stop offset="1" stop-color="#571C00"/>
</radialGradient>
<linearGradient id="paint96_linear_9_15825" x1="8.8047" y1="49.3233" x2="58.0369" y2="49.3233" gradientUnits="userSpaceOnUse">
<stop stop-color="#592C0E"/>
<stop offset="0.4" stop-color="#9D6D2F"/>
<stop offset="0.71" stop-color="#CD9B46"/>
<stop offset="0.87" stop-color="#E0AD4F"/>
<stop offset="1" stop-color="#7A412D"/>
</linearGradient>
<radialGradient id="paint97_radial_9_15825" cx="0" cy="0" r="1" gradientUnits="userSpaceOnUse" gradientTransform="translate(15.8366 71.6265) rotate(16.4991) scale(23.5667 21.7388)">
<stop stop-color="#FFB736"/>
<stop offset="0.11" stop-color="#ECA433"/>
<stop offset="0.32" stop-color="#BC752B"/>
<stop offset="0.56" stop-color="#823C23"/>
<stop offset="1" stop-color="#4D2D18"/>
</radialGradient>
<radialGradient id="paint98_radial_9_15825" cx="0" cy="0" r="1" gradientUnits="userSpaceOnUse" gradientTransform="translate(17.7036 65.2833) rotate(16.4991) scale(9.77037 9.01255)">
<stop stop-color="#FFD642"/>
<stop offset="1"/>
</radialGradient>
<linearGradient id="paint99_linear_9_15825" x1="9.74817" y1="56.3987" x2="67.8156" y2="56.3987" gradientUnits="userSpaceOnUse">
<stop stop-color="#7A412D"/>
<stop offset="0.29" stop-color="#DB9F42"/>
<stop offset="0.35" stop-color="#C68937"/>
<stop offset="0.5" stop-color="#9E6024"/>
<stop offset="0.61" stop-color="#864718"/>
<stop offset="0.68" stop-color="#7D3E14"/>
<stop offset="0.72" stop-color="#834510"/>
<stop offset="0.77" stop-color="#955806"/>
<stop offset="0.8" stop-color="#A16600"/>
<stop offset="0.93" stop-color="#804710"/>
<stop offset="1" stop-color="#733B17"/>
</linearGradient>
<linearGradient id="paint100_linear_9_15825" x1="9.74817" y1="53.1489" x2="15.442" y2="53.1489" gradientUnits="userSpaceOnUse">
<stop stop-color="#C9A58D"/>
<stop offset="1" stop-color="#EFEDF2"/>
</linearGradient>
<linearGradient id="paint101_linear_9_15825" x1="57.2624" y1="54.5769" x2="67.8156" y2="54.5769" gradientUnits="userSpaceOnUse">
<stop offset="0.06" stop-color="white"/>
<stop offset="1" stop-color="#C9A58D"/>
</linearGradient>
<linearGradient id="paint102_linear_9_15825" x1="9.89541" y1="42.7593" x2="67.2266" y2="42.7593" gradientUnits="userSpaceOnUse">
<stop stop-color="#EEDD79"/>
<stop offset="1" stop-color="#995506"/>
</linearGradient>
<radialGradient id="paint103_radial_9_15825" cx="0" cy="0" r="1" gradientUnits="userSpaceOnUse" gradientTransform="translate(20.4487 53.4936) scale(54.926 55.0994)">
<stop stop-color="#EBB932"/>
<stop offset="1" stop-color="#571C00"/>
</radialGradient>
<radialGradient id="paint104_radial_9_15825" cx="0" cy="0" r="1" gradientUnits="userSpaceOnUse" gradientTransform="translate(23.3938 65.6559) scale(64.4976 64.7012)">
<stop stop-color="#FFD561"/>
<stop offset="1" stop-color="#571C00"/>
</radialGradient>
<linearGradient id="paint105_linear_9_15825" x1="14.1658" y1="36.4566" x2="63.398" y2="36.4566" gradientUnits="userSpaceOnUse">
<stop stop-color="#592C0E"/>
<stop offset="0.4" stop-color="#9D6D2F"/>
<stop offset="0.71" stop-color="#CD9B46"/>
<stop offset="0.87" stop-color="#E0AD4F"/>
<stop offset="1" stop-color="#7A412D"/>
</linearGradient>
<linearGradient id="paint106_linear_9_15825" x1="17.2538" y1="42.4106" x2="75.3212" y2="42.4106" gradientUnits="userSpaceOnUse">
<stop stop-color="#7A412D"/>
<stop offset="0.29" stop-color="#DB9F42"/>
<stop offset="0.37" stop-color="#C98C39"/>
<stop offset="0.54" stop-color="#9B5D22"/>
<stop offset="0.64" stop-color="#7D3E14"/>
<stop offset="0.67" stop-color="#844411"/>
<stop offset="0.72" stop-color="#97560B"/>
<stop offset="0.77" stop-color="#B77401"/>
<stop offset="0.78" stop-color="#BC7800"/>
<stop offset="0.84" stop-color="#9B6215"/>
<stop offset="0.9" stop-color="#7E4F28"/>
<stop offset="0.96" stop-color="#6C4434"/>
<stop offset="1" stop-color="#664039"/>
</linearGradient>
<linearGradient id="paint107_linear_9_15825" x1="17.2537" y1="39.2101" x2="22.9476" y2="39.2101" gradientUnits="userSpaceOnUse">
<stop stop-color="#C9A58D"/>
<stop offset="1" stop-color="#EFEDF2"/>
</linearGradient>
<linearGradient id="paint108_linear_9_15825" x1="64.768" y1="40.638" x2="75.3212" y2="40.638" gradientUnits="userSpaceOnUse">
<stop offset="0.06" stop-color="white"/>
<stop offset="1" stop-color="#C97A1F"/>
</linearGradient>
<linearGradient id="paint109_linear_9_15825" x1="17.401" y1="29.4113" x2="74.7322" y2="29.4113" gradientUnits="userSpaceOnUse">
<stop stop-color="#EEDD79"/>
<stop offset="1" stop-color="#FFAA00"/>
</linearGradient>
<radialGradient id="paint110_radial_9_15825" cx="0" cy="0" r="1" gradientUnits="userSpaceOnUse" gradientTransform="translate(27.9543 39.5547) scale(54.926 55.0994)">
<stop stop-color="#FFD561"/>
<stop offset="1" stop-color="#571C00"/>
</radialGradient>
<linearGradient id="paint111_linear_9_15825" x1="33.8935" y1="-1.95451" x2="57.5813" y2="54.9139" gradientUnits="userSpaceOnUse">
<stop stop-color="#D7924E"/>
<stop offset="0.19" stop-color="#A5703B"/>
<stop offset="0.48" stop-color="#5E4022"/>
<stop offset="0.72" stop-color="#2B1D0F"/>
<stop offset="0.9" stop-color="#0B0804"/>
<stop offset="1"/>
</linearGradient>
<radialGradient id="paint112_radial_9_15825" cx="0" cy="0" r="1" gradientUnits="userSpaceOnUse" gradientTransform="translate(30.8993 51.6677) scale(64.4976 64.7012)">
<stop stop-color="#FFD561"/>
<stop offset="1" stop-color="#571C00"/>
</radialGradient>
<linearGradient id="paint113_linear_9_15825" x1="21.6714" y1="22.5177" x2="70.9035" y2="22.5177" gradientUnits="userSpaceOnUse">
<stop stop-color="#592C0E"/>
<stop offset="0.4" stop-color="#9D6D2F"/>
<stop offset="0.71" stop-color="#CD9B46"/>
<stop offset="0.87" stop-color="#E0AD4F"/>
<stop offset="1" stop-color="#7A412D"/>
</linearGradient>
<radialGradient id="paint114_radial_9_15825" cx="0" cy="0" r="1" gradientUnits="userSpaceOnUse" gradientTransform="translate(28.7033 44.8209) rotate(16.4991) scale(23.5667 21.7388)">
<stop stop-color="#FFB736"/>
<stop offset="0.11" stop-color="#ECA433"/>
<stop offset="0.32" stop-color="#BC752B"/>
<stop offset="0.56" stop-color="#823C23"/>
<stop offset="1" stop-color="#4D2D18"/>
</radialGradient>
<radialGradient id="paint115_radial_9_15825" cx="0" cy="0" r="1" gradientUnits="userSpaceOnUse" gradientTransform="translate(30.5703 38.4777) rotate(16.4991) scale(9.77037 9.01255)">
<stop stop-color="#FFD642"/>
<stop offset="1"/>
</radialGradient>
<linearGradient id="paint116_linear_9_15825" x1="22.6148" y1="29.5931" x2="80.6823" y2="29.5931" gradientUnits="userSpaceOnUse">
<stop stop-color="#7A412D"/>
<stop offset="0.29" stop-color="#DB9F42"/>
<stop offset="0.35" stop-color="#C68937"/>
<stop offset="0.5" stop-color="#9E6024"/>
<stop offset="0.61" stop-color="#864718"/>
<stop offset="0.68" stop-color="#7D3E14"/>
<stop offset="0.72" stop-color="#834510"/>
<stop offset="0.77" stop-color="#955806"/>
<stop offset="0.8" stop-color="#A16600"/>
<stop offset="0.93" stop-color="#804710"/>
<stop offset="1" stop-color="#733B17"/>
</linearGradient>
<linearGradient id="paint117_linear_9_15825" x1="22.6148" y1="26.3433" x2="28.3087" y2="26.3433" gradientUnits="userSpaceOnUse">
<stop stop-color="#C9A58D"/>
<stop offset="1" stop-color="#EFEDF2"/>
</linearGradient>
<linearGradient id="paint118_linear_9_15825" x1="70.129" y1="27.7713" x2="80.6823" y2="27.7713" gradientUnits="userSpaceOnUse">
<stop offset="0.06" stop-color="white"/>
<stop offset="1" stop-color="#C9A58D"/>
</linearGradient>
<linearGradient id="paint119_linear_9_15825" x1="22.7621" y1="15.9537" x2="80.0933" y2="15.9537" gradientUnits="userSpaceOnUse">
<stop stop-color="#EEDD79"/>
<stop offset="1" stop-color="#995506"/>
</linearGradient>
<radialGradient id="paint120_radial_9_15825" cx="0" cy="0" r="1" gradientUnits="userSpaceOnUse" gradientTransform="translate(33.3154 26.688) scale(54.926 55.0994)">
<stop stop-color="#EBB932"/>
<stop offset="1" stop-color="#571C00"/>
</radialGradient>
<radialGradient id="paint121_radial_9_15825" cx="0" cy="0" r="1" gradientUnits="userSpaceOnUse" gradientTransform="translate(36.2604 38.8502) scale(64.4976 64.7012)">
<stop stop-color="#FFD561"/>
<stop offset="1" stop-color="#571C00"/>
</radialGradient>
<linearGradient id="paint122_linear_9_15825" x1="27.0325" y1="9.65098" x2="76.2646" y2="9.65098" gradientUnits="userSpaceOnUse">
<stop stop-color="#592C0E"/>
<stop offset="0.4" stop-color="#9D6D2F"/>
<stop offset="0.71" stop-color="#CD9B46"/>
<stop offset="0.87" stop-color="#E0AD4F"/>
<stop offset="1" stop-color="#7A412D"/>
</linearGradient>
</defs>
</svg>
