<svg width="1061" height="1000" viewBox="0 0 1061 1000" fill="none" xmlns="http://www.w3.org/2000/svg">
<path fill-rule="evenodd" clip-rule="evenodd" d="M1023.05 1046.38L328.564 982.376L305.672 996.221L166.775 832.757L156.54 826.677L143.126 807.581H133.073L149.334 658.662L135.95 638.961L117.024 583.804L161.294 329.536L179.705 323.012L255.8 -85.3316L-102.57 -81.767L-135.969 1074.33H1060.47L1023.05 1046.35V1046.38ZM73.3295 414.642L56.8266 593.066L33.7226 504.236L73.2992 414.642H73.3295Z" fill="#FF5E00"/>
<path fill-rule="evenodd" clip-rule="evenodd" d="M1022.77 1046.38L327.686 982.376L304.915 996.221L164.474 832.757L154.178 826.677L140.582 807.581H130.529L145.367 658.662L131.771 638.961L112.3 583.804L154.148 329.536L172.498 323.012L244.687 -85.3316L-113.653 -81.767L-136 1074.33H1060.44L1022.74 1046.35L1022.77 1046.38ZM67.0309 414.642L52.254 593.066L28.3021 504.236L67.0309 414.642Z" fill="url(#paint0_linear_3_5372)"/>
<path opacity="0.53" fill-rule="evenodd" clip-rule="evenodd" d="M1011.45 1042.75L681.725 1066.18L322.114 1039.12L327.685 982.344L304.914 996.221L296.163 1017.64L47.6815 1046.38L-41.4946 1003.16V981.708L140.582 807.613H130.529L-12.3042 936.895L-27.3839 929.575L-36.4681 823.909L-32.0774 798.224L59.2789 618.05L145.366 658.693L131.801 638.992L120.506 643.194L70.5735 612.799L65.547 533.262L87.2278 505.891L128.682 484.439L130.075 476.037L120.658 486.572L83.7759 503.822L78.4162 500.926L74.6614 414.642L130.378 338.83L154.178 329.568L172.528 323.043L128.197 328.422L88.4693 306.525L67.0307 145.861L106.123 -86L89.408 -83.7721L49.6497 170.623L-21.7215 425.75L28.3019 504.236L-10.4268 515.439L28.3019 555.605L20.5804 603.887L-135.97 941.065V1074.33H1060.47L1022.77 1046.38L1011.45 1042.75Z" fill="#2C002A"/>
<path opacity="0.53" fill-rule="evenodd" clip-rule="evenodd" d="M54.162 -83.422L-41.7364 109.26L-135.969 425.75V222.756L-34.2874 91.755L14.8881 -81.9261L54.162 -83.422Z" fill="#2C002A"/>
<path opacity="0.53" fill-rule="evenodd" clip-rule="evenodd" d="M130.378 338.83L128.198 328.422L103.337 314.705L79.234 237.269L75.3581 85.7716L58.6432 96.5292L49.6499 170.623L-13.818 399.047L28.3021 504.236L67.0309 414.642L52.254 593.034L20.5806 603.887L-38.3755 730.909L-20.8431 776.04L48.6506 639.024L76.2968 626.102L118.962 646.249L120.506 643.194L85.8957 622.76L69.8773 586.382L65.5472 533.262L87.228 505.891L109.393 491.823L90.5892 500.258L75.9939 486.158L74.6616 421.071L87.8336 397.965L130.378 338.83Z" fill="#2C002A"/>
<path opacity="0.53" fill-rule="evenodd" clip-rule="evenodd" d="M-32.0769 798.224L-36.4677 823.909L-24.5371 916.685L13.9797 913.12L84.9573 848.861L92.6485 853.412L-41.4942 981.708L-0.282394 1023.12L47.6819 1046.38L257.163 1022.16L242.386 1074.33H-135.969V885.972L-120.617 878.524L-60.5709 778.714L-32.0769 798.224Z" fill="#2C002A"/>
<path opacity="0.53" fill-rule="evenodd" clip-rule="evenodd" d="M-51.8504 535.968L-29.8061 456.591L28.3021 504.236L31.8147 517.19L0.262394 524.032L-51.8504 535.968Z" fill="#2C002A"/>
<g style="mix-blend-mode:soft-light" opacity="0.84">
<path fill-rule="evenodd" clip-rule="evenodd" d="M164.474 832.756L124.897 840.14L80.9297 874.737L-41.4944 981.708L47.6817 1046.38L275.028 1020.09L289.411 1000.84L272.272 958.219L164.474 832.756Z" fill="#D4A49C"/>
</g>
<path opacity="0.53" fill-rule="evenodd" clip-rule="evenodd" d="M67.031 414.642L31.8147 234.882L49.6499 170.623L67.031 145.861L88.4696 306.525L128.198 328.422L130.378 338.83L74.6617 421.071L67.031 414.642Z" fill="#2C002A"/>
<path fill-rule="evenodd" clip-rule="evenodd" d="M272.272 958.22L248.714 955.292H117.66L87.5308 967.163L42.9579 1014.36L47.6816 1046.38L60.6114 1044.89L49.2259 1024.1L44.5324 1016.69L83.5943 973.465L140.128 962.389L167.592 956.946L249.532 957.456L278.177 965.126L272.272 958.22Z" fill="#340A32"/>
<path fill-rule="evenodd" clip-rule="evenodd" d="M11.8901 711.527L28.3022 704.843L108.727 714.55L118.599 732.819L134.284 770.025L133.769 775.245L114.147 732.66L73.0871 715.314L29.8465 707.421L11.8901 713.595L7.01495 721.138L11.8901 711.527Z" fill="#340A32"/>
<path fill-rule="evenodd" clip-rule="evenodd" d="M-135.969 452.962H-56.5739L-27.2623 447.456L-10.0327 470.053L24.487 494.688L28.3024 504.236L-32.5312 466.425L-57.8154 462.319L-97.3012 454.967L-135.969 459.169V452.962Z" fill="#340A32"/>
<g style="mix-blend-mode:soft-light" opacity="0.84">
<path fill-rule="evenodd" clip-rule="evenodd" d="M327.686 982.344L329.442 1016.02L662.952 1064.78L1011.45 1042.75L327.686 982.344Z" fill="#D4A49C"/>
</g>
<g style="mix-blend-mode:soft-light" opacity="0.84">
<path fill-rule="evenodd" clip-rule="evenodd" d="M145.367 658.693L126.835 649.941L108.727 714.55L134.284 770.025L145.367 658.693Z" fill="#D4A49C"/>
</g>
<g style="mix-blend-mode:soft-light" opacity="0.84">
<path fill-rule="evenodd" clip-rule="evenodd" d="M114.147 732.66L91.6187 812.642V842.846L130.529 807.613L133.769 775.245L114.147 732.66Z" fill="#D4A49C"/>
</g>
<g style="mix-blend-mode:soft-light" opacity="0.84">
<path fill-rule="evenodd" clip-rule="evenodd" d="M112.331 583.836L69.8773 586.382L85.8957 622.76L120.506 643.193L131.801 638.992L112.331 583.836Z" fill="#D4A49C"/>
</g>
<g style="mix-blend-mode:soft-light" opacity="0.84">
<path fill-rule="evenodd" clip-rule="evenodd" d="M28.3021 555.605L43.7452 561.143L28.3021 504.236L-10.4266 515.439L28.3021 555.605Z" fill="#D4A49C"/>
</g>
<path opacity="0.53" fill-rule="evenodd" clip-rule="evenodd" d="M117.66 955.292L70.6343 962.071L38.5672 1000.84L42.9579 1014.36L87.5308 967.163L117.66 955.292Z" fill="#2C002A"/>
<path opacity="0.53" fill-rule="evenodd" clip-rule="evenodd" d="M70.6343 962.071L83.5944 973.465L117.66 955.292L70.6343 962.071Z" fill="#2C002A"/>
<path opacity="0.53" fill-rule="evenodd" clip-rule="evenodd" d="M108.727 714.55L60.6114 701.66L36.6595 699.973L28.3021 704.843L108.727 714.55Z" fill="#2C002A"/>
<path fill-rule="evenodd" clip-rule="evenodd" d="M73.087 715.314L103.156 771.521L123.928 753.857L114.147 732.66L73.087 715.314Z" fill="#7B4254"/>
<g style="mix-blend-mode:soft-light">
<path fill-rule="evenodd" clip-rule="evenodd" d="M389.973 987.851L553.609 1056.53L553.699 1074.33H567.81L568.537 1057.65L396.332 988.837L389.973 987.851Z" fill="#A29396"/>
</g>
<g style="mix-blend-mode:soft-light">
<path fill-rule="evenodd" clip-rule="evenodd" d="M467.975 994.757L732.778 1060.35L731.749 1074.33H741.166L745.89 1059.53L484.539 996.221L467.975 994.757Z" fill="#A29396"/>
</g>
<g style="mix-blend-mode:soft-light">
<path fill-rule="evenodd" clip-rule="evenodd" d="M89.9836 867.607L243.385 924.61L248.926 931.071L117.66 884.699L87.8336 880.402L38.5672 915.03L263.915 948.512L272.272 958.219L106.063 935.336L15.4026 931.994L89.9836 867.607Z" fill="#A29396"/>
</g>
<g style="mix-blend-mode:soft-light" opacity="0.84">
<path fill-rule="evenodd" clip-rule="evenodd" d="M90.5892 500.257L78.1137 466.425L74.6617 421.071L130.378 338.83L154.178 329.568L130.075 476.037L120.658 486.572L90.5892 500.257Z" fill="#D4A49C"/>
</g>
<g style="mix-blend-mode:soft-light" opacity="0.84">
<path fill-rule="evenodd" clip-rule="evenodd" d="M103.337 314.705L207.26 116.007L172.528 323.043L128.198 328.422L103.337 314.705Z" fill="#D4A49C"/>
</g>
<g style="mix-blend-mode:soft-light" opacity="0.84">
<path fill-rule="evenodd" clip-rule="evenodd" d="M128.682 484.439L87.228 505.891L65.5471 533.262L69.8773 586.382L112.331 583.836L128.682 484.439Z" fill="#918FA4"/>
</g>
<g style="mix-blend-mode:soft-light">
<path fill-rule="evenodd" clip-rule="evenodd" d="M-36.4679 823.909L96.4636 795.455L131.559 797.333L130.529 807.613L95.3432 799.338L-32.0772 830.242L-35.7109 832.757L91.6187 812.642L108.727 826.136L102.732 832.757L91.6187 819.803L-34.2877 847.079L-36.4679 823.909Z" fill="#A29396"/>
</g>
<g style="mix-blend-mode:soft-light">
<path fill-rule="evenodd" clip-rule="evenodd" d="M19.6119 696.249L-1.97813 652.487L-135.969 630.431V625.052L0.232376 645.708L20.7626 694.022L19.6119 696.249Z" fill="#A29396"/>
</g>
<g style="mix-blend-mode:soft-light">
<path fill-rule="evenodd" clip-rule="evenodd" d="M32.5111 670.82L5.71287 635.937L-118.71 599.654L-102.116 583.836L12.3746 621.583L36.2356 663.499L32.5111 670.82Z" fill="#A29396"/>
</g>
<g style="mix-blend-mode:soft-light">
<path fill-rule="evenodd" clip-rule="evenodd" d="M-71.6236 209.611L47.6817 177.784L70.6343 209.611L165.231 196.339L189.455 222.215L193.18 199.999L179.584 168.904H74.6616L54.7976 137.936L-59.5114 168.904L-71.6236 209.611Z" fill="#A29396"/>
</g>
<path fill-rule="evenodd" clip-rule="evenodd" d="M87.228 505.891L127.047 494.401L128.682 484.439L87.228 505.891Z" fill="#7B4254"/>
<g style="mix-blend-mode:soft-light" opacity="0.84">
<path fill-rule="evenodd" clip-rule="evenodd" d="M67.0309 414.642L31.8147 234.882L-13.818 399.047L-21.7213 425.75L28.3021 504.236L67.0309 414.642Z" fill="#E5B195"/>
</g>
<path fill-rule="evenodd" clip-rule="evenodd" d="M195.693 994.757L209.713 987.851L238.903 984.827L195.693 994.757Z" fill="#A46056"/>
<path fill-rule="evenodd" clip-rule="evenodd" d="M191.12 967.163L195.693 969.486L204.747 976.743L186.73 969.168L191.12 967.163Z" fill="#A46056"/>
<path fill-rule="evenodd" clip-rule="evenodd" d="M85.0176 908.442H91.6188L96.9482 912.897L85.0176 908.442Z" fill="#A46056"/>
<g style="mix-blend-mode:soft-light">
<path fill-rule="evenodd" clip-rule="evenodd" d="M105.427 788.326L117.66 777.441L127.319 783.361L105.427 788.326Z" fill="#A29396"/>
</g>
<path fill-rule="evenodd" clip-rule="evenodd" d="M116.388 702.36L119.325 696.25L127.047 695.549L116.388 702.36Z" fill="#A46056"/>
<path fill-rule="evenodd" clip-rule="evenodd" d="M122.929 691.953L121.718 689.916L125.684 686.924L122.929 691.953Z" fill="#A46056"/>
<g style="mix-blend-mode:soft-light">
<path fill-rule="evenodd" clip-rule="evenodd" d="M98.4924 165.722L97.1298 105.282L103.337 78.2285L98.4924 165.722Z" fill="#A29396"/>
</g>
<g style="mix-blend-mode:soft-light">
<path fill-rule="evenodd" clip-rule="evenodd" d="M114.42 152.8L136.192 137.936H143.731L114.42 152.8Z" fill="#A29396"/>
</g>
<path fill-rule="evenodd" clip-rule="evenodd" d="M78.0228 724.544L93.7989 765.187L103.156 771.521L78.0228 724.544Z" fill="#6B394D"/>
<g style="mix-blend-mode:soft-light" opacity="0.84">
<path fill-rule="evenodd" clip-rule="evenodd" d="M124.897 840.14L171.075 889.218L272.272 958.219L164.474 832.756L124.897 840.14Z" fill="#D4A49C"/>
</g>
<path opacity="0.53" fill-rule="evenodd" clip-rule="evenodd" d="M42.9579 1014.36L167.592 956.946L83.5943 973.465L42.9579 1014.36Z" fill="#2C002A"/>
<path opacity="0.43" fill-rule="evenodd" clip-rule="evenodd" d="M244.717 -85.2998L-113.622 -81.7351L-135.969 1074.36H31.8149L275.028 1020.12L83.5946 973.465L70.6346 962.071L-27.3835 969.359L58.2195 883.521L91.5887 842.846V819.803L103.126 771.521L93.7689 765.187L73.0267 715.346L108.667 714.55L126.775 649.941L59.2188 618.082L84.4122 615.727L69.7867 586.382L65.4566 533.262L87.1375 505.891L78.3258 500.926L78.023 466.457L74.571 421.103L130.287 338.83L128.107 328.422L103.247 314.705L207.169 116.007L244.626 -85.2998H244.717ZM52.2543 593.034L20.5809 603.887L28.3024 555.605L-10.4264 515.439L-46.5511 531.544L-32.5614 466.457L-46.5511 463.656L-26.0814 443.096L-15.5135 405.094L67.0009 414.642L52.224 593.066L52.2543 593.034Z" fill="#200021"/>
<g style="mix-blend-mode:multiply" opacity="0.5">
<path fill-rule="evenodd" clip-rule="evenodd" d="M-36.4677 823.909L-32.0769 798.224L38.5675 641.793L20.5809 603.887L28.3024 555.605L-17.3909 512.957L-10.0327 484.439L-33.3488 469.353L-46.5208 463.624L-27.2623 447.456L47.6819 177.784L89.4085 -83.7721L-135.969 -83.8676V941.065L-36.4677 823.909Z" fill="#370526"/>
</g>
<path style="mix-blend-mode:screen" d="M43.7452 678.458C68.9809 678.458 89.4385 659.236 89.4385 635.523C89.4385 611.811 68.9809 592.588 43.7452 592.588C18.5095 592.588 -1.94812 611.811 -1.94812 635.523C-1.94812 659.236 18.5095 678.458 43.7452 678.458Z" fill="url(#paint1_radial_3_5372)"/>
<path fill-rule="evenodd" clip-rule="evenodd" d="M49.8013 627.535L44.1085 626.166L35.7209 630.367L38.0827 634.664L45.8951 634.6L50.952 631.545L49.8013 627.535Z" fill="url(#paint2_radial_3_5372)"/>
<g style="mix-blend-mode:multiply" opacity="0.4">
<path fill-rule="evenodd" clip-rule="evenodd" d="M35.7209 630.367L38.6581 633.804L46.2888 632.913L49.3774 631.035L49.8013 627.534L50.952 631.545L45.8951 634.6L38.0828 634.664L35.7209 630.367Z" fill="#150155"/>
</g>
<g style="mix-blend-mode:multiply" opacity="0.4">
<path fill-rule="evenodd" clip-rule="evenodd" d="M46.2888 632.913L45.8951 634.6L50.952 631.545L49.3774 631.036L46.2888 632.913Z" fill="#150155"/>
</g>
<path fill-rule="evenodd" clip-rule="evenodd" d="M54.2223 841.986L60.2784 831.452H64.0029L76.9024 841.986L73.5715 862.038H64.0029L54.2223 841.986Z" fill="url(#paint3_radial_3_5372)"/>
<g style="mix-blend-mode:multiply" opacity="0.4">
<path fill-rule="evenodd" clip-rule="evenodd" d="M64.0029 831.452L59.5516 838.294L65.5472 858.314H72.2089L73.5715 862.038H64.0029L54.2223 841.986L60.2784 831.452H64.0029Z" fill="#150155"/>
</g>
<g style="mix-blend-mode:multiply" opacity="0.4">
<path fill-rule="evenodd" clip-rule="evenodd" d="M65.5472 858.314L64.0029 862.037L54.2223 841.986L59.5516 838.294L65.5472 858.314Z" fill="#150155"/>
</g>
<path style="mix-blend-mode:screen" d="M65.5472 948.194C122.34 948.194 168.38 904.904 168.38 851.503C168.38 798.102 122.34 754.812 65.5472 754.812C8.75426 754.812 -37.2855 798.102 -37.2855 851.503C-37.2855 904.904 8.75426 948.194 65.5472 948.194Z" fill="url(#paint4_radial_3_5372)"/>
<defs>
<linearGradient id="paint0_linear_3_5372" x1="462.252" y1="-136.987" x2="462.252" y2="-85.2998" gradientUnits="userSpaceOnUse">
<stop stop-color="#663634"/>
<stop offset="1" stop-color="#300B2E"/>
</linearGradient>
<radialGradient id="paint1_radial_3_5372" cx="0" cy="0" r="1" gradientUnits="userSpaceOnUse" gradientTransform="translate(42.1688 637.726) scale(45.4886 43.1475)">
<stop stop-color="#00095C"/>
<stop offset="0.09" stop-color="#00074E"/>
<stop offset="0.34" stop-color="#00042C"/>
<stop offset="0.57" stop-color="#000113"/>
<stop offset="0.79" stop-color="#000005"/>
<stop offset="0.97"/>
</radialGradient>
<radialGradient id="paint2_radial_3_5372" cx="0" cy="0" r="1" gradientUnits="userSpaceOnUse" gradientTransform="translate(43.7677 630.697) rotate(-31.2511) scale(5.73613 5.87524)">
<stop stop-color="#00DBFF"/>
<stop offset="1" stop-color="#0068CE"/>
</radialGradient>
<radialGradient id="paint3_radial_3_5372" cx="0" cy="0" r="1" gradientUnits="userSpaceOnUse" gradientTransform="translate(65.5472 846.729) scale(13.0509 13.7176)">
<stop stop-color="#00DBFF"/>
<stop offset="1" stop-color="#0068CE"/>
</radialGradient>
<radialGradient id="paint4_radial_3_5372" cx="0" cy="0" r="1" gradientUnits="userSpaceOnUse" gradientTransform="translate(63.8951 854.712) scale(102.399 97.129)">
<stop stop-color="#00095C"/>
<stop offset="0.09" stop-color="#00074E"/>
<stop offset="0.34" stop-color="#00042C"/>
<stop offset="0.57" stop-color="#000113"/>
<stop offset="0.79" stop-color="#000005"/>
<stop offset="0.97"/>
</radialGradient>
</defs>
</svg>
