<svg width="413" height="1000" viewBox="0 0 413 1000" fill="none" xmlns="http://www.w3.org/2000/svg">
<path fill-rule="evenodd" clip-rule="evenodd" d="M605.297 -74L415.564 -51.9539H393.839L126.299 -47.5699L210.828 143.465L240.775 219.191L368.363 391.397L352.31 398.115L313.451 368.089L301.088 371.685L279.003 395.592L242.185 627.975L236.394 632.233L129.419 915.079L127.829 919.273L108.775 922.869L0 1027.96L0.270142 1048.52L295.327 1098.29L618.14 1098.2L605.177 60.8314L605.357 -74H605.297ZM278.703 868.526L235.913 875.307H232.162L231.773 844.714L223.01 836.924L229.912 757.381L244.015 726.725L284.855 865.562L278.703 868.558V868.526Z" fill="#FF5E00"/>
<path fill-rule="evenodd" clip-rule="evenodd" d="M623.271 -71.7292L432.908 -49.7146H411.153L143.043 -45.4252L225.351 145.925L254.428 221.777L380.096 394.299L363.923 401.017L325.364 370.928L312.941 374.523L290.496 398.462L250.707 631.192L244.856 635.45L134.131 918.706L132.48 922.901L113.336 926.496L3.06091 1031.71V1052.31L298.058 1102.23H621.501V63.3545L623.361 -71.6976L623.271 -71.7292ZM284.255 872.185L241.315 878.966H237.564V848.31L228.862 840.488L236.754 760.819L251.247 730.131L290.436 869.189L284.225 872.185H284.255Z" fill="url(#paint0_linear_4_67)"/>
<path opacity="0.53" d="M592.844 66.8554L607.127 259.436L525.659 483.272L490.821 499.924L425.826 63.6384H410.913H405.242L439.9 223.165V270.254L332.775 276.782L254.368 221.841L380.036 394.362L363.862 401.08L325.304 370.991L343.728 403.414L366.353 690.139L346.458 703.07L250.617 631.286L244.765 635.544L264.33 647.277L277.413 690.581L228.862 746.374V751.925L231.683 755.489L207.557 848.878L212.688 861.462L202.726 910.474L134.041 918.832L132.39 923.027L149.554 918.769L212.988 921.008L299.768 951.286L109.375 1026.92L2.94092 1031.84V1052.43L297.938 1102.36L129.089 1044.55L125.158 1027.58L268.021 984.403L438.279 1004.49L552.785 1036.73L545.433 1021.34L368.814 964.628L290.406 898.395L272.672 895.619L312.131 868.022L306.279 800.37L329.625 727.64L383.757 679.384L360.412 441.829L372.564 423.599L395.88 428.487L478.008 511.752L599.326 900.382L621.351 1102.36V63.3546L592.814 66.887L592.844 66.8554ZM284.255 872.217L241.315 878.998H237.564V848.341L228.862 840.52L236.754 760.851L251.247 730.163L290.436 869.22L284.224 872.217H284.255Z" fill="#2C002A"/>
<path opacity="0.53" d="M607.608 1102.33L554.196 836.577L427.327 689.887L383.787 679.353L366.353 690.108L408.663 734.578L584.142 1102.33H607.608Z" fill="#2C002A"/>
<path opacity="0.53" fill-rule="evenodd" clip-rule="evenodd" d="M83.6892 1066.09L109.375 1026.89L277.923 959.928L283.054 945.388L212.988 920.945L149.554 918.738L166.268 914.858L188.263 912.177L204.857 899.877L212.658 861.399L228.862 859.38L237.534 848.341V878.998H241.285L284.255 872.217L302.649 874.645L272.702 895.588L290.436 898.363L368.844 964.596L350.6 994.117L283.594 988.944L125.189 1027.55L129.089 1044.55L131.28 1074.13L83.6892 1066.09Z" fill="#2C002A"/>
<path opacity="0.53" fill-rule="evenodd" clip-rule="evenodd" d="M438.309 1004.46L451.933 991.278L508.045 1009.29L525.179 1000.27L408.663 734.578L454.693 721.521L554.195 836.577L534.991 895.588L554.195 1020.52L607.608 1102.33H584.142L558.306 1051.9L517.707 1025.91L438.309 1004.46Z" fill="#2C002A"/>
<path opacity="0.53" fill-rule="evenodd" clip-rule="evenodd" d="M228.862 746.343L195.765 760.851L194.894 763.058L228.862 751.894L236.754 760.851L251.277 730.131L277.383 690.549L228.862 746.343Z" fill="#2C002A"/>
<path opacity="0.53" fill-rule="evenodd" clip-rule="evenodd" d="M277.383 690.549L264.33 647.245H271.982L346.459 703.039L366.353 690.108L383.787 679.353L329.655 727.64L316.512 768.546L258.599 756.151L251.277 730.131L277.383 690.549Z" fill="#2C002A"/>
<path opacity="0.53" fill-rule="evenodd" clip-rule="evenodd" d="M343.728 403.382L363.862 401.048L380.036 394.33L332.745 276.751L439.87 270.222V223.134L445.391 195.095L490.791 499.924L506.965 527.837L621.381 686.102V902.116L599.356 900.381L485.78 539.979L408.662 441.419L360.442 441.797L377.365 614.003L359.842 607.442L345.198 553.762L343.728 403.382Z" fill="#2C002A"/>
<g style="mix-blend-mode:soft-light" opacity="0.84">
<path fill-rule="evenodd" clip-rule="evenodd" d="M283.054 945.388L277.923 959.928L109.375 1026.89L2.94092 1031.81L25.3859 1017.39L37.4487 998.879L111.265 928.452L149.554 918.738L212.988 920.945L283.054 945.388Z" fill="#D4A49C"/>
</g>
<g style="mix-blend-mode:soft-light" opacity="0.84">
<path fill-rule="evenodd" clip-rule="evenodd" d="M195.765 760.851L228.862 746.343L271.082 697.835L272.012 672.729L264.33 647.245L244.766 635.513L195.765 760.851Z" fill="#D4A49C"/>
</g>
<g style="mix-blend-mode:soft-light" opacity="0.84">
<path fill-rule="evenodd" clip-rule="evenodd" d="M290.436 398.525L305.379 391.87L343.728 403.382L345.198 553.762L332.745 669.134L322.813 679.353L250.617 631.255L290.436 398.525Z" fill="#D4A49C"/>
</g>
<g style="mix-blend-mode:soft-light" opacity="0.84">
<path fill-rule="evenodd" clip-rule="evenodd" d="M225.291 145.988L297.908 169.517L306.309 177.37L332.745 276.751L380.036 394.33L254.368 221.809L225.291 145.988Z" fill="#D4A49C"/>
</g>
<path opacity="0.53" fill-rule="evenodd" clip-rule="evenodd" d="M312.161 867.99L368.844 964.596L290.436 898.363L272.702 895.588L312.161 867.99Z" fill="#2C002A"/>
<path fill-rule="evenodd" clip-rule="evenodd" d="M228.862 840.519L207.557 848.846L180.281 841.434L166.718 835.126L169.209 828.818L171.459 836.199L208.187 846.354L224.961 840.898L229.552 833.581L228.862 840.519Z" fill="#340A32"/>
<path opacity="0.2" fill-rule="evenodd" clip-rule="evenodd" d="M438.309 1004.46L464.055 1023.95L400.591 1093.59L368.844 1098.99L270.541 1090.97L262.8 1096.4L297.968 1102.33H621.381V686.102L485.78 539.979L498.593 692.441L477.078 748.235L454.693 721.521L408.663 734.578L366.353 690.108L329.655 727.64L306.31 800.338L312.161 867.99L368.844 964.596L350.6 994.117L438.309 1004.46Z" fill="#2C002A"/>
<g style="mix-blend-mode:soft-light">
<path fill-rule="evenodd" clip-rule="evenodd" d="M415.174 748.203L377.546 899.877V967.403L402.061 975.256L419.255 773.057L426.277 774.76L430.478 984.371L442.09 988.124L431.708 787.092L415.174 748.203Z" fill="#A29396"/>
</g>
<g style="mix-blend-mode:soft-light">
<path fill-rule="evenodd" clip-rule="evenodd" d="M220.76 1089.27V1075.93L377.546 997.303H383.787L259.649 1059.75L414.574 1001.88L438.309 1004.46L246.086 1084.6L244.255 1093.25L220.76 1089.27Z" fill="#A29396"/>
</g>
<g style="mix-blend-mode:soft-light">
<path fill-rule="evenodd" clip-rule="evenodd" d="M42.8198 993.77L245.366 932.268L229.552 926.717L50.9217 986.011L42.8198 993.77Z" fill="#A29396"/>
</g>
<g style="mix-blend-mode:soft-light">
<path fill-rule="evenodd" clip-rule="evenodd" d="M203.356 988.124V1003.93L197.835 1006.04V993.77L35.1683 1001.06L39.3393 997.082L203.356 988.124Z" fill="#A29396"/>
</g>
<g style="mix-blend-mode:soft-light">
<path fill-rule="evenodd" clip-rule="evenodd" d="M250.617 631.255L358.521 590.821L375.865 598.832L494.242 563.666L548.044 601.166L621.381 584.608V598.832L549.514 608.641L502.614 589.055L378.596 626.65L378.506 621.415L494.212 588.393L492.352 573.664L376.315 608.673L357.651 594.921L254.938 634.125L250.617 631.255Z" fill="#A29396"/>
</g>
<g style="mix-blend-mode:soft-light">
<path fill-rule="evenodd" clip-rule="evenodd" d="M621.38 342.952L583.512 317.626L464.985 319.613L439.869 259.436L319.632 227.423L248.636 206.859L245.365 198.344L318.492 223.134L439.869 249.942L457.544 276.751L598.485 283.153L621.38 324.502V342.952Z" fill="#A29396"/>
</g>
<g style="mix-blend-mode:soft-light">
<path fill-rule="evenodd" clip-rule="evenodd" d="M265.71 543.07L345.198 515.473L344.688 500.082L266.22 539.979L265.71 543.07Z" fill="#A29396"/>
</g>
<g style="mix-blend-mode:soft-light">
<path fill-rule="evenodd" clip-rule="evenodd" d="M144.723 891.897L209.087 878.998V872.217L146.163 887.703L144.723 891.897Z" fill="#A29396"/>
</g>
<g style="mix-blend-mode:soft-light" opacity="0.84">
<path fill-rule="evenodd" clip-rule="evenodd" d="M312.161 867.99L320.773 811.945L306.309 800.338L312.161 867.99Z" fill="#AA8B92"/>
</g>
<g style="mix-blend-mode:soft-light" opacity="0.84">
<path fill-rule="evenodd" clip-rule="evenodd" d="M208.187 846.354L231.653 755.457L211.848 757.476L194.894 763.058L169.208 828.818L171.459 836.199L208.187 846.354Z" fill="#A96D9C"/>
</g>
<g style="mix-blend-mode:soft-light" opacity="0.84">
<path fill-rule="evenodd" clip-rule="evenodd" d="M212.658 861.399L207.557 848.846L180.281 841.434L166.718 835.126L134.041 918.769L188.263 912.177L204.856 899.877L212.658 861.399Z" fill="#918FA4"/>
</g>
<path fill-rule="evenodd" clip-rule="evenodd" d="M382.646 707.234L405.572 745.333L484.55 907.604L408.662 734.578L382.646 707.234Z" fill="#5E2F44"/>
<path fill-rule="evenodd" clip-rule="evenodd" d="M42.8199 993.77L25.3859 1017.39L70.006 1028.72L2.94092 1031.81L42.8199 993.77Z" fill="#A16844"/>
<path fill-rule="evenodd" clip-rule="evenodd" d="M180.281 841.434L161.047 849.697L166.718 835.126L180.281 841.434Z" fill="#8E5B44"/>
<path fill-rule="evenodd" clip-rule="evenodd" d="M200.416 843.863L212.749 828.724L210.228 845.692L208.187 846.354L200.416 843.863Z" fill="#4F1B32"/>
<path opacity="0.2" fill-rule="evenodd" clip-rule="evenodd" d="M306.309 800.338L320.773 811.945L361.852 775.737L332.745 726.82L306.309 800.338Z" fill="#2C002A"/>
<path fill-rule="evenodd" clip-rule="evenodd" d="M313.541 806.141L329.145 804.564L319.873 817.748L313.541 806.141Z" fill="#6B394D"/>
<path fill-rule="evenodd" clip-rule="evenodd" d="M343.398 943.086L345.589 924.951L368.844 886.41L454.573 830.805L463.575 849.698L533.341 885.116L535.592 886.283L536.702 890.257L535.681 892.749L530.07 884.643L464.055 852.599L456.283 852.915L434.499 854.555L368.454 888.807L348.019 926.843L346.339 945.609L343.398 943.086Z" fill="#340A32"/>
<path fill-rule="evenodd" clip-rule="evenodd" d="M368.454 888.807L460.424 858.087L464.055 852.599L434.499 854.555L368.454 888.807Z" fill="#7B4254"/>
<path fill-rule="evenodd" clip-rule="evenodd" d="M374.935 589.181L372.354 563.13L377.545 576.155L396.84 583.063L473.747 569.753L488.631 543.07V549.095L477.078 568.775L473.237 571.866L387.658 586.91L374.935 589.181Z" fill="#340A32"/>
<path opacity="0.53" fill-rule="evenodd" clip-rule="evenodd" d="M442.39 805.258L390.719 872.217L454.573 830.805L442.39 805.258Z" fill="#2C002A"/>
<path opacity="0.53" fill-rule="evenodd" clip-rule="evenodd" d="M410.403 580.697L465.285 557.989L487.43 545.247L473.747 569.753L410.403 580.697Z" fill="#2C002A"/>
<g style="mix-blend-mode:soft-light" opacity="0.84">
<path fill-rule="evenodd" clip-rule="evenodd" d="M258.599 756.151L285.995 762.018L306.31 863.259V870.577L290.436 869.22L258.599 756.151Z" fill="#D4A49C"/>
</g>
<g style="mix-blend-mode:soft-light" opacity="0.84">
<path fill-rule="evenodd" clip-rule="evenodd" d="M111.265 928.452L100.853 951.633L70.3661 997.082L25.386 1017.39L42.8199 993.77L111.265 928.452Z" fill="#D4A49C"/>
</g>
<g style="mix-blend-mode:soft-light" opacity="0.84">
<path fill-rule="evenodd" clip-rule="evenodd" d="M305.379 391.87L325.304 370.991L312.851 374.586L290.436 398.525L305.379 391.87Z" fill="#D4A49C"/>
</g>
<path fill-rule="evenodd" clip-rule="evenodd" d="M336.676 401.269L343.878 420.634L350.239 402.625L336.676 401.269Z" fill="#56253B"/>
<g style="mix-blend-mode:soft-light">
<path fill-rule="evenodd" clip-rule="evenodd" d="M280.174 477.184L287.765 471.066L300.728 469.93L280.174 477.184Z" fill="#A29396"/>
</g>
<path fill-rule="evenodd" clip-rule="evenodd" d="M313.181 554.582V547.391H321.853L313.181 554.582Z" fill="#8B4C56"/>
<g style="mix-blend-mode:soft-light">
<path fill-rule="evenodd" clip-rule="evenodd" d="M348.799 201.939V194.748H357.471L348.799 201.939Z" fill="#A29396"/>
</g>
<path fill-rule="evenodd" clip-rule="evenodd" d="M200.416 790.214L207.677 780.058L212.658 773.025V779.869L209.088 781.604L200.416 790.214Z" fill="#8B4C56"/>
<path fill-rule="evenodd" clip-rule="evenodd" d="M207.527 787.533L210.408 784.758L212.748 786.145L207.527 787.533Z" fill="#8B4C56"/>
<path fill-rule="evenodd" clip-rule="evenodd" d="M134.581 970.273L161.047 957.878L173.349 960.244L165.248 962.325L134.581 970.273Z" fill="#A46056"/>
<g style="mix-blend-mode:soft-light">
<path fill-rule="evenodd" clip-rule="evenodd" d="M338.087 229.347L364.523 216.92L376.826 219.317L368.754 221.399L338.087 229.347Z" fill="#A29396"/>
</g>
<path fill-rule="evenodd" clip-rule="evenodd" d="M197.835 957.878L180.491 961.221H188.263L197.835 957.878Z" fill="#A46056"/>
<path opacity="0.2" fill-rule="evenodd" clip-rule="evenodd" d="M431.708 787.092L477.078 790.34L504.594 779.207L454.693 721.521L408.663 734.578L431.708 787.092Z" fill="#2C2942"/>
<g style="mix-blend-mode:soft-light" opacity="0.84">
<path fill-rule="evenodd" clip-rule="evenodd" d="M305.379 391.87L290.436 398.525L250.617 631.255L345.198 553.762L343.878 420.634L336.676 401.269L305.379 391.87Z" fill="#918FA4"/>
</g>
<g style="mix-blend-mode:soft-light" opacity="0.84">
<path fill-rule="evenodd" clip-rule="evenodd" d="M306.309 177.37L297.908 169.517L225.291 145.988L254.368 221.809L332.745 276.751L306.309 177.37Z" fill="#918FA4"/>
</g>
<path opacity="0.2" fill-rule="evenodd" clip-rule="evenodd" d="M368.844 964.596L350.6 994.117L290.466 984.371L299.768 951.255L258.599 936.873L290.436 898.363L368.844 964.596Z" fill="#2C2942"/>
<g style="mix-blend-mode:soft-light" opacity="0.84">
<path fill-rule="evenodd" clip-rule="evenodd" d="M360.441 441.797L372.354 563.13L377.545 576.155L396.84 583.063L487.43 545.247L483.049 536.51L408.662 441.419L357.471 445.298L360.441 441.797Z" fill="#918FA4"/>
</g>
<path opacity="0.2" fill-rule="evenodd" clip-rule="evenodd" d="M408.663 441.419L484.55 469.867L477.078 410.951L366.353 342.952L380.036 387.454L408.663 441.419Z" fill="#2C2942"/>
<path opacity="0.43" fill-rule="evenodd" clip-rule="evenodd" d="M390.718 1104.73L400.591 1093.59L464.055 1023.95L438.309 1004.46L451.932 991.278L315.251 775.485L285.995 762.018L366.353 690.108L357.471 577.449L343.878 420.634L363.862 401.048L380.036 394.33L332.745 276.751L297.907 169.517L225.291 145.988L205.517 -47.5068L621.381 -45.3937V1102.33L390.718 1104.73Z" fill="#200021"/>
<g style="mix-blend-mode:multiply" opacity="0.5">
<path fill-rule="evenodd" clip-rule="evenodd" d="M205.517 -47.5068L225.291 145.988L297.907 169.517L332.745 276.751L484.55 469.867L454.963 259.436L580.481 332.639L621.38 420.634L623.271 -71.7292L205.517 -47.5068Z" fill="#370526"/>
</g>
<path fill-rule="evenodd" clip-rule="evenodd" d="M325.814 759.684L334.786 750.821L337.547 733.916L334.786 731.55L319.482 735.114L314.051 755.899L325.814 759.684Z" fill="url(#paint1_radial_4_67)"/>
<g style="mix-blend-mode:multiply" opacity="0.4">
<path fill-rule="evenodd" clip-rule="evenodd" d="M314.051 755.899L327.344 750.821L333.285 740.571L334.786 731.55L337.547 733.916L334.786 750.821L325.814 759.684L314.051 755.899Z" fill="#150155"/>
</g>
<g style="mix-blend-mode:multiply" opacity="0.4">
<path fill-rule="evenodd" clip-rule="evenodd" d="M327.344 750.821H334.786L337.547 733.916L334.786 731.55L333.286 740.571L327.344 750.821Z" fill="#150155"/>
</g>
<path style="mix-blend-mode:screen" d="M327.344 805.826C359.66 805.826 385.857 781.199 385.857 750.821C385.857 720.443 359.66 695.816 327.344 695.816C295.028 695.816 268.831 720.443 268.831 750.821C268.831 781.199 295.028 805.826 327.344 805.826Z" fill="url(#paint2_radial_4_67)"/>
<path style="mix-blend-mode:screen" d="M290.466 1021.59C315.474 1021.59 335.746 1002.54 335.746 979.041C335.746 955.543 315.474 936.494 290.466 936.494C265.459 936.494 245.186 955.543 245.186 979.041C245.186 1002.54 265.459 1021.59 290.466 1021.59Z" fill="url(#paint3_radial_4_67)"/>
<path fill-rule="evenodd" clip-rule="evenodd" d="M296.467 971.125L290.796 969.768L282.514 973.9L284.855 978.19L292.566 978.126L297.608 975.067L296.467 971.125Z" fill="url(#paint4_radial_4_67)"/>
<g style="mix-blend-mode:multiply" opacity="0.4">
<path fill-rule="evenodd" clip-rule="evenodd" d="M282.514 973.9L285.424 977.306L292.986 976.455L296.047 974.594L296.467 971.125L297.607 975.067L292.566 978.126L284.855 978.19L282.514 973.9Z" fill="#150155"/>
</g>
<g style="mix-blend-mode:multiply" opacity="0.4">
<path fill-rule="evenodd" clip-rule="evenodd" d="M292.986 976.455L292.566 978.126L297.607 975.067L296.047 974.594L292.986 976.455Z" fill="#150155"/>
</g>
<path style="mix-blend-mode:screen" d="M388.558 437.318C407.6 437.318 423.036 422.816 423.036 404.927C423.036 387.038 407.6 372.536 388.558 372.536C369.517 372.536 354.08 387.038 354.08 404.927C354.08 422.816 369.517 437.318 388.558 437.318Z" fill="url(#paint5_radial_4_67)"/>
<path fill-rule="evenodd" clip-rule="evenodd" d="M378.476 395.623L381.627 390.135H383.577L390.269 395.623L388.558 406.063H383.577L378.476 395.623Z" fill="url(#paint6_radial_4_67)"/>
<g style="mix-blend-mode:multiply" opacity="0.4">
<path fill-rule="evenodd" clip-rule="evenodd" d="M383.577 390.135L381.267 393.699L384.387 404.139H387.838L388.558 406.063H383.577L378.476 395.623L381.627 390.135H383.577Z" fill="#150155"/>
</g>
<g style="mix-blend-mode:multiply" opacity="0.4">
<path fill-rule="evenodd" clip-rule="evenodd" d="M384.387 404.139L383.577 406.063L378.476 395.623L381.267 393.699L384.387 404.139Z" fill="#150155"/>
</g>
<defs>
<linearGradient id="paint0_linear_4_67" x1="313.091" y1="1102.33" x2="313.091" y2="-71.7292" gradientUnits="userSpaceOnUse">
<stop stop-color="#663634"/>
<stop offset="1" stop-color="#300B2E"/>
</linearGradient>
<radialGradient id="paint1_radial_4_67" cx="0" cy="0" r="1" gradientUnits="userSpaceOnUse" gradientTransform="translate(325.814 745.617) scale(12.6029 13.2466)">
<stop stop-color="#00DBFF"/>
<stop offset="1" stop-color="#0068CE"/>
</radialGradient>
<radialGradient id="paint2_radial_4_67" cx="0" cy="0" r="1" gradientUnits="userSpaceOnUse" gradientTransform="translate(317.334 753.371) scale(58.266 55.2673)">
<stop stop-color="#00095C"/>
<stop offset="0.09" stop-color="#00074E"/>
<stop offset="0.34" stop-color="#00042C"/>
<stop offset="0.57" stop-color="#000113"/>
<stop offset="0.79" stop-color="#000005"/>
<stop offset="0.97"/>
</radialGradient>
<radialGradient id="paint3_radial_4_67" cx="0" cy="0" r="1" gradientUnits="userSpaceOnUse" gradientTransform="translate(280.599 982.702) scale(45.0774 42.7574)">
<stop stop-color="#00095C"/>
<stop offset="0.09" stop-color="#00074E"/>
<stop offset="0.34" stop-color="#00042C"/>
<stop offset="0.57" stop-color="#000113"/>
<stop offset="0.79" stop-color="#000005"/>
<stop offset="0.97"/>
</radialGradient>
<radialGradient id="paint4_radial_4_67" cx="0" cy="0" r="1" gradientUnits="userSpaceOnUse" gradientTransform="translate(290.521 974.271) rotate(-31.2511) scale(5.68431 5.82216)">
<stop stop-color="#00DBFF"/>
<stop offset="1" stop-color="#0068CE"/>
</radialGradient>
<radialGradient id="paint5_radial_4_67" cx="0" cy="0" r="1" gradientUnits="userSpaceOnUse" gradientTransform="translate(378.283 405.85) scale(34.3248 32.5582)">
<stop stop-color="#00095C"/>
<stop offset="0.09" stop-color="#00074E"/>
<stop offset="0.34" stop-color="#00042C"/>
<stop offset="0.57" stop-color="#000113"/>
<stop offset="0.79" stop-color="#000005"/>
<stop offset="0.97"/>
</radialGradient>
<radialGradient id="paint6_radial_4_67" cx="0" cy="0" r="1" gradientUnits="userSpaceOnUse" gradientTransform="translate(384.387 398.115) scale(6.78152 7.12793)">
<stop stop-color="#00DBFF"/>
<stop offset="1" stop-color="#0068CE"/>
</radialGradient>
</defs>
</svg>
