<svg width="558" height="569" viewBox="0 0 558 569" fill="none" xmlns="http://www.w3.org/2000/svg">
<path d="M0.524453 15.0464C0.235152 9.51521 4.49689 4.80245 10.0293 4.53573L104.111 0C105.366 5.55291 112.559 7.07259 115.953 2.5018L117.81 0L192.241 5.01925H274.607C276.435 5.01925 278.228 5.52038 279.792 6.46817L292.766 14.3344C295.831 16.1928 299.656 16.2685 302.793 14.5328L317.723 6.26983C319.205 5.44957 320.871 5.01925 322.565 5.01925H362.563H446.583L474.825 7.22408C475.478 7.27505 476.134 7.26176 476.785 7.1844L493.272 5.22307C494.406 5.08818 495.554 5.14849 496.668 5.40137L501.545 6.50898C503.799 7.02094 506.161 6.73609 508.229 5.70288L511.79 3.92392C513.345 3.14661 515.077 2.78847 516.813 2.88487L545.107 4.45558C550.687 4.76534 554.93 9.5879 554.526 15.1617L552.573 42.1702C552.538 42.6506 552.538 43.1329 552.573 43.6133L553.578 57.5057C553.775 60.234 552.706 62.9015 550.68 64.7389L549.766 65.5674C545.725 69.2319 546.452 75.7766 551.199 78.4647C553.709 79.8858 555.26 82.547 555.26 85.4311V156.509L558 189.819L556.63 214.459L555.459 225.384C555.328 226.605 554.953 227.788 554.356 228.862L553.339 230.691C553.103 231.115 552.745 231.458 552.311 231.674C550.842 232.408 550.525 234.366 551.686 235.527L553.81 237.649C554.732 238.571 555.217 239.843 555.141 241.145L552.512 286.376C552.419 287.973 551.816 289.498 550.791 290.726C548.589 293.367 548.503 297.209 550.541 299.977C551.531 301.321 552.06 302.972 552.024 304.641L550.694 365.492L555.15 410.463C555.223 411.204 555.214 411.951 555.121 412.69L550.837 446.939C550.742 447.698 550.734 448.466 550.815 449.228L554.933 488.328C555.145 490.338 554.678 492.361 553.606 494.074C551.817 496.936 551.768 500.555 553.48 503.463L553.878 504.139C554.783 505.677 555.26 507.428 555.26 509.212V549.874C555.26 555.397 550.783 559.874 545.26 559.874H414.146C412.653 559.874 411.18 559.54 409.834 558.897L405.234 556.699C402.77 555.521 399.932 555.402 397.378 556.37L389.604 559.317C388.63 559.686 387.605 559.901 386.565 559.953L208.669 568.954C208.068 568.985 207.466 568.961 206.869 568.883L138.847 559.997C138.218 559.915 137.583 559.893 136.951 559.931L25.8929 566.617C24.7731 566.684 23.6501 566.563 22.5706 566.257L7.27862 561.933C2.97275 560.715 0 556.785 0 552.31V491.493C0 490.844 0.0632268 490.196 0.188785 489.559L5.53594 462.432C5.79996 461.093 5.78693 459.713 5.49764 458.379L0.227089 434.071C0.0761288 433.375 0 432.665 0 431.952V354.085V181.454C0 180.947 0.0385395 180.441 0.115285 179.94L6.69426 136.989C6.79744 136.315 6.83149 135.633 6.7959 134.953L0.524453 15.0464Z" fill="#172D40"/>
</svg>
