<svg width="441" height="179" viewBox="0 0 441 179" fill="none" xmlns="http://www.w3.org/2000/svg">
<path d="M259.885 129.632C268.51 136.103 279.793 141.782 291.365 145.593C302.72 149.332 314.363 151.345 324.066 150.842C332.978 150.338 341.028 148.181 348.358 144.299C355.617 140.416 362.158 134.952 367.979 127.762L368.913 128.481C365.32 132.939 361.439 136.75 357.27 139.985C355.761 141.135 354.899 142.717 354.683 144.658L354.108 149.547L353.533 144.946C353.533 144.515 353.246 144.155 352.814 143.939C352.383 143.724 351.952 143.796 351.593 143.939C350.73 144.443 349.868 144.946 349.005 145.377C341.603 149.332 333.337 151.561 324.21 152.064C317.526 152.423 310.051 151.632 302.289 149.907C301.57 149.763 300.924 149.907 300.349 150.338C299.774 150.77 299.414 151.345 299.342 152.064L298.408 162.345L297.546 152.711C297.33 150.266 295.749 148.325 293.377 147.606C292.587 147.39 291.868 147.103 291.077 146.887C279.362 143.005 267.935 137.325 259.238 130.71L259.957 129.704L259.885 129.632Z" fill="url(#paint0_radial_71_2)"/>
<path d="M208.857 132.364C201.167 139.05 191.392 144.658 179.965 148.972C177.881 149.763 176.515 151.632 176.443 153.861L175.365 175.646L174.287 153.861C174.287 153.142 173.928 152.567 173.353 152.208C172.778 151.776 172.131 151.704 171.484 151.92C156.535 156.378 139.43 158.678 121.246 158.319C119.378 158.319 117.796 159.685 117.653 161.554L116.718 174.64L115.712 161.123C115.568 159.397 114.203 158.031 112.478 157.888C92.9291 156.522 72.374 152.064 52.322 143.796C52.0346 143.652 51.6752 143.724 51.3877 143.867C51.1002 144.011 50.9565 144.299 50.9565 144.658L50.3097 155.515L49.7347 144.946C49.6628 143.508 48.8004 142.286 47.4348 141.639C46.788 141.351 46.1411 141.063 45.4943 140.776C45.0631 140.56 44.6318 140.632 44.2725 140.776C43.9131 140.992 43.6975 141.351 43.6257 141.854L42.5476 159.685L41.5414 141.998C41.3977 139.985 40.3196 138.259 38.5228 137.325C32.4138 134.233 26.3048 130.71 20.4113 126.828L24.0768 125.462C55.7 146.24 87.8981 155.874 119.809 156.809C156.391 157.888 186.577 148.972 206.413 130.998L208.929 132.364H208.857Z" fill="url(#paint1_radial_71_2)"/>
<path d="M243.211 131.357C234.084 138.188 225.315 143.939 216.763 148.685C214.678 149.835 213.457 151.776 213.385 154.149L212.882 163.496L212.307 153.861C212.307 153.286 211.947 152.711 211.444 152.423C210.941 152.136 210.294 152.136 209.791 152.423C201.598 156.593 193.692 159.829 185.858 162.345C184.349 162.849 183.343 164.143 183.271 165.724L182.768 178.019L182.193 165.293C182.193 164.862 181.977 164.502 181.618 164.215C181.258 163.927 180.827 163.855 180.396 163.999C170.55 166.659 160.919 168.097 151.432 168.528C147.623 168.672 143.886 168.672 140.076 168.528C138.783 168.528 137.633 169.463 137.561 170.757L136.986 177.803L136.411 170.326C136.339 169.176 135.405 168.241 134.183 168.097C111.544 166.084 89.048 158.535 65.0432 148.038L65.4025 147.319C95.3008 160.404 122.899 168.888 151.36 167.738C179.821 166.587 209.216 155.946 242.852 130.782L243.355 131.429L243.211 131.357Z" fill="url(#paint2_radial_71_2)"/>
<path fill-rule="evenodd" clip-rule="evenodd" d="M436.76 125.246C433.597 128.122 430.507 131.142 427.56 134.449C289.64 132.58 152.151 131.357 13.4399 134.449C10.4932 131.142 7.40273 128.122 4.24041 125.246L2.37177 116.546H438.556L436.688 125.246H436.76Z" fill="url(#paint3_linear_71_2)"/>
<path fill-rule="evenodd" clip-rule="evenodd" d="M8.91199 0H432.088C434.891 3.3792 437.838 6.3989 441 9.27482C439.634 45.008 438.7 80.8131 438.628 116.546C435.466 119.422 432.375 122.514 429.357 125.821H11.6431C8.69638 122.514 5.60593 119.422 2.37174 116.546C2.228 80.8131 1.36555 45.008 0 9.27482C3.09045 6.4708 6.10903 3.3792 8.91199 0Z" fill="url(#paint4_linear_71_2)"/>
<g style="mix-blend-mode:multiply" opacity="0.55">
<path fill-rule="evenodd" clip-rule="evenodd" d="M401.183 0C394.356 2.73212 387.528 5.60803 380.772 8.55584C371.932 12.3664 362.948 16.177 353.821 19.3405C346.13 22.0007 338.368 24.1577 330.391 25.3799C322.413 26.6022 314.579 26.746 306.529 26.0989C296.827 25.308 287.196 23.4387 277.781 21.138C271.456 19.5562 265.06 17.4712 259.023 14.9547C252.986 12.4383 240.983 6.75839 238.468 0H246.948C249.68 4.96095 255.573 8.41204 260.316 10.7847C282.022 21.6412 305.667 25.5956 329.672 22.4321C347.424 20.1314 363.667 13.6606 380.269 7.40547C386.522 5.03285 392.631 2.58832 398.812 0H401.183ZM439.347 7.76496C435.107 8.55584 430.938 9.49051 426.698 10.4971C418.648 12.3664 410.67 14.4515 402.765 16.7522C395.29 18.9091 387.887 21.2098 380.485 23.5106C367.548 27.5369 354.611 31.4912 341.459 34.7266C336.284 35.9489 331.109 37.2431 325.863 38.3934C321.479 39.3281 317.095 40.119 312.639 40.6223C302.72 41.7007 293.233 40.9817 283.459 39.5438C277.206 38.6091 270.953 37.4588 264.772 36.1646C256.867 34.5828 249.033 32.7854 241.271 30.7723C237.533 29.7657 233.724 28.7591 229.987 27.6806C223.806 25.8113 217.553 23.7982 211.588 21.2817C207.204 19.4843 202.245 17.1836 198.507 14.2358C197.07 13.1573 195.848 11.8631 194.842 10.3533C193.98 9.05912 193.261 7.54927 193.045 5.96752C192.758 4.31387 192.83 2.58832 193.189 0.934671C193.189 0.64708 193.333 0.431387 193.405 0.143795H198.795C197.717 4.67336 199.657 9.20292 203.682 12.3664C207.276 15.0985 211.444 17.5431 215.541 19.5562C220.931 22.2164 226.537 24.3734 232.287 26.0989C240.121 28.3996 247.955 30.6285 255.932 32.5697C262.616 34.2234 269.3 35.6613 276.128 36.8117C287.627 38.7529 298.983 39.6157 310.626 38.9686C321.263 38.3215 331.684 36.4522 342.106 34.0077C354.97 30.9161 367.692 27.0336 380.269 23.0792C387.744 20.7785 395.146 18.3339 402.621 15.9613C410.527 13.4449 418.433 11.0723 426.482 8.91533C430.147 7.90876 433.885 6.97409 437.55 6.11131C438.197 6.75839 438.844 7.40547 439.491 7.98066L439.347 7.76496ZM440.281 27.6806C431.441 29.4781 422.601 31.4912 413.833 33.7201C398.955 37.4588 384.15 41.5569 369.417 45.727C359.93 48.3872 350.514 51.1912 341.028 53.6358C330.175 56.3679 318.676 58.8124 307.464 59.2438C301.283 59.5314 295.03 59.0281 288.849 58.2372C282.237 57.3744 275.697 56.0803 269.228 54.5704C258.304 52.1259 247.595 49.0343 236.743 46.3741C223.087 42.923 209.432 39.4 195.633 36.1646C181.546 32.8573 146.617 24.5171 137.705 13.6606C136.627 12.3664 135.692 10.7847 135.477 9.05912C134.902 5.67993 136.914 2.51642 139.43 0H145.754C143.526 2.30073 141.442 5.17664 141.514 8.26825C141.658 11.5755 144.101 14.092 146.617 15.8894C148.485 17.2555 150.57 18.4058 152.654 19.4124C155.457 20.7785 158.332 21.9288 161.206 23.0073C164.009 24.0139 166.812 24.9485 169.615 25.8113C175.006 27.465 180.468 28.9029 185.93 30.1971C190.027 31.2036 194.195 32.0664 198.292 33.073C206.126 34.9423 213.96 37.0274 221.722 39.1843C230.418 41.6288 239.115 44.0733 247.811 46.446C258.304 49.3219 268.869 52.054 279.506 54.3547C284.321 55.3613 289.209 56.296 294.168 57.015C298.48 57.662 302.864 58.0934 307.248 58.3091C318.963 58.7405 331.253 55.8646 342.465 52.7011C351.377 50.1847 360.145 47.2369 368.985 44.7923C376.675 42.6354 384.366 40.4066 392.056 38.1058C407.364 33.6482 422.673 29.1186 438.197 25.4518C438.844 25.308 439.563 25.0923 440.209 24.9485C440.209 25.8113 440.209 26.746 440.138 27.6088L440.281 27.6806ZM439.85 40.9817C438.341 41.2693 436.76 41.5569 435.25 41.8445C409.449 46.9493 384.725 56.0084 359.426 63.2701C348.286 66.4336 336.931 69.3095 325.503 71.1069C316.088 72.6168 306.745 73.3357 297.186 73.1201C287.627 72.9044 278.14 71.8259 268.725 70.316C257.226 68.4467 245.727 66.0022 234.299 63.5576C202.532 56.7993 170.693 50.6879 138.567 45.7989C133.608 45.008 128.577 44.5047 123.618 44.0014C118.3 43.4982 113.053 42.9949 107.735 42.4916C101.194 41.8445 94.654 41.0536 88.1856 39.9752C82.2922 38.9686 76.3269 37.6744 70.721 35.6613C70.0023 35.3737 69.2836 35.158 68.5649 34.8704C64.5401 33.2168 58.9342 30.269 57.4967 25.8113C56.4187 22.5759 57.8561 19.4124 59.7966 16.8241C62.3121 13.373 66.265 10.3533 69.7867 8.05255C73.9552 5.24854 78.1956 2.58832 82.5078 0.0718977H91.0605C86.6045 2.73212 82.1485 5.46423 77.8362 8.34014C74.3864 10.6409 70.721 13.3011 67.918 16.3208C65.9056 18.4777 63.8932 21.4255 64.2526 24.5171C64.7557 29.55 71.0085 32.354 75.1051 33.792C80.5673 35.7332 86.317 36.9555 91.9948 37.962C98.2476 39.0405 104.572 39.7595 110.825 40.3347C115.856 40.8379 120.959 41.2693 125.99 41.7726C130.733 42.2759 135.405 42.7792 140.148 43.4982C170.981 48.2434 201.67 54.0671 232.215 60.6098C239.618 62.1916 247.02 63.9171 254.423 65.5708C261.107 67.0806 267.719 68.5186 274.475 69.669C282.021 70.9631 289.568 71.8978 297.186 72.2573C310.482 72.9763 323.491 71.754 336.5 69.1657C348.718 66.6493 360.648 62.9825 372.435 58.8843C382.713 55.3613 392.918 51.5507 403.196 48.0996C413.689 44.6485 424.254 41.5569 435.107 39.4C436.688 39.1124 438.269 38.7529 439.922 38.4653C439.922 39.3281 439.922 40.2628 439.85 41.1255V40.9817ZM2.15613 88.1467C6.10903 87.6434 9.99006 87.0682 13.8711 86.4212C26.736 84.2642 39.4571 81.3164 52.1064 78.4405C62.5277 76.0679 73.0209 73.6233 83.514 71.6102C92.8572 69.8128 102.344 68.3029 111.831 67.512C120.887 66.7212 129.943 66.6493 138.998 67.2244C149.204 67.8715 159.338 69.4533 169.4 71.6102C176.012 73.0482 182.696 74.3423 189.38 75.3489C195.92 76.2836 202.46 76.9306 209.073 77.1463C221.937 77.6496 234.73 79.3752 247.452 81.1007C269.588 84.1204 291.796 87.0682 314.148 84.6956C328.306 83.1857 342.465 79.3752 356.12 75.277C367.548 71.8259 378.903 68.0872 390.403 64.8518C406.214 60.3941 422.026 55.9365 438.053 52.1259C438.484 51.9821 438.988 51.9102 439.419 51.7664C439.419 52.8449 439.419 53.8514 439.347 54.9299C424.757 58.381 410.239 62.4073 395.793 66.4336C394.212 66.8649 392.559 67.3682 390.978 67.7996C379.335 71.1069 367.692 74.4861 355.977 77.5777C342.321 81.1726 328.378 84.3361 314.292 85.846C304.373 86.9244 294.383 87.212 284.393 86.9244C275.194 86.6368 265.994 85.846 256.867 84.9113C249.176 84.1204 241.486 83.1857 233.796 82.4668C225.675 81.6759 217.553 80.9569 209.36 80.6693C202.748 80.3817 196.136 79.8066 189.595 78.8719C182.84 77.8653 176.156 76.5711 169.472 75.1332C159.266 72.9044 148.988 71.2507 138.639 70.3879C129.368 69.5971 120.168 69.4533 110.897 70.0284C91.1323 71.1788 71.5116 75.3489 52.2502 79.6628C39.529 82.5387 26.9516 86.2055 14.2304 89.2252C10.2057 90.1598 6.10903 91.0945 2.01239 91.8135C2.01239 90.5912 2.01239 89.369 2.01239 88.1467H2.15613ZM2.37174 113.023C5.24658 112.592 8.12142 112.017 10.9963 111.298C18.9021 109.285 26.4485 106.121 33.9231 102.958C45.8536 97.9248 58.6467 94.977 71.5116 93.3952C85.0233 91.6697 98.6788 91.3102 112.262 91.5259C122.756 91.6697 133.249 92.173 143.742 92.6763C153.804 93.1795 163.794 93.6828 173.856 93.9704C188.733 94.3299 203.61 95.0489 218.488 95.696C231.281 96.2711 244.002 96.8463 256.795 97.1339C268.869 97.4215 281.015 97.4215 293.09 96.8463C301.93 96.4149 310.77 95.1208 319.466 93.3952C328.881 91.5259 338.225 89.2252 347.496 86.7087C362.517 82.6106 377.322 78.0091 392.271 73.6952C397.59 72.1854 402.98 70.6036 408.299 69.1657C418.648 66.2898 428.998 63.4858 439.491 60.9693C439.491 61.9759 439.491 62.9825 439.491 63.989C429.429 66.4336 419.367 69.0938 409.377 71.8978C403.915 73.4076 398.38 74.9894 392.918 76.5712C383.431 79.3033 373.944 82.0354 364.386 84.5518C353.533 87.4996 342.609 90.3036 331.612 92.6763C319.035 95.3365 306.242 97.4215 293.377 98.0686C281.159 98.6438 268.941 98.8595 256.723 99.0033C243.858 99.0752 230.993 99.0033 218.128 98.7876C203.538 98.5719 189.021 98.2124 174.431 97.8529C161.71 97.5653 149.132 96.4149 136.483 95.1208C124.984 93.9704 113.484 92.7482 101.913 92.4606C91.1323 92.173 80.5673 92.8201 70.0023 94.7613C57.8561 96.9901 46.2849 100.801 35.073 105.905C27.5984 109.285 19.9801 112.664 12.0024 114.893C8.98387 115.755 5.96529 116.403 2.94671 116.906C2.80297 116.834 2.7311 116.69 2.58736 116.618C2.58736 115.468 2.58736 114.246 2.58736 113.095H2.37174V113.023ZM29.0359 125.821C32.7731 124.886 36.5104 123.88 40.1758 122.945C52.3939 119.71 64.4682 116.546 76.9019 114.317C91.6354 111.657 106.369 110.435 121.39 110.579C127.427 110.579 133.536 110.723 139.573 110.291C144.82 109.932 150.138 109.86 155.457 109.86C161.494 109.86 167.459 109.86 173.496 109.86C181.618 109.788 189.955 109.572 198.004 108.566C212.307 106.84 226.465 106.481 240.839 106.768C253.92 107.056 267 107.775 280.153 107.847C292.083 107.847 303.87 107.272 315.657 105.258C336.643 101.735 357.055 95.8398 377.394 89.7284C397.949 83.5452 418.433 77.2182 439.203 71.754C439.203 72.6887 439.203 73.6233 439.203 74.6299C418.576 79.5909 398.093 85.3427 377.682 90.9507C357.198 96.5587 336.643 102.239 315.657 105.762C307.104 107.2 298.624 108.062 289.999 108.494C279.793 108.997 269.516 108.925 259.238 108.853C251.404 108.853 243.642 108.781 235.809 108.853C223.231 108.997 210.726 109.788 198.22 111.01C182.48 112.592 166.453 112.304 150.641 112.089C134.255 111.801 117.725 111.442 101.41 112.808C90.3417 113.742 79.633 115.827 68.9242 118.703C60.8028 120.86 52.7533 123.377 44.7037 125.893H29.1796L29.0359 125.821ZM131.308 125.821C145.036 124.096 158.691 122.298 172.346 120.141C185.427 118.128 198.436 117.122 211.66 116.762C225.459 116.403 239.33 116.618 253.201 116.546C272.103 116.546 291.077 115.684 309.907 113.383C327.66 111.226 345.34 107.343 362.661 103.03C381.419 98.3562 400.034 93.1076 418.648 88.0029C425.404 86.1336 432.16 84.3361 438.988 82.5387C438.988 83.689 438.988 84.7675 438.988 85.9179C432.663 87.4277 426.41 88.9376 420.086 90.5193C413.114 92.2449 406.143 93.9704 399.243 95.7679C385.228 99.2908 371.213 103.03 357.127 106.409C341.674 110.076 326.006 113.455 310.267 115.396C291.437 117.697 272.319 117.84 253.345 117.912C239.761 117.912 226.178 118.272 212.594 119.135C199.226 119.997 185.93 121.507 172.634 123.592C167.603 124.383 162.572 125.174 157.541 125.893H131.38L131.308 125.821ZM319.251 125.821C336.428 123.161 353.533 119.494 370.423 115.324C387.169 111.154 403.771 106.481 420.301 101.448C426.41 99.5784 432.519 97.8529 438.7 96.1992C438.7 97.8529 438.7 99.5784 438.7 101.232C432.807 102.67 426.841 104.108 420.948 105.546C404.13 109.644 387.312 113.742 370.423 117.409C356.192 120.573 341.818 123.449 327.372 125.821H319.251ZM393.134 125.821C396.153 125.102 399.243 124.455 402.262 123.736C413.905 121.076 425.62 118.488 437.406 116.115C437.766 116.043 438.197 115.971 438.556 115.899V116.618C438.556 116.618 437.981 117.122 437.694 117.337C426.123 120.213 414.623 123.161 402.98 125.821H393.062H393.134ZM357.27 0C354.252 1.22226 351.161 2.37263 348.071 3.45109C341.602 5.75182 334.847 8.26825 328.091 9.49051C321.694 10.6409 315.082 11.1442 308.614 10.3533C301.067 9.49051 293.233 6.32701 286.477 2.80401C284.896 2.01314 283.243 1.07847 281.59 0H284.753C285.687 0.575182 286.621 1.07847 287.556 1.58175C293.736 5.03285 301.57 8.69963 308.614 9.6343C314.579 10.4252 320.688 10.0657 326.581 8.98722C332.834 7.83686 339.015 5.89562 345.052 3.73869C348.143 2.58832 351.161 1.36606 354.18 0H357.27Z" fill="#D3C8C1"/>
</g>
<path style="mix-blend-mode:multiply" opacity="0.45" fill-rule="evenodd" clip-rule="evenodd" d="M195.705 36.1646C181.618 32.8573 146.689 24.5171 137.777 13.6606C136.698 12.3664 135.764 10.7847 135.549 9.05912C134.974 5.67993 136.986 2.51642 139.501 0H91.1323C86.6763 2.66022 82.2203 5.39233 77.9081 8.26825C74.4583 10.569 70.7928 13.2292 67.9899 16.2489C65.9775 18.4058 63.9651 21.3536 64.3245 24.4453C64.8276 29.4781 71.0803 32.2821 75.177 33.7201C80.6392 35.6613 86.3888 36.8836 92.0666 37.8901C98.3194 38.9686 104.644 39.6876 110.897 40.2628C115.928 40.7661 121.031 41.1974 126.062 41.7007C130.805 42.204 135.477 42.7073 140.22 43.4263C171.053 48.1715 201.742 53.9952 232.287 60.5379C239.69 62.1197 247.092 63.8452 254.495 65.4989C261.179 67.0087 267.791 68.4467 274.547 69.5971C282.093 70.8912 289.64 71.8259 297.258 72.1854C310.554 72.9044 323.563 71.6821 336.572 69.0938C348.79 66.5774 360.72 62.9106 372.507 58.8124C382.785 55.2894 392.99 51.4788 403.268 48.0277C413.761 44.5766 424.326 41.485 435.178 39.3281C436.76 39.0405 438.341 38.681 439.994 38.3934C440.138 34.8704 440.209 31.2755 440.353 27.7526C431.513 29.55 422.673 31.5631 413.905 33.792C399.027 37.5307 384.222 41.6288 369.488 45.7989C360.001 48.4591 350.586 51.2631 341.099 53.7077C330.247 56.4398 318.748 58.8843 307.536 59.3157C301.355 59.6033 295.102 59.1 288.921 58.3091C282.309 57.4463 275.769 56.1522 269.3 54.6423C258.376 52.1978 247.667 49.1062 236.815 46.446C223.159 42.9949 209.504 39.4719 195.705 36.2365V36.1646Z" fill="url(#paint5_radial_71_2)"/>
<path style="mix-blend-mode:multiply" opacity="0.45" fill-rule="evenodd" clip-rule="evenodd" d="M138.783 70.388C129.511 69.5971 120.312 69.4533 111.041 70.0285C91.2761 71.1788 71.6553 75.3489 52.3939 79.6628C39.6727 82.5387 27.0953 86.2055 14.3742 89.2252C10.3494 90.1598 6.25277 91.0945 2.15613 91.8135C2.228 98.8595 2.29987 105.977 2.37174 113.023C5.24658 112.592 8.12141 112.017 10.9963 111.298C18.9021 109.285 26.4485 106.121 33.9231 102.958C45.8536 97.9248 58.6467 94.977 71.5116 93.3952C85.0233 91.6697 98.6788 91.3102 112.262 91.5259C122.756 91.6697 133.249 92.173 143.742 92.6763C153.804 93.1796 163.794 93.6828 173.856 93.9704C188.733 94.3299 203.61 95.0489 218.488 95.696C231.281 96.2712 244.002 96.8463 256.795 97.1339C268.869 97.4215 281.015 97.4215 293.09 96.8463C301.93 96.415 310.77 95.1208 319.466 93.3952C328.881 91.5259 338.225 89.2252 347.496 86.7088C362.517 82.6106 377.322 78.0091 392.272 73.6953C397.59 72.1854 402.98 70.6036 408.299 69.1657C418.648 66.2898 428.998 63.4858 439.491 60.9693C439.491 58.9562 439.563 57.015 439.634 55.0018C425.045 58.4529 410.527 62.4792 396.081 66.5055C394.5 66.9369 392.846 67.4401 391.265 67.8715C379.622 71.1788 367.979 74.558 356.264 77.6496C342.609 81.2445 328.666 84.408 314.579 85.9179C304.661 86.9963 294.671 87.2839 284.681 86.9963C275.481 86.7088 266.282 85.9179 257.154 84.9832C249.464 84.1923 241.774 83.2577 234.084 82.5387C225.962 81.7478 217.841 81.0288 209.647 80.7412C203.035 80.4537 196.423 79.8785 189.883 78.9438C183.127 77.9372 176.443 76.6431 169.759 75.2051C159.553 72.9763 149.276 71.3226 138.926 70.4599L138.783 70.388Z" fill="url(#paint6_radial_71_2)"/>
<path style="mix-blend-mode:multiply" opacity="0.45" fill-rule="evenodd" clip-rule="evenodd" d="M356.983 106.337C341.531 110.004 325.863 113.383 310.123 115.324C291.293 117.625 272.175 117.769 253.201 117.84C239.618 117.84 226.034 118.2 212.45 119.063C199.082 119.926 185.786 121.435 172.49 123.52C167.459 124.311 162.428 125.102 157.397 125.821H319.179C336.356 123.161 353.461 119.494 370.351 115.324C387.097 111.154 403.699 106.481 420.229 101.448C426.338 99.5784 432.447 97.8529 438.628 96.1992C438.628 92.7481 438.7 89.297 438.772 85.8459C432.447 87.3558 426.195 88.8657 419.87 90.4474C412.898 92.1729 405.927 93.8985 399.027 95.6959C385.013 99.2189 370.998 102.958 356.911 106.337H356.983Z" fill="url(#paint7_radial_71_2)"/>
<path style="mix-blend-mode:multiply" opacity="0.45" fill-rule="evenodd" clip-rule="evenodd" d="M260.316 10.8566C282.022 21.7131 305.667 25.6675 329.672 22.504C347.424 20.2033 363.667 13.7325 380.269 7.47737C386.522 5.10474 392.631 2.66022 398.812 0.0718994H357.27C354.252 1.29416 351.161 2.44453 348.071 3.52299C341.603 5.82372 334.847 8.34015 328.091 9.56241C321.694 10.7128 315.082 11.2161 308.614 10.4252C301.067 9.56241 293.233 6.39891 286.478 2.87591C284.896 2.08504 283.243 1.15037 281.59 0.0718994H246.949C249.68 5.03285 255.573 8.48394 260.316 10.8566Z" fill="url(#paint8_radial_71_2)"/>
<g style="mix-blend-mode:multiply">
<path fill-rule="evenodd" clip-rule="evenodd" d="M426.266 111.226C426.41 78.9438 427.201 46.6616 428.423 14.3795C427.776 13.7325 427.129 13.0854 426.554 12.3664H14.4461C13.7992 13.0135 13.1524 13.6606 12.5056 14.3795C13.7274 46.6616 14.5179 78.9438 14.6617 111.226C15.4523 111.945 16.171 112.736 16.9616 113.527H423.967C424.685 112.736 425.476 112.017 426.266 111.226ZM424.398 110.435C424.613 78.6562 425.332 46.8773 426.554 15.0985C426.266 14.8109 425.979 14.5233 425.763 14.2357H15.2366C15.2366 14.2357 14.6617 14.8109 14.4461 15.0985C15.596 46.8773 16.3866 78.6562 16.6022 110.435C17.0334 110.866 17.3928 111.226 17.824 111.657H423.248C423.679 111.226 424.038 110.866 424.47 110.435H424.398Z" fill="#B2A3A1"/>
</g>
<g style="mix-blend-mode:screen" opacity="0.15">
<path fill-rule="evenodd" clip-rule="evenodd" d="M410.167 14.2358C362.086 15.3142 294.886 16.0332 220.5 16.0332C146.114 16.0332 78.9143 15.3142 30.8326 14.2358H410.167Z" fill="#B9B4D3"/>
</g>
<g style="mix-blend-mode:screen" opacity="0.1">
<path fill-rule="evenodd" clip-rule="evenodd" d="M398.955 113.527C353.821 114.389 290.502 114.965 220.428 114.965C150.354 114.965 87.0357 114.389 41.9007 113.527H398.884H398.955Z" fill="#B9B4D3"/>
</g>
<path style="mix-blend-mode:screen" opacity="0.4" fill-rule="evenodd" clip-rule="evenodd" d="M30.8326 14.2358H425.763C425.763 14.2358 426.338 14.8109 426.554 15.0985C425.404 46.8774 424.613 78.5843 424.398 110.363C424.613 110.147 424.901 109.86 425.117 109.644C425.332 77.8653 426.051 46.0865 427.273 14.3077C426.985 14.0201 426.698 13.7325 426.41 13.4449H14.5179C14.5179 13.4449 13.9429 14.0201 13.6554 14.3077C14.8054 46.0865 15.596 77.8653 15.8116 109.644C16.0272 109.86 16.3147 110.147 16.5303 110.363C16.3147 78.5843 15.596 46.8055 14.3742 15.0985C14.6616 14.8109 14.9491 14.5234 15.1647 14.2358H30.7607H30.8326Z" fill="url(#paint9_linear_71_2)"/>
<g style="mix-blend-mode:screen" opacity="0.3">
<path fill-rule="evenodd" clip-rule="evenodd" d="M220.5 112.736H16.2428C15.7397 112.232 15.1648 111.657 14.6617 111.154C15.4523 111.945 16.171 112.736 16.9616 113.527H423.967C424.685 112.736 425.476 112.017 426.266 111.226C425.763 111.657 425.188 112.232 424.685 112.736H220.5Z" fill="#B2A3A1"/>
</g>
<path style="mix-blend-mode:screen" opacity="0.5" fill-rule="evenodd" clip-rule="evenodd" d="M9.34322 1.94124H431.657C433.813 4.96095 436.328 7.54927 439.347 10.0657C439.131 25.5956 439.347 41.6288 439.491 57.3025C439.922 41.2693 440.425 25.308 441 9.27482C437.91 6.4708 434.891 3.3792 432.088 0H8.91199C6.10903 3.3792 3.16232 6.3989 0 9.27482C0.646838 25.308 1.14993 41.2693 1.50929 57.3025C1.65303 41.5569 1.86864 25.5956 1.65303 10.0657C4.67161 7.54927 7.11522 4.96095 9.34322 1.94124Z" fill="url(#paint10_linear_71_2)"/>
<g style="mix-blend-mode:screen" opacity="0.5">
<path d="M80.9985 1.22222C82.0702 1.22222 82.939 1.12565 82.939 1.00653C82.939 0.887402 82.0702 0.790833 80.9985 0.790833C79.9268 0.790833 79.058 0.887402 79.058 1.00653C79.058 1.12565 79.9268 1.22222 80.9985 1.22222Z" fill="#00FFA3"/>
</g>
<path style="mix-blend-mode:screen" fill-rule="evenodd" clip-rule="evenodd" d="M13.4399 134.449L11.715 125.821C8.84018 122.658 5.89347 119.638 2.80302 116.906C2.65928 116.834 2.58741 116.69 2.44366 116.618L4.31231 125.318C7.47463 128.194 10.5651 131.213 13.5118 134.521L13.4399 134.449Z" fill="url(#paint11_linear_71_2)"/>
<path style="mix-blend-mode:multiply" fill-rule="evenodd" clip-rule="evenodd" d="M427.56 134.449L429.285 125.821C432.16 122.658 435.107 119.638 438.197 116.906C438.341 116.834 438.413 116.69 438.556 116.618L436.688 125.318C433.525 128.194 430.435 131.213 427.488 134.521L427.56 134.449Z" fill="url(#paint12_linear_71_2)"/>
<path style="mix-blend-mode:screen" fill-rule="evenodd" clip-rule="evenodd" d="M139.07 67.2244C149.276 67.8715 159.41 69.4533 169.472 71.6102C176.084 73.0482 182.768 74.3423 189.452 75.3489C195.992 76.2836 202.532 76.9306 209.144 77.1463C209.288 77.1463 209.432 77.1463 209.648 77.1463C199.298 75.996 189.236 74.7018 178.671 72.473C171.268 70.8912 164.01 68.4467 156.463 67.2244C139.43 64.5642 124.768 64.4204 107.663 66.2179C89.695 68.1591 69.8586 73.4795 51.7471 78.4405C62.5278 75.996 72.9491 73.6233 83.4422 71.5383C92.7854 69.7409 102.272 68.231 111.759 67.4401C120.815 66.6493 129.871 66.5774 138.927 67.1525L139.07 67.2244Z" fill="url(#paint13_radial_71_2)"/>
<path style="mix-blend-mode:screen" fill-rule="evenodd" clip-rule="evenodd" d="M284.537 106.553C271.313 106.768 258.664 105.402 245.439 105.258C236.024 105.115 227.472 106.193 218.919 106.912C226.178 106.624 233.437 106.624 240.768 106.768C253.848 107.056 266.929 107.775 280.081 107.847C292.012 107.847 303.798 107.272 315.585 105.258C332.403 102.454 348.862 98.0686 365.176 93.3233C358.277 95.1927 351.233 96.7744 344.334 98.5C323.922 103.605 305.595 106.265 284.537 106.553Z" fill="url(#paint14_radial_71_2)"/>
<path style="mix-blend-mode:screen" fill-rule="evenodd" clip-rule="evenodd" d="M254.783 46.5179C226.25 38.8248 201.598 32.5697 172.778 26.746C177.162 28.0401 181.546 29.1905 186.002 30.1971C190.099 31.2036 194.267 32.0664 198.364 33.073C206.198 34.9423 214.032 37.0274 221.794 39.1843C230.49 41.6288 239.187 44.0733 247.883 46.446C258.376 49.3219 268.941 52.054 279.578 54.3547C284.393 55.3613 289.281 56.296 294.24 57.0149C298.552 57.662 302.936 58.0934 307.32 58.3091C319.035 58.7405 331.325 55.8646 342.537 52.7011C351.449 50.1847 360.217 47.2368 369.057 44.7923C376.747 42.6354 384.438 40.4066 392.128 38.1058C401.255 35.4456 410.311 32.7854 419.439 30.269C414.839 31.3474 410.239 32.4259 405.711 33.5763C380.988 39.9033 354.611 49.4657 330.391 54.7861C313.501 58.4529 297.833 56.5836 281.159 52.9887C272.319 51.0474 263.479 48.8186 254.711 46.446L254.783 46.5179Z" fill="url(#paint15_radial_71_2)"/>
<g filter="url(#filter0_d_71_2)">
<path d="M80.4129 26.84L79.9879 87.105L99.1129 86.34L98.4329 52.425L105.318 68.575L114.838 68.065L120.958 51.235L121.723 86.085L140.168 85.405L138.553 26.84H118.153L110.758 44.18L99.3679 26.33L80.4129 26.84ZM144.317 28.03L144.997 86.595H162.082V28.03H144.317ZM166.812 27.775L167.492 86.85H184.832L183.812 56.93L198.092 73.76L199.282 85.915L217.727 85.15L216.792 27.35L197.837 27.775L199.537 54.55L185.512 41.035L184.832 26.84L166.812 27.775ZM222.348 84.98L259.323 84.47V70.275L239.178 69.085L239.858 62.2L249.803 62.37V50.3L238.923 50.045L239.178 42.735H257.878L257.368 27.095C257.368 27.095 222.348 27.35 222.518 27.52L222.348 84.98ZM288.335 28.03L289.015 86.595H306.1V28.03H288.335ZM308.366 27.775L309.301 46.56L321.116 46.305L320.436 86.085L337.946 85.66L337.691 45.37L346.956 45.54L347.211 27.52L308.366 27.775ZM349.427 27.69L350.787 65.855L363.367 66.11L364.812 27.69H349.427ZM364.812 83.195L365.067 74.185L363.622 71.125L352.487 70.87L350.532 72.57L349.852 82.94L351.297 85.83L362.857 86.51L364.812 83.195Z" fill="#FFA800"/>
<path d="M80.4129 26.84L80.386 25.8404L79.4197 25.8664L79.4129 26.8329L80.4129 26.84ZM79.9879 87.105L78.9879 87.0979L78.9805 88.1461L80.0278 88.1042L79.9879 87.105ZM99.1129 86.34L99.1528 87.3392L100.132 87.3L100.113 86.32L99.1129 86.34ZM98.4329 52.425L99.3528 52.0328L97.4331 52.445L98.4329 52.425ZM105.318 68.575L104.398 68.9672L104.672 69.611L105.371 69.5736L105.318 68.575ZM114.838 68.065L114.891 69.0636L115.552 69.0282L115.778 68.4067L114.838 68.065ZM120.958 51.235L121.958 51.2131L120.018 50.8933L120.958 51.235ZM121.723 86.085L120.723 86.1069L120.745 87.1217L121.76 87.0843L121.723 86.085ZM140.168 85.405L140.205 86.4043L141.195 86.3678L141.167 85.3774L140.168 85.405ZM138.553 26.84L139.552 26.8124L139.526 25.84H138.553V26.84ZM118.153 26.84V25.84H117.492L117.233 26.4477L118.153 26.84ZM110.758 44.18L109.915 44.7179L110.934 46.3155L111.678 44.5723L110.758 44.18ZM99.3679 26.33L100.211 25.7921L99.9065 25.3151L99.341 25.3304L99.3679 26.33ZM79.4129 26.8329L78.9879 87.0979L80.9878 87.1121L81.4128 26.847L79.4129 26.8329ZM80.0278 88.1042L99.1528 87.3392L99.0729 85.3408L79.9479 86.1058L80.0278 88.1042ZM100.113 86.32L99.4327 52.405L97.4331 52.445L98.1131 86.36L100.113 86.32ZM97.513 52.8172L104.398 68.9672L106.238 68.1828L99.3528 52.0328L97.513 52.8172ZM105.371 69.5736L114.891 69.0636L114.784 67.0664L105.264 67.5764L105.371 69.5736ZM115.778 68.4067L121.898 51.5767L120.018 50.8933L113.898 67.7233L115.778 68.4067ZM119.958 51.2569L120.723 86.1069L122.723 86.0631L121.958 51.2131L119.958 51.2569ZM121.76 87.0843L140.205 86.4043L140.131 84.4057L121.686 85.0857L121.76 87.0843ZM141.167 85.3774L139.552 26.8124L137.553 26.8676L139.168 85.4326L141.167 85.3774ZM138.553 25.84H118.153V27.84H138.553V25.84ZM117.233 26.4477L109.838 43.7877L111.678 44.5723L119.073 27.2323L117.233 26.4477ZM111.601 43.6421L100.211 25.7921L98.5249 26.8679L109.915 44.7179L111.601 43.6421ZM99.341 25.3304L80.386 25.8404L80.4398 27.8396L99.3948 27.3296L99.341 25.3304ZM144.317 28.03V27.03H143.305L143.317 28.0416L144.317 28.03ZM144.997 86.595L143.997 86.6066L144.008 87.595H144.997V86.595ZM162.082 86.595V87.595H163.082V86.595H162.082ZM162.082 28.03H163.082V27.03H162.082V28.03ZM143.317 28.0416L143.997 86.6066L145.997 86.5834L145.317 28.0184L143.317 28.0416ZM144.997 87.595H162.082V85.595H144.997V87.595ZM163.082 86.595V28.03H161.082V86.595H163.082ZM162.082 27.03H144.317V29.03H162.082V27.03ZM166.812 27.775L166.76 26.7763L165.801 26.8261L165.812 27.7865L166.812 27.775ZM167.492 86.85L166.492 86.8615L166.503 87.85H167.492V86.85ZM184.832 86.85V87.85H185.867L185.831 86.8159L184.832 86.85ZM183.812 56.93L184.575 56.283L182.715 54.091L182.813 56.9641L183.812 56.93ZM198.092 73.76L199.087 73.6626L199.057 73.3514L198.855 73.113L198.092 73.76ZM199.282 85.915L198.287 86.0124L198.379 86.9533L199.323 86.9141L199.282 85.915ZM217.727 85.15L217.768 86.1491L218.743 86.1087L218.727 85.1338L217.727 85.15ZM216.792 27.35L217.792 27.3338L217.776 26.3277L216.77 26.3502L216.792 27.35ZM197.837 27.775L197.815 26.7752L196.773 26.7986L196.839 27.8384L197.837 27.775ZM199.537 54.55L198.843 55.2701L200.698 57.0577L200.535 54.4866L199.537 54.55ZM185.512 41.035L184.513 41.0828L184.532 41.4795L184.818 41.7551L185.512 41.035ZM184.832 26.84L185.831 26.7921L185.783 25.7893L184.78 25.8413L184.832 26.84ZM165.812 27.7865L166.492 86.8615L168.492 86.8385L167.812 27.7635L165.812 27.7865ZM167.492 87.85H184.832V85.85H167.492V87.85ZM185.831 86.8159L184.811 56.8959L182.813 56.9641L183.833 86.8841L185.831 86.8159ZM183.05 57.577L197.33 74.407L198.855 73.113L184.575 56.283L183.05 57.577ZM197.097 73.8574L198.287 86.0124L200.277 85.8176L199.087 73.6626L197.097 73.8574ZM199.323 86.9141L217.768 86.1491L217.686 84.1509L199.241 84.9159L199.323 86.9141ZM218.727 85.1338L217.792 27.3338L215.792 27.3662L216.727 85.1662L218.727 85.1338ZM216.77 26.3502L197.815 26.7752L197.859 28.7747L216.814 28.3497L216.77 26.3502ZM196.839 27.8384L198.539 54.6134L200.535 54.4866L198.835 27.7116L196.839 27.8384ZM200.231 53.8299L186.206 40.3149L184.818 41.7551L198.843 55.2701L200.231 53.8299ZM186.511 40.9871L185.831 26.7921L183.833 26.8878L184.513 41.0828L186.511 40.9871ZM184.78 25.8413L166.76 26.7763L166.864 28.7737L184.884 27.8387L184.78 25.8413ZM222.348 84.98L221.348 84.977L221.345 85.9939L222.362 85.9799L222.348 84.98ZM259.323 84.47L259.337 85.4699L260.323 85.4563V84.47H259.323ZM259.323 70.275H260.323V69.3323L259.382 69.2767L259.323 70.275ZM239.178 69.085L238.183 68.9867L238.081 70.0219L239.119 70.0833L239.178 69.085ZM239.858 62.2L239.875 61.2001L238.954 61.1844L238.863 62.1017L239.858 62.2ZM249.803 62.37L249.786 63.3699L250.803 63.3872V62.37H249.803ZM249.803 50.3H250.803V49.3232L249.827 49.3003L249.803 50.3ZM238.923 50.045L237.924 50.0101L237.889 51.021L238.9 51.0447L238.923 50.045ZM239.178 42.735V41.735H238.213L238.179 42.7001L239.178 42.735ZM257.878 42.735V43.735H258.911L258.878 42.7024L257.878 42.735ZM257.368 27.095L258.368 27.0624L258.336 26.0879L257.361 26.095L257.368 27.095ZM222.518 27.52L223.518 27.523L223.519 27.107L223.225 26.8129L222.518 27.52ZM222.362 85.9799L259.337 85.4699L259.309 83.4701L222.334 83.9801L222.362 85.9799ZM260.323 84.47V70.275H258.323V84.47H260.323ZM259.382 69.2767L239.237 68.0867L239.119 70.0833L259.264 71.2733L259.382 69.2767ZM240.173 69.1833L240.853 62.2983L238.863 62.1017L238.183 68.9867L240.173 69.1833ZM239.841 63.1999L249.786 63.3699L249.82 61.3701L239.875 61.2001L239.841 63.1999ZM250.803 62.37V50.3H248.803V62.37H250.803ZM249.827 49.3003L238.947 49.0453L238.9 51.0447L249.78 51.2997L249.827 49.3003ZM239.923 50.0799L240.178 42.7699L238.179 42.7001L237.924 50.0101L239.923 50.0799ZM239.178 43.735H257.878V41.735H239.178V43.735ZM258.878 42.7024L258.368 27.0624L256.369 27.1276L256.879 42.7676L258.878 42.7024ZM257.368 27.095C257.361 26.095 257.361 26.095 257.361 26.095C257.36 26.095 257.36 26.095 257.359 26.095C257.358 26.095 257.357 26.0951 257.355 26.0951C257.35 26.0951 257.344 26.0951 257.336 26.0952C257.319 26.0953 257.294 26.0955 257.26 26.0958C257.194 26.0963 257.096 26.097 256.968 26.0979C256.711 26.0998 256.335 26.1027 255.856 26.1063C254.899 26.1136 253.531 26.1242 251.891 26.1375C248.61 26.1641 244.237 26.2013 239.87 26.2438C235.503 26.2863 231.139 26.3341 227.877 26.382C226.247 26.4059 224.889 26.4299 223.942 26.4532C223.47 26.4649 223.094 26.4765 222.836 26.4882C222.71 26.494 222.599 26.5003 222.514 26.5078C222.479 26.5109 222.416 26.517 222.35 26.5294C222.338 26.5317 222.228 26.5504 222.106 26.6062C222.081 26.6174 221.832 26.7214 221.664 26.9982C221.588 27.1508 221.518 27.5107 221.536 27.7081C221.583 27.8749 221.729 28.1337 221.811 28.2271L223.225 26.8129C223.307 26.9057 223.452 27.1637 223.5 27.3299C223.518 27.5266 223.448 27.8859 223.372 28.0378C223.205 28.3133 222.957 28.416 222.936 28.4258C222.865 28.4581 222.807 28.4742 222.784 28.4803C222.756 28.4878 222.734 28.4923 222.722 28.4946C222.685 28.5016 222.666 28.5022 222.692 28.4999C222.731 28.4964 222.806 28.4917 222.927 28.4862C223.163 28.4755 223.522 28.4642 223.992 28.4526C224.928 28.4295 226.278 28.4057 227.907 28.3818C231.163 28.334 235.523 28.2862 239.889 28.2437C244.255 28.2012 248.627 28.164 251.907 28.1375C253.547 28.1242 254.914 28.1136 255.871 28.1063C256.35 28.1026 256.726 28.0998 256.982 28.0979C257.111 28.0969 257.209 28.0962 257.275 28.0957C257.308 28.0955 257.333 28.0953 257.35 28.0952C257.359 28.0951 257.365 28.095 257.369 28.095C257.371 28.095 257.373 28.095 257.374 28.095C257.374 28.095 257.375 28.095 257.375 28.095C257.375 28.095 257.376 28.095 257.368 27.095ZM221.518 27.517L221.348 84.977L223.348 84.983L223.518 27.523L221.518 27.517ZM288.335 28.03V27.03H287.324L287.336 28.0416L288.335 28.03ZM289.016 86.595L288.016 86.6066L288.027 87.595H289.016V86.595ZM306.1 86.595V87.595H307.1V86.595H306.1ZM306.1 28.03H307.1V27.03H306.1V28.03ZM287.336 28.0416L288.016 86.6066L290.015 86.5834L289.335 28.0184L287.336 28.0416ZM289.016 87.595H306.1V85.595H289.016V87.595ZM307.1 86.595V28.03H305.1V86.595H307.1ZM306.1 27.03H288.335V29.03H306.1V27.03ZM308.366 27.775L308.359 26.775L307.315 26.7819L307.367 27.8247L308.366 27.775ZM309.301 46.56L308.302 46.6097L308.35 47.5807L309.322 47.5598L309.301 46.56ZM321.116 46.305L322.115 46.3221L322.133 45.2828L321.094 45.3052L321.116 46.305ZM320.436 86.085L319.436 86.0679L319.418 87.11L320.46 87.0847L320.436 86.085ZM337.946 85.66L337.97 86.6597L338.952 86.6359L338.946 85.6537L337.946 85.66ZM337.691 45.37L337.709 44.3702L336.684 44.3514L336.691 45.3763L337.691 45.37ZM346.956 45.54L346.937 46.5398L347.941 46.5583L347.956 45.5541L346.956 45.54ZM347.211 27.52L348.211 27.5341L348.225 26.5133L347.204 26.52L347.211 27.52ZM307.367 27.8247L308.302 46.6097L310.299 46.5103L309.364 27.7253L307.367 27.8247ZM309.322 47.5598L321.137 47.3048L321.094 45.3052L309.279 45.5602L309.322 47.5598ZM320.116 46.2879L319.436 86.0679L321.435 86.1021L322.115 46.3221L320.116 46.2879ZM320.46 87.0847L337.97 86.6597L337.921 84.6603L320.411 85.0853L320.46 87.0847ZM338.946 85.6537L338.691 45.3637L336.691 45.3763L336.946 85.6663L338.946 85.6537ZM337.672 46.3698L346.937 46.5398L346.974 44.5402L337.709 44.3702L337.672 46.3698ZM347.956 45.5541L348.211 27.5341L346.211 27.5058L345.956 45.5259L347.956 45.5541ZM347.204 26.52L308.359 26.775L308.372 28.775L347.217 28.52L347.204 26.52ZM349.427 27.69V26.69H348.391L348.428 27.7256L349.427 27.69ZM350.787 65.855L349.788 65.8906L349.822 66.8356L350.767 66.8548L350.787 65.855ZM363.367 66.11L363.347 67.1098L364.33 67.1297L364.367 66.1476L363.367 66.11ZM364.812 27.69L365.812 27.7276L365.851 26.69H364.812V27.69ZM364.812 83.195L365.674 83.703L365.805 83.481L365.812 83.2233L364.812 83.195ZM365.067 74.185L366.067 74.2133L366.074 73.9742L365.971 73.758L365.067 74.185ZM363.622 71.125L364.526 70.698L364.263 70.1394L363.645 70.1253L363.622 71.125ZM352.487 70.87L352.51 69.8703L352.123 69.8614L351.831 70.1154L352.487 70.87ZM350.532 72.57L349.876 71.8154L349.562 72.0888L349.534 72.5046L350.532 72.57ZM349.852 82.94L348.854 82.8746L348.837 83.1449L348.958 83.3872L349.852 82.94ZM351.297 85.83L350.403 86.2772L350.661 86.7943L351.239 86.8283L351.297 85.83ZM362.857 86.51L362.799 87.5083L363.408 87.5441L363.719 87.018L362.857 86.51ZM348.428 27.7256L349.788 65.8906L351.787 65.8194L350.427 27.6544L348.428 27.7256ZM350.767 66.8548L363.347 67.1098L363.388 65.1102L350.808 64.8552L350.767 66.8548ZM364.367 66.1476L365.812 27.7276L363.813 27.6524L362.368 66.0724L364.367 66.1476ZM364.812 26.69H349.427V28.69H364.812V26.69ZM365.812 83.2233L366.067 74.2133L364.068 74.1567L363.813 83.1667L365.812 83.2233ZM365.971 73.758L364.526 70.698L362.718 71.552L364.163 74.612L365.971 73.758ZM363.645 70.1253L352.51 69.8703L352.464 71.8697L363.599 72.1247L363.645 70.1253ZM351.831 70.1154L349.876 71.8154L351.188 73.3246L353.143 71.6246L351.831 70.1154ZM349.534 72.5046L348.854 82.8746L350.85 83.0054L351.53 72.6354L349.534 72.5046ZM348.958 83.3872L350.403 86.2772L352.192 85.3828L350.747 82.4928L348.958 83.3872ZM351.239 86.8283L362.799 87.5083L362.916 85.5117L351.356 84.8317L351.239 86.8283ZM363.719 87.018L365.674 83.703L363.951 82.687L361.996 86.002L363.719 87.018Z" fill="#4D2000"/>
</g>
<defs>
<filter id="filter0_d_71_2" x="79.9879" y="26.33" width="292.079" height="67.775" filterUnits="userSpaceOnUse" color-interpolation-filters="sRGB">
<feFlood flood-opacity="0" result="BackgroundImageFix"/>
<feColorMatrix in="SourceAlpha" type="matrix" values="0 0 0 0 0 0 0 0 0 0 0 0 0 0 0 0 0 0 127 0" result="hardAlpha"/>
<feOffset dx="7" dy="7"/>
<feComposite in2="hardAlpha" operator="out"/>
<feColorMatrix type="matrix" values="0 0 0 0 0.383333 0 0 0 0 0.092 0 0 0 0 0 0 0 0 1 0"/>
<feBlend mode="normal" in2="BackgroundImageFix" result="effect1_dropShadow_71_2"/>
<feBlend mode="normal" in="SourceGraphic" in2="effect1_dropShadow_71_2" result="shape"/>
</filter>
<radialGradient id="paint0_radial_71_2" cx="0" cy="0" r="1" gradientUnits="userSpaceOnUse" gradientTransform="translate(313.932 145.018) scale(40.679 40.6942)">
<stop stop-color="#B7C0CF"/>
<stop offset="1" stop-color="#7C7FA3"/>
</radialGradient>
<radialGradient id="paint1_radial_71_2" cx="0" cy="0" r="1" gradientUnits="userSpaceOnUse" gradientTransform="translate(114.562 150.554) scale(68.9242 68.95)">
<stop stop-color="#B7C0CF"/>
<stop offset="1" stop-color="#7C7FA3"/>
</radialGradient>
<radialGradient id="paint2_radial_71_2" cx="0" cy="0" r="1" gradientUnits="userSpaceOnUse" gradientTransform="translate(154.091 154.436) scale(65.1869 65.2113)">
<stop stop-color="#B7C0CF"/>
<stop offset="1" stop-color="#7C7FA3"/>
</radialGradient>
<linearGradient id="paint3_linear_71_2" x1="2.37177" y1="125.534" x2="438.556" y2="125.534" gradientUnits="userSpaceOnUse">
<stop stop-color="#2F2B33"/>
<stop offset="1" stop-color="#27242B"/>
</linearGradient>
<linearGradient id="paint4_linear_71_2" x1="220.5" y1="125.821" x2="220.5" y2="0" gradientUnits="userSpaceOnUse">
<stop stop-color="#3A3642"/>
<stop offset="1" stop-color="#47424D"/>
</linearGradient>
<radialGradient id="paint5_radial_71_2" cx="0" cy="0" r="1" gradientUnits="userSpaceOnUse" gradientTransform="translate(151.073 -278.963) scale(541.476 541.678)">
<stop stop-color="#B39DA3"/>
<stop offset="1" stop-color="white"/>
</radialGradient>
<radialGradient id="paint6_radial_71_2" cx="0" cy="0" r="1" gradientUnits="userSpaceOnUse" gradientTransform="translate(85.742 373.653) scale(699.376 699.637)">
<stop stop-color="#B39DA3"/>
<stop offset="1" stop-color="white"/>
</radialGradient>
<radialGradient id="paint7_radial_71_2" cx="0" cy="0" r="1" gradientUnits="userSpaceOnUse" gradientTransform="translate(448.187 379.189) scale(597.247 597.471)">
<stop stop-color="#B39DA3"/>
<stop offset="1" stop-color="white"/>
</radialGradient>
<radialGradient id="paint8_radial_71_2" cx="0" cy="0" r="1" gradientUnits="userSpaceOnUse" gradientTransform="translate(226.968 -265.519) scale(475.139 475.316)">
<stop stop-color="#B39DA3"/>
<stop offset="1" stop-color="white"/>
</radialGradient>
<linearGradient id="paint9_linear_71_2" x1="220.5" y1="110.363" x2="220.5" y2="13.4449" gradientUnits="userSpaceOnUse">
<stop/>
<stop offset="1" stop-color="#B2A3A1"/>
</linearGradient>
<linearGradient id="paint10_linear_71_2" x1="220.5" y1="57.3025" x2="220.5" y2="0" gradientUnits="userSpaceOnUse">
<stop/>
<stop offset="1" stop-color="#00FFA3"/>
</linearGradient>
<linearGradient id="paint11_linear_71_2" x1="9.70263" y1="123.664" x2="6.17961" y2="127.258" gradientUnits="userSpaceOnUse">
<stop stop-color="#36363D"/>
<stop offset="1"/>
</linearGradient>
<linearGradient id="paint12_linear_71_2" x1="427.56" y1="125.534" x2="438.556" y2="125.534" gradientUnits="userSpaceOnUse">
<stop stop-color="#C7C7C7"/>
<stop offset="1" stop-color="#9898AB"/>
</linearGradient>
<radialGradient id="paint13_radial_71_2" cx="0" cy="0" r="1" gradientUnits="userSpaceOnUse" gradientTransform="translate(87.1795 -17.1116) scale(284.896 285.003)">
<stop stop-color="#242029"/>
<stop offset="1"/>
</radialGradient>
<radialGradient id="paint14_radial_71_2" cx="0" cy="0" r="1" gradientUnits="userSpaceOnUse" gradientTransform="translate(370.351 140.632) scale(276.991 277.094)">
<stop stop-color="#242029"/>
<stop offset="1"/>
</radialGradient>
<radialGradient id="paint15_radial_71_2" cx="0" cy="0" r="1" gradientUnits="userSpaceOnUse" gradientTransform="translate(241.199 6.5427) scale(290.574 290.683)">
<stop stop-color="#242029"/>
<stop offset="1"/>
</radialGradient>
</defs>
</svg>
