<svg width="108" height="115" viewBox="0 0 108 115" fill="none" xmlns="http://www.w3.org/2000/svg">
<g style="mix-blend-mode:screen">
<path d="M72.4557 16.0367C72.4557 16.1274 72.3805 16.2029 72.2902 16.2029C72.1999 16.2029 72.1246 16.1274 72.1246 16.0367C72.1246 15.946 72.1999 15.8704 72.2902 15.8704C72.3805 15.8704 72.4557 15.946 72.4557 16.0367Z" fill="#FFCE00"/>
</g>
<g style="mix-blend-mode:screen">
<path d="M72.6965 16.0367C72.6965 16.2634 72.5159 16.4448 72.2902 16.4448C72.0644 16.4448 71.8838 16.2634 71.8838 16.0367C71.8838 15.81 72.0644 15.6286 72.2902 15.6286C72.5159 15.6286 72.6965 15.81 72.6965 16.0367Z" fill="#FFCE00"/>
</g>
<g style="mix-blend-mode:screen">
<path d="M25.8878 21.9164C25.8878 21.9164 25.8577 21.992 25.8125 21.992C25.7674 21.992 25.7373 21.9617 25.7373 21.9164C25.7373 21.8711 25.7674 21.8408 25.8125 21.8408C25.8577 21.8408 25.8878 21.8711 25.8878 21.9164Z" fill="#FFCE00"/>
</g>
<g style="mix-blend-mode:screen">
<path d="M25.9932 21.9163C25.9932 22.0221 25.9179 22.0977 25.8125 22.0977C25.7072 22.0977 25.6319 22.0221 25.6319 21.9163C25.6319 21.8105 25.7072 21.7349 25.8125 21.7349C25.9179 21.7349 25.9932 21.8105 25.9932 21.9163Z" fill="#FFCE00"/>
</g>
<g style="mix-blend-mode:screen">
<path d="M100.857 55.6221C100.857 55.6221 100.812 55.7127 100.767 55.7127C100.722 55.7127 100.676 55.6674 100.676 55.6221C100.676 55.5767 100.722 55.5314 100.767 55.5314C100.812 55.5314 100.857 55.5767 100.857 55.6221Z" fill="#FFCE00"/>
</g>
<g style="mix-blend-mode:screen">
<path d="M101.008 55.6221C101.008 55.7582 100.902 55.864 100.767 55.864C100.631 55.864 100.526 55.7582 100.526 55.6221C100.526 55.4861 100.631 55.3803 100.767 55.3803C100.902 55.3803 101.008 55.4861 101.008 55.6221Z" fill="#FFCE00"/>
</g>
<g style="mix-blend-mode:screen">
<path d="M52.0164 10.4896C52.0164 10.4896 51.9713 10.5954 51.9111 10.5954C51.8509 10.5954 51.8057 10.5501 51.8057 10.4896C51.8057 10.4292 51.8509 10.3838 51.9111 10.3838C51.9713 10.3838 52.0164 10.4292 52.0164 10.4896Z" fill="#FFCE00"/>
</g>
<g style="mix-blend-mode:screen">
<path d="M51.896 10.7617C52.0456 10.7617 52.1669 10.6399 52.1669 10.4897C52.1669 10.3394 52.0456 10.2176 51.896 10.2176C51.7464 10.2176 51.6251 10.3394 51.6251 10.4897C51.6251 10.6399 51.7464 10.7617 51.896 10.7617Z" fill="#FFCE00"/>
</g>
<g style="mix-blend-mode:screen">
<path d="M8.57909 52.1306C8.64559 52.1306 8.6995 52.0765 8.6995 52.0097C8.6995 51.9429 8.64559 51.8888 8.57909 51.8888C8.51259 51.8888 8.45868 51.9429 8.45868 52.0097C8.45868 52.0765 8.51259 52.1306 8.57909 52.1306Z" fill="#FFCE00"/>
</g>
<g style="mix-blend-mode:screen">
<path d="M8.57909 52.2969C8.73703 52.2969 8.86506 52.1683 8.86506 52.0097C8.86506 51.8511 8.73703 51.7225 8.57909 51.7225C8.42116 51.7225 8.29312 51.8511 8.29312 52.0097C8.29312 52.1683 8.42116 52.2969 8.57909 52.2969Z" fill="#FFCE00"/>
</g>
<g style="mix-blend-mode:screen">
<path d="M83.2323 22.6116C83.2323 22.6116 83.1872 22.7022 83.142 22.7022C83.0969 22.7022 83.0517 22.6569 83.0517 22.6116C83.0517 22.5662 83.0969 22.5209 83.142 22.5209C83.1872 22.5209 83.2323 22.5662 83.2323 22.6116Z" fill="#FFCE00"/>
</g>
<g style="mix-blend-mode:screen">
<path d="M83.3678 22.6115C83.3678 22.7325 83.2624 22.8383 83.142 22.8383C83.0216 22.8383 82.9162 22.7325 82.9162 22.6115C82.9162 22.4906 83.0216 22.3848 83.142 22.3848C83.2624 22.3848 83.3678 22.4906 83.3678 22.6115Z" fill="#FFCE00"/>
</g>
<g style="mix-blend-mode:screen">
<path d="M34.4218 16.2484C34.4883 16.2484 34.5422 16.1942 34.5422 16.1274C34.5422 16.0607 34.4883 16.0065 34.4218 16.0065C34.3553 16.0065 34.3013 16.0607 34.3013 16.1274C34.3013 16.1942 34.3553 16.2484 34.4218 16.2484Z" fill="#FFCE00"/>
</g>
<g style="mix-blend-mode:screen">
<path d="M34.4218 16.4448C34.5963 16.4448 34.7378 16.3027 34.7378 16.1274C34.7378 15.9521 34.5963 15.81 34.4218 15.81C34.2472 15.81 34.1057 15.9521 34.1057 16.1274C34.1057 16.3027 34.2472 16.4448 34.4218 16.4448Z" fill="#FFCE00"/>
</g>
<g style="mix-blend-mode:screen">
<path d="M0.136033 50.6655C0.169598 50.6655 0.196809 50.6382 0.196809 50.6045C0.196809 50.5709 0.169598 50.5436 0.136033 50.5436C0.102467 50.5436 0.0752563 50.5709 0.0752563 50.6045C0.0752563 50.6382 0.102467 50.6655 0.136033 50.6655Z" fill="#FFCE00"/>
</g>
<g style="mix-blend-mode:screen">
<path d="M0.270919 50.6041C0.270919 50.6796 0.210715 50.7401 0.13546 50.7401C0.0602044 50.7401 0 50.6796 0 50.6041C0 50.5285 0.0602044 50.468 0.13546 50.468C0.210715 50.468 0.270919 50.5285 0.270919 50.6041Z" fill="#FFCE00"/>
</g>
<g opacity="0.75">
<g style="mix-blend-mode:screen">
<path d="M2.93495 65.3711C2.93495 65.3711 2.88979 65.4618 2.84464 65.4618C2.79949 65.4618 2.75433 65.4164 2.75433 65.3711C2.75433 65.3257 2.79949 65.2804 2.84464 65.2804C2.88979 65.2804 2.93495 65.3257 2.93495 65.3711Z" fill="#FFCE00"/>
</g>
<g style="mix-blend-mode:screen">
<path d="M3.07041 65.3711C3.07041 65.492 2.96505 65.5978 2.84465 65.5978C2.72424 65.5978 2.61888 65.492 2.61888 65.3711C2.61888 65.2502 2.72424 65.1444 2.84465 65.1444C2.96505 65.1444 3.07041 65.2502 3.07041 65.3711Z" fill="#FFCE00"/>
</g>
</g>
<g opacity="0.75">
<g style="mix-blend-mode:screen">
<path d="M61.5588 0.317425C61.6087 0.317425 61.6491 0.276821 61.6491 0.226735C61.6491 0.176649 61.6087 0.136047 61.5588 0.136047C61.5089 0.136047 61.4685 0.176649 61.4685 0.226735C61.4685 0.276821 61.5089 0.317425 61.5588 0.317425Z" fill="#FFCE00"/>
</g>
<g style="mix-blend-mode:screen">
<path d="M61.7845 0.22672C61.7845 0.347638 61.6792 0.453443 61.5588 0.453443C61.4384 0.453443 61.333 0.347638 61.333 0.22672C61.333 0.105802 61.4384 0 61.5588 0C61.6792 0 61.7845 0.105802 61.7845 0.22672Z" fill="#FFCE00"/>
</g>
</g>
<g style="mix-blend-mode:screen">
<path d="M107.434 49.546C107.434 49.6518 107.359 49.7274 107.254 49.7274C107.148 49.7274 107.073 49.6518 107.073 49.546C107.073 49.4402 107.148 49.3646 107.254 49.3646C107.359 49.3646 107.434 49.4402 107.434 49.546Z" fill="#FFCE00"/>
</g>
<g opacity="0.75">
<g style="mix-blend-mode:screen">
<path d="M95.1678 33.2221C95.1678 33.2221 95.1226 33.3279 95.0624 33.3279C95.0022 33.3279 94.9571 33.2826 94.9571 33.2221C94.9571 33.1617 95.0022 33.1163 95.0624 33.1163C95.1226 33.1163 95.1678 33.1617 95.1678 33.2221Z" fill="#FFCE00"/>
</g>
</g>
<g opacity="0.75">
<g style="mix-blend-mode:screen">
<path d="M43.332 8.01083C43.332 8.01083 43.2868 8.11664 43.2266 8.11664C43.1664 8.11664 43.1213 8.07129 43.1213 8.01083C43.1213 7.95038 43.1664 7.90503 43.2266 7.90503C43.2868 7.90503 43.332 7.95038 43.332 8.01083Z" fill="#FFCE00"/>
</g>
</g>
<path fill-rule="evenodd" clip-rule="evenodd" d="M5.96021 108.146C7.2546 108.66 13.847 109.884 15.623 109.975C21.5079 110.216 28.7324 109.929 34.7077 109.718C38.5307 111.728 42.8202 113.496 45.8003 114.645C46.5529 114.675 47.6667 114.645 48.946 114.6C49.5932 113.663 50.4361 112.922 50.6919 112.892C51.7906 112.741 53.8978 113.375 56.1103 114.101C58.8947 113.844 61.3481 113.557 62.3113 113.345C66.1795 111.244 78.431 102.357 80.8843 99.8779C81.9379 97.1119 83.6989 89.5546 84.2407 86.1538C87.0703 85.0353 93.1961 81.831 95.0775 80.4555C96.9438 76.2234 98.1479 71.9006 98.8101 67.5022C98.5693 64.7513 97.4856 59.8542 96.4923 56.2418C96.7632 54.8966 98.1027 51.3597 99.2014 49.1227C98.6596 46.7497 98.4639 45.9486 98.2231 43.4396C96.8685 41.6561 93.3917 37.5902 91.1341 35.58C62.7478 59.7635 34.3615 83.9621 5.97526 108.146H5.96021Z" fill="#B36F50"/>
<path fill-rule="evenodd" clip-rule="evenodd" d="M34.7077 109.718C33.6842 105.954 32.0286 101.556 29.9064 97.4294C22.2153 101.193 13.0041 105.516 5.96021 108.146C7.2546 108.66 13.847 109.884 15.623 109.975C21.5079 110.216 28.7324 109.929 34.7077 109.718Z" fill="url(#paint0_radial_9_17023)"/>
<path fill-rule="evenodd" clip-rule="evenodd" d="M29.9064 97.4294C32.0286 101.556 33.6842 105.939 34.7077 109.718C38.5307 111.728 42.8202 113.496 45.8003 114.645C42.9557 111.048 38.7564 103.279 37.6427 99.0014C35.5355 98.8049 31.562 98.0038 29.9064 97.4446V97.4294Z" fill="url(#paint1_radial_9_17023)"/>
<path fill-rule="evenodd" clip-rule="evenodd" d="M37.6427 98.9863C38.7564 103.264 42.9557 111.033 45.8003 114.63C46.5529 114.66 47.6667 114.63 48.946 114.585C49.5932 113.648 50.4361 112.907 50.6919 112.877C51.7907 112.726 53.8978 113.36 56.1103 114.086C58.8947 113.829 61.3481 113.542 62.3113 113.33C59.858 106.015 55.8093 96.8249 52.1218 89.6454C51.4445 90.4011 40.3067 98.034 37.6427 98.9863Z" fill="url(#paint2_radial_9_17023)"/>
<path fill-rule="evenodd" clip-rule="evenodd" d="M52.1218 89.6454C55.8093 96.8249 59.843 106.03 62.3113 113.33C66.1795 111.229 78.431 102.342 80.8843 99.8629C81.9379 97.0969 83.6989 89.5396 84.2407 86.1388C82.7055 84.4913 80.8091 82.3903 79.8157 80.3347C74.7134 82.2694 56.4565 87.6956 52.1368 89.6454H52.1218Z" fill="url(#paint3_radial_9_17023)"/>
<path fill-rule="evenodd" clip-rule="evenodd" d="M79.8006 80.3347C80.794 82.4055 82.6904 84.4913 84.2256 86.1388C87.0552 85.0203 93.181 81.816 95.0624 80.4405C90.9836 76.5561 86.3027 71.8252 82.5098 66.3536C81.2756 71.009 80.6134 74.44 79.8006 80.3347Z" fill="url(#paint4_radial_9_17023)"/>
<path fill-rule="evenodd" clip-rule="evenodd" d="M91.0137 53.5363C92.8348 54.2618 94.656 55.1536 96.4772 56.2267C96.7481 54.8815 98.0877 51.3447 99.1864 49.1077C97.6813 45.9185 94.8818 44.2257 93.2262 41.762C92.0522 40.0238 91.5405 38.4972 91.119 35.5649C91.405 37.9984 91.7662 48.1253 91.0287 53.5363H91.0137Z" fill="url(#paint5_radial_9_17023)"/>
<path style="mix-blend-mode:multiply" fill-rule="evenodd" clip-rule="evenodd" d="M93.2262 41.762C94.8968 44.2257 97.6813 45.9185 99.1864 49.1077C98.6445 46.7347 98.4489 45.9336 98.2081 43.4246C96.8535 41.6411 93.3767 37.5752 91.119 35.5649C91.5404 38.4972 92.0522 40.0238 93.2262 41.762Z" fill="url(#paint6_radial_9_17023)"/>
<path fill-rule="evenodd" clip-rule="evenodd" d="M46.4927 107.269C47.0195 111.94 46.3572 110.035 48.946 114.6C49.5932 113.663 50.4361 112.922 50.6919 112.892C51.7907 112.741 53.8978 113.375 56.1103 114.101C52.6185 110.746 44.8672 102.977 44.4307 103.007C43.9491 103.037 46.4927 107.239 46.4927 107.269Z" fill="url(#paint7_radial_9_17023)"/>
<path style="mix-blend-mode:screen" fill-rule="evenodd" clip-rule="evenodd" d="M44.4307 103.007C46.2519 105.455 49.2169 110.337 50.4661 112.348C50.7822 112.846 51.1886 112.877 51.7304 112.907C52.8894 112.982 54.4848 113.557 56.1253 114.086C52.6335 110.73 44.8822 102.961 44.4457 102.992L44.4307 103.007Z" fill="url(#paint8_radial_9_17023)"/>
<path style="mix-blend-mode:screen" fill-rule="evenodd" clip-rule="evenodd" d="M15.9391 104.73C21.8692 102.432 34.0906 99.9536 32.42 109.793C33.2026 109.763 33.9702 109.733 34.7228 109.718C33.6993 105.954 32.0437 101.556 29.9215 97.4294C22.2304 101.193 13.0192 105.516 5.97527 108.146C6.36659 108.297 7.2245 108.524 8.29313 108.75C9.42196 107.541 12.7482 105.969 15.9541 104.73H15.9391Z" fill="url(#paint9_radial_9_17023)"/>
<path style="mix-blend-mode:screen" fill-rule="evenodd" clip-rule="evenodd" d="M35.8666 101.752C38.034 104.095 40.1261 107.859 41.2248 110.882C41.5409 111.773 41.5409 112.393 41.1797 112.771C42.8804 113.496 44.4758 114.131 45.8154 114.645C42.9707 111.048 38.7715 103.279 37.6577 99.0014C35.7462 98.82 32.3146 98.1399 30.4483 97.6108C32.9618 99.0619 33.7896 99.5002 35.8817 101.767L35.8666 101.752Z" fill="url(#paint10_radial_9_17023)"/>
<path style="mix-blend-mode:screen" fill-rule="evenodd" clip-rule="evenodd" d="M42.9858 95.9634C46.0713 95.1925 49.4427 95.525 52.0014 97.6109C53.958 99.1979 57.781 104.579 59.1506 109.582C59.6021 111.229 59.6322 112.559 59.3463 113.768C60.6858 113.617 61.7544 113.466 62.3113 113.345C59.858 106.03 55.8093 96.84 52.1218 89.6605C51.7003 90.1442 47.0044 93.4241 42.9707 95.9785L42.9858 95.9634Z" fill="url(#paint11_radial_9_17023)"/>
<path style="mix-blend-mode:multiply" fill-rule="evenodd" clip-rule="evenodd" d="M60.6708 86.6073C71.0861 83.8716 81.7723 82.8438 80.8843 99.8781C81.9379 97.1121 83.6989 89.5547 84.2407 86.1539C82.7055 84.5064 80.8091 82.4055 79.8157 80.3499C76.5045 81.6044 67.6695 84.325 60.6858 86.6073H60.6708Z" fill="url(#paint12_radial_9_17023)"/>
<path fill-rule="evenodd" clip-rule="evenodd" d="M87.7175 59.1439C90.6073 61.1693 96.703 65.885 98.7951 67.5023C98.5543 64.7514 97.4706 59.8543 96.4772 56.2419C94.656 55.1687 92.8349 54.277 91.0137 53.5515C90.0504 55.4559 88.9216 57.315 87.7025 59.159L87.7175 59.1439Z" fill="url(#paint13_radial_9_17023)"/>
<path fill-rule="evenodd" clip-rule="evenodd" d="M98.7951 67.5024C96.703 65.8851 90.6073 61.1693 87.7175 59.1439C86.107 61.5925 84.316 63.9806 82.5098 66.3536C86.3027 71.8252 90.9685 76.5561 95.0624 80.4406C96.9287 76.2084 98.1328 71.8856 98.7951 67.4872V67.5024Z" fill="url(#paint14_radial_9_17023)"/>
<path style="mix-blend-mode:screen" fill-rule="evenodd" clip-rule="evenodd" d="M30.4332 97.5806C31.6824 97.7469 32.9317 97.9434 34.1809 98.0643C34.9184 98.1399 36.3182 97.3237 38.9672 97.2028C39.509 97.1725 40.096 97.3237 40.5776 97.0667C43.6631 95.4192 46.5228 93.409 49.5029 91.5801C46.7937 93.5903 43.9942 95.4948 41.3603 97.5957C40.8636 98.0038 40.2615 99.8176 40.0659 100.437C39.9003 100.966 39.7498 101.51 39.6746 102.055C39.4638 103.793 42.9256 109.884 43.8437 111.804C43.0911 110.534 39.0725 103.354 38.4855 102.825C37.6878 102.1 36.4386 101.435 35.7914 100.785C35.1893 100.195 34.7378 99.4095 34.1057 98.8351C33.5036 98.3061 31.3062 97.8073 30.4332 97.5353V97.5806Z" fill="url(#paint15_radial_9_17023)"/>
<path style="mix-blend-mode:screen" fill-rule="evenodd" clip-rule="evenodd" d="M5.96021 108.146C7.2546 108.66 13.847 109.884 15.623 109.975C21.5079 110.217 28.7324 109.929 34.7077 109.718C38.5307 111.728 42.8202 113.496 45.8003 114.645C46.5529 114.675 47.6667 114.645 48.946 114.6C49.5932 113.663 50.4361 112.922 50.6919 112.892C51.7906 112.741 53.8978 113.375 56.1103 114.101C58.8947 113.844 61.3481 113.557 62.3113 113.345C66.1795 111.244 78.431 102.357 80.8843 99.8781C81.9379 97.1121 83.6989 89.5547 84.2407 86.1539C87.0703 85.0354 93.1961 81.8311 95.0775 80.4557C96.9438 76.2235 98.1479 71.9007 98.8101 67.5023C98.5693 64.7515 97.4856 59.8543 96.4923 56.2419C96.7632 54.8967 98.1027 51.3598 99.2014 49.1229C98.6596 46.7499 98.4639 45.9488 98.2231 43.4397C96.8685 41.6562 93.3917 37.5903 91.1341 35.5801C62.7478 59.7636 34.3615 83.9623 5.97526 108.146H5.96021Z" fill="url(#paint16_radial_9_17023)"/>
<path fill-rule="evenodd" clip-rule="evenodd" d="M6.02041 86.048C6.68266 86.6526 7.35996 87.2572 8.0222 87.8769C16.4508 72.5355 24.8794 57.1941 33.308 41.8526C31.5319 40.1598 29.7409 38.4669 27.9648 36.759C21.6434 43.5757 9.24134 57.7684 8.24797 59.7333C8.0523 60.6704 7.94695 63.769 7.88674 66.5652C7.13419 69.6939 5.58393 75.0596 5.11735 77.3722C5.04209 79.7452 5.68929 84.99 6.00536 86.0329L6.02041 86.048Z" fill="url(#paint17_radial_9_17023)"/>
<path fill-rule="evenodd" clip-rule="evenodd" d="M40.0358 22.7174C32.5554 33.7814 25.0901 44.8454 17.6097 55.9093C16.0595 58.8416 14.4942 61.789 12.9439 64.7212C9.75307 73.0797 5.97526 81.7857 2.16734 93.7112C3.0102 98.5782 4.78622 107.405 5.97526 108.131C13.0191 105.501 22.2304 101.193 29.9215 97.4143C31.5771 97.9585 35.5506 98.7747 37.6577 98.9711C40.3067 98.0189 51.4595 90.386 52.1368 89.6303C56.4565 87.6805 74.7134 82.2543 79.8157 80.3196C80.6285 74.4249 81.2907 70.9938 82.5249 66.3385C85.6856 62.1971 88.7711 57.9498 91.0287 53.5212C91.7662 48.1102 91.4201 37.9833 91.119 35.5498C88.8915 33.1768 79.7254 26.9193 73.9006 23.6999C62.6123 23.3674 51.3241 23.0349 40.0207 22.7023L40.0358 22.7174Z" fill="url(#paint18_radial_9_17023)"/>
<path fill-rule="evenodd" clip-rule="evenodd" d="M32.4199 92.7439C31.2761 94.3611 30.5386 95.9028 29.9064 97.4294C31.562 97.9736 35.5355 98.7898 37.6427 98.9862C40.2916 98.034 51.4445 90.4011 52.1218 89.6453C48.1483 89.3884 44.1598 89.2373 40.096 89.5093C37.447 90.2651 34.9034 91.3987 32.4199 92.7439Z" fill="url(#paint19_radial_9_17023)"/>
<path style="mix-blend-mode:screen" fill-rule="evenodd" clip-rule="evenodd" d="M6.23113 87.2119C5.8398 87.1665 4.62067 87.9374 3.83801 88.6327C3.28112 90.265 2.70919 91.9579 2.1523 93.7263C2.99516 98.5933 4.77118 107.42 5.96021 108.146C13.0041 105.516 22.2153 101.208 29.9064 97.4294C30.5386 95.9028 31.2761 94.3611 32.42 92.7439C30.2827 92.1695 28.1455 91.6103 25.9781 91.0812C20.2888 89.6756 14.449 88.4211 8.23292 87.4991C7.97705 87.4688 7.73623 87.4235 7.48037 87.3933C7.07399 87.3328 6.65256 87.2723 6.23113 87.227V87.2119Z" fill="url(#paint20_radial_9_17023)"/>
<path style="mix-blend-mode:multiply" fill-rule="evenodd" clip-rule="evenodd" d="M70.469 69.2405C73.9609 58.0858 85.2792 52.1004 91.0137 53.5363C91.7512 48.1252 91.405 37.9984 91.104 35.5649C88.8764 33.1919 79.7104 26.9344 73.8856 23.715C69.8218 23.5941 65.743 23.4732 61.6792 23.3522V69.2254H70.454L70.469 69.2405Z" fill="url(#paint21_radial_9_17023)"/>
<path fill-rule="evenodd" clip-rule="evenodd" d="M15.4273 76.1177C16.1498 76.8583 16.8572 77.5838 17.5796 78.3245C23.2388 77.342 29.2893 76.8583 33.624 76.9037C41.6161 73.9412 50.6919 70.9938 58.8195 69.044C69.4907 57.8591 76.8055 48.8961 83.1269 39.918C83.157 37.8624 83.1871 35.7917 83.2022 33.7361C79.5147 30.6375 75.8272 27.5541 72.1397 24.4556C53.2356 41.6864 34.3314 58.902 15.4273 76.1328V76.1177Z" fill="#A1A1A1"/>
<path fill-rule="evenodd" clip-rule="evenodd" d="M12.2515 45.7069L14.4941 52.569L13.9373 55.9093L17.2936 66.2025L24.9697 49.4705L12.2515 45.7069Z" fill="url(#paint22_radial_9_17023)"/>
<path fill-rule="evenodd" clip-rule="evenodd" d="M20.5898 29.5039C17.7151 33.8116 14.163 41.0062 12.2515 45.7069C15.7434 47.959 21.0564 50.8006 22.2153 50.9971C21.237 53.5666 16.5561 63.4062 15.0209 67.593C15.0661 70.4195 15.1865 73.5331 15.4273 76.1177C17.3689 75.7247 29.5301 72.3541 32.0587 71.1298C38.9822 67.1849 51.023 61.7738 53.4312 60.4589C56.1103 58.4033 65.1861 48.7147 72.7718 40.7795C73.3588 36.6834 73.0427 25.6497 72.5761 22.8232C66.2397 19.5433 62.522 17.6389 58.5787 16.1425C56.5016 16.0065 52.9195 16.1123 50.7371 16.4599C47.5914 17.6389 44.1146 18.9992 40.6529 20.42C39.9304 21.9012 39.4939 22.3849 38.8166 23.05C38.5307 23.3371 36.1526 23.6243 33.037 23.6243C27.7842 25.9066 23.1786 28.0529 20.5898 29.4888V29.5039Z" fill="url(#paint23_radial_9_17023)"/>
<path style="mix-blend-mode:multiply" d="M70.3486 73.1552C70.3486 73.1552 74.4274 69.1347 75.3606 67.4872C75.8723 66.5955 76.369 64.555 76.5797 63.5423C77.4376 59.6276 78.6116 47.6416 78.6116 47.6416L69.5509 51.0575L68.8134 71.7496L70.3486 73.1401V73.1552Z" fill="url(#paint24_radial_9_17023)"/>
<path fill-rule="evenodd" clip-rule="evenodd" d="M72.7718 40.7795C74.4274 41.2027 81.095 43.5153 83.157 43.8478C83.1871 41.7922 83.1871 35.7765 83.2172 33.7209C79.7254 29.7155 76.1583 26.1787 72.5761 22.8081C73.2083 27.2065 73.1029 36.1393 72.7718 40.7644V40.7795Z" fill="url(#paint25_radial_9_17023)"/>
<path fill-rule="evenodd" clip-rule="evenodd" d="M33.8197 76.8281C33.4735 74.9992 32.6608 71.8402 32.0587 71.1298C29.5452 72.3541 17.3689 75.7247 15.4273 76.1177C16.1498 76.8583 16.8572 77.5838 17.5796 78.3244C23.2388 77.342 29.2893 76.8583 33.624 76.9036C33.6842 76.8885 33.7444 76.8583 33.8047 76.8432L33.8197 76.8281Z" fill="url(#paint26_radial_9_17023)"/>
<path fill-rule="evenodd" clip-rule="evenodd" d="M52.8141 58.2068C54.2741 62.3633 56.9381 66.7768 58.8195 69.0289C69.6412 59.7938 79.8458 48.8961 83.142 43.8478C81.8626 43.4851 75.9325 41.3388 72.7568 40.7795C65.156 48.7148 55.4782 56.1512 52.8141 58.2068Z" fill="url(#paint27_radial_9_17023)"/>
<path fill-rule="evenodd" clip-rule="evenodd" d="M58.8195 69.0289C57.4649 67.6233 53.9279 61.139 52.8141 58.2068C50.406 59.5218 38.9672 67.1849 32.0437 71.1299C32.6457 71.8554 33.4585 74.9841 33.8047 76.8281C41.7516 73.8959 50.7521 70.9636 58.8195 69.044V69.0289Z" fill="url(#paint28_radial_9_17023)"/>
<path style="mix-blend-mode:screen" fill-rule="evenodd" clip-rule="evenodd" d="M22.2153 50.9971C21.4778 52.962 18.5579 59.1741 16.5411 63.8597C15.924 65.2956 15.3822 66.5955 15.0209 67.593C15.0661 70.4195 15.1865 73.5331 15.4273 76.1177C17.3689 75.7247 29.5301 72.3542 32.0587 71.1299C38.9822 67.1849 50.421 59.5218 52.8292 58.2068C43.648 57.1336 30.674 54.3828 22.2153 51.0122V50.9971Z" fill="url(#paint29_radial_9_17023)"/>
<path fill-rule="evenodd" clip-rule="evenodd" d="M39.8251 72.203C43.0008 69.9962 47.2302 67.3512 50.2554 65.749C51.9713 65.1142 53.9881 64.0713 55.3577 63.4818C59.256 60.338 65.0807 55.078 69.5659 51.0726C69.9272 52.0249 70.4991 54.4583 70.9055 55.9093C70.4539 60.1415 70.0175 64.3887 69.5659 68.6208C65.9988 70.3892 62.4317 72.1576 58.8646 73.9261C57.51 73.6389 56.1554 73.3668 54.8009 73.0797C51.6401 73.1855 48.4343 73.9714 45.2735 74.0772C43.4674 73.518 40.9087 72.6111 39.8401 72.1879L39.8251 72.203Z" fill="url(#paint30_radial_9_17023)"/>
<path fill-rule="evenodd" clip-rule="evenodd" d="M39.8251 72.203L39.9756 74.6214L45.0478 76.813L45.2585 74.0923L39.8251 72.203Z" fill="url(#paint31_radial_9_17023)"/>
<path fill-rule="evenodd" clip-rule="evenodd" d="M45.0478 76.813C50.0447 76.4956 53.4914 76.4502 59.6473 77.9466L58.8496 73.9261L54.7858 73.0797L45.2585 74.0772L45.0478 76.813Z" fill="url(#paint32_radial_9_17023)"/>
<path fill-rule="evenodd" clip-rule="evenodd" d="M59.6473 77.9466C62.9284 75.9666 66.9169 74.1075 70.3486 73.1552C70.0777 71.6438 69.8218 70.1323 69.5509 68.6057C65.9838 70.3741 62.4167 72.1426 58.8496 73.911L59.6473 77.9315V77.9466Z" fill="url(#paint33_radial_9_17023)"/>
<path fill-rule="evenodd" clip-rule="evenodd" d="M70.8904 55.9093C71.1764 57.4964 71.6279 60.7763 71.5075 62.5749C71.2817 66.2025 70.9506 69.7091 70.3486 73.1552C70.0777 71.6438 69.8218 70.1323 69.5509 68.6057C70.0024 64.3736 70.4389 60.1263 70.8904 55.8942V55.9093Z" fill="url(#paint34_radial_9_17023)"/>
<path style="mix-blend-mode:screen" fill-rule="evenodd" clip-rule="evenodd" d="M55.8695 65.8699C53.9429 65.7188 52.6486 65.6583 50.2554 65.749C47.2302 67.3512 43.0008 69.9962 39.8251 72.203C40.8937 72.6262 43.4524 73.5331 45.2585 74.0923C48.4192 73.9865 51.6251 73.2006 54.7858 73.0948C56.1404 73.3819 57.495 73.654 58.8496 73.9412C62.4167 72.1728 65.9838 70.4043 69.5509 68.6359C68.6177 67.0186 64.3733 65.1898 59.4215 65.1142C58.6389 65.1142 56.6672 65.9606 55.8695 65.8851V65.8699Z" fill="url(#paint35_radial_9_17023)"/>
<path style="mix-blend-mode:screen" fill-rule="evenodd" clip-rule="evenodd" d="M33.4735 25.559C35.2947 25.3323 37.6126 26.1938 39.4638 26.0729C40.2766 26.0276 41.0743 25.695 41.7817 25.302C47.9225 21.8257 51.3993 20.6618 58.6389 21.8408C68.0458 23.3674 72.8772 30.1992 72.7568 40.7795C73.3437 36.6834 73.0277 25.6497 72.5611 22.8232C66.2246 19.5433 62.507 17.6389 58.5636 16.1425C56.4866 16.0065 52.9044 16.1123 50.722 16.4599C47.5764 17.6389 44.0996 18.9992 40.6378 20.42C39.9154 21.9012 39.4789 22.3849 38.8016 23.05C38.5156 23.3371 36.1376 23.6243 33.022 23.6243C27.7692 25.9066 23.1636 28.0529 20.5748 29.4888C25.0148 27.8564 28.6873 26.1334 33.4585 25.5439L33.4735 25.559Z" fill="url(#paint36_radial_9_17023)"/>
<path fill-rule="evenodd" clip-rule="evenodd" d="M33.037 23.6394C34.9786 24.3801 37.3868 24.7428 38.636 24.8033C39.1026 24.8184 39.4036 24.8033 39.4638 24.7277C39.6746 24.4556 40.0057 23.7604 40.2615 22.7477C40.4271 22.0977 40.5776 21.3118 40.6529 20.4351C39.9304 21.9164 39.4939 22.4 38.8167 23.0651C38.5307 23.3523 36.1526 23.6394 33.037 23.6394Z" fill="url(#paint37_radial_9_17023)"/>
<path style="mix-blend-mode:multiply" fill-rule="evenodd" clip-rule="evenodd" d="M72.9675 28.4005C76.2185 31.2572 78.732 33.1919 80.3876 35.3835C81.2606 36.5323 82.2991 39.9331 83.157 43.8478C83.1871 41.7922 83.1871 35.7765 83.2172 33.7209C79.7254 29.7155 76.1583 26.1787 72.5761 22.8081C72.7869 24.2742 72.9073 26.2543 72.9825 28.4005H72.9675Z" fill="url(#paint38_radial_9_17023)"/>
<path style="mix-blend-mode:screen" fill-rule="evenodd" clip-rule="evenodd" d="M15.8186 76.027C18.5278 75.1504 21.8391 74.3493 24.3526 73.0796C25.2256 72.6413 26.0383 72.067 26.8962 71.6286C28.9131 70.5857 31.2309 69.5428 33.3832 68.8173C34.3615 68.4848 35.4302 68.4243 36.3784 68.0011C38.4855 67.064 40.4422 65.8246 42.4741 64.7363C40.4873 66.142 38.4404 67.457 36.5138 68.9533C36.5138 68.9533 35.0238 71.9914 33.4886 73.4726C33.3832 73.5633 33.308 73.7145 33.323 73.8656C33.3983 74.7423 33.609 75.6189 33.7444 76.4956C33.4434 75.7096 33.2628 74.8783 32.8564 74.1528C32.7812 74.0168 32.5554 74.0016 32.3899 74.0168C30.4633 74.2737 27.9799 74.4853 25.8276 74.44C25.3008 74.44 24.8041 74.1981 24.2773 74.183C22.6368 74.1377 17.7 75.6189 15.8186 76.0572V76.027Z" fill="url(#paint39_radial_9_17023)"/>
<path fill-rule="evenodd" clip-rule="evenodd" d="M24.4278 73.6691C25.4363 72.7622 30.1021 70.3892 30.975 70.0567C32.9618 69.2707 34.9034 68.8022 36.0473 68.7568C36.0021 69.9962 34.4368 72.3995 33.037 73.6238C32.1039 74.0016 25.8577 74.183 24.4278 73.6842V73.6691Z" fill="url(#paint40_radial_9_17023)"/>
<path style="mix-blend-mode:screen" fill-rule="evenodd" clip-rule="evenodd" d="M33.037 73.6086C34.3615 72.4599 35.8215 70.2532 36.0171 68.9684C36.0171 68.8928 36.0322 68.8173 36.0322 68.7417C35.084 68.7719 33.5789 69.1045 31.9534 69.6788C30.7643 70.0869 31.6523 74.1679 33.037 73.6086Z" fill="url(#paint41_radial_9_17023)"/>
<path style="mix-blend-mode:screen" fill-rule="evenodd" clip-rule="evenodd" d="M5.20766 97.1574C5.90001 91.7463 8.98547 88.9954 14.9908 88.6478C12.7783 88.2246 10.5357 87.8316 8.23292 87.4991C7.97705 87.4688 7.73624 87.4235 7.48037 87.3933C7.07399 87.3328 6.65256 87.2724 6.23113 87.227C5.8398 87.1817 4.62067 87.9525 3.83801 88.6478C3.28113 90.2802 2.70919 91.973 2.1523 93.7414C2.99516 98.6084 4.77118 107.435 5.96021 108.161C8.27807 107.299 10.8217 106.256 13.4707 105.108C12.2817 105.168 11.1077 105.032 10.024 104.7C6.93853 103.747 4.68087 101.208 5.20766 97.1725V97.1574Z" fill="url(#paint42_radial_9_17023)"/>
<path style="mix-blend-mode:screen" fill-rule="evenodd" clip-rule="evenodd" d="M56.1253 55.6222C60.5805 51.4808 65.0807 47.3847 69.4756 43.1828C72.4557 40.3412 72.4256 39.8878 72.6965 35.7766C72.8922 32.7839 72.9073 29.4888 72.8772 26.481C73.2233 30.9096 73.1782 35.1417 73.4642 39.4646C73.4943 39.8122 73.5695 40.2808 73.8856 40.4319C76.354 41.6108 78.9879 42.3666 81.5466 43.3339C78.8976 42.7596 76.2787 41.9585 73.5996 41.5957C73.1782 41.5353 72.7718 41.8225 72.4407 42.0794C71.1613 43.0619 70.0325 44.2257 68.8284 45.2837C64.5539 49.0473 60.7009 52.2516 56.1103 55.6222H56.1253Z" fill="url(#paint43_radial_9_17023)"/>
<path style="mix-blend-mode:screen" fill-rule="evenodd" clip-rule="evenodd" d="M49.6534 91.4893C50.6919 90.6127 52.6034 89.2372 53.0098 88.814C53.4312 88.3757 53.6419 85.6551 54.6052 84.8086C54.7407 84.6877 54.9363 84.6575 55.1019 84.6424C56.9381 84.5668 58.8646 85.4888 60.5955 86.0783C60.8965 86.1841 64.5389 85.2621 65.1108 85.126C63.7713 85.7457 62.3565 86.2445 61.0771 86.9851C60.4149 87.363 60.9116 88.4815 60.8062 89.0559C60.6858 89.7058 60.1139 90.8243 59.858 91.4138C59.572 92.0637 60.3095 95.1924 60.4149 96.8853C60.4149 97.0213 60.3848 97.1876 60.2644 97.2632C60.144 97.3387 59.9483 97.3085 59.8279 97.2178C57.3144 95.1471 56.622 93.953 54.7407 91.4591C54.3493 90.9452 53.371 89.4035 52.4981 89.8418C51.5197 90.3406 50.5113 90.8999 49.6384 91.4742L49.6534 91.4893Z" fill="url(#paint44_radial_9_17023)"/>
<path fill-rule="evenodd" clip-rule="evenodd" d="M53.5065 89.071C53.7924 86.1085 54.3493 84.8993 54.5902 84.7179C55.1771 84.2645 57.796 84.8389 60.1289 86.7735C60.2192 87.1363 60.746 88.7233 60.5654 89.207C60.0236 90.658 59.2259 91.3684 59.4817 92.2904C60.0687 94.346 61.1825 98.4723 60.746 98.6537C60.0386 98.956 55.1169 91.9428 53.4914 89.071H53.5065Z" fill="url(#paint45_radial_9_17023)"/>
<path style="mix-blend-mode:screen" fill-rule="evenodd" clip-rule="evenodd" d="M60.8363 97.9887C60.7009 96.7039 59.9333 93.8775 59.4968 92.2904C59.2409 91.3835 60.0236 90.6731 60.5805 89.207C60.7611 88.7233 60.2343 87.1363 60.144 86.7735C58.1422 85.126 55.9447 84.461 54.9815 84.5819C54.3343 84.6726 61.1223 100.649 60.8514 97.9736L60.8363 97.9887Z" fill="url(#paint46_radial_9_17023)"/>
<path style="mix-blend-mode:screen" fill-rule="evenodd" clip-rule="evenodd" d="M71.8838 80.6068C75.3004 76.677 76.5346 75.8305 80.0264 73.7296C80.2371 73.6087 80.4478 73.4273 80.5231 73.2006C81.2305 71.145 81.7422 69.044 82.3593 66.9582C82.0131 69.0894 81.6519 70.5555 81.4111 72.6867C81.2606 73.9714 81.5014 74.9236 81.5165 76.0421C81.5165 77.5083 81.3057 79.9871 80.7639 81.9369C77.8139 81.4834 74.8488 81.0451 71.8988 80.5917L71.8838 80.6068Z" fill="url(#paint47_radial_9_17023)"/>
<path fill-rule="evenodd" clip-rule="evenodd" d="M69.5358 83.7506C70.0927 82.2392 72.3955 79.9568 74.7585 77.9315C77.1667 75.8608 79.62 74.0621 80.794 74.0016C81.5165 75.0597 81.0649 80.3498 80.7489 81.952C78.0246 82.9496 72.3353 83.9018 69.5358 83.7506Z" fill="url(#paint48_radial_9_17023)"/>
<path style="mix-blend-mode:screen" fill-rule="evenodd" clip-rule="evenodd" d="M80.7338 81.952C81.0499 80.3498 81.5165 75.0597 80.779 74.0016C79.8308 74.047 78.0246 75.2562 76.0831 76.813C75.6014 77.206 79.2438 82.4961 80.7188 81.952H80.7338Z" fill="url(#paint49_radial_9_17023)"/>
<path style="mix-blend-mode:screen" fill-rule="evenodd" clip-rule="evenodd" d="M47.8322 73.8807C48.946 73.7144 54.6654 72.7773 54.9514 72.8529C55.8093 73.0645 56.6672 73.3063 57.5402 73.4726C58.082 73.5784 58.6991 73.654 59.271 73.4273C61.1374 72.6866 64.3583 71.1601 66.345 70.2078C64.1626 71.4019 61.9501 72.5506 59.7978 73.8051C59.1807 74.1679 59.2409 74.4551 59.271 74.7876L59.557 77.5989C59.3312 76.7374 59.1356 75.8607 58.8948 75.0143C58.6389 74.1528 58.3529 74.0772 57.4348 73.8202C56.8629 73.654 54.9815 73.2005 54.4246 73.261L47.8322 73.9109V73.8807Z" fill="url(#paint50_radial_9_17023)"/>
<path fill-rule="evenodd" clip-rule="evenodd" d="M34.3766 98.4875C35.3399 97.7922 38.8016 97.0818 40.4723 97.505C40.4572 98.7747 39.5842 101.405 38.9672 102.689C37.9888 102.07 36.4687 101.314 35.8365 100.694C35.5205 100.392 34.8883 99.2734 34.3766 98.4875Z" fill="url(#paint51_radial_9_17023)"/>
<path style="mix-blend-mode:screen" fill-rule="evenodd" clip-rule="evenodd" d="M36.8299 101.42C37.5223 101.858 38.3501 102.296 38.9672 102.689C39.5842 101.405 40.4572 98.7746 40.4723 97.505C39.9304 97.369 39.1929 97.3538 38.4103 97.4143C37.8383 97.4596 35.8516 100.8 36.8299 101.42Z" fill="url(#paint52_radial_9_17023)"/>
<g style="mix-blend-mode:screen">
<path d="M61.0169 86.3807C61.0169 86.5772 60.8664 86.7283 60.6708 86.7283C60.4751 86.7283 60.3246 86.5772 60.3246 86.3807C60.3246 86.1842 60.4751 86.033 60.6708 86.033C60.8664 86.033 61.0169 86.1842 61.0169 86.3807Z" fill="#FF9124"/>
</g>
<g style="mix-blend-mode:screen">
<path d="M60.6708 87.2573C61.1529 87.2573 61.5437 86.8648 61.5437 86.3806C61.5437 85.8965 61.1529 85.504 60.6708 85.504C60.1886 85.504 59.7978 85.8965 59.7978 86.3806C59.7978 86.8648 60.1886 87.2573 60.6708 87.2573Z" fill="#FF9124"/>
</g>
<g style="mix-blend-mode:screen">
<path d="M81.4111 73.6691C81.4111 73.8051 81.3058 73.8958 81.1854 73.8958C81.065 73.8958 80.9596 73.79 80.9596 73.6691C80.9596 73.5482 81.065 73.4424 81.1854 73.4424C81.3058 73.4424 81.4111 73.5482 81.4111 73.6691Z" fill="#FF9124"/>
</g>
<g style="mix-blend-mode:screen">
<path d="M81.7723 73.6691C81.7723 74.0016 81.5014 74.2586 81.1853 74.2586C80.8693 74.2586 80.5984 73.9865 80.5984 73.6691C80.5984 73.3517 80.8693 73.0797 81.1853 73.0797C81.5014 73.0797 81.7723 73.3517 81.7723 73.6691Z" fill="#FF9124"/>
</g>
<g style="mix-blend-mode:screen">
<path d="M40.4723 98.3666C40.6385 98.3666 40.7733 98.2312 40.7733 98.0643C40.7733 97.8973 40.6385 97.762 40.4723 97.762C40.306 97.762 40.1712 97.8973 40.1712 98.0643C40.1712 98.2312 40.306 98.3666 40.4723 98.3666Z" fill="#FF9124"/>
</g>
<g style="mix-blend-mode:screen">
<path d="M41.2549 98.0643C41.2549 98.5026 40.9087 98.8503 40.4723 98.8503C40.0358 98.8503 39.6896 98.5026 39.6896 98.0643C39.6896 97.626 40.0358 97.2783 40.4723 97.2783C40.9087 97.2783 41.2549 97.626 41.2549 98.0643Z" fill="#FF9124"/>
</g>
<g style="mix-blend-mode:screen">
<path d="M58.8496 74.1074C58.9494 74.1074 59.0302 74.0262 59.0302 73.926C59.0302 73.8258 58.9494 73.7446 58.8496 73.7446C58.7499 73.7446 58.669 73.8258 58.669 73.926C58.669 74.0262 58.7499 74.1074 58.8496 74.1074Z" fill="#FF9124"/>
</g>
<g style="mix-blend-mode:screen">
<path d="M59.3011 73.926C59.3011 74.1679 59.1055 74.3795 58.8496 74.3795C58.5937 74.3795 58.3981 74.183 58.3981 73.926C58.3981 73.6691 58.5937 73.4726 58.8496 73.4726C59.1055 73.4726 59.3011 73.6691 59.3011 73.926Z" fill="#FF9124"/>
</g>
<g style="mix-blend-mode:screen">
<path d="M36.0473 69.0138C36.1969 69.0138 36.3182 68.892 36.3182 68.7417C36.3182 68.5915 36.1969 68.4697 36.0473 68.4697C35.8976 68.4697 35.7764 68.5915 35.7764 68.7417C35.7764 68.892 35.8976 69.0138 36.0473 69.0138Z" fill="#FF9124"/>
</g>
<g style="mix-blend-mode:screen">
<path d="M36.0473 69.437C36.4296 69.437 36.7396 69.1257 36.7396 68.7417C36.7396 68.3577 36.4296 68.0464 36.0473 68.0464C35.6649 68.0464 35.3549 68.3577 35.3549 68.7417C35.3549 69.1257 35.6649 69.437 36.0473 69.437Z" fill="#FF9124"/>
</g>
<g opacity="0.65">
<g style="mix-blend-mode:screen">
<path d="M73.4341 40.7795C73.4341 40.976 73.2835 41.1272 73.0879 41.1272C72.8922 41.1272 72.7417 40.976 72.7417 40.7795C72.7417 40.583 72.8922 40.4319 73.0879 40.4319C73.2835 40.4319 73.4341 40.583 73.4341 40.7795Z" fill="#FF9124"/>
</g>
<g style="mix-blend-mode:screen">
<path d="M73.0879 41.6713C73.5783 41.6713 73.9759 41.272 73.9759 40.7795C73.9759 40.287 73.5783 39.8878 73.0879 39.8878C72.5974 39.8878 72.1999 40.287 72.1999 40.7795C72.1999 41.272 72.5974 41.6713 73.0879 41.6713Z" fill="#FF9124"/>
</g>
</g>
<g opacity="0.65">
<g style="mix-blend-mode:screen">
<path d="M40.698 22.6116C40.698 22.7477 40.5927 22.8535 40.4572 22.8535C40.3217 22.8535 40.2164 22.7477 40.2164 22.6116C40.2164 22.4756 40.3217 22.3698 40.4572 22.3698C40.5927 22.3698 40.698 22.4756 40.698 22.6116Z" fill="#FF9124"/>
</g>
<g style="mix-blend-mode:screen">
<path d="M41.0592 22.6117C41.0592 22.9442 40.7883 23.2012 40.4723 23.2012C40.1562 23.2012 39.8853 22.9291 39.8853 22.6117C39.8853 22.2943 40.1562 22.0222 40.4723 22.0222C40.7883 22.0222 41.0592 22.2943 41.0592 22.6117Z" fill="#FF9124"/>
</g>
</g>
<defs>
<radialGradient id="paint0_radial_9_17023" cx="0" cy="0" r="1" gradientUnits="userSpaceOnUse" gradientTransform="translate(11.1227 118.001) scale(43.9942 44.1803)">
<stop stop-color="#FAEA8F"/>
<stop offset="0.32" stop-color="#FAC224"/>
<stop offset="0.39" stop-color="#F4BB22"/>
<stop offset="0.5" stop-color="#E4A81F"/>
<stop offset="0.62" stop-color="#CA8919"/>
<stop offset="0.76" stop-color="#A55D11"/>
<stop offset="0.91" stop-color="#772606"/>
<stop offset="1" stop-color="#5A0300"/>
</radialGradient>
<radialGradient id="paint1_radial_9_17023" cx="0" cy="0" r="1" gradientUnits="userSpaceOnUse" gradientTransform="translate(48.5396 85.6702) scale(44.1748 44.3617)">
<stop stop-color="#FAEA8F"/>
<stop offset="0.32" stop-color="#FAC224"/>
<stop offset="0.39" stop-color="#F4BB22"/>
<stop offset="0.5" stop-color="#E4A81F"/>
<stop offset="0.62" stop-color="#CA8919"/>
<stop offset="0.76" stop-color="#A55D11"/>
<stop offset="0.91" stop-color="#772606"/>
<stop offset="1" stop-color="#5A0300"/>
</radialGradient>
<radialGradient id="paint2_radial_9_17023" cx="0" cy="0" r="1" gradientUnits="userSpaceOnUse" gradientTransform="translate(56.0652 89.7512) scale(37.3567 37.5147)">
<stop stop-color="#FAC224"/>
<stop offset="0.11" stop-color="#F4BB22"/>
<stop offset="0.26" stop-color="#E4A81F"/>
<stop offset="0.45" stop-color="#CA8919"/>
<stop offset="0.65" stop-color="#A55D11"/>
<stop offset="0.87" stop-color="#772606"/>
<stop offset="1" stop-color="#5A0300"/>
</radialGradient>
<radialGradient id="paint3_radial_9_17023" cx="0" cy="0" r="1" gradientUnits="userSpaceOnUse" gradientTransform="translate(41.4506 119.225) scale(70.2884 70.5857)">
<stop stop-color="#FAC224"/>
<stop offset="0.11" stop-color="#F4BB22"/>
<stop offset="0.26" stop-color="#E4A81F"/>
<stop offset="0.45" stop-color="#CA8919"/>
<stop offset="0.65" stop-color="#A55D11"/>
<stop offset="0.87" stop-color="#772606"/>
<stop offset="1" stop-color="#5A0300"/>
</radialGradient>
<radialGradient id="paint4_radial_9_17023" cx="0" cy="0" r="1" gradientUnits="userSpaceOnUse" gradientTransform="translate(96.2815 58.8567) scale(37.2664 37.424)">
<stop stop-color="#FAEA8F"/>
<stop offset="0.32" stop-color="#FAC224"/>
<stop offset="0.39" stop-color="#F4BB22"/>
<stop offset="0.5" stop-color="#E4A81F"/>
<stop offset="0.62" stop-color="#CA8919"/>
<stop offset="0.76" stop-color="#A55D11"/>
<stop offset="0.91" stop-color="#772606"/>
<stop offset="1" stop-color="#5A0300"/>
</radialGradient>
<radialGradient id="paint5_radial_9_17023" cx="0" cy="0" r="1" gradientUnits="userSpaceOnUse" gradientTransform="translate(103.024 19.2562) scale(41.9924 42.17)">
<stop stop-color="#FAEA8F"/>
<stop offset="0.32" stop-color="#FAC224"/>
<stop offset="0.39" stop-color="#F4BB22"/>
<stop offset="0.5" stop-color="#E4A81F"/>
<stop offset="0.62" stop-color="#CA8919"/>
<stop offset="0.76" stop-color="#A55D11"/>
<stop offset="0.91" stop-color="#772606"/>
<stop offset="1" stop-color="#5A0300"/>
</radialGradient>
<radialGradient id="paint6_radial_9_17023" cx="0" cy="0" r="1" gradientUnits="userSpaceOnUse" gradientTransform="translate(127.031 26.4205) scale(37.8985 38.0588)">
<stop offset="0.8" stop-color="white"/>
<stop offset="0.82" stop-color="#FBF9F8"/>
<stop offset="0.85" stop-color="#F1E9E6"/>
<stop offset="0.89" stop-color="#E1CEC9"/>
<stop offset="0.93" stop-color="#CAA9A1"/>
<stop offset="0.98" stop-color="#AD7A6D"/>
<stop offset="1" stop-color="#9E6152"/>
</radialGradient>
<radialGradient id="paint7_radial_9_17023" cx="0" cy="0" r="1" gradientUnits="userSpaceOnUse" gradientTransform="translate(59.6322 105.183) scale(13.847 13.9055)">
<stop stop-color="#FFD255"/>
<stop offset="0.18" stop-color="#F2BF4A"/>
<stop offset="0.55" stop-color="#D28F2F"/>
<stop offset="1" stop-color="#A64D09"/>
</radialGradient>
<radialGradient id="paint8_radial_9_17023" cx="0" cy="0" r="1" gradientUnits="userSpaceOnUse" gradientTransform="translate(39.6745 118.167) scale(20.1383 20.2235)">
<stop offset="0.38"/>
<stop offset="0.6" stop-color="#644812"/>
<stop offset="0.8" stop-color="#B78522"/>
<stop offset="0.93" stop-color="#EBAB2C"/>
<stop offset="1" stop-color="#FFBA30"/>
</radialGradient>
<radialGradient id="paint9_radial_9_17023" cx="0" cy="0" r="1" gradientUnits="userSpaceOnUse" gradientTransform="translate(25.4965 125.633) scale(35.2646 35.4138)">
<stop offset="0.38"/>
<stop offset="0.6" stop-color="#645932"/>
<stop offset="0.8" stop-color="#B7A45C"/>
<stop offset="0.93" stop-color="#EBD375"/>
<stop offset="1" stop-color="#FFE580"/>
</radialGradient>
<radialGradient id="paint10_radial_9_17023" cx="0" cy="0" r="1" gradientUnits="userSpaceOnUse" gradientTransform="translate(31.4868 128.868) scale(33.308 33.4488)">
<stop offset="0.38"/>
<stop offset="0.6" stop-color="#646262"/>
<stop offset="0.8" stop-color="#B7B3B3"/>
<stop offset="0.93" stop-color="#EBE6E6"/>
<stop offset="1" stop-color="#FFFAFA"/>
</radialGradient>
<radialGradient id="paint11_radial_9_17023" cx="0" cy="0" r="1" gradientUnits="userSpaceOnUse" gradientTransform="translate(45.0929 118.182) scale(32.2996 32.4362)">
<stop offset="0.38"/>
<stop offset="0.6" stop-color="#645932"/>
<stop offset="0.8" stop-color="#B7A45C"/>
<stop offset="0.93" stop-color="#EBD375"/>
<stop offset="1" stop-color="#FFE580"/>
</radialGradient>
<radialGradient id="paint12_radial_9_17023" cx="0" cy="0" r="1" gradientUnits="userSpaceOnUse" gradientTransform="translate(62.8682 95.6611) scale(23.7204 23.8208)">
<stop offset="0.62" stop-color="white"/>
<stop offset="0.66" stop-color="#FCF9F8"/>
<stop offset="0.71" stop-color="#F4E9E6"/>
<stop offset="0.78" stop-color="#E8CFC9"/>
<stop offset="0.85" stop-color="#D7ABA1"/>
<stop offset="0.92" stop-color="#C17C6C"/>
<stop offset="1" stop-color="#A6442D"/>
</radialGradient>
<radialGradient id="paint13_radial_9_17023" cx="0" cy="0" r="1" gradientUnits="userSpaceOnUse" gradientTransform="translate(116.104 31.091) scale(48.4493 48.6542)">
<stop stop-color="#FAEA8F"/>
<stop offset="0.32" stop-color="#FAC224"/>
<stop offset="0.39" stop-color="#F4BB22"/>
<stop offset="0.5" stop-color="#E4A81F"/>
<stop offset="0.62" stop-color="#CA8919"/>
<stop offset="0.76" stop-color="#A55D11"/>
<stop offset="0.91" stop-color="#772606"/>
<stop offset="1" stop-color="#5A0300"/>
</radialGradient>
<radialGradient id="paint14_radial_9_17023" cx="0" cy="0" r="1" gradientUnits="userSpaceOnUse" gradientTransform="translate(70.3335 47.6719) scale(51.5348 51.7528)">
<stop stop-color="#FAEA8F"/>
<stop offset="0.32" stop-color="#FAC224"/>
<stop offset="0.39" stop-color="#F4BB22"/>
<stop offset="0.5" stop-color="#E4A81F"/>
<stop offset="0.62" stop-color="#CA8919"/>
<stop offset="0.76" stop-color="#A55D11"/>
<stop offset="0.91" stop-color="#772606"/>
<stop offset="1" stop-color="#5A0300"/>
</radialGradient>
<radialGradient id="paint15_radial_9_17023" cx="0" cy="0" r="1" gradientUnits="userSpaceOnUse" gradientTransform="translate(37.6878 99.1525) scale(22.2153 22.3093)">
<stop stop-color="#FFDA82"/>
<stop offset="1"/>
</radialGradient>
<radialGradient id="paint16_radial_9_17023" cx="0" cy="0" r="1" gradientUnits="userSpaceOnUse" gradientTransform="translate(-24.0064 -1.78349) scale(147.32 147.943)">
<stop offset="0.85"/>
<stop offset="0.87" stop-color="#040300"/>
<stop offset="0.89" stop-color="#100C02"/>
<stop offset="0.91" stop-color="#251C05"/>
<stop offset="0.93" stop-color="#423309"/>
<stop offset="0.95" stop-color="#67500E"/>
<stop offset="0.97" stop-color="#957415"/>
<stop offset="0.99" stop-color="#CA9D1D"/>
<stop offset="1" stop-color="#FAC224"/>
</radialGradient>
<radialGradient id="paint17_radial_9_17023" cx="0" cy="0" r="1" gradientUnits="userSpaceOnUse" gradientTransform="translate(-27.5886 65.2804) scale(57.7057 57.9498)">
<stop stop-color="#FAC224"/>
<stop offset="0.11" stop-color="#F4BB22"/>
<stop offset="0.26" stop-color="#E4A81F"/>
<stop offset="0.45" stop-color="#CA8919"/>
<stop offset="0.65" stop-color="#A55D11"/>
<stop offset="0.87" stop-color="#772606"/>
<stop offset="1" stop-color="#5A0300"/>
</radialGradient>
<radialGradient id="paint18_radial_9_17023" cx="0" cy="0" r="1" gradientUnits="userSpaceOnUse" gradientTransform="translate(18.0612 107.254) scale(122.877 123.396)">
<stop stop-color="#FFF09E"/>
<stop offset="0.14" stop-color="#F5CF6D"/>
<stop offset="0.26" stop-color="#EDB748"/>
<stop offset="0.32" stop-color="#EBAE3B"/>
<stop offset="1" stop-color="#B06200"/>
</radialGradient>
<radialGradient id="paint19_radial_9_17023" cx="0" cy="0" r="1" gradientUnits="userSpaceOnUse" gradientTransform="translate(34.2411 101.389) scale(32.42 32.5571)">
<stop stop-color="#FFF3C2"/>
<stop offset="1" stop-color="#E39600"/>
</radialGradient>
<radialGradient id="paint20_radial_9_17023" cx="0" cy="0" r="1" gradientUnits="userSpaceOnUse" gradientTransform="translate(3.6574 63.2551) scale(51.4445 51.6621)">
<stop/>
<stop offset="1" stop-color="#FAC224"/>
</radialGradient>
<radialGradient id="paint21_radial_9_17023" cx="0" cy="0" r="1" gradientUnits="userSpaceOnUse" gradientTransform="translate(83.5785 68.1371) scale(45.7702 45.9638)">
<stop offset="0.18" stop-color="white"/>
<stop offset="0.27" stop-color="#FBF9F8"/>
<stop offset="0.41" stop-color="#F1E9E6"/>
<stop offset="0.56" stop-color="#E1CEC9"/>
<stop offset="0.73" stop-color="#CAA9A1"/>
<stop offset="0.91" stop-color="#AD7A6D"/>
<stop offset="1" stop-color="#9E6152"/>
</radialGradient>
<radialGradient id="paint22_radial_9_17023" cx="0" cy="0" r="1" gradientUnits="userSpaceOnUse" gradientTransform="translate(3.49183 56.3325) scale(37.3567 37.5147)">
<stop stop-color="#FAC224"/>
<stop offset="0.11" stop-color="#F4BB22"/>
<stop offset="0.26" stop-color="#E4A81F"/>
<stop offset="0.45" stop-color="#CA8919"/>
<stop offset="0.65" stop-color="#A55D11"/>
<stop offset="0.87" stop-color="#772606"/>
<stop offset="1" stop-color="#5A0300"/>
</radialGradient>
<radialGradient id="paint23_radial_9_17023" cx="0" cy="0" r="1" gradientUnits="userSpaceOnUse" gradientTransform="translate(23.8709 76.6316) scale(103.882 104.322)">
<stop stop-color="#FFDE69"/>
<stop offset="1" stop-color="#D67700"/>
</radialGradient>
<radialGradient id="paint24_radial_9_17023" cx="0" cy="0" r="1" gradientUnits="userSpaceOnUse" gradientTransform="translate(48.6299 54.1863) scale(29.9666 30.0934)">
<stop offset="0.67" stop-color="#9E6152"/>
<stop offset="1" stop-color="white"/>
</radialGradient>
<radialGradient id="paint25_radial_9_17023" cx="0" cy="0" r="1" gradientUnits="userSpaceOnUse" gradientTransform="translate(57.6154 41.2934) scale(30.8847 31.0154)">
<stop stop-color="#FFAF47"/>
<stop offset="0.11" stop-color="#F8A944"/>
<stop offset="0.27" stop-color="#E5993C"/>
<stop offset="0.47" stop-color="#C68030"/>
<stop offset="0.68" stop-color="#9A5D1E"/>
<stop offset="0.91" stop-color="#633009"/>
<stop offset="1" stop-color="#4D1E00"/>
</radialGradient>
<radialGradient id="paint26_radial_9_17023" cx="0" cy="0" r="1" gradientUnits="userSpaceOnUse" gradientTransform="translate(37.8835 75.5433) scale(45.0929 45.2837)">
<stop stop-color="#FAEA8F"/>
<stop offset="0.32" stop-color="#FAC224"/>
<stop offset="0.39" stop-color="#F4BB22"/>
<stop offset="0.5" stop-color="#E4A81F"/>
<stop offset="0.62" stop-color="#CA8919"/>
<stop offset="0.76" stop-color="#A55D11"/>
<stop offset="0.91" stop-color="#772606"/>
<stop offset="1" stop-color="#5A0300"/>
</radialGradient>
<radialGradient id="paint27_radial_9_17023" cx="0" cy="0" r="1" gradientUnits="userSpaceOnUse" gradientTransform="translate(60.6557 76.42) scale(56.1705 56.4081)">
<stop stop-color="#FAB624"/>
<stop offset="0.11" stop-color="#F1AA21"/>
<stop offset="0.32" stop-color="#D98D1B"/>
<stop offset="0.58" stop-color="#B35C11"/>
<stop offset="0.9" stop-color="#801A04"/>
<stop offset="1" stop-color="#6E0400"/>
</radialGradient>
<radialGradient id="paint28_radial_9_17023" cx="0" cy="0" r="1" gradientUnits="userSpaceOnUse" gradientTransform="translate(35.0689 76.677) scale(79.7103 80.0475)">
<stop stop-color="#FAB624"/>
<stop offset="0.11" stop-color="#F4AF22"/>
<stop offset="0.27" stop-color="#E59C1E"/>
<stop offset="0.47" stop-color="#CD7D18"/>
<stop offset="0.68" stop-color="#AB510F"/>
<stop offset="0.91" stop-color="#7F1A04"/>
<stop offset="1" stop-color="#6E0400"/>
</radialGradient>
<radialGradient id="paint29_radial_9_17023" cx="0" cy="0" r="1" gradientUnits="userSpaceOnUse" gradientTransform="translate(25.346 45.2384) scale(41.9924 42.1701)">
<stop/>
<stop offset="1" stop-color="#FAC224"/>
</radialGradient>
<radialGradient id="paint30_radial_9_17023" cx="0" cy="0" r="1" gradientUnits="userSpaceOnUse" gradientTransform="translate(50.7521 79.6092) scale(44.1748 44.3617)">
<stop stop-color="#FFDE69"/>
<stop offset="1" stop-color="#D67700"/>
</radialGradient>
<radialGradient id="paint31_radial_9_17023" cx="0" cy="0" r="1" gradientUnits="userSpaceOnUse" gradientTransform="translate(48.6149 78.9593) scale(25.6319 25.7404)">
<stop stop-color="#FAEA8F"/>
<stop offset="0.32" stop-color="#FAC224"/>
<stop offset="0.4" stop-color="#F4BB22"/>
<stop offset="0.53" stop-color="#E3A81D"/>
<stop offset="0.68" stop-color="#C88915"/>
<stop offset="0.85" stop-color="#A25E0B"/>
<stop offset="1" stop-color="#7A3000"/>
</radialGradient>
<radialGradient id="paint32_radial_9_17023" cx="0" cy="0" r="1" gradientUnits="userSpaceOnUse" gradientTransform="translate(61.3782 77.1909) scale(49.6534 49.8634)">
<stop stop-color="#FAB624"/>
<stop offset="0.11" stop-color="#F4AF22"/>
<stop offset="0.27" stop-color="#E59C1E"/>
<stop offset="0.47" stop-color="#CD7D18"/>
<stop offset="0.68" stop-color="#AB510F"/>
<stop offset="0.91" stop-color="#7F1A04"/>
<stop offset="1" stop-color="#6E0400"/>
</radialGradient>
<radialGradient id="paint33_radial_9_17023" cx="0" cy="0" r="1" gradientUnits="userSpaceOnUse" gradientTransform="translate(61.2879 94.0135) scale(48.4343 48.6391)">
<stop stop-color="#FAB624"/>
<stop offset="0.11" stop-color="#F4AF22"/>
<stop offset="0.27" stop-color="#E59C1E"/>
<stop offset="0.47" stop-color="#CD7D18"/>
<stop offset="0.68" stop-color="#AB510F"/>
<stop offset="0.91" stop-color="#7F1A04"/>
<stop offset="1" stop-color="#6E0400"/>
</radialGradient>
<radialGradient id="paint34_radial_9_17023" cx="0" cy="0" r="1" gradientUnits="userSpaceOnUse" gradientTransform="translate(91.7361 86.1841) scale(49.9393 50.1506)">
<stop stop-color="#FAB624"/>
<stop offset="0.11" stop-color="#F4AF22"/>
<stop offset="0.27" stop-color="#E59C1E"/>
<stop offset="0.47" stop-color="#CD7D18"/>
<stop offset="0.68" stop-color="#AB510F"/>
<stop offset="0.91" stop-color="#7F1A04"/>
<stop offset="1" stop-color="#6E0400"/>
</radialGradient>
<radialGradient id="paint35_radial_9_17023" cx="0" cy="0" r="1" gradientUnits="userSpaceOnUse" gradientTransform="translate(41.7817 47.9288) scale(42.0978 42.2758)">
<stop offset="0.45"/>
<stop offset="1" stop-color="#FAC224"/>
</radialGradient>
<radialGradient id="paint36_radial_9_17023" cx="0" cy="0" r="1" gradientUnits="userSpaceOnUse" gradientTransform="translate(50.3458 59.7031) scale(53.4764 53.7026)">
<stop offset="0.58"/>
<stop offset="0.72" stop-color="#5F490D"/>
<stop offset="0.86" stop-color="#B28A19"/>
<stop offset="0.95" stop-color="#E6B221"/>
<stop offset="1" stop-color="#FAC224"/>
</radialGradient>
<radialGradient id="paint37_radial_9_17023" cx="0" cy="0" r="1" gradientUnits="userSpaceOnUse" gradientTransform="translate(41.8118 20.027) scale(10.3401 10.3838)">
<stop stop-color="#FFD255"/>
<stop offset="0.18" stop-color="#F2BF4A"/>
<stop offset="0.55" stop-color="#D28F2F"/>
<stop offset="1" stop-color="#A64D09"/>
</radialGradient>
<radialGradient id="paint38_radial_9_17023" cx="0" cy="0" r="1" gradientUnits="userSpaceOnUse" gradientTransform="translate(54.846 52.3876) scale(35.4452 35.5951)">
<stop offset="0.8" stop-color="white"/>
<stop offset="0.82" stop-color="#FBF9F8"/>
<stop offset="0.85" stop-color="#F1E9E6"/>
<stop offset="0.89" stop-color="#E1CEC9"/>
<stop offset="0.93" stop-color="#CAA9A1"/>
<stop offset="0.98" stop-color="#AD7A6D"/>
<stop offset="1" stop-color="#9E6152"/>
</radialGradient>
<radialGradient id="paint39_radial_9_17023" cx="0" cy="0" r="1" gradientUnits="userSpaceOnUse" gradientTransform="translate(29.3495 76.5711) scale(24.2171 24.3196)">
<stop stop-color="#FFDA82"/>
<stop offset="1"/>
</radialGradient>
<radialGradient id="paint40_radial_9_17023" cx="0" cy="0" r="1" gradientUnits="userSpaceOnUse" gradientTransform="translate(37.2814 69.6939) scale(25.7222 25.8311)">
<stop stop-color="#FFD255"/>
<stop offset="0.18" stop-color="#F2BF4A"/>
<stop offset="0.55" stop-color="#D28F2F"/>
<stop offset="1" stop-color="#A64D09"/>
</radialGradient>
<radialGradient id="paint41_radial_9_17023" cx="0" cy="0" r="1" gradientUnits="userSpaceOnUse" gradientTransform="translate(39.2531 68.8475) scale(13.6362 13.6939)">
<stop stop-color="#FFF1C9"/>
<stop offset="1"/>
</radialGradient>
<radialGradient id="paint42_radial_9_17023" cx="0" cy="0" r="1" gradientUnits="userSpaceOnUse" gradientTransform="translate(13.7266 98.0491) scale(16.5411 16.6111)">
<stop offset="0.38"/>
<stop offset="0.6" stop-color="#646262"/>
<stop offset="0.8" stop-color="#B7B3B3"/>
<stop offset="0.93" stop-color="#EBE6E6"/>
<stop offset="1" stop-color="#FFFAFA"/>
</radialGradient>
<radialGradient id="paint43_radial_9_17023" cx="0" cy="0" r="1" gradientUnits="userSpaceOnUse" gradientTransform="translate(73.0879 48.8206) scale(39.2832 39.4494)">
<stop stop-color="#FFDA82"/>
<stop offset="1"/>
</radialGradient>
<radialGradient id="paint44_radial_9_17023" cx="0" cy="0" r="1" gradientUnits="userSpaceOnUse" gradientTransform="translate(55.3879 88.0129) scale(18.5579 18.6364)">
<stop stop-color="#FFDA82"/>
<stop offset="1"/>
</radialGradient>
<radialGradient id="paint45_radial_9_17023" cx="0" cy="0" r="1" gradientUnits="userSpaceOnUse" gradientTransform="translate(71.3721 86.2445) scale(20.4243 20.5107)">
<stop stop-color="#FFD255"/>
<stop offset="0.18" stop-color="#F2BF4A"/>
<stop offset="0.55" stop-color="#D28F2F"/>
<stop offset="1" stop-color="#A64D09"/>
</radialGradient>
<radialGradient id="paint46_radial_9_17023" cx="0" cy="0" r="1" gradientUnits="userSpaceOnUse" gradientTransform="translate(48.4945 94.6634) scale(18.8439 18.9236)">
<stop offset="0.38"/>
<stop offset="0.6" stop-color="#644812"/>
<stop offset="0.8" stop-color="#B78522"/>
<stop offset="0.93" stop-color="#EBAB2C"/>
<stop offset="1" stop-color="#FFBA30"/>
</radialGradient>
<radialGradient id="paint47_radial_9_17023" cx="0" cy="0" r="1" gradientUnits="userSpaceOnUse" gradientTransform="translate(83.3376 72.0972) scale(18.5278 18.6062)">
<stop stop-color="#FFDA82"/>
<stop offset="1"/>
</radialGradient>
<radialGradient id="paint48_radial_9_17023" cx="0" cy="0" r="1" gradientUnits="userSpaceOnUse" gradientTransform="translate(83.0065 74.0621) scale(18.7536 18.8329)">
<stop stop-color="#FFD255"/>
<stop offset="0.18" stop-color="#F2BF4A"/>
<stop offset="0.55" stop-color="#D28F2F"/>
<stop offset="1" stop-color="#A64D09"/>
</radialGradient>
<radialGradient id="paint49_radial_9_17023" cx="0" cy="0" r="1" gradientUnits="userSpaceOnUse" gradientTransform="translate(70.6045 81.0451) scale(14.4039 14.4648)">
<stop offset="0.38"/>
<stop offset="0.6" stop-color="#644812"/>
<stop offset="0.8" stop-color="#B78522"/>
<stop offset="0.93" stop-color="#EBAB2C"/>
<stop offset="1" stop-color="#FFBA30"/>
</radialGradient>
<radialGradient id="paint50_radial_9_17023" cx="0" cy="0" r="1" gradientUnits="userSpaceOnUse" gradientTransform="translate(57.6455 71.8553) scale(17.5646 17.6389)">
<stop stop-color="#FFDA82"/>
<stop offset="1"/>
</radialGradient>
<radialGradient id="paint51_radial_9_17023" cx="0" cy="0" r="1" gradientUnits="userSpaceOnUse" gradientTransform="translate(41.7516 100.77) scale(8.71455 8.7514)">
<stop stop-color="#FFD255"/>
<stop offset="0.18" stop-color="#F2BF4A"/>
<stop offset="0.55" stop-color="#D28F2F"/>
<stop offset="1" stop-color="#A64D09"/>
</radialGradient>
<radialGradient id="paint52_radial_9_17023" cx="0" cy="0" r="1" gradientUnits="userSpaceOnUse" gradientTransform="translate(41.1947 102.81) scale(7.02883 7.05856)">
<stop stop-color="#FFF1C9"/>
<stop offset="1"/>
</radialGradient>
</defs>
</svg>
