<svg width="346" height="106" viewBox="0 0 346 106" fill="none" xmlns="http://www.w3.org/2000/svg">
<path fill-rule="evenodd" clip-rule="evenodd" d="M51.6335 105.39C25.0839 105.898 0.789158 85.633 0 49.3364H345.876C345.087 85.633 320.793 105.898 294.243 105.39C213.524 103.809 132.635 103.866 51.6335 105.39Z" fill="url(#paint0_linear_149_1766)"/>
<path fill-rule="evenodd" clip-rule="evenodd" d="M49.266 0.0566406H296.667C323.724 0.0566406 345.876 22.241 345.876 49.3364C345.876 76.4318 323.724 98.6161 296.667 98.6161H49.266C22.2091 98.6161 0.056366 76.4318 0.056366 49.3364C0.056366 22.241 22.2091 0.0566406 49.266 0.0566406Z" fill="url(#paint1_linear_149_1766)"/>
<path fill-rule="evenodd" clip-rule="evenodd" d="M49.266 9.70898H296.667C318.425 9.70898 336.237 27.5468 336.237 49.336C336.237 71.1252 318.425 88.963 296.667 88.963H49.266C27.5078 88.963 9.69537 71.1252 9.69537 49.336C9.69537 27.5468 27.5078 9.70898 49.266 9.70898Z" fill="url(#paint2_linear_149_1766)"/>
<g style="mix-blend-mode:multiply" opacity="0.55">
<path fill-rule="evenodd" clip-rule="evenodd" d="M296.667 98.6161C297.287 98.2774 297.851 97.9952 298.471 97.6565C306.193 93.5922 314.028 89.7537 322.033 86.1974C326.091 84.391 330.15 82.6976 334.208 81.0606C332.799 82.754 331.221 84.3346 329.586 85.8587C322.765 88.4554 316.058 91.2213 309.35 94.1002C306.193 95.455 303.037 96.9791 299.936 98.5032C298.809 98.5597 297.738 98.6161 296.611 98.6161H296.667ZM344.467 61.0213C339.338 64.1824 334.039 67.1177 328.628 69.8837C320.454 74.1174 312.112 78.0688 303.938 82.3025C302.022 83.2621 300.162 84.2782 298.245 85.2942C290.466 89.5279 282.913 93.9873 275.36 98.5597H271.188C285.055 89.8666 299.034 81.3993 313.859 74.2867C320.06 71.2949 326.26 68.1903 332.292 64.7469C336.745 62.2631 341.029 59.6101 345.313 56.8441C345.087 58.2553 344.805 59.6101 344.467 60.9648V61.0213ZM45.7711 98.5032C50.957 95.6243 56.0302 92.6326 61.1033 89.5843C67.5857 85.6894 74.1808 81.8509 80.945 78.4639C86.6382 75.6415 92.4442 73.1578 98.5319 71.4078C104.563 69.6579 110.708 68.7548 116.964 68.4161C124.574 68.0209 132.24 68.529 139.737 69.3757C144.81 69.9402 149.996 70.9563 154.9 72.311C159.973 73.6658 170.233 76.9963 172.544 82.246C174.629 87.0441 172.825 92.4632 170.684 96.9791C170.402 97.5436 170.12 98.1081 169.838 98.729H165.61C165.836 98.221 166.118 97.7129 166.343 97.2049C168.372 92.9713 168.823 89.0763 166.963 84.7298C164.878 79.9881 158.902 77.335 154.337 75.6979C136.355 69.4886 117.641 68.8112 99.2647 73.6658C85.7363 77.2785 73.7299 83.9395 61.4979 90.4875C56.5939 93.0842 51.8026 95.8502 46.9549 98.6726C46.5039 98.6726 46.053 98.6726 45.6584 98.6161L45.7711 98.5032ZM25.704 92.5761C31.6227 90.3746 37.4286 87.9473 43.1782 85.4636C48.7587 83.0363 54.2828 80.4961 59.8069 77.9559C69.4459 73.5529 79.0849 69.0934 89.0057 65.3114C92.8951 63.7873 96.7845 62.2631 100.73 60.9084C104.056 59.723 107.382 58.7069 110.764 57.8601C118.317 56.0538 125.758 55.6022 133.537 55.7715C138.497 55.8844 143.458 56.1102 148.418 56.5054C154.675 56.957 160.988 57.5779 167.189 58.3117C170.233 58.7069 173.22 59.102 176.264 59.6101C181.281 60.4003 186.298 61.36 191.202 62.7147C194.809 63.6744 198.868 64.9727 202.081 66.8355C203.264 67.5129 204.392 68.4161 205.294 69.4886C206.083 70.4482 206.759 71.5207 207.154 72.7062C207.548 73.948 207.661 75.3028 207.548 76.6576C207.436 78.0123 207.041 79.3671 206.365 80.5525C205.801 81.6815 205.068 82.754 204.392 83.7701C203.434 85.1813 202.419 86.5361 201.461 87.8909C199.037 91.1649 196.444 94.4389 193.907 97.6C193.625 97.9387 193.344 98.2774 193.062 98.6726H190.187C190.187 98.6726 190.469 98.2774 190.638 98.1081C193.005 95.0034 195.373 91.8423 197.628 88.6247C198.586 87.2699 199.488 85.9152 200.333 84.5604C201.01 83.5443 201.686 82.4718 202.25 81.3428C204.786 76.5447 202.87 71.5207 198.304 68.8676C195.204 67.0613 191.765 65.6501 188.383 64.5211C183.93 62.997 179.364 61.868 174.742 61.1342C168.429 60.1181 162.115 59.2149 155.746 58.4811C150.391 57.8601 145.036 57.4086 139.681 57.2392C130.549 56.9005 121.643 57.4086 112.68 59.102C104.451 60.6826 96.5591 63.1663 88.7802 66.1581C79.1412 69.8273 69.615 74.1738 60.2578 78.5204C54.6773 81.0606 49.1532 83.7137 43.6291 86.3103C38.2741 88.7941 32.9191 91.2778 27.4514 93.5358C26.8877 93.2535 26.3804 92.9713 25.8167 92.689L25.704 92.5761ZM11.7246 81.1735C18.827 78.7462 25.8731 76.1495 32.8628 73.3835C44.0237 68.9805 55.0719 64.2953 66.1201 59.5536C73.2225 56.5618 80.2122 53.4007 87.371 50.5218C95.5444 47.2478 104.169 44.256 112.85 42.7319C117.641 41.8852 122.545 41.6594 127.393 41.6594C132.578 41.6594 137.821 41.9981 143.007 42.5061C151.744 43.2964 160.368 44.5947 169.049 45.6108C180.041 46.9091 190.976 48.2639 201.968 49.3364C213.242 50.4654 241.2 53.4571 249.205 60.9648C250.163 61.868 251.008 62.997 251.403 64.2953C252.643 68.3596 248.866 72.5368 246.217 75.0206C236.86 83.7701 227.277 90.3182 217.864 98.5597H213.805C219.611 93.4793 225.755 88.7941 231.787 83.9959C233.985 82.246 236.127 80.4961 238.213 78.6333C239.904 77.1656 241.595 75.585 243.061 73.8916C244.977 71.6901 247.288 68.5854 246.724 65.4807C246.274 62.9405 244.132 61.2471 241.99 60.0616C240.411 59.2149 238.664 58.4811 236.973 57.9166C234.662 57.1263 232.351 56.5618 229.983 55.9973C227.728 55.4893 225.417 55.0377 223.162 54.6426C218.822 53.9087 214.425 53.3442 210.085 52.8927C206.816 52.554 203.49 52.2717 200.221 51.933C193.907 51.3121 187.65 50.4089 181.393 49.5057C174.404 48.4897 167.414 47.4736 160.368 46.514C151.913 45.3285 143.458 44.256 134.946 43.5786C131.057 43.2964 127.223 43.0706 123.334 43.0141C119.896 43.0141 116.457 43.0141 113.019 43.3528C103.887 44.1996 94.6425 47.6429 86.2436 51.2556C79.5922 54.0781 73.1098 57.2392 66.4583 60.1181C60.7088 62.6018 54.9592 65.142 49.2096 67.6258C37.7668 72.6497 26.3804 77.7301 14.6558 82.1896C14.1485 82.3589 13.6412 82.5847 13.1338 82.754C12.6265 82.246 12.1756 81.6815 11.6683 81.117L11.7246 81.1735ZM5.74958 72.3675C8.96257 71.3514 12.1756 70.3353 15.3886 69.2063C34.892 62.6018 53.2118 53.062 72.0952 44.8769C80.4377 41.2642 88.9493 37.9337 97.6301 35.3371C104.789 33.2485 112.004 31.7244 119.388 30.9341C126.829 30.1438 134.27 30.0309 141.767 30.2567C150.898 30.539 160.03 31.2728 169.162 32.0066C194.471 34.0388 219.893 35.5629 245.259 36.1274C249.205 36.2403 253.15 36.1274 257.04 36.0145C261.211 35.9016 265.382 35.7322 269.554 35.6193C274.683 35.45 279.869 35.3936 284.999 35.6193C289.677 35.7887 294.412 36.1838 298.978 37.1999C299.542 37.3128 300.162 37.4822 300.725 37.595C303.995 38.4418 308.673 40.1917 310.252 43.5222C311.435 45.893 310.59 48.5461 309.406 50.6912C307.771 53.6265 305.066 56.336 302.529 58.5375C292.496 67.3435 281.504 74.9641 271.019 83.2056C264.424 88.3989 257.829 93.4793 251.234 98.6726H246.781C253.094 93.31 259.464 87.9473 266.002 82.8669C276.092 74.9641 286.633 67.6258 296.272 59.1585C298.696 57.0134 301.289 54.5861 303.149 51.933C304.502 50.0138 305.742 47.5865 305.178 45.2156C304.277 41.3207 299.147 39.7966 295.821 39.1192C291.425 38.1595 286.802 37.7644 282.293 37.595C277.333 37.4257 272.372 37.4822 267.412 37.595C263.41 37.7079 259.464 37.8773 255.462 37.9902C251.741 38.1031 248.021 38.1595 244.301 38.1031C219.837 37.5386 195.429 36.1274 171.078 34.1517C165.159 33.7001 159.241 33.0792 153.322 32.5711C148.023 32.0631 142.668 31.6679 137.37 31.4421C131.395 31.2163 125.42 31.2728 119.445 31.7244C109.073 32.5147 99.0956 34.7726 89.2312 38.1595C79.9868 41.3207 71.1369 45.4414 62.3998 49.788C54.7901 53.57 47.2367 57.5779 39.5706 61.2471C31.7918 65.0291 23.9002 68.4725 15.6704 71.2385C12.6829 72.2546 9.69536 73.2706 6.70784 74.2867C6.36963 73.6658 5.97505 73.0449 5.63684 72.4239L5.74958 72.3675ZM309.744 1.80655L309.237 1.9759C301.345 4.85478 293.51 7.79012 285.506 10.4432C278.404 12.8141 271.245 14.9591 263.917 16.5397C256.927 18.0638 249.937 19.0799 242.835 19.5315C234.831 20.0395 226.77 19.8701 218.766 19.1928C213.467 18.7412 208.168 18.4025 202.87 18.2896C197.684 18.2331 192.554 18.4025 187.369 18.8541C177.279 19.7572 167.245 19.7572 157.155 19.7008C139.681 19.5879 122.15 19.5315 105.014 23.6522C94.1352 26.2489 83.538 30.6519 73.3917 35.2242C64.88 39.0627 56.4248 43.127 47.8004 46.7962C35.963 51.8766 24.1257 56.9005 12.1192 61.4729C8.96258 62.6583 5.80594 63.8437 2.59295 64.9727C2.3111 64.2389 2.08563 63.4486 1.86016 62.7147C4.4531 61.8116 6.98968 60.8519 9.52626 59.8923C20.969 55.6022 32.1864 50.8605 43.46 46.0624C44.6438 45.5543 45.8839 45.0463 47.0676 44.5382C55.8047 40.8126 64.4291 36.9741 73.2225 33.3614C83.4252 29.1842 93.9661 25.2892 104.732 22.6926C112.342 20.8862 120.008 19.5879 127.844 18.7976C135.002 18.0638 142.217 17.7251 149.433 17.5557C155.464 17.3864 161.552 17.33 167.583 17.1606C173.953 16.9913 180.379 16.6526 186.748 16.0881C191.934 15.6365 197.064 15.4107 202.306 15.5236C207.661 15.58 212.96 15.9752 218.315 16.4268C226.432 17.1042 234.605 17.3864 242.779 16.9913C250.05 16.6526 257.209 15.8058 264.311 14.4511C279.249 11.6286 293.792 6.54825 308.053 1.29851C308.617 1.41141 309.181 1.58076 309.688 1.7501L309.744 1.80655ZM239.171 0.0566406C238.382 0.113089 237.536 0.169539 236.747 0.282436C228.912 0.903372 221.077 1.52431 213.242 2.37104C201.63 3.61291 190.018 4.57254 178.406 5.53217C168.429 6.3789 158.452 7.22563 148.531 8.29816C139.117 9.31423 129.704 10.4997 120.347 12.1931C113.526 13.435 106.818 15.3542 100.223 17.5557C93.1206 19.9266 86.0745 22.6926 79.1412 25.6279C67.9239 30.3132 56.8757 35.45 45.7148 40.2481C41.7126 41.9981 37.7105 43.6915 33.7083 45.4414C23.8438 49.6186 13.9794 53.7394 3.88942 57.3521C2.87479 57.7472 1.86016 58.0859 0.845526 58.4246C0.676421 57.6908 0.563684 56.9005 0.450947 56.1102C1.29647 55.828 2.19837 55.4893 3.04389 55.2071C13.0211 51.5943 22.8856 47.53 32.6373 43.3528C36.7522 41.6029 40.8671 39.7966 44.9256 38.0466C52.028 34.942 59.1304 31.8937 66.2892 28.9019C74.4063 25.515 82.5797 22.1845 90.9222 19.2492C100.392 15.8623 110.144 12.9834 120.065 11.177C129.478 9.48358 138.948 8.07236 148.418 6.77404C158.395 5.41927 168.429 4.1774 178.406 3.04842C187.369 2.03235 196.275 1.07272 205.237 0.113089H239.058L239.171 0.0566406ZM150.673 0.0566406C143.57 0.734025 136.412 1.35496 129.309 2.31459C120.065 3.50001 110.933 5.19348 101.97 7.90302C86.0745 12.7576 70.7987 19.4186 55.6356 26.2489C38.9506 33.7001 22.3219 41.3771 5.29863 48.151C3.55121 48.8284 1.80379 49.5622 0 50.2396C0 49.9573 0 49.6751 0 49.3928C0 48.8283 0 48.2639 0 47.6994C18.6579 40.8691 36.9777 33.0227 55.241 25.3457C70.5732 18.9105 85.9618 12.4189 101.914 7.56432C108.396 5.58862 114.879 4.00805 121.53 2.82263C127.731 1.69365 133.988 0.846923 140.188 0.0566406H150.56H150.673ZM109.242 0.0566406C108.058 0.338884 106.818 0.677577 105.634 0.959821C92.106 4.45964 78.7466 9.25778 65.7255 14.3946C51.6334 19.9266 37.7105 25.9102 23.7875 31.7808C16.1214 34.9984 8.45526 38.1595 0.789157 41.2078C0.958263 40.1352 1.18374 39.0627 1.40921 38.0466C8.45526 35.45 15.4449 32.7405 22.491 29.9745C27.7332 27.9423 32.9191 25.8537 38.1614 23.7651C48.7023 19.5879 59.1868 15.2414 69.7841 11.2335C80.7195 7.05628 91.8241 3.10487 103.098 0.113089H109.242V0.0566406ZM73.1098 0.0566406C68.1494 1.80655 63.2453 3.66936 58.3977 5.58862C45.8275 10.4997 33.3701 15.8623 21.0818 21.3943C15.6704 23.8216 10.259 26.1924 4.79131 28.3939C5.63684 26.5875 6.5951 24.8376 7.6661 23.1442C11.8374 21.5636 16.0086 19.9266 20.1799 18.2896C32.8064 13.3785 45.4329 8.52395 58.1722 3.9516C61.8361 2.65328 65.5001 1.35496 69.2204 0.0566406H73.1098ZM72.0952 98.6726C76.9992 95.7373 81.9596 92.8584 87.0328 90.2617C91.8241 87.8344 96.7845 85.1813 101.97 83.5443C106.818 82.0202 111.891 80.9477 117.021 80.8912C122.939 80.8348 129.422 82.4718 135.002 84.504C139.343 86.0845 144.98 88.8505 147.854 92.6326C148.136 92.9713 148.362 93.31 148.531 93.7051C149.32 95.2292 149.545 96.9791 149.433 98.6726H147.347C147.347 97.092 147.009 95.5115 146.22 94.0438C143.965 89.7537 138.497 87.3264 134.213 85.5765C129.084 83.4879 122.601 81.4557 117.021 81.4557C112.286 81.4557 107.607 82.3589 103.154 83.8266C98.3628 85.3507 93.797 87.4957 89.3439 89.8101C84.2707 92.4632 79.4231 95.5679 74.6318 98.729H72.0388L72.0952 98.6726ZM99.0956 96.4146C100.843 95.455 102.647 94.6083 104.507 93.818C106.198 93.1406 107.889 92.5761 109.637 92.181C111.384 91.7858 113.131 91.5036 114.935 91.3907C116.063 91.3342 117.246 91.3907 118.374 91.6729C119.501 91.8987 120.572 92.2939 121.643 92.689C122.77 93.1406 123.898 93.7051 124.969 94.326C125.927 94.8905 126.829 95.6244 127.674 96.3582C128.351 97.0356 129.027 97.7694 129.591 98.5597H129.027C128.633 98.0517 128.182 97.6001 127.731 97.2049C123.334 92.9713 117.754 92.2374 112.004 93.5922C108.847 94.326 104.112 96.1888 100.167 98.6161H95.6008C96.7282 97.7694 97.8555 97.0356 99.0393 96.3582L99.0956 96.4146Z" fill="#D3C8C1"/>
</g>
<path style="mix-blend-mode:multiply" opacity="0.45" fill-rule="evenodd" clip-rule="evenodd" d="M38.105 23.7648C48.6459 19.5876 59.1304 15.2411 69.7277 11.2332C80.6632 7.05599 91.7114 3.16102 103.041 0.112793H73.1098C68.2058 1.8627 63.3017 3.72551 58.454 5.64477C45.8839 10.5558 33.4265 15.9184 21.1381 21.4504C15.7268 23.8777 10.3154 26.2486 4.84768 28.4501C3.3821 31.4983 2.25473 34.7159 1.46558 38.0463C8.51163 35.4497 15.5013 32.7402 22.5474 29.9742C27.7896 27.942 32.9755 25.8534 38.2178 23.7648H38.105Z" fill="url(#paint3_radial_149_1766)"/>
<path style="mix-blend-mode:multiply" opacity="0.45" fill-rule="evenodd" clip-rule="evenodd" d="M105.071 23.7083C94.1916 26.3049 83.5943 30.7079 73.448 35.2802C64.9364 39.1188 56.4811 43.1831 47.8568 46.8522C36.0194 51.9326 24.182 56.9566 12.1756 61.5289C9.01895 62.7143 5.86232 63.8998 2.64932 65.0287C3.49485 67.5689 4.56585 69.9962 5.80595 72.3671C9.01895 71.351 12.2319 70.3349 15.4449 69.2059C34.9484 62.6014 53.2681 53.0616 72.1516 44.8765C80.4941 41.2638 89.0057 37.9333 97.6864 35.3367C104.845 33.2481 112.06 31.724 119.445 30.9337C126.885 30.1434 134.326 30.0305 141.823 30.2563C150.955 30.5386 160.086 31.2724 169.218 32.0062C194.527 34.0384 219.949 35.5625 245.315 36.127C249.261 36.2399 253.207 36.127 257.096 36.0141C261.268 35.9012 265.439 35.7318 269.61 35.6189C274.74 35.4496 279.925 35.3931 285.055 35.6189C289.734 35.7883 294.469 36.1834 299.034 37.1995C299.598 37.3124 300.218 37.4817 300.782 37.5946C304.051 38.4414 308.73 40.1913 310.308 43.5218C311.492 45.8926 310.646 48.5457 309.462 50.6908C307.828 53.6261 305.122 56.3356 302.586 58.5371C292.552 67.3431 281.56 74.9637 271.076 83.2052C264.481 88.3985 257.885 93.4789 251.347 98.6722H271.245C285.111 89.9791 299.091 81.5118 313.916 74.3992C320.116 71.4074 326.317 68.3028 332.348 64.8594C336.801 62.3756 341.085 59.7226 345.313 56.9566C345.707 54.4728 345.876 51.9326 345.876 49.336C345.876 26.7565 330.488 7.56392 309.688 1.80615L309.237 1.9755C301.345 4.85438 293.51 7.78972 285.506 10.4428C278.404 12.8137 271.245 14.9587 263.917 16.5393C256.927 18.0634 249.937 19.0795 242.835 19.5311C234.831 20.0391 226.77 19.8697 218.766 19.1924C213.467 18.7408 208.168 18.4021 202.87 18.2892C197.684 18.2327 192.554 18.4021 187.369 18.8537C177.279 19.7568 167.245 19.7568 157.155 19.7004C139.681 19.5875 122.15 19.5311 105.014 23.6518L105.071 23.7083Z" fill="url(#paint4_radial_149_1766)"/>
<path style="mix-blend-mode:multiply" opacity="0.45" fill-rule="evenodd" clip-rule="evenodd" d="M160.481 46.6268C152.026 45.4414 143.57 44.3688 135.059 43.6914C131.169 43.4092 127.336 43.1834 123.447 43.127C120.008 43.127 116.57 43.127 113.131 43.4656C104 44.3124 94.7553 47.7557 86.3564 51.3685C79.7049 54.1909 73.2226 57.352 66.5711 60.2309C60.8215 62.7147 55.0719 65.2549 49.3224 67.7386C37.8796 72.7625 26.4932 77.8429 14.7685 82.3024C14.2612 82.4717 13.7539 82.6975 13.3029 82.8669C16.9105 86.7618 21.1382 90.0923 25.8167 92.6325C31.679 90.431 37.5414 88.0037 43.2909 85.52C48.8714 83.0927 54.3955 80.5525 59.9196 78.0123C69.5586 73.6093 79.1976 69.1498 89.1184 65.3678C93.0079 63.8436 96.8973 62.3195 100.843 60.9648C104.169 59.7793 107.495 58.7633 110.877 57.9165C118.43 56.1102 125.871 55.6586 133.649 55.8279C138.61 55.9408 143.57 56.1666 148.531 56.5618C154.788 57.0133 161.101 57.6343 167.301 58.3681C170.345 58.7633 173.333 59.1584 176.377 59.6664C181.394 60.4567 186.41 61.4163 191.314 62.7711C194.922 63.7307 198.98 65.0291 202.193 66.8919C203.377 67.5693 204.505 68.4724 205.406 69.545C206.196 70.5046 206.872 71.5771 207.267 72.7625C207.661 74.0044 207.774 75.3592 207.661 76.7139C207.548 78.0687 207.154 79.4235 206.477 80.6089C205.914 81.7379 205.181 82.8104 204.505 83.8265C203.546 85.2377 202.532 86.5925 201.573 87.9472C199.15 91.2213 196.557 94.4953 194.02 97.6564C193.738 97.9951 193.456 98.3338 193.174 98.6725H214.031C219.837 93.5921 225.981 88.9069 232.012 84.1087C234.211 82.3588 236.353 80.6089 238.438 78.7461C240.129 77.2784 241.82 75.6979 243.286 74.0044C245.203 71.8029 247.514 68.6982 246.95 65.5935C246.499 63.0534 244.357 61.3599 242.215 60.1745C240.637 59.3277 238.889 58.5939 237.198 58.0294C234.887 57.2391 232.576 56.6746 230.209 56.1102C227.954 55.6021 225.643 55.1505 223.388 54.7554C219.048 54.0216 214.651 53.4571 210.31 53.0055C207.041 52.6668 203.715 52.3845 200.446 52.0459C194.133 51.4249 187.876 50.5217 181.619 49.6186C174.629 48.6025 167.64 47.5864 160.594 46.6268H160.481Z" fill="url(#paint5_radial_149_1766)"/>
<path fill-rule="evenodd" clip-rule="evenodd" d="M49.266 13.3219H296.667C317.241 13.3219 334.265 29.2404 336.068 49.3926C336.068 50.0136 336.181 50.5781 336.181 51.199C336.181 50.5781 336.181 50.0136 336.181 49.3926C336.181 27.6034 318.369 9.76562 296.611 9.76562H49.266C27.5078 9.76562 9.69537 27.6034 9.69537 49.3926C9.69537 50.0136 9.69537 50.5781 9.69537 51.199C9.69537 50.5781 9.75174 50.0136 9.80811 49.3926C11.6119 29.2404 28.6352 13.3219 49.2096 13.3219H49.266Z" fill="url(#paint6_linear_149_1766)"/>
<path style="mix-blend-mode:screen" fill-rule="evenodd" clip-rule="evenodd" d="M48.4205 1.58056H297.512C313.465 1.58056 327.726 9.20114 336.858 20.9425C327.895 8.29796 313.183 0 296.667 0H49.266C32.6937 0 17.9815 8.29796 9.07532 20.9425C18.207 9.14469 32.4682 1.58056 48.4205 1.58056Z" fill="url(#paint7_radial_149_1766)"/>
<g style="mix-blend-mode:screen" opacity="0.2">
<path fill-rule="evenodd" clip-rule="evenodd" d="M296.667 88.9632H49.266C34.3847 88.9632 21.3636 80.6088 14.5994 68.3594C21.1382 81.1168 34.4411 89.9228 49.7169 89.9228H296.216C311.492 89.9228 324.795 81.1168 331.333 68.3594C324.569 80.6088 311.548 88.9632 296.667 88.9632Z" fill="#B9B4D3"/>
</g>
<path fill-rule="evenodd" clip-rule="evenodd" d="M49.266 12.1367H296.667C317.129 12.1367 333.814 28.902 333.814 49.3364C333.814 69.7709 317.072 86.5361 296.667 86.5361H49.266C28.8042 86.5361 12.1192 69.7709 12.1192 49.3364C12.1192 28.902 28.8606 12.1367 49.266 12.1367Z" fill="url(#paint8_linear_149_1766)"/>
<path fill-rule="evenodd" clip-rule="evenodd" d="M49.266 19.3623H296.667C313.126 19.3623 326.598 32.8536 326.598 49.3366C326.598 65.8196 313.126 79.3109 296.667 79.3109H49.266C32.8064 79.3109 19.3344 65.8196 19.3344 49.3366C19.3344 32.8536 32.8064 19.3623 49.266 19.3623Z" fill="url(#paint9_linear_149_1766)"/>
<path style="mix-blend-mode:screen" fill-rule="evenodd" clip-rule="evenodd" d="M49.266 20.8296H296.667C305.404 20.8296 313.296 24.8375 318.481 31.1033C321.3 34.4902 324.569 41.7156 322.709 45.667C320.849 49.6749 314.367 49.3362 309.97 49.3362H35.963C31.5663 49.3362 25.0839 49.6749 23.2238 45.667C21.3636 41.6592 24.633 34.4902 27.4514 31.1033C32.6937 24.8375 40.5289 20.8296 49.266 20.8296Z" fill="url(#paint10_linear_149_1766)"/>
<path style="mix-blend-mode:screen" fill-rule="evenodd" clip-rule="evenodd" d="M19.3344 49.3364C19.3344 32.8534 32.8064 19.3622 49.266 19.3622H296.667C313.126 19.3622 326.598 32.8534 326.598 49.3364H333.814C333.814 28.8455 317.072 12.1367 296.667 12.1367H49.266C28.8042 12.1367 12.1192 28.902 12.1192 49.3364H19.3344Z" fill="url(#paint11_linear_149_1766)"/>
<path style="mix-blend-mode:multiply" fill-rule="evenodd" clip-rule="evenodd" d="M49.266 79.3107C32.8064 79.3107 19.3344 65.8195 19.3344 49.3364H12.1192C12.1192 69.8273 28.8606 86.5361 49.266 86.5361H296.667C317.129 86.5361 333.814 69.7709 333.814 49.3364H326.598C326.598 65.8195 313.126 79.3107 296.667 79.3107H49.266Z" fill="url(#paint12_linear_149_1766)"/>
<path style="mix-blend-mode:screen" fill-rule="evenodd" clip-rule="evenodd" d="M21.5891 38.0467C26.0986 27.1521 36.8086 19.4186 49.266 19.4186H296.667C309.124 19.4186 319.891 27.1521 324.344 38.0467C320.116 26.6441 309.124 18.459 296.329 18.459H49.6042C36.8085 18.459 25.8167 26.6441 21.5891 38.0467Z" fill="url(#paint13_radial_149_1766)"/>
<g style="mix-blend-mode:screen" opacity="0.5">
<path d="M91.9369 1.12873C91.0913 1.12873 90.4149 1.07228 90.4149 0.959386C90.4149 0.846488 91.0913 0.790039 91.9369 0.790039C92.7824 0.790039 93.4588 0.846488 93.4588 0.959386C93.4588 1.07228 92.7824 1.12873 91.9369 1.12873Z" fill="#00FFA3"/>
</g>
<g style="mix-blend-mode:screen">
<path d="M91.9369 19.1927C91.3168 19.1927 90.8095 19.1362 90.8095 19.0234C90.8095 18.9105 91.3168 18.854 91.9369 18.854C92.5569 18.854 93.0642 18.9105 93.0642 19.0234C93.0642 19.1362 92.5569 19.1927 91.9369 19.1927Z" fill="#FFED44"/>
</g>
<g style="mix-blend-mode:screen">
<path d="M272.034 79.4798C271.527 79.4798 271.076 79.4234 271.076 79.3105C271.076 79.1976 271.47 79.1411 272.034 79.1411C272.598 79.1411 272.992 79.1976 272.992 79.3105C272.992 79.4234 272.598 79.4798 272.034 79.4798Z" fill="#FF6633"/>
</g>
<g style="mix-blend-mode:screen">
<path d="M241.313 79.4235C241.313 79.4235 240.975 79.4235 240.975 79.3106C240.975 79.1978 241.144 79.1978 241.313 79.1978C241.482 79.1978 241.651 79.1978 241.651 79.3106C241.651 79.4235 241.482 79.4235 241.313 79.4235Z" fill="#FF6633"/>
</g>
<g filter="url(#filter0_d_149_1766)">
<path d="M62.8438 60H60.6562V57.8125V55.625V53.4375V51.25V49.0625V46.875V44.6875V42.5V40.3125V38.125V35.9375V33.75H62.8438H65.0312H67.2188H69.4062H71.5938H73.7812H75.9688H78.1562V35.9375H80.3438V38.125V40.3125V42.5V44.6875V46.875H78.1562V49.0625H75.9688H73.7812H71.5938H69.4062H67.2188H65.0312V51.25V53.4375V55.625V57.8125V60H62.8438ZM73.7812 44.6875H75.9688V42.5V40.3125V38.125H73.7812H71.5938H69.4062H67.2188H65.0312V40.3125V42.5V44.6875H67.2188H69.4062H71.5938H73.7812ZM102.219 60H100.031H97.8438H95.6562H93.4688H91.2812H89.0938H86.9062H84.7188V57.8125V55.625V53.4375V51.25V49.0625V46.875V44.6875V42.5V40.3125V38.125V35.9375V33.75H86.9062H89.0938V35.9375V38.125V40.3125V42.5V44.6875V46.875V49.0625V51.25V53.4375V55.625H91.2812H93.4688H95.6562H97.8438H100.031H102.219H104.406V57.8125V60H102.219ZM132.844 60H130.656V57.8125V55.625H128.469V53.4375V51.25H126.281H124.094H121.906H119.719H117.531H115.344V53.4375V55.625H113.156V57.8125V60H110.969H108.781V57.8125V55.625H110.969V53.4375V51.25H113.156V49.0625V46.875H115.344V44.6875V42.5H117.531V40.3125V38.125H119.719V35.9375V33.75H121.906H124.094V35.9375V38.125H126.281V40.3125V42.5H128.469V44.6875V46.875H130.656V49.0625V51.25H132.844V53.4375V55.625H135.031V57.8125V60H132.844ZM121.906 46.875H124.094V44.6875V42.5H121.906H119.719V44.6875V46.875H121.906ZM148.156 60H145.969V57.8125V55.625V53.4375V51.25V49.0625H143.781V46.875H141.594V44.6875H139.406V42.5V40.3125V38.125V35.9375V33.75H141.594H143.781V35.9375V38.125V40.3125V42.5H145.969V44.6875H148.156V46.875H150.344V44.6875H152.531V42.5H154.719V40.3125V38.125V35.9375V33.75H156.906H159.094V35.9375V38.125V40.3125V42.5V44.6875H156.906V46.875H154.719V49.0625H152.531V51.25H150.344V53.4375V55.625V57.8125V60H148.156ZM198.469 60H196.281V57.8125V55.625H194.094V53.4375V51.25H191.906H189.719H187.531H185.344H183.156H180.969V53.4375V55.625H178.781V57.8125V60H176.594H174.406V57.8125V55.625H176.594V53.4375V51.25H178.781V49.0625V46.875H180.969V44.6875V42.5H183.156V40.3125V38.125H185.344V35.9375V33.75H187.531H189.719V35.9375V38.125H191.906V40.3125V42.5H194.094V44.6875V46.875H196.281V49.0625V51.25H198.469V53.4375V55.625H200.656V57.8125V60H198.469ZM187.531 46.875H189.719V44.6875V42.5H187.531H185.344V44.6875V46.875H187.531ZM218.156 60H215.969H213.781H211.594H209.406H207.219V57.8125H205.031V55.625V53.4375V51.25V49.0625V46.875V44.6875V42.5V40.3125V38.125V35.9375H207.219V33.75H209.406H211.594H213.781H215.969H218.156H220.344V35.9375H222.531V38.125V40.3125V42.5H220.344H218.156V40.3125V38.125H215.969H213.781H211.594H209.406V40.3125V42.5V44.6875V46.875V49.0625V51.25V53.4375V55.625H211.594H213.781H215.969H218.156V53.4375V51.25H215.969H213.781V49.0625V46.875H215.969H218.156H220.344H222.531V49.0625V51.25V53.4375V55.625V57.8125H220.344V60H218.156ZM250.969 60H248.781V57.8125V55.625H246.594V53.4375V51.25H244.406H242.219H240.031H237.844H235.656H233.469V53.4375V55.625H231.281V57.8125V60H229.094H226.906V57.8125V55.625H229.094V53.4375V51.25H231.281V49.0625V46.875H233.469V44.6875V42.5H235.656V40.3125V38.125H237.844V35.9375V33.75H240.031H242.219V35.9375V38.125H244.406V40.3125V42.5H246.594V44.6875V46.875H248.781V49.0625V51.25H250.969V53.4375V55.625H253.156V57.8125V60H250.969ZM240.031 46.875H242.219V44.6875V42.5H240.031H237.844V44.6875V46.875H240.031ZM259.719 60H257.531V57.8125V55.625V53.4375V51.25V49.0625V46.875V44.6875V42.5V40.3125V38.125V35.9375V33.75H259.719H261.906V35.9375V38.125V40.3125V42.5V44.6875V46.875V49.0625V51.25V53.4375V55.625V57.8125V60H259.719ZM283.781 60H281.594V57.8125V55.625V53.4375V51.25H279.406V49.0625H277.219V46.875H275.031V44.6875H272.844V42.5H270.656V44.6875V46.875V49.0625V51.25V53.4375V55.625V57.8125V60H268.469H266.281V57.8125V55.625V53.4375V51.25V49.0625V46.875V44.6875V42.5V40.3125V38.125V35.9375V33.75H268.469H270.656V35.9375H272.844V38.125H275.031V40.3125H277.219V42.5H279.406V44.6875H281.594V42.5V40.3125V38.125V35.9375V33.75H283.781H285.969V35.9375V38.125V40.3125V42.5V44.6875V46.875V49.0625V51.25V53.4375V55.625V57.8125V60H283.781Z" fill="white"/>
<path d="M60.6562 60H59.6562V61H60.6562V60ZM60.6562 33.75V32.75H59.6562V33.75H60.6562ZM78.1562 33.75H79.1562V32.75H78.1562V33.75ZM78.1562 35.9375H77.1562V36.9375H78.1562V35.9375ZM80.3438 35.9375H81.3438V34.9375H80.3438V35.9375ZM80.3438 46.875V47.875H81.3438V46.875H80.3438ZM78.1562 46.875V45.875H77.1562V46.875H78.1562ZM78.1562 49.0625V50.0625H79.1562V49.0625H78.1562ZM65.0312 49.0625V48.0625H64.0312V49.0625H65.0312ZM65.0312 60V61H66.0312V60H65.0312ZM75.9688 44.6875V45.6875H76.9688V44.6875H75.9688ZM75.9688 38.125H76.9688V37.125H75.9688V38.125ZM65.0312 38.125V37.125H64.0312V38.125H65.0312ZM65.0312 44.6875H64.0312V45.6875H65.0312V44.6875ZM62.8438 59H60.6562V61H62.8438V59ZM61.6562 60V57.8125H59.6562V60H61.6562ZM61.6562 57.8125V55.625H59.6562V57.8125H61.6562ZM61.6562 55.625V53.4375H59.6562V55.625H61.6562ZM61.6562 53.4375V51.25H59.6562V53.4375H61.6562ZM61.6562 51.25V49.0625H59.6562V51.25H61.6562ZM61.6562 49.0625V46.875H59.6562V49.0625H61.6562ZM61.6562 46.875V44.6875H59.6562V46.875H61.6562ZM61.6562 44.6875V42.5H59.6562V44.6875H61.6562ZM61.6562 42.5V40.3125H59.6562V42.5H61.6562ZM61.6562 40.3125V38.125H59.6562V40.3125H61.6562ZM61.6562 38.125V35.9375H59.6562V38.125H61.6562ZM61.6562 35.9375V33.75H59.6562V35.9375H61.6562ZM60.6562 34.75H62.8438V32.75H60.6562V34.75ZM62.8438 34.75H65.0312V32.75H62.8438V34.75ZM65.0312 34.75H67.2188V32.75H65.0312V34.75ZM67.2188 34.75H69.4062V32.75H67.2188V34.75ZM69.4062 34.75H71.5938V32.75H69.4062V34.75ZM71.5938 34.75H73.7812V32.75H71.5938V34.75ZM73.7812 34.75H75.9688V32.75H73.7812V34.75ZM75.9688 34.75H78.1562V32.75H75.9688V34.75ZM77.1562 33.75V35.9375H79.1562V33.75H77.1562ZM78.1562 36.9375H80.3438V34.9375H78.1562V36.9375ZM79.3438 35.9375V38.125H81.3438V35.9375H79.3438ZM79.3438 38.125V40.3125H81.3438V38.125H79.3438ZM79.3438 40.3125V42.5H81.3438V40.3125H79.3438ZM79.3438 42.5V44.6875H81.3438V42.5H79.3438ZM79.3438 44.6875V46.875H81.3438V44.6875H79.3438ZM80.3438 45.875H78.1562V47.875H80.3438V45.875ZM77.1562 46.875V49.0625H79.1562V46.875H77.1562ZM78.1562 48.0625H75.9688V50.0625H78.1562V48.0625ZM75.9688 48.0625H73.7812V50.0625H75.9688V48.0625ZM73.7812 48.0625H71.5938V50.0625H73.7812V48.0625ZM71.5938 48.0625H69.4062V50.0625H71.5938V48.0625ZM69.4062 48.0625H67.2188V50.0625H69.4062V48.0625ZM67.2188 48.0625H65.0312V50.0625H67.2188V48.0625ZM64.0312 49.0625V51.25H66.0312V49.0625H64.0312ZM64.0312 51.25V53.4375H66.0312V51.25H64.0312ZM64.0312 53.4375V55.625H66.0312V53.4375H64.0312ZM64.0312 55.625V57.8125H66.0312V55.625H64.0312ZM64.0312 57.8125V60H66.0312V57.8125H64.0312ZM65.0312 59H62.8438V61H65.0312V59ZM73.7812 45.6875H75.9688V43.6875H73.7812V45.6875ZM76.9688 44.6875V42.5H74.9688V44.6875H76.9688ZM76.9688 42.5V40.3125H74.9688V42.5H76.9688ZM76.9688 40.3125V38.125H74.9688V40.3125H76.9688ZM75.9688 37.125H73.7812V39.125H75.9688V37.125ZM73.7812 37.125H71.5938V39.125H73.7812V37.125ZM71.5938 37.125H69.4062V39.125H71.5938V37.125ZM69.4062 37.125H67.2188V39.125H69.4062V37.125ZM67.2188 37.125H65.0312V39.125H67.2188V37.125ZM64.0312 38.125V40.3125H66.0312V38.125H64.0312ZM64.0312 40.3125V42.5H66.0312V40.3125H64.0312ZM64.0312 42.5V44.6875H66.0312V42.5H64.0312ZM65.0312 45.6875H67.2188V43.6875H65.0312V45.6875ZM67.2188 45.6875H69.4062V43.6875H67.2188V45.6875ZM69.4062 45.6875H71.5938V43.6875H69.4062V45.6875ZM71.5938 45.6875H73.7812V43.6875H71.5938V45.6875ZM84.7188 60H83.7188V61H84.7188V60ZM84.7188 33.75V32.75H83.7188V33.75H84.7188ZM89.0938 33.75H90.0938V32.75H89.0938V33.75ZM89.0938 55.625H88.0938V56.625H89.0938V55.625ZM104.406 55.625H105.406V54.625H104.406V55.625ZM104.406 60V61H105.406V60H104.406ZM102.219 59H100.031V61H102.219V59ZM100.031 59H97.8438V61H100.031V59ZM97.8438 59H95.6562V61H97.8438V59ZM95.6562 59H93.4688V61H95.6562V59ZM93.4688 59H91.2812V61H93.4688V59ZM91.2812 59H89.0938V61H91.2812V59ZM89.0938 59H86.9062V61H89.0938V59ZM86.9062 59H84.7188V61H86.9062V59ZM85.7188 60V57.8125H83.7188V60H85.7188ZM85.7188 57.8125V55.625H83.7188V57.8125H85.7188ZM85.7188 55.625V53.4375H83.7188V55.625H85.7188ZM85.7188 53.4375V51.25H83.7188V53.4375H85.7188ZM85.7188 51.25V49.0625H83.7188V51.25H85.7188ZM85.7188 49.0625V46.875H83.7188V49.0625H85.7188ZM85.7188 46.875V44.6875H83.7188V46.875H85.7188ZM85.7188 44.6875V42.5H83.7188V44.6875H85.7188ZM85.7188 42.5V40.3125H83.7188V42.5H85.7188ZM85.7188 40.3125V38.125H83.7188V40.3125H85.7188ZM85.7188 38.125V35.9375H83.7188V38.125H85.7188ZM85.7188 35.9375V33.75H83.7188V35.9375H85.7188ZM84.7188 34.75H86.9062V32.75H84.7188V34.75ZM86.9062 34.75H89.0938V32.75H86.9062V34.75ZM88.0938 33.75V35.9375H90.0938V33.75H88.0938ZM88.0938 35.9375V38.125H90.0938V35.9375H88.0938ZM88.0938 38.125V40.3125H90.0938V38.125H88.0938ZM88.0938 40.3125V42.5H90.0938V40.3125H88.0938ZM88.0938 42.5V44.6875H90.0938V42.5H88.0938ZM88.0938 44.6875V46.875H90.0938V44.6875H88.0938ZM88.0938 46.875V49.0625H90.0938V46.875H88.0938ZM88.0938 49.0625V51.25H90.0938V49.0625H88.0938ZM88.0938 51.25V53.4375H90.0938V51.25H88.0938ZM88.0938 53.4375V55.625H90.0938V53.4375H88.0938ZM89.0938 56.625H91.2812V54.625H89.0938V56.625ZM91.2812 56.625H93.4688V54.625H91.2812V56.625ZM93.4688 56.625H95.6562V54.625H93.4688V56.625ZM95.6562 56.625H97.8438V54.625H95.6562V56.625ZM97.8438 56.625H100.031V54.625H97.8438V56.625ZM100.031 56.625H102.219V54.625H100.031V56.625ZM102.219 56.625H104.406V54.625H102.219V56.625ZM103.406 55.625V57.8125H105.406V55.625H103.406ZM103.406 57.8125V60H105.406V57.8125H103.406ZM104.406 59H102.219V61H104.406V59ZM130.656 60H129.656V61H130.656V60ZM130.656 55.625H131.656V54.625H130.656V55.625ZM128.469 55.625H127.469V56.625H128.469V55.625ZM128.469 51.25H129.469V50.25H128.469V51.25ZM115.344 51.25V50.25H114.344V51.25H115.344ZM115.344 55.625V56.625H116.344V55.625H115.344ZM113.156 55.625V54.625H112.156V55.625H113.156ZM113.156 60V61H114.156V60H113.156ZM108.781 60H107.781V61H108.781V60ZM108.781 55.625V54.625H107.781V55.625H108.781ZM110.969 55.625V56.625H111.969V55.625H110.969ZM110.969 51.25V50.25H109.969V51.25H110.969ZM113.156 51.25V52.25H114.156V51.25H113.156ZM113.156 46.875V45.875H112.156V46.875H113.156ZM115.344 46.875V47.875H116.344V46.875H115.344ZM115.344 42.5V41.5H114.344V42.5H115.344ZM117.531 42.5V43.5H118.531V42.5H117.531ZM117.531 38.125V37.125H116.531V38.125H117.531ZM119.719 38.125V39.125H120.719V38.125H119.719ZM119.719 33.75V32.75H118.719V33.75H119.719ZM124.094 33.75H125.094V32.75H124.094V33.75ZM124.094 38.125H123.094V39.125H124.094V38.125ZM126.281 38.125H127.281V37.125H126.281V38.125ZM126.281 42.5H125.281V43.5H126.281V42.5ZM128.469 42.5H129.469V41.5H128.469V42.5ZM128.469 46.875H127.469V47.875H128.469V46.875ZM130.656 46.875H131.656V45.875H130.656V46.875ZM130.656 51.25H129.656V52.25H130.656V51.25ZM132.844 51.25H133.844V50.25H132.844V51.25ZM132.844 55.625H131.844V56.625H132.844V55.625ZM135.031 55.625H136.031V54.625H135.031V55.625ZM135.031 60V61H136.031V60H135.031ZM124.094 46.875V47.875H125.094V46.875H124.094ZM124.094 42.5H125.094V41.5H124.094V42.5ZM119.719 42.5V41.5H118.719V42.5H119.719ZM119.719 46.875H118.719V47.875H119.719V46.875ZM132.844 59H130.656V61H132.844V59ZM131.656 60V57.8125H129.656V60H131.656ZM131.656 57.8125V55.625H129.656V57.8125H131.656ZM130.656 54.625H128.469V56.625H130.656V54.625ZM129.469 55.625V53.4375H127.469V55.625H129.469ZM129.469 53.4375V51.25H127.469V53.4375H129.469ZM128.469 50.25H126.281V52.25H128.469V50.25ZM126.281 50.25H124.094V52.25H126.281V50.25ZM124.094 50.25H121.906V52.25H124.094V50.25ZM121.906 50.25H119.719V52.25H121.906V50.25ZM119.719 50.25H117.531V52.25H119.719V50.25ZM117.531 50.25H115.344V52.25H117.531V50.25ZM114.344 51.25V53.4375H116.344V51.25H114.344ZM114.344 53.4375V55.625H116.344V53.4375H114.344ZM115.344 54.625H113.156V56.625H115.344V54.625ZM112.156 55.625V57.8125H114.156V55.625H112.156ZM112.156 57.8125V60H114.156V57.8125H112.156ZM113.156 59H110.969V61H113.156V59ZM110.969 59H108.781V61H110.969V59ZM109.781 60V57.8125H107.781V60H109.781ZM109.781 57.8125V55.625H107.781V57.8125H109.781ZM108.781 56.625H110.969V54.625H108.781V56.625ZM111.969 55.625V53.4375H109.969V55.625H111.969ZM111.969 53.4375V51.25H109.969V53.4375H111.969ZM110.969 52.25H113.156V50.25H110.969V52.25ZM114.156 51.25V49.0625H112.156V51.25H114.156ZM114.156 49.0625V46.875H112.156V49.0625H114.156ZM113.156 47.875H115.344V45.875H113.156V47.875ZM116.344 46.875V44.6875H114.344V46.875H116.344ZM116.344 44.6875V42.5H114.344V44.6875H116.344ZM115.344 43.5H117.531V41.5H115.344V43.5ZM118.531 42.5V40.3125H116.531V42.5H118.531ZM118.531 40.3125V38.125H116.531V40.3125H118.531ZM117.531 39.125H119.719V37.125H117.531V39.125ZM120.719 38.125V35.9375H118.719V38.125H120.719ZM120.719 35.9375V33.75H118.719V35.9375H120.719ZM119.719 34.75H121.906V32.75H119.719V34.75ZM121.906 34.75H124.094V32.75H121.906V34.75ZM123.094 33.75V35.9375H125.094V33.75H123.094ZM123.094 35.9375V38.125H125.094V35.9375H123.094ZM124.094 39.125H126.281V37.125H124.094V39.125ZM125.281 38.125V40.3125H127.281V38.125H125.281ZM125.281 40.3125V42.5H127.281V40.3125H125.281ZM126.281 43.5H128.469V41.5H126.281V43.5ZM127.469 42.5V44.6875H129.469V42.5H127.469ZM127.469 44.6875V46.875H129.469V44.6875H127.469ZM128.469 47.875H130.656V45.875H128.469V47.875ZM129.656 46.875V49.0625H131.656V46.875H129.656ZM129.656 49.0625V51.25H131.656V49.0625H129.656ZM130.656 52.25H132.844V50.25H130.656V52.25ZM131.844 51.25V53.4375H133.844V51.25H131.844ZM131.844 53.4375V55.625H133.844V53.4375H131.844ZM132.844 56.625H135.031V54.625H132.844V56.625ZM134.031 55.625V57.8125H136.031V55.625H134.031ZM134.031 57.8125V60H136.031V57.8125H134.031ZM135.031 59H132.844V61H135.031V59ZM121.906 47.875H124.094V45.875H121.906V47.875ZM125.094 46.875V44.6875H123.094V46.875H125.094ZM125.094 44.6875V42.5H123.094V44.6875H125.094ZM124.094 41.5H121.906V43.5H124.094V41.5ZM121.906 41.5H119.719V43.5H121.906V41.5ZM118.719 42.5V44.6875H120.719V42.5H118.719ZM118.719 44.6875V46.875H120.719V44.6875H118.719ZM119.719 47.875H121.906V45.875H119.719V47.875ZM145.969 60H144.969V61H145.969V60ZM145.969 49.0625H146.969V48.0625H145.969V49.0625ZM143.781 49.0625H142.781V50.0625H143.781V49.0625ZM143.781 46.875H144.781V45.875H143.781V46.875ZM141.594 46.875H140.594V47.875H141.594V46.875ZM141.594 44.6875H142.594V43.6875H141.594V44.6875ZM139.406 44.6875H138.406V45.6875H139.406V44.6875ZM139.406 33.75V32.75H138.406V33.75H139.406ZM143.781 33.75H144.781V32.75H143.781V33.75ZM143.781 42.5H142.781V43.5H143.781V42.5ZM145.969 42.5H146.969V41.5H145.969V42.5ZM145.969 44.6875H144.969V45.6875H145.969V44.6875ZM148.156 44.6875H149.156V43.6875H148.156V44.6875ZM148.156 46.875H147.156V47.875H148.156V46.875ZM150.344 46.875V47.875H151.344V46.875H150.344ZM150.344 44.6875V43.6875H149.344V44.6875H150.344ZM152.531 44.6875V45.6875H153.531V44.6875H152.531ZM152.531 42.5V41.5H151.531V42.5H152.531ZM154.719 42.5V43.5H155.719V42.5H154.719ZM154.719 33.75V32.75H153.719V33.75H154.719ZM159.094 33.75H160.094V32.75H159.094V33.75ZM159.094 44.6875V45.6875H160.094V44.6875H159.094ZM156.906 44.6875V43.6875H155.906V44.6875H156.906ZM156.906 46.875V47.875H157.906V46.875H156.906ZM154.719 46.875V45.875H153.719V46.875H154.719ZM154.719 49.0625V50.0625H155.719V49.0625H154.719ZM152.531 49.0625V48.0625H151.531V49.0625H152.531ZM152.531 51.25V52.25H153.531V51.25H152.531ZM150.344 51.25V50.25H149.344V51.25H150.344ZM150.344 60V61H151.344V60H150.344ZM148.156 59H145.969V61H148.156V59ZM146.969 60V57.8125H144.969V60H146.969ZM146.969 57.8125V55.625H144.969V57.8125H146.969ZM146.969 55.625V53.4375H144.969V55.625H146.969ZM146.969 53.4375V51.25H144.969V53.4375H146.969ZM146.969 51.25V49.0625H144.969V51.25H146.969ZM145.969 48.0625H143.781V50.0625H145.969V48.0625ZM144.781 49.0625V46.875H142.781V49.0625H144.781ZM143.781 45.875H141.594V47.875H143.781V45.875ZM142.594 46.875V44.6875H140.594V46.875H142.594ZM141.594 43.6875H139.406V45.6875H141.594V43.6875ZM140.406 44.6875V42.5H138.406V44.6875H140.406ZM140.406 42.5V40.3125H138.406V42.5H140.406ZM140.406 40.3125V38.125H138.406V40.3125H140.406ZM140.406 38.125V35.9375H138.406V38.125H140.406ZM140.406 35.9375V33.75H138.406V35.9375H140.406ZM139.406 34.75H141.594V32.75H139.406V34.75ZM141.594 34.75H143.781V32.75H141.594V34.75ZM142.781 33.75V35.9375H144.781V33.75H142.781ZM142.781 35.9375V38.125H144.781V35.9375H142.781ZM142.781 38.125V40.3125H144.781V38.125H142.781ZM142.781 40.3125V42.5H144.781V40.3125H142.781ZM143.781 43.5H145.969V41.5H143.781V43.5ZM144.969 42.5V44.6875H146.969V42.5H144.969ZM145.969 45.6875H148.156V43.6875H145.969V45.6875ZM147.156 44.6875V46.875H149.156V44.6875H147.156ZM148.156 47.875H150.344V45.875H148.156V47.875ZM151.344 46.875V44.6875H149.344V46.875H151.344ZM150.344 45.6875H152.531V43.6875H150.344V45.6875ZM153.531 44.6875V42.5H151.531V44.6875H153.531ZM152.531 43.5H154.719V41.5H152.531V43.5ZM155.719 42.5V40.3125H153.719V42.5H155.719ZM155.719 40.3125V38.125H153.719V40.3125H155.719ZM155.719 38.125V35.9375H153.719V38.125H155.719ZM155.719 35.9375V33.75H153.719V35.9375H155.719ZM154.719 34.75H156.906V32.75H154.719V34.75ZM156.906 34.75H159.094V32.75H156.906V34.75ZM158.094 33.75V35.9375H160.094V33.75H158.094ZM158.094 35.9375V38.125H160.094V35.9375H158.094ZM158.094 38.125V40.3125H160.094V38.125H158.094ZM158.094 40.3125V42.5H160.094V40.3125H158.094ZM158.094 42.5V44.6875H160.094V42.5H158.094ZM159.094 43.6875H156.906V45.6875H159.094V43.6875ZM155.906 44.6875V46.875H157.906V44.6875H155.906ZM156.906 45.875H154.719V47.875H156.906V45.875ZM153.719 46.875V49.0625H155.719V46.875H153.719ZM154.719 48.0625H152.531V50.0625H154.719V48.0625ZM151.531 49.0625V51.25H153.531V49.0625H151.531ZM152.531 50.25H150.344V52.25H152.531V50.25ZM149.344 51.25V53.4375H151.344V51.25H149.344ZM149.344 53.4375V55.625H151.344V53.4375H149.344ZM149.344 55.625V57.8125H151.344V55.625H149.344ZM149.344 57.8125V60H151.344V57.8125H149.344ZM150.344 59H148.156V61H150.344V59ZM196.281 60H195.281V61H196.281V60ZM196.281 55.625H197.281V54.625H196.281V55.625ZM194.094 55.625H193.094V56.625H194.094V55.625ZM194.094 51.25H195.094V50.25H194.094V51.25ZM180.969 51.25V50.25H179.969V51.25H180.969ZM180.969 55.625V56.625H181.969V55.625H180.969ZM178.781 55.625V54.625H177.781V55.625H178.781ZM178.781 60V61H179.781V60H178.781ZM174.406 60H173.406V61H174.406V60ZM174.406 55.625V54.625H173.406V55.625H174.406ZM176.594 55.625V56.625H177.594V55.625H176.594ZM176.594 51.25V50.25H175.594V51.25H176.594ZM178.781 51.25V52.25H179.781V51.25H178.781ZM178.781 46.875V45.875H177.781V46.875H178.781ZM180.969 46.875V47.875H181.969V46.875H180.969ZM180.969 42.5V41.5H179.969V42.5H180.969ZM183.156 42.5V43.5H184.156V42.5H183.156ZM183.156 38.125V37.125H182.156V38.125H183.156ZM185.344 38.125V39.125H186.344V38.125H185.344ZM185.344 33.75V32.75H184.344V33.75H185.344ZM189.719 33.75H190.719V32.75H189.719V33.75ZM189.719 38.125H188.719V39.125H189.719V38.125ZM191.906 38.125H192.906V37.125H191.906V38.125ZM191.906 42.5H190.906V43.5H191.906V42.5ZM194.094 42.5H195.094V41.5H194.094V42.5ZM194.094 46.875H193.094V47.875H194.094V46.875ZM196.281 46.875H197.281V45.875H196.281V46.875ZM196.281 51.25H195.281V52.25H196.281V51.25ZM198.469 51.25H199.469V50.25H198.469V51.25ZM198.469 55.625H197.469V56.625H198.469V55.625ZM200.656 55.625H201.656V54.625H200.656V55.625ZM200.656 60V61H201.656V60H200.656ZM189.719 46.875V47.875H190.719V46.875H189.719ZM189.719 42.5H190.719V41.5H189.719V42.5ZM185.344 42.5V41.5H184.344V42.5H185.344ZM185.344 46.875H184.344V47.875H185.344V46.875ZM198.469 59H196.281V61H198.469V59ZM197.281 60V57.8125H195.281V60H197.281ZM197.281 57.8125V55.625H195.281V57.8125H197.281ZM196.281 54.625H194.094V56.625H196.281V54.625ZM195.094 55.625V53.4375H193.094V55.625H195.094ZM195.094 53.4375V51.25H193.094V53.4375H195.094ZM194.094 50.25H191.906V52.25H194.094V50.25ZM191.906 50.25H189.719V52.25H191.906V50.25ZM189.719 50.25H187.531V52.25H189.719V50.25ZM187.531 50.25H185.344V52.25H187.531V50.25ZM185.344 50.25H183.156V52.25H185.344V50.25ZM183.156 50.25H180.969V52.25H183.156V50.25ZM179.969 51.25V53.4375H181.969V51.25H179.969ZM179.969 53.4375V55.625H181.969V53.4375H179.969ZM180.969 54.625H178.781V56.625H180.969V54.625ZM177.781 55.625V57.8125H179.781V55.625H177.781ZM177.781 57.8125V60H179.781V57.8125H177.781ZM178.781 59H176.594V61H178.781V59ZM176.594 59H174.406V61H176.594V59ZM175.406 60V57.8125H173.406V60H175.406ZM175.406 57.8125V55.625H173.406V57.8125H175.406ZM174.406 56.625H176.594V54.625H174.406V56.625ZM177.594 55.625V53.4375H175.594V55.625H177.594ZM177.594 53.4375V51.25H175.594V53.4375H177.594ZM176.594 52.25H178.781V50.25H176.594V52.25ZM179.781 51.25V49.0625H177.781V51.25H179.781ZM179.781 49.0625V46.875H177.781V49.0625H179.781ZM178.781 47.875H180.969V45.875H178.781V47.875ZM181.969 46.875V44.6875H179.969V46.875H181.969ZM181.969 44.6875V42.5H179.969V44.6875H181.969ZM180.969 43.5H183.156V41.5H180.969V43.5ZM184.156 42.5V40.3125H182.156V42.5H184.156ZM184.156 40.3125V38.125H182.156V40.3125H184.156ZM183.156 39.125H185.344V37.125H183.156V39.125ZM186.344 38.125V35.9375H184.344V38.125H186.344ZM186.344 35.9375V33.75H184.344V35.9375H186.344ZM185.344 34.75H187.531V32.75H185.344V34.75ZM187.531 34.75H189.719V32.75H187.531V34.75ZM188.719 33.75V35.9375H190.719V33.75H188.719ZM188.719 35.9375V38.125H190.719V35.9375H188.719ZM189.719 39.125H191.906V37.125H189.719V39.125ZM190.906 38.125V40.3125H192.906V38.125H190.906ZM190.906 40.3125V42.5H192.906V40.3125H190.906ZM191.906 43.5H194.094V41.5H191.906V43.5ZM193.094 42.5V44.6875H195.094V42.5H193.094ZM193.094 44.6875V46.875H195.094V44.6875H193.094ZM194.094 47.875H196.281V45.875H194.094V47.875ZM195.281 46.875V49.0625H197.281V46.875H195.281ZM195.281 49.0625V51.25H197.281V49.0625H195.281ZM196.281 52.25H198.469V50.25H196.281V52.25ZM197.469 51.25V53.4375H199.469V51.25H197.469ZM197.469 53.4375V55.625H199.469V53.4375H197.469ZM198.469 56.625H200.656V54.625H198.469V56.625ZM199.656 55.625V57.8125H201.656V55.625H199.656ZM199.656 57.8125V60H201.656V57.8125H199.656ZM200.656 59H198.469V61H200.656V59ZM187.531 47.875H189.719V45.875H187.531V47.875ZM190.719 46.875V44.6875H188.719V46.875H190.719ZM190.719 44.6875V42.5H188.719V44.6875H190.719ZM189.719 41.5H187.531V43.5H189.719V41.5ZM187.531 41.5H185.344V43.5H187.531V41.5ZM184.344 42.5V44.6875H186.344V42.5H184.344ZM184.344 44.6875V46.875H186.344V44.6875H184.344ZM185.344 47.875H187.531V45.875H185.344V47.875ZM207.219 60H206.219V61H207.219V60ZM207.219 57.8125H208.219V56.8125H207.219V57.8125ZM205.031 57.8125H204.031V58.8125H205.031V57.8125ZM205.031 35.9375V34.9375H204.031V35.9375H205.031ZM207.219 35.9375V36.9375H208.219V35.9375H207.219ZM207.219 33.75V32.75H206.219V33.75H207.219ZM220.344 33.75H221.344V32.75H220.344V33.75ZM220.344 35.9375H219.344V36.9375H220.344V35.9375ZM222.531 35.9375H223.531V34.9375H222.531V35.9375ZM222.531 42.5V43.5H223.531V42.5H222.531ZM218.156 42.5H217.156V43.5H218.156V42.5ZM218.156 38.125H219.156V37.125H218.156V38.125ZM209.406 38.125V37.125H208.406V38.125H209.406ZM209.406 55.625H208.406V56.625H209.406V55.625ZM218.156 55.625V56.625H219.156V55.625H218.156ZM218.156 51.25H219.156V50.25H218.156V51.25ZM213.781 51.25H212.781V52.25H213.781V51.25ZM213.781 46.875V45.875H212.781V46.875H213.781ZM222.531 46.875H223.531V45.875H222.531V46.875ZM222.531 57.8125V58.8125H223.531V57.8125H222.531ZM220.344 57.8125V56.8125H219.344V57.8125H220.344ZM220.344 60V61H221.344V60H220.344ZM218.156 59H215.969V61H218.156V59ZM215.969 59H213.781V61H215.969V59ZM213.781 59H211.594V61H213.781V59ZM211.594 59H209.406V61H211.594V59ZM209.406 59H207.219V61H209.406V59ZM208.219 60V57.8125H206.219V60H208.219ZM207.219 56.8125H205.031V58.8125H207.219V56.8125ZM206.031 57.8125V55.625H204.031V57.8125H206.031ZM206.031 55.625V53.4375H204.031V55.625H206.031ZM206.031 53.4375V51.25H204.031V53.4375H206.031ZM206.031 51.25V49.0625H204.031V51.25H206.031ZM206.031 49.0625V46.875H204.031V49.0625H206.031ZM206.031 46.875V44.6875H204.031V46.875H206.031ZM206.031 44.6875V42.5H204.031V44.6875H206.031ZM206.031 42.5V40.3125H204.031V42.5H206.031ZM206.031 40.3125V38.125H204.031V40.3125H206.031ZM206.031 38.125V35.9375H204.031V38.125H206.031ZM205.031 36.9375H207.219V34.9375H205.031V36.9375ZM208.219 35.9375V33.75H206.219V35.9375H208.219ZM207.219 34.75H209.406V32.75H207.219V34.75ZM209.406 34.75H211.594V32.75H209.406V34.75ZM211.594 34.75H213.781V32.75H211.594V34.75ZM213.781 34.75H215.969V32.75H213.781V34.75ZM215.969 34.75H218.156V32.75H215.969V34.75ZM218.156 34.75H220.344V32.75H218.156V34.75ZM219.344 33.75V35.9375H221.344V33.75H219.344ZM220.344 36.9375H222.531V34.9375H220.344V36.9375ZM221.531 35.9375V38.125H223.531V35.9375H221.531ZM221.531 38.125V40.3125H223.531V38.125H221.531ZM221.531 40.3125V42.5H223.531V40.3125H221.531ZM222.531 41.5H220.344V43.5H222.531V41.5ZM220.344 41.5H218.156V43.5H220.344V41.5ZM219.156 42.5V40.3125H217.156V42.5H219.156ZM219.156 40.3125V38.125H217.156V40.3125H219.156ZM218.156 37.125H215.969V39.125H218.156V37.125ZM215.969 37.125H213.781V39.125H215.969V37.125ZM213.781 37.125H211.594V39.125H213.781V37.125ZM211.594 37.125H209.406V39.125H211.594V37.125ZM208.406 38.125V40.3125H210.406V38.125H208.406ZM208.406 40.3125V42.5H210.406V40.3125H208.406ZM208.406 42.5V44.6875H210.406V42.5H208.406ZM208.406 44.6875V46.875H210.406V44.6875H208.406ZM208.406 46.875V49.0625H210.406V46.875H208.406ZM208.406 49.0625V51.25H210.406V49.0625H208.406ZM208.406 51.25V53.4375H210.406V51.25H208.406ZM208.406 53.4375V55.625H210.406V53.4375H208.406ZM209.406 56.625H211.594V54.625H209.406V56.625ZM211.594 56.625H213.781V54.625H211.594V56.625ZM213.781 56.625H215.969V54.625H213.781V56.625ZM215.969 56.625H218.156V54.625H215.969V56.625ZM219.156 55.625V53.4375H217.156V55.625H219.156ZM219.156 53.4375V51.25H217.156V53.4375H219.156ZM218.156 50.25H215.969V52.25H218.156V50.25ZM215.969 50.25H213.781V52.25H215.969V50.25ZM214.781 51.25V49.0625H212.781V51.25H214.781ZM214.781 49.0625V46.875H212.781V49.0625H214.781ZM213.781 47.875H215.969V45.875H213.781V47.875ZM215.969 47.875H218.156V45.875H215.969V47.875ZM218.156 47.875H220.344V45.875H218.156V47.875ZM220.344 47.875H222.531V45.875H220.344V47.875ZM221.531 46.875V49.0625H223.531V46.875H221.531ZM221.531 49.0625V51.25H223.531V49.0625H221.531ZM221.531 51.25V53.4375H223.531V51.25H221.531ZM221.531 53.4375V55.625H223.531V53.4375H221.531ZM221.531 55.625V57.8125H223.531V55.625H221.531ZM222.531 56.8125H220.344V58.8125H222.531V56.8125ZM219.344 57.8125V60H221.344V57.8125H219.344ZM220.344 59H218.156V61H220.344V59ZM248.781 60H247.781V61H248.781V60ZM248.781 55.625H249.781V54.625H248.781V55.625ZM246.594 55.625H245.594V56.625H246.594V55.625ZM246.594 51.25H247.594V50.25H246.594V51.25ZM233.469 51.25V50.25H232.469V51.25H233.469ZM233.469 55.625V56.625H234.469V55.625H233.469ZM231.281 55.625V54.625H230.281V55.625H231.281ZM231.281 60V61H232.281V60H231.281ZM226.906 60H225.906V61H226.906V60ZM226.906 55.625V54.625H225.906V55.625H226.906ZM229.094 55.625V56.625H230.094V55.625H229.094ZM229.094 51.25V50.25H228.094V51.25H229.094ZM231.281 51.25V52.25H232.281V51.25H231.281ZM231.281 46.875V45.875H230.281V46.875H231.281ZM233.469 46.875V47.875H234.469V46.875H233.469ZM233.469 42.5V41.5H232.469V42.5H233.469ZM235.656 42.5V43.5H236.656V42.5H235.656ZM235.656 38.125V37.125H234.656V38.125H235.656ZM237.844 38.125V39.125H238.844V38.125H237.844ZM237.844 33.75V32.75H236.844V33.75H237.844ZM242.219 33.75H243.219V32.75H242.219V33.75ZM242.219 38.125H241.219V39.125H242.219V38.125ZM244.406 38.125H245.406V37.125H244.406V38.125ZM244.406 42.5H243.406V43.5H244.406V42.5ZM246.594 42.5H247.594V41.5H246.594V42.5ZM246.594 46.875H245.594V47.875H246.594V46.875ZM248.781 46.875H249.781V45.875H248.781V46.875ZM248.781 51.25H247.781V52.25H248.781V51.25ZM250.969 51.25H251.969V50.25H250.969V51.25ZM250.969 55.625H249.969V56.625H250.969V55.625ZM253.156 55.625H254.156V54.625H253.156V55.625ZM253.156 60V61H254.156V60H253.156ZM242.219 46.875V47.875H243.219V46.875H242.219ZM242.219 42.5H243.219V41.5H242.219V42.5ZM237.844 42.5V41.5H236.844V42.5H237.844ZM237.844 46.875H236.844V47.875H237.844V46.875ZM250.969 59H248.781V61H250.969V59ZM249.781 60V57.8125H247.781V60H249.781ZM249.781 57.8125V55.625H247.781V57.8125H249.781ZM248.781 54.625H246.594V56.625H248.781V54.625ZM247.594 55.625V53.4375H245.594V55.625H247.594ZM247.594 53.4375V51.25H245.594V53.4375H247.594ZM246.594 50.25H244.406V52.25H246.594V50.25ZM244.406 50.25H242.219V52.25H244.406V50.25ZM242.219 50.25H240.031V52.25H242.219V50.25ZM240.031 50.25H237.844V52.25H240.031V50.25ZM237.844 50.25H235.656V52.25H237.844V50.25ZM235.656 50.25H233.469V52.25H235.656V50.25ZM232.469 51.25V53.4375H234.469V51.25H232.469ZM232.469 53.4375V55.625H234.469V53.4375H232.469ZM233.469 54.625H231.281V56.625H233.469V54.625ZM230.281 55.625V57.8125H232.281V55.625H230.281ZM230.281 57.8125V60H232.281V57.8125H230.281ZM231.281 59H229.094V61H231.281V59ZM229.094 59H226.906V61H229.094V59ZM227.906 60V57.8125H225.906V60H227.906ZM227.906 57.8125V55.625H225.906V57.8125H227.906ZM226.906 56.625H229.094V54.625H226.906V56.625ZM230.094 55.625V53.4375H228.094V55.625H230.094ZM230.094 53.4375V51.25H228.094V53.4375H230.094ZM229.094 52.25H231.281V50.25H229.094V52.25ZM232.281 51.25V49.0625H230.281V51.25H232.281ZM232.281 49.0625V46.875H230.281V49.0625H232.281ZM231.281 47.875H233.469V45.875H231.281V47.875ZM234.469 46.875V44.6875H232.469V46.875H234.469ZM234.469 44.6875V42.5H232.469V44.6875H234.469ZM233.469 43.5H235.656V41.5H233.469V43.5ZM236.656 42.5V40.3125H234.656V42.5H236.656ZM236.656 40.3125V38.125H234.656V40.3125H236.656ZM235.656 39.125H237.844V37.125H235.656V39.125ZM238.844 38.125V35.9375H236.844V38.125H238.844ZM238.844 35.9375V33.75H236.844V35.9375H238.844ZM237.844 34.75H240.031V32.75H237.844V34.75ZM240.031 34.75H242.219V32.75H240.031V34.75ZM241.219 33.75V35.9375H243.219V33.75H241.219ZM241.219 35.9375V38.125H243.219V35.9375H241.219ZM242.219 39.125H244.406V37.125H242.219V39.125ZM243.406 38.125V40.3125H245.406V38.125H243.406ZM243.406 40.3125V42.5H245.406V40.3125H243.406ZM244.406 43.5H246.594V41.5H244.406V43.5ZM245.594 42.5V44.6875H247.594V42.5H245.594ZM245.594 44.6875V46.875H247.594V44.6875H245.594ZM246.594 47.875H248.781V45.875H246.594V47.875ZM247.781 46.875V49.0625H249.781V46.875H247.781ZM247.781 49.0625V51.25H249.781V49.0625H247.781ZM248.781 52.25H250.969V50.25H248.781V52.25ZM249.969 51.25V53.4375H251.969V51.25H249.969ZM249.969 53.4375V55.625H251.969V53.4375H249.969ZM250.969 56.625H253.156V54.625H250.969V56.625ZM252.156 55.625V57.8125H254.156V55.625H252.156ZM252.156 57.8125V60H254.156V57.8125H252.156ZM253.156 59H250.969V61H253.156V59ZM240.031 47.875H242.219V45.875H240.031V47.875ZM243.219 46.875V44.6875H241.219V46.875H243.219ZM243.219 44.6875V42.5H241.219V44.6875H243.219ZM242.219 41.5H240.031V43.5H242.219V41.5ZM240.031 41.5H237.844V43.5H240.031V41.5ZM236.844 42.5V44.6875H238.844V42.5H236.844ZM236.844 44.6875V46.875H238.844V44.6875H236.844ZM237.844 47.875H240.031V45.875H237.844V47.875ZM257.531 60H256.531V61H257.531V60ZM257.531 33.75V32.75H256.531V33.75H257.531ZM261.906 33.75H262.906V32.75H261.906V33.75ZM261.906 60V61H262.906V60H261.906ZM259.719 59H257.531V61H259.719V59ZM258.531 60V57.8125H256.531V60H258.531ZM258.531 57.8125V55.625H256.531V57.8125H258.531ZM258.531 55.625V53.4375H256.531V55.625H258.531ZM258.531 53.4375V51.25H256.531V53.4375H258.531ZM258.531 51.25V49.0625H256.531V51.25H258.531ZM258.531 49.0625V46.875H256.531V49.0625H258.531ZM258.531 46.875V44.6875H256.531V46.875H258.531ZM258.531 44.6875V42.5H256.531V44.6875H258.531ZM258.531 42.5V40.3125H256.531V42.5H258.531ZM258.531 40.3125V38.125H256.531V40.3125H258.531ZM258.531 38.125V35.9375H256.531V38.125H258.531ZM258.531 35.9375V33.75H256.531V35.9375H258.531ZM257.531 34.75H259.719V32.75H257.531V34.75ZM259.719 34.75H261.906V32.75H259.719V34.75ZM260.906 33.75V35.9375H262.906V33.75H260.906ZM260.906 35.9375V38.125H262.906V35.9375H260.906ZM260.906 38.125V40.3125H262.906V38.125H260.906ZM260.906 40.3125V42.5H262.906V40.3125H260.906ZM260.906 42.5V44.6875H262.906V42.5H260.906ZM260.906 44.6875V46.875H262.906V44.6875H260.906ZM260.906 46.875V49.0625H262.906V46.875H260.906ZM260.906 49.0625V51.25H262.906V49.0625H260.906ZM260.906 51.25V53.4375H262.906V51.25H260.906ZM260.906 53.4375V55.625H262.906V53.4375H260.906ZM260.906 55.625V57.8125H262.906V55.625H260.906ZM260.906 57.8125V60H262.906V57.8125H260.906ZM261.906 59H259.719V61H261.906V59ZM281.594 60H280.594V61H281.594V60ZM281.594 51.25H282.594V50.25H281.594V51.25ZM279.406 51.25H278.406V52.25H279.406V51.25ZM279.406 49.0625H280.406V48.0625H279.406V49.0625ZM277.219 49.0625H276.219V50.0625H277.219V49.0625ZM277.219 46.875H278.219V45.875H277.219V46.875ZM275.031 46.875H274.031V47.875H275.031V46.875ZM275.031 44.6875H276.031V43.6875H275.031V44.6875ZM272.844 44.6875H271.844V45.6875H272.844V44.6875ZM272.844 42.5H273.844V41.5H272.844V42.5ZM270.656 42.5V41.5H269.656V42.5H270.656ZM270.656 60V61H271.656V60H270.656ZM266.281 60H265.281V61H266.281V60ZM266.281 33.75V32.75H265.281V33.75H266.281ZM270.656 33.75H271.656V32.75H270.656V33.75ZM270.656 35.9375H269.656V36.9375H270.656V35.9375ZM272.844 35.9375H273.844V34.9375H272.844V35.9375ZM272.844 38.125H271.844V39.125H272.844V38.125ZM275.031 38.125H276.031V37.125H275.031V38.125ZM275.031 40.3125H274.031V41.3125H275.031V40.3125ZM277.219 40.3125H278.219V39.3125H277.219V40.3125ZM277.219 42.5H276.219V43.5H277.219V42.5ZM279.406 42.5H280.406V41.5H279.406V42.5ZM279.406 44.6875H278.406V45.6875H279.406V44.6875ZM281.594 44.6875V45.6875H282.594V44.6875H281.594ZM281.594 33.75V32.75H280.594V33.75H281.594ZM285.969 33.75H286.969V32.75H285.969V33.75ZM285.969 60V61H286.969V60H285.969ZM283.781 59H281.594V61H283.781V59ZM282.594 60V57.8125H280.594V60H282.594ZM282.594 57.8125V55.625H280.594V57.8125H282.594ZM282.594 55.625V53.4375H280.594V55.625H282.594ZM282.594 53.4375V51.25H280.594V53.4375H282.594ZM281.594 50.25H279.406V52.25H281.594V50.25ZM280.406 51.25V49.0625H278.406V51.25H280.406ZM279.406 48.0625H277.219V50.0625H279.406V48.0625ZM278.219 49.0625V46.875H276.219V49.0625H278.219ZM277.219 45.875H275.031V47.875H277.219V45.875ZM276.031 46.875V44.6875H274.031V46.875H276.031ZM275.031 43.6875H272.844V45.6875H275.031V43.6875ZM273.844 44.6875V42.5H271.844V44.6875H273.844ZM272.844 41.5H270.656V43.5H272.844V41.5ZM269.656 42.5V44.6875H271.656V42.5H269.656ZM269.656 44.6875V46.875H271.656V44.6875H269.656ZM269.656 46.875V49.0625H271.656V46.875H269.656ZM269.656 49.0625V51.25H271.656V49.0625H269.656ZM269.656 51.25V53.4375H271.656V51.25H269.656ZM269.656 53.4375V55.625H271.656V53.4375H269.656ZM269.656 55.625V57.8125H271.656V55.625H269.656ZM269.656 57.8125V60H271.656V57.8125H269.656ZM270.656 59H268.469V61H270.656V59ZM268.469 59H266.281V61H268.469V59ZM267.281 60V57.8125H265.281V60H267.281ZM267.281 57.8125V55.625H265.281V57.8125H267.281ZM267.281 55.625V53.4375H265.281V55.625H267.281ZM267.281 53.4375V51.25H265.281V53.4375H267.281ZM267.281 51.25V49.0625H265.281V51.25H267.281ZM267.281 49.0625V46.875H265.281V49.0625H267.281ZM267.281 46.875V44.6875H265.281V46.875H267.281ZM267.281 44.6875V42.5H265.281V44.6875H267.281ZM267.281 42.5V40.3125H265.281V42.5H267.281ZM267.281 40.3125V38.125H265.281V40.3125H267.281ZM267.281 38.125V35.9375H265.281V38.125H267.281ZM267.281 35.9375V33.75H265.281V35.9375H267.281ZM266.281 34.75H268.469V32.75H266.281V34.75ZM268.469 34.75H270.656V32.75H268.469V34.75ZM269.656 33.75V35.9375H271.656V33.75H269.656ZM270.656 36.9375H272.844V34.9375H270.656V36.9375ZM271.844 35.9375V38.125H273.844V35.9375H271.844ZM272.844 39.125H275.031V37.125H272.844V39.125ZM274.031 38.125V40.3125H276.031V38.125H274.031ZM275.031 41.3125H277.219V39.3125H275.031V41.3125ZM276.219 40.3125V42.5H278.219V40.3125H276.219ZM277.219 43.5H279.406V41.5H277.219V43.5ZM278.406 42.5V44.6875H280.406V42.5H278.406ZM279.406 45.6875H281.594V43.6875H279.406V45.6875ZM282.594 44.6875V42.5H280.594V44.6875H282.594ZM282.594 42.5V40.3125H280.594V42.5H282.594ZM282.594 40.3125V38.125H280.594V40.3125H282.594ZM282.594 38.125V35.9375H280.594V38.125H282.594ZM282.594 35.9375V33.75H280.594V35.9375H282.594ZM281.594 34.75H283.781V32.75H281.594V34.75ZM283.781 34.75H285.969V32.75H283.781V34.75ZM284.969 33.75V35.9375H286.969V33.75H284.969ZM284.969 35.9375V38.125H286.969V35.9375H284.969ZM284.969 38.125V40.3125H286.969V38.125H284.969ZM284.969 40.3125V42.5H286.969V40.3125H284.969ZM284.969 42.5V44.6875H286.969V42.5H284.969ZM284.969 44.6875V46.875H286.969V44.6875H284.969ZM284.969 46.875V49.0625H286.969V46.875H284.969ZM284.969 49.0625V51.25H286.969V49.0625H284.969ZM284.969 51.25V53.4375H286.969V51.25H284.969ZM284.969 53.4375V55.625H286.969V53.4375H284.969ZM284.969 55.625V57.8125H286.969V55.625H284.969ZM284.969 57.8125V60H286.969V57.8125H284.969ZM285.969 59H283.781V61H285.969V59Z" fill="#4D2000"/>
</g>
<defs>
<filter id="filter0_d_149_1766" x="60.6562" y="33.75" width="227.312" height="27.25" filterUnits="userSpaceOnUse" color-interpolation-filters="sRGB">
<feFlood flood-opacity="0" result="BackgroundImageFix"/>
<feColorMatrix in="SourceAlpha" type="matrix" values="0 0 0 0 0 0 0 0 0 0 0 0 0 0 0 0 0 0 127 0" result="hardAlpha"/>
<feOffset dx="2" dy="1"/>
<feComposite in2="hardAlpha" operator="out"/>
<feColorMatrix type="matrix" values="0 0 0 0 0.383333 0 0 0 0 0.092 0 0 0 0 0 0 0 0 1 0"/>
<feBlend mode="normal" in2="BackgroundImageFix" result="effect1_dropShadow_149_1766"/>
<feBlend mode="normal" in="SourceGraphic" in2="effect1_dropShadow_149_1766" result="shape"/>
</filter>
<linearGradient id="paint0_linear_149_1766" x1="0.0563684" y1="77.3914" x2="345.877" y2="77.3914" gradientUnits="userSpaceOnUse">
<stop stop-color="#2F2B33"/>
<stop offset="0.06" stop-color="#312C35"/>
<stop offset="0.09" stop-color="#38333D"/>
<stop offset="0.11" stop-color="#3F3945"/>
<stop offset="0.13" stop-color="#3A343F"/>
<stop offset="0.23" stop-color="#2D2931"/>
<stop offset="0.32" stop-color="#29252D"/>
<stop offset="1" stop-color="#27242B"/>
</linearGradient>
<linearGradient id="paint1_linear_149_1766" x1="172.938" y1="98.6161" x2="172.938" y2="0.0566406" gradientUnits="userSpaceOnUse">
<stop stop-color="#3A3642"/>
<stop offset="1" stop-color="#47424D"/>
</linearGradient>
<linearGradient id="paint2_linear_149_1766" x1="172.995" y1="88.963" x2="172.995" y2="9.70898" gradientUnits="userSpaceOnUse">
<stop stop-color="#413D47"/>
<stop offset="1" stop-color="#2F2C36"/>
</linearGradient>
<radialGradient id="paint3_radial_149_1766" cx="0" cy="0" r="1" gradientUnits="userSpaceOnUse" gradientTransform="translate(10.259 -57.1827) scale(211.1 211.401)">
<stop stop-color="#B39DA3"/>
<stop offset="1" stop-color="white"/>
</radialGradient>
<radialGradient id="paint4_radial_149_1766" cx="0" cy="0" r="1" gradientUnits="userSpaceOnUse" gradientTransform="translate(126.66 -28.0552) scale(298.245 298.67)">
<stop stop-color="#B39DA3"/>
<stop offset="1" stop-color="white"/>
</radialGradient>
<radialGradient id="paint5_radial_149_1766" cx="0" cy="0" r="1" gradientUnits="userSpaceOnUse" gradientTransform="translate(31.7354 179.733) scale(312.788 313.234)">
<stop stop-color="#B39DA3"/>
<stop offset="1" stop-color="white"/>
</radialGradient>
<linearGradient id="paint6_linear_149_1766" x1="9.69537" y1="30.4259" x2="336.237" y2="30.4259" gradientUnits="userSpaceOnUse">
<stop stop-color="#221F26"/>
<stop offset="0.1" stop-color="#2B2830"/>
<stop offset="0.25" stop-color="#332F38"/>
<stop offset="0.5" stop-color="#36323B"/>
<stop offset="0.75" stop-color="#332F38"/>
<stop offset="0.9" stop-color="#2B2830"/>
<stop offset="1" stop-color="#221F26"/>
</linearGradient>
<radialGradient id="paint7_radial_149_1766" cx="0" cy="0" r="1" gradientUnits="userSpaceOnUse" gradientTransform="translate(53.55 -194.748) scale(423.327 423.93)">
<stop stop-color="#00FFA3"/>
<stop offset="1"/>
</radialGradient>
<linearGradient id="paint8_linear_149_1766" x1="172.938" y1="86.5361" x2="172.938" y2="12.1367" gradientUnits="userSpaceOnUse">
<stop stop-color="#FF4B19"/>
<stop offset="1" stop-color="#FF7E33"/>
</linearGradient>
<linearGradient id="paint9_linear_149_1766" x1="172.938" y1="79.3109" x2="172.938" y2="19.3623" gradientUnits="userSpaceOnUse">
<stop stop-color="#FA5819"/>
<stop offset="1" stop-color="#FF9633"/>
</linearGradient>
<linearGradient id="paint10_linear_149_1766" x1="172.938" y1="49.3362" x2="172.938" y2="20.8296" gradientUnits="userSpaceOnUse">
<stop stop-color="#471808"/>
<stop offset="1" stop-color="#E94E1B"/>
</linearGradient>
<linearGradient id="paint11_linear_149_1766" x1="172.938" y1="49.3364" x2="172.938" y2="12.1367" gradientUnits="userSpaceOnUse">
<stop/>
<stop offset="1" stop-color="#E94E1B"/>
</linearGradient>
<linearGradient id="paint12_linear_149_1766" x1="172.938" y1="86.5361" x2="172.938" y2="49.3364" gradientUnits="userSpaceOnUse">
<stop stop-color="#BF9E94"/>
<stop offset="1" stop-color="white"/>
</linearGradient>
<radialGradient id="paint13_radial_149_1766" cx="0" cy="0" r="1" gradientUnits="userSpaceOnUse" gradientTransform="translate(63.2453 5.92738) scale(344.129 344.62)">
<stop stop-color="#FFED44"/>
<stop offset="1"/>
</radialGradient>
</defs>
</svg>
