<svg width="111" height="100" viewBox="0 0 111 100" fill="none" xmlns="http://www.w3.org/2000/svg">
<g filter="url(#filter0_d_9_16106)">
<path d="M79.1189 17.7843L71.6381 23.621L55.1053 25.7675L39.0384 23.5936L31.183 17.5285L39.4494 11.4452L48.9946 9.70972L61.0425 9.77366L72.1039 11.9933L79.1189 17.7843Z" fill="#9B95F2"/>
<path opacity="0.55" d="M39.4768 11.4635H39.4494L31.183 17.5286L39.0384 23.5936L55.1053 25.7767L68.0941 24.0869C63.189 24.0503 37.4764 19.5929 39.4768 11.4635Z" fill="#D3D0F9"/>
<path d="M71.6381 23.621L55.1053 25.7676L39.0384 23.5936L31.183 17.5286L39.5499 22.662L55.1144 24.708L71.6381 23.621Z" fill="white"/>
<path d="M79.119 17.7843L71.6381 23.621L80.4983 46.429L97.095 35.806L79.119 17.7843Z" fill="url(#paint0_linear_9_16106)"/>
<path opacity="0.72" d="M82.2611 40.6105C79.4021 39.8159 71.629 23.621 71.629 23.621L80.4982 46.4198L97.095 35.7968C97.095 35.7968 85.1292 41.4052 82.2702 40.6014L82.2611 40.6105Z" fill="#430282"/>
<path d="M71.638 23.621L55.1053 25.7676L55.2697 50.4937L80.4982 46.429L71.638 23.621Z" fill="url(#paint1_linear_9_16106)"/>
<path opacity="0.55" d="M60.3665 45.1867C56.9412 42.5652 55.1053 25.7767 55.1053 25.7767L55.2697 50.5028L80.4982 46.429C80.4982 46.429 64.6596 48.475 60.3665 45.1867Z" fill="#7A0387"/>
<path d="M55.1053 25.7676L39.0384 23.5936L29.4932 46.502L55.2697 50.4937L55.1053 25.7676Z" fill="#7824BA"/>
<path d="M55.1053 25.7676L39.0383 23.5936L55.2697 50.4937L55.1053 25.7676Z" fill="#746BEE"/>
<path d="M48.1908 24.8267L39.0384 23.5845L29.4932 46.4929L42.6464 48.5298C44.7472 40.6744 46.8663 32.8282 48.1999 24.8176L48.1908 24.8267Z" fill="url(#paint2_linear_9_16106)"/>
<path d="M39.0384 23.5936L31.183 17.5286L13.5998 35.3584L29.4932 46.5021L39.0384 23.5936Z" fill="#9157DD"/>
<path d="M29.5206 40.0716C26.2506 42.5013 22.8893 40.5557 17.0799 37.8063L29.4841 46.502L39.0293 23.5936L29.5115 40.0716H29.5206Z" fill="#430282"/>
<path d="M80.4982 46.4289L56.7312 82.1343C57.4436 82.0338 58.22 81.705 59.0147 80.9834L97.0949 35.8151L80.4982 46.4381V46.4289Z" fill="#9641F9"/>
<path d="M29.4932 46.502L13.5998 35.3675L53.379 80.9468C53.379 80.9468 54.0458 81.6228 55.0779 81.9699C56.1192 82.317 29.4841 46.5111 29.4841 46.5111L29.4932 46.502Z" fill="#B43AC1"/>
<path d="M80.4982 46.429L55.2697 50.5028L56.0096 82.1526C56.6855 82.1982 57.4528 82.0612 58.2566 81.5497C58.5032 81.3944 80.4982 46.429 80.4982 46.429Z" fill="#9F15AA"/>
<path d="M80.4982 46.4289L55.2697 50.5028L56.0096 82.1525C56.6855 82.1982 57.4528 82.0612 58.2566 81.5497C58.3936 81.4584 62.6684 56.9058 62.6684 56.9058L80.4982 46.4198V46.4289Z" fill="#49379E"/>
<path d="M55.2697 50.4936L29.4932 46.4929C29.4932 46.4929 53.7261 81.2848 54.3015 81.6045C54.9044 81.9424 55.7538 82.253 56.7312 82.1251L55.2697 50.4936Z" fill="#EE71DE"/>
<path d="M55.2697 50.4936L29.4932 46.4929L48.0264 56.4125C48.0264 56.4125 54.0092 81.4401 54.2924 81.6045C54.8952 81.9424 55.7447 82.253 56.7221 82.1251L55.2606 50.4936H55.2697Z" fill="#9D41A2"/>
</g>
<defs>
<filter id="filter0_d_9_16106" x="0.599792" y="0.709717" width="109.495" height="98.451" filterUnits="userSpaceOnUse" color-interpolation-filters="sRGB">
<feFlood flood-opacity="0" result="BackgroundImageFix"/>
<feColorMatrix in="SourceAlpha" type="matrix" values="0 0 0 0 0 0 0 0 0 0 0 0 0 0 0 0 0 0 127 0" result="hardAlpha"/>
<feOffset dy="4"/>
<feGaussianBlur stdDeviation="6.5"/>
<feComposite in2="hardAlpha" operator="out"/>
<feColorMatrix type="matrix" values="0 0 0 0 0 0 0 0 0 0 0 0 0 0 0 0 0 0 0.36 0"/>
<feBlend mode="normal" in2="BackgroundImageFix" result="effect1_dropShadow_9_16106"/>
<feBlend mode="normal" in="SourceGraphic" in2="effect1_dropShadow_9_16106" result="shape"/>
</filter>
<linearGradient id="paint0_linear_9_16106" x1="71.6018" y1="32.0455" x2="97.1222" y2="32.1792" gradientUnits="userSpaceOnUse">
<stop stop-color="#9873C0"/>
<stop offset="1" stop-color="#EE6BDD"/>
</linearGradient>
<linearGradient id="paint1_linear_9_16106" x1="52.8302" y1="28.6589" x2="78.5192" y2="48.9436" gradientUnits="userSpaceOnUse">
<stop stop-color="#7746AB"/>
<stop offset="1" stop-color="#EE6EDE"/>
</linearGradient>
<linearGradient id="paint2_linear_9_16106" x1="38.7875" y1="48.5072" x2="38.918" y2="23.5805" gradientUnits="userSpaceOnUse">
<stop stop-color="#EEC0FF"/>
<stop offset="1" stop-color="white"/>
</linearGradient>
</defs>
</svg>
