<svg width="108" height="98" viewBox="0 0 108 98" fill="none" xmlns="http://www.w3.org/2000/svg">
<g filter="url(#filter0_d_9_16086)">
<path d="M77.1886 17.264L69.8904 23.0551L53.6865 25.2929L37.9027 23.2743L30.1387 17.3828L38.2041 11.3451L47.5666 9.56396L59.3862 9.53656L70.2741 11.6465L77.1886 17.264Z" fill="#FFBBD0"/>
<path opacity="0.55" d="M38.2406 11.3634L38.2132 11.3451L30.1478 17.3736L37.9027 23.2651L53.6865 25.2838L66.4286 23.53C61.6058 23.53 36.3407 19.3466 38.2406 11.3542V11.3634Z" fill="#FFE1EB"/>
<path d="M69.8904 23.0551L53.6865 25.293L37.9027 23.2743L30.1387 17.3828L38.3959 22.3518L53.6865 24.2426L69.8904 23.0551Z" fill="white"/>
<path d="M77.1886 17.264L69.8904 23.0551L78.7688 45.3698L94.9728 34.8198L77.1886 17.264Z" fill="url(#paint0_linear_9_16086)"/>
<path opacity="0.73" d="M80.4586 39.6518C77.6453 38.8936 69.8996 23.0551 69.8996 23.0551L78.778 45.3698L94.9819 34.8198C94.9819 34.8198 83.2811 40.4099 80.4678 39.6518H80.4586Z" fill="#630121"/>
<path d="M69.8904 23.0551L53.6865 25.2929L54.0244 49.5532L78.7688 45.3698L69.8904 23.0551Z" fill="url(#paint1_linear_9_16086)"/>
<path opacity="0.55" d="M58.9934 44.3011C55.6138 41.7527 53.6865 25.293 53.6865 25.293L54.0336 49.5624L78.778 45.3789C78.778 45.3789 63.2499 47.5072 59.0026 44.3102L58.9934 44.3011Z" fill="#AA003F"/>
<path d="M53.6865 25.2929L37.9027 23.2743L28.6955 45.8265L54.0245 49.5532L53.6865 25.2929Z" fill="#E53C73"/>
<path d="M53.6865 25.2929L37.9027 23.2743L54.0244 49.5532L53.6865 25.2929Z" fill="#FFA1BF"/>
<path d="M46.8907 24.4252L37.8936 23.2743L28.6955 45.8265L41.6203 47.7264C43.6207 40.008 45.6393 32.2806 46.8907 24.4161V24.4252Z" fill="url(#paint2_linear_9_16086)"/>
<path d="M37.9027 23.2743L30.1387 17.3828L13.0213 35.0117L28.6955 45.8265L37.9027 23.2743Z" fill="#F96B92"/>
<path d="M28.6772 39.5148C25.4802 41.917 22.1737 40.0445 16.4466 37.3774L28.6955 45.8173L37.8935 23.2651L28.6772 39.5148Z" fill="#D82762"/>
<path d="M78.7688 45.3698L55.7051 80.591C56.3993 80.4906 57.1574 80.1617 57.943 79.431L94.9727 34.8107L78.7688 45.3607V45.3698Z" fill="#AF083E"/>
<path d="M28.6955 45.8265L13.0121 35.0117L52.3985 79.4493C52.3985 79.4493 53.0562 80.107 54.0792 80.4449C55.1023 80.7738 28.6955 45.8265 28.6955 45.8265Z" fill="#E52C77"/>
<path d="M78.7688 45.3698L54.0244 49.5532L54.9927 80.6184C55.6595 80.6641 56.4085 80.518 57.2031 80.0064C57.4406 79.8512 78.7688 45.3607 78.7688 45.3607V45.3698Z" fill="#93022C"/>
<path d="M78.7688 45.3698L54.0244 49.5532L54.9927 80.6184C55.6595 80.6641 56.4085 80.518 57.2031 80.0064C57.3401 79.9151 61.3409 55.7827 61.3409 55.7827L78.7688 45.3607V45.3698Z" fill="#770122"/>
<path d="M54.0245 49.5532L28.6955 45.8174C28.6955 45.8174 52.7365 79.7781 53.3029 80.0978C53.8966 80.4266 54.7369 80.7281 55.696 80.5819L54.0245 49.5441V49.5532Z" fill="#C1003B"/>
<path d="M54.0245 49.5532L28.6955 45.8174L46.9638 55.4174C46.9638 55.4174 53.0197 79.9425 53.3029 80.0978C53.8966 80.4266 54.7369 80.7281 55.696 80.5819L54.0245 49.5441V49.5532Z" fill="#A50233"/>
</g>
<defs>
<filter id="filter0_d_9_16086" x="0.012146" y="0.53656" width="107.97" height="97.0897" filterUnits="userSpaceOnUse" color-interpolation-filters="sRGB">
<feFlood flood-opacity="0" result="BackgroundImageFix"/>
<feColorMatrix in="SourceAlpha" type="matrix" values="0 0 0 0 0 0 0 0 0 0 0 0 0 0 0 0 0 0 127 0" result="hardAlpha"/>
<feOffset dy="4"/>
<feGaussianBlur stdDeviation="6.5"/>
<feComposite in2="hardAlpha" operator="out"/>
<feColorMatrix type="matrix" values="0 0 0 0 0 0 0 0 0 0 0 0 0 0 0 0 0 0 0.36 0"/>
<feBlend mode="normal" in2="BackgroundImageFix" result="effect1_dropShadow_9_16086"/>
<feBlend mode="normal" in="SourceGraphic" in2="effect1_dropShadow_9_16086" result="shape"/>
</filter>
<linearGradient id="paint0_linear_9_16086" x1="69.9115" y1="31.3466" x2="94.9664" y2="31.2897" gradientUnits="userSpaceOnUse">
<stop stop-color="#FC7AA3"/>
<stop offset="1" stop-color="#D80049"/>
</linearGradient>
<linearGradient id="paint1_linear_9_16086" x1="51.4716" y1="28.1549" x2="76.8271" y2="47.882" gradientUnits="userSpaceOnUse">
<stop stop-color="#EB568C"/>
<stop offset="1" stop-color="#C90C4A"/>
</linearGradient>
<linearGradient id="paint2_linear_9_16086" x1="37.8331" y1="47.7513" x2="37.7775" y2="23.281" gradientUnits="userSpaceOnUse">
<stop stop-color="#FFE6F7"/>
<stop offset="1" stop-color="white"/>
</linearGradient>
</defs>
</svg>
