<svg width="136" height="141" viewBox="0 0 136 141" fill="none" xmlns="http://www.w3.org/2000/svg">
<path d="M135.106 69.6136C134.863 68.3973 134.62 66.9378 134.376 65.5187C132.593 38.8409 132.025 16.2986 126.106 3.93275C118.402 2.43263 94.8057 0.405438 82.1966 0C82.1966 0 82.1966 0 82.1561 0C81.7101 0 81.2641 0.0405438 80.8587 0.0810875C51.1806 2.02719 17.4077 5.10851 11.245 7.37897C6.29869 14.4741 3.2579 28.259 1.63615 37.3814C1.55507 37.7462 1.51452 38.1111 1.43343 38.476C1.43343 38.5166 1.43343 38.5571 1.43343 38.5977C0.703647 47.0713 -0.837016 82.5471 0.582016 96.332C0.541472 97.2645 0.460384 98.1159 0.419841 98.8862C0.500928 99.4944 0.541472 100.143 0.62256 100.832C1.59561 107.117 4.10932 114.577 6.33923 119.523C6.74467 120.618 7.15011 121.672 7.59609 122.685C9.62328 127.551 11.5288 131.037 13.11 133.592C13.9615 135.011 14.7318 136.146 15.2589 136.916C22.7595 136.835 56.0864 138.862 76.0745 140.444C101.252 139.471 121.93 137.16 129.633 133.024L132.714 122.807C135.795 101.522 135.025 80.2361 135.187 69.6136H135.106Z" fill="#924000"/>
<path fill-rule="evenodd" clip-rule="evenodd" d="M6.74475 92.237L1.06862 102.738C1.67678 106.225 4.43375 114.496 6.25822 119.563C9.78553 128.929 13.2317 134.119 15.1778 136.957C22.6784 136.876 56.0054 138.903 75.9935 140.484C101.171 139.511 121.848 137.2 129.552 133.065L132.633 122.848L133.201 92.237H6.74475Z" fill="url(#paint0_linear_9_16127)"/>
<path style="mix-blend-mode:screen" fill-rule="evenodd" clip-rule="evenodd" d="M121.2 132.213C118.929 132.092 117.064 134.159 114.794 134.524C112.605 134.889 78.9128 138.984 78.5479 138.944C66.9118 136.795 48.8698 134.93 43.3153 134.281C41.2881 134.038 24.7463 133.308 17.043 133.551C14.1644 125.321 11.8128 124.956 6.25832 119.523C9.33964 127.794 13.3535 134.403 15.1779 136.916C22.6785 136.835 56.0055 138.862 75.9936 140.444C101.171 139.471 121.849 137.16 129.552 133.024L130.93 128.483C127.444 131.483 122.416 132.254 121.24 132.173L121.2 132.213Z" fill="url(#paint1_radial_9_16127)"/>
<path fill-rule="evenodd" clip-rule="evenodd" d="M0.541518 100.873C1.51457 107.157 4.02828 114.617 6.25819 119.564L50.2076 128.159C76.034 128.159 111.51 126.132 132.633 122.888C135.714 101.603 134.944 80.3172 135.106 69.6947C125.538 63.6132 120.429 61.2616 110.05 56.4775C75.4664 40.341 39.423 40.0572 1.43348 38.5166C1.43348 38.5571 1.43348 38.5977 1.43348 38.6382C0.703693 47.1118 -0.83697 82.5876 0.582062 96.3725V100.873H0.541518Z" fill="url(#paint2_radial_9_16127)"/>
<path fill-rule="evenodd" clip-rule="evenodd" d="M74.088 41.3546C73.2366 27.813 76.4801 13.0551 80.8183 0.0810547C51.1808 2.02716 17.4078 5.10848 11.2451 7.37893C6.29881 14.4741 3.25803 28.259 1.63628 37.3813C9.94775 37.7057 17.5294 37.9489 23.2056 38.1516C41.207 38.7598 50.3293 39.0842 74.1285 41.3546H74.088Z" fill="url(#paint3_radial_9_16127)"/>
<path fill-rule="evenodd" clip-rule="evenodd" d="M82.1968 0C78.9939 9.77105 77.0478 20.88 76.6829 31.5431C76.4396 39.4491 78.1019 42.3277 81.7509 43.098C92.4139 45.3279 101.982 49.7472 111.267 54.0448C120.673 58.4236 127.484 62.113 134.417 65.5187C132.633 38.8409 132.066 16.2986 126.146 3.93275C118.402 2.43263 94.806 0.405438 82.1968 0Z" fill="url(#paint4_radial_9_16127)"/>
<path fill-rule="evenodd" clip-rule="evenodd" d="M1.43346 38.5166C39.423 40.0572 75.4664 40.341 110.091 56.3964C120.47 61.2211 125.578 63.5321 135.147 69.6136C134.904 68.3973 134.66 66.9378 134.417 65.5187C126.714 61.5049 120.673 58.4236 111.267 54.0448C101.982 49.7472 92.3731 45.3279 81.7507 43.098C78.1017 42.3277 76.4394 39.4491 76.6827 31.5431C77.0476 20.88 78.9937 9.77105 82.1966 0C82.1966 0 82.1966 0 82.1561 0C81.7101 0 81.2641 0.0405438 80.8587 0.0810875C76.5205 13.0551 73.277 27.8536 74.1284 41.3546C50.3292 39.0842 41.2474 38.7598 23.2055 38.1517C17.5293 37.949 9.94765 37.7462 1.63618 37.3814C1.55509 37.7462 1.51454 38.1111 1.43346 38.476V38.5166ZM29.733 112.347C20.8539 106.954 11.4478 101.643 0.541493 96.3725C0.50095 97.305 0.419862 98.1565 0.379318 98.9268C0.460406 99.5349 0.50095 100.184 0.582037 100.873C15.3805 105.089 34.7604 118.226 50.2481 128.118C47.1668 123.334 34.801 115.388 29.7735 112.347H29.733Z" fill="url(#paint5_linear_9_16127)"/>
<path style="mix-blend-mode:screen" opacity="0.35" d="M135.106 69.6136C134.863 68.3973 134.62 66.9378 134.376 65.5187C132.593 38.8409 132.025 16.2986 126.106 3.93275C118.402 2.43263 94.8057 0.405438 82.1966 0C82.1966 0 82.1966 0 82.1561 0C81.7101 0 81.2641 0.0405438 80.8587 0.0810875C51.1806 2.02719 17.4077 5.10851 11.245 7.37897C6.29869 14.4741 3.2579 28.259 1.63615 37.3814C1.55507 37.7462 1.51452 38.1111 1.43343 38.476C1.43343 38.5166 1.43343 38.5571 1.43343 38.5977C0.703647 47.0713 -0.837016 82.5471 0.582016 96.332C0.541472 97.2645 0.460384 98.1159 0.419841 98.8862C0.500928 99.4944 0.541472 100.143 0.62256 100.832C1.59561 107.117 4.10932 114.577 6.33923 119.523C6.74467 120.618 7.15011 121.672 7.59609 122.685C9.62328 127.551 11.5288 131.037 13.11 133.592C13.9615 135.011 14.7318 136.146 15.2589 136.916C22.7595 136.835 56.0864 138.862 76.0745 140.444C101.252 139.471 121.93 137.16 129.633 133.024L132.714 122.807C135.795 101.522 135.025 80.2361 135.187 69.6136H135.106Z" fill="url(#paint6_radial_9_16127)"/>
<defs>
<linearGradient id="paint0_linear_9_16127" x1="67.1144" y1="140.484" x2="67.1144" y2="92.237" gradientUnits="userSpaceOnUse">
<stop offset="0.43" stop-color="#884329"/>
<stop offset="1" stop-color="#57280C"/>
</linearGradient>
<radialGradient id="paint1_radial_9_16127" cx="0" cy="0" r="1" gradientUnits="userSpaceOnUse" gradientTransform="translate(40.5989 63.3699) scale(143.768 143.768)">
<stop stop-color="#160E0C"/>
<stop offset="0.15" stop-color="#19100C"/>
<stop offset="0.31" stop-color="#25160D"/>
<stop offset="0.46" stop-color="#39220F"/>
<stop offset="0.61" stop-color="#553112"/>
<stop offset="0.77" stop-color="#7A4516"/>
<stop offset="0.92" stop-color="#A55E1A"/>
<stop offset="1" stop-color="#C06D1D"/>
</radialGradient>
<radialGradient id="paint2_radial_9_16127" cx="0" cy="0" r="1" gradientUnits="userSpaceOnUse" gradientTransform="translate(12.7452 8.23037) scale(168.297)">
<stop stop-color="#CD9463"/>
<stop offset="1" stop-color="#734324"/>
</radialGradient>
<radialGradient id="paint3_radial_9_16127" cx="0" cy="0" r="1" gradientUnits="userSpaceOnUse" gradientTransform="translate(66.9117 78.2494) scale(131.767 131.767)">
<stop stop-color="#CD9463"/>
<stop offset="1" stop-color="#734324"/>
</radialGradient>
<radialGradient id="paint4_radial_9_16127" cx="0" cy="0" r="1" gradientUnits="userSpaceOnUse" gradientTransform="translate(27.0168 88.2232) scale(139.592 139.592)">
<stop stop-color="#CD9463"/>
<stop offset="1" stop-color="#734324"/>
</radialGradient>
<linearGradient id="paint5_linear_9_16127" x1="97.8465" y1="106.914" x2="14.9751" y2="24.0424" gradientUnits="userSpaceOnUse">
<stop stop-color="#85451A"/>
<stop offset="1" stop-color="#D49765"/>
</linearGradient>
<radialGradient id="paint6_radial_9_16127" cx="0" cy="0" r="1" gradientUnits="userSpaceOnUse" gradientTransform="translate(15.867 5.02743) scale(132.821 132.821)">
<stop stop-color="#F39200"/>
<stop offset="0.45" stop-color="#B63000"/>
<stop offset="0.52" stop-color="#9D2900"/>
<stop offset="0.85" stop-color="#2E0B00"/>
<stop offset="1" stop-color="#030000"/>
</radialGradient>
</defs>
</svg>
