<svg width="134" height="138" viewBox="0 0 134 138" fill="none" xmlns="http://www.w3.org/2000/svg">
<path fill-rule="evenodd" clip-rule="evenodd" d="M124.926 2.88651C124.365 2.48604 122.363 1.52492 120.921 1.12445C111.07 1.52492 101.339 1.52492 91.6473 1.12445H88.8441C85.7605 3.92772 82.5968 6.73099 79.3931 9.45416C82.5968 6.69094 85.7605 3.92772 88.8441 1.12445C69.6217 -0.51746 46.1143 -0.237133 24.3689 1.1645C18.442 2.04553 12.4751 3.28697 6.54815 4.7687C5.82731 4.96893 4.94628 5.64973 4.78609 5.89001C4.02521 6.89117 2.62357 9.5743 2.34325 10.6956C4.58586 41.5315 2.42334 74.3698 0.701332 84.5817C1.42217 83.8609 2.22311 83.0199 3.06409 82.1789C2.22311 83.06 1.42217 83.8609 0.701332 84.5817C0.621239 85.5028 0.541145 86.1836 0.501099 86.6641C0.621239 87.2248 0.701332 87.8255 0.821472 88.4262C1.34208 91.3096 1.98283 94.7536 2.66362 98.0374C3.5046 103.924 7.26899 118.701 9.19123 121.064C9.67179 121.745 10.5128 122.746 11.594 123.948C12.3149 124.749 13.1959 125.67 14.117 126.591C14.3573 126.831 14.5575 127.071 14.8378 127.312C16.72 129.194 18.7223 131.196 20.6446 132.998C20.8849 133.198 21.0851 133.399 21.2853 133.599C22.2464 134.48 23.1275 135.321 23.9284 136.082C28.6539 136.482 44.1119 136.362 73.6664 136.682C89.4047 136.843 106.825 137.323 114.914 136.522C116.636 135.321 124.926 130.355 128.17 127.472L128.891 125.149L131.374 117.14C131.694 116.259 131.694 74.3298 132.255 39.7294C132.295 36.2053 132.375 32.7613 132.455 29.4375C132.575 22.6295 132.775 16.3422 132.976 11.016C131.654 9.17383 126.007 3.64739 124.886 2.92655L124.926 2.88651ZM50.4393 31.64C52.0011 30.5988 53.563 29.5175 55.1248 28.3962C53.603 29.4775 52.0412 30.5988 50.5194 31.6801C50.5194 31.6801 50.5194 31.6801 50.4794 31.6801L50.4393 31.64ZM69.5816 17.5836C71.7842 15.8216 73.9868 13.9794 76.1493 12.1773C73.9868 13.9794 71.8242 15.8216 69.5816 17.5836ZM59.4899 25.3126C61.5322 23.7909 63.5346 22.229 65.577 20.6672C63.5746 22.229 61.5322 23.7909 59.4899 25.3126ZM44.8328 36.9262C44.8328 36.9262 44.6726 37.1264 44.5524 37.2466C44.6726 37.1264 44.7527 37.0463 44.8328 36.9262ZM42.5902 39.4892C42.5902 39.4892 42.43 39.6494 42.3499 39.7294C42.43 39.6494 42.5101 39.5693 42.5902 39.4892ZM40.2675 42.0522C40.2675 42.0522 39.907 42.4526 39.7468 42.6529C39.907 42.4526 40.1073 42.2524 40.2675 42.0522ZM37.6644 44.9355C37.3841 45.2158 37.1438 45.5362 36.8635 45.8165C37.1438 45.4962 37.3841 45.2158 37.6644 44.9355ZM31.8577 51.383C31.3771 51.9437 30.8565 52.4643 30.3759 53.0249C30.8965 52.4643 31.3771 51.9437 31.8577 51.383ZM28.7741 54.7469C28.1333 55.4678 27.4926 56.1486 26.8118 56.8694C27.4525 56.1486 28.0933 55.4678 28.7741 54.7469ZM18.5221 65.8399C17.7612 66.6408 17.0404 67.4417 16.2795 68.2427C17.0003 67.4417 17.7612 66.6408 18.5221 65.8399ZM15.1582 69.4441C14.3973 70.245 13.6364 71.0459 12.9156 71.8469C13.6765 71.0459 14.3973 70.245 15.1582 69.4441ZM8.67062 76.3321C7.98983 77.0529 7.30903 77.7738 6.66829 78.4546C7.30903 77.7738 7.98983 77.093 8.67062 76.3321Z" fill="#924000"/>
<path fill-rule="evenodd" clip-rule="evenodd" d="M4.30568 91.4697L2.70381 98.0374C3.54479 103.924 7.30918 118.701 9.23142 121.064C11.1136 123.827 19.203 131.757 23.9686 136.122C28.6941 136.522 44.1521 136.402 73.7066 136.722C89.4449 136.883 106.865 137.363 114.955 136.562C116.677 135.361 124.966 130.395 128.21 127.512L131.414 117.18L128.611 91.5098H4.30568V91.4697Z" fill="url(#paint0_linear_9_17159)"/>
<path fill-rule="evenodd" clip-rule="evenodd" d="M47.8764 33.402C62.173 24.0311 76.0692 12.738 88.8041 1.16446C69.6217 -0.517496 46.1143 -0.237169 24.369 1.16446C18.442 2.04549 12.4751 3.28694 6.54819 4.76866C5.82734 4.9689 4.94632 5.64969 4.78613 5.88997C4.02524 6.89114 2.62361 9.57427 2.34328 10.6956C4.5859 41.5315 2.42338 74.3698 0.70137 84.5817C12.5952 72.5276 40.708 41.7718 47.8764 33.362V33.402Z" fill="url(#paint1_radial_9_17159)"/>
<path fill-rule="evenodd" clip-rule="evenodd" d="M91.6471 1.16443C78.1514 13.3787 64.4554 25.6329 49.3578 35.5245C40.7478 41.1711 12.2345 76.7725 0.821243 88.4662C1.34185 91.3495 1.9826 94.7935 2.66339 98.0774C3.7847 103.644 5.06619 108.81 6.14745 110.412C8.14979 113.335 16.6797 121.665 21.6856 126.23C26.2909 127.752 60.4107 130.235 73.5861 131.036C84.5188 121.665 95.4916 111.573 108.146 104.605C109.948 100.12 111.791 95.7547 113.593 91.4697C117.637 81.7383 121.482 72.4075 124.445 62.7162C127.649 52.3441 130.332 41.2511 132.495 29.4374C132.615 22.6294 132.815 16.3421 133.015 11.0159C131.694 9.17376 126.047 3.64732 124.926 2.92648C124.365 2.52602 122.363 1.5649 120.921 1.16443C111.07 1.5649 101.338 1.5649 91.6471 1.16443Z" fill="url(#paint2_radial_9_17159)"/>
<path fill-rule="evenodd" clip-rule="evenodd" d="M125.887 63.3169C122.964 72.808 119.76 81.9787 116.156 91.4697C114.474 95.8749 112.752 100.32 110.909 104.885C111.63 106.728 123.204 112.654 131.373 117.26C131.373 117.26 131.453 117.18 131.493 117.18C131.814 116.299 131.814 74.3698 132.374 39.7695C130.372 48.0191 128.25 55.7881 125.927 63.357L125.887 63.3169Z" fill="url(#paint3_radial_9_17159)"/>
<path fill-rule="evenodd" clip-rule="evenodd" d="M130.012 118.341C120.961 113.255 112.832 109.611 109.027 109.13C97.1735 110.532 86.0806 121.825 77.3904 131.156C83.9581 130.916 111.51 128.112 117.477 126.671C119.079 125.549 126.007 121.385 130.012 118.341Z" fill="url(#paint4_radial_9_17159)"/>
<path fill-rule="evenodd" clip-rule="evenodd" d="M113.593 91.4697C111.791 95.7547 109.989 100.12 108.146 104.605C95.4917 111.573 84.5189 121.665 73.5862 131.036C74.6274 131.116 75.5084 131.156 76.2693 131.196C76.5096 131.196 76.87 131.196 77.3906 131.196C86.0808 121.825 97.1737 110.572 109.028 109.17C112.832 109.651 120.961 113.295 130.012 118.381C130.493 117.981 130.973 117.62 131.374 117.3C123.204 112.694 111.631 106.768 110.91 104.925C112.752 100.36 114.514 95.9149 116.156 91.5098C119.76 82.0187 122.964 72.8481 125.887 63.357C128.21 55.7882 130.332 48.0191 132.335 39.7695C132.375 36.2454 132.455 32.8014 132.535 29.4775C130.372 41.3313 127.689 52.3842 124.486 62.7563C121.522 72.4476 117.678 81.7785 113.633 91.5098L113.593 91.4697ZM50.4793 31.64C46.7549 29.2372 42.9104 23.3904 40.2674 20.0665C35.5819 14.1396 30.8163 8.21271 26.0908 2.2858C25.37 1.36473 24.6492 1.12445 24.3688 1.12445C30.1756 9.17383 35.9023 17.1832 41.4287 25.5129C43.431 28.5564 45.6737 32.7213 46.4345 35.044C37.5842 45.2959 11.9143 73.2886 0.70124 84.6218C0.621147 85.5428 0.541054 86.2236 0.501007 86.7042C0.621147 87.2648 0.70124 87.8656 0.82138 88.4663C12.1946 76.7726 40.7479 41.1711 49.358 35.5245C64.4556 25.593 78.1515 13.3787 91.6472 1.1645H88.844C76.87 12.0572 63.8949 22.6295 50.5193 31.6801L50.4793 31.64Z" fill="url(#paint5_linear_9_17159)"/>
<path style="mix-blend-mode:screen" fill-rule="evenodd" clip-rule="evenodd" d="M117.958 128.513C116.677 129.875 115.836 131.797 114.114 132.638C104.903 137.043 72.465 135.801 60.8114 134.68C56.6866 134.28 51.8009 133.319 48.5572 132.277C43.7516 132.998 35.9024 133.679 29.535 133.719C26.091 133.719 17.2807 128.353 11.6341 123.988C14.918 127.592 20.4043 132.878 23.9685 136.122C28.694 136.522 44.152 136.402 73.7065 136.722C89.4448 136.883 106.865 137.363 114.955 136.562C116.677 135.361 124.966 130.395 128.21 127.512L128.931 125.189C124.846 128.713 121.002 130.315 117.918 128.513H117.958Z" fill="url(#paint6_radial_9_17159)"/>
<path style="mix-blend-mode:screen" opacity="0.35" fill-rule="evenodd" clip-rule="evenodd" d="M124.926 2.88651C124.365 2.48604 122.363 1.52492 120.921 1.12445C111.07 1.52492 101.339 1.52492 91.6473 1.12445H88.8441C85.7605 3.92772 82.5968 6.73099 79.3931 9.45416C82.5968 6.69094 85.7605 3.92772 88.8441 1.12445C69.6217 -0.51746 46.1143 -0.237133 24.3689 1.1645C18.442 2.04553 12.4751 3.28697 6.54815 4.7687C5.82731 4.96893 4.94628 5.64973 4.78609 5.89001C4.02521 6.89117 2.62357 9.5743 2.34325 10.6956C4.58586 41.5315 2.42334 74.3698 0.701332 84.5817C1.42217 83.8609 2.22311 83.0199 3.06409 82.1789C2.22311 83.06 1.42217 83.8609 0.701332 84.5817C0.621239 85.5028 0.541145 86.1836 0.501099 86.6641C0.621239 87.2248 0.701332 87.8255 0.821472 88.4262C1.34208 91.3096 1.98283 94.7536 2.66362 98.0374C3.5046 103.924 7.26899 118.701 9.19123 121.064C9.67179 121.745 10.5128 122.746 11.594 123.948C12.3149 124.749 13.1959 125.67 14.117 126.591C14.3573 126.831 14.5575 127.071 14.8378 127.312C16.72 129.194 18.7223 131.196 20.6446 132.998C20.8849 133.198 21.0851 133.399 21.2853 133.599C22.2464 134.48 23.1275 135.321 23.9284 136.082C28.6539 136.482 44.1119 136.362 73.6664 136.682C89.4047 136.843 106.825 137.323 114.914 136.522C116.636 135.321 124.926 130.355 128.17 127.472L128.891 125.149L131.374 117.14C131.694 116.259 131.694 74.3298 132.255 39.7294C132.295 36.2053 132.375 32.7613 132.455 29.4375C132.575 22.6295 132.775 16.3422 132.976 11.016C131.654 9.17383 126.007 3.64739 124.886 2.92655L124.926 2.88651ZM50.4393 31.64C52.0011 30.5988 53.563 29.5175 55.1248 28.3962C53.603 29.4775 52.0412 30.5988 50.5194 31.6801C50.5194 31.6801 50.5194 31.6801 50.4794 31.6801L50.4393 31.64ZM69.5816 17.5836C71.7842 15.8216 73.9868 13.9794 76.1493 12.1773C73.9868 13.9794 71.8242 15.8216 69.5816 17.5836ZM59.4899 25.3126C61.5322 23.7909 63.5346 22.229 65.577 20.6672C63.5746 22.229 61.5322 23.7909 59.4899 25.3126ZM44.8328 36.9262C44.8328 36.9262 44.6726 37.1264 44.5524 37.2466C44.6726 37.1264 44.7527 37.0463 44.8328 36.9262ZM42.5902 39.4892C42.5902 39.4892 42.43 39.6494 42.3499 39.7294C42.43 39.6494 42.5101 39.5693 42.5902 39.4892ZM40.2675 42.0522C40.2675 42.0522 39.907 42.4526 39.7468 42.6529C39.907 42.4526 40.1073 42.2524 40.2675 42.0522ZM37.6644 44.9355C37.3841 45.2158 37.1438 45.5362 36.8635 45.8165C37.1438 45.4962 37.3841 45.2158 37.6644 44.9355ZM31.8577 51.383C31.3771 51.9437 30.8565 52.4643 30.3759 53.0249C30.8965 52.4643 31.3771 51.9437 31.8577 51.383ZM28.7741 54.7469C28.1333 55.4678 27.4926 56.1486 26.8118 56.8694C27.4525 56.1486 28.0933 55.4678 28.7741 54.7469ZM18.5221 65.8399C17.7612 66.6408 17.0404 67.4417 16.2795 68.2427C17.0003 67.4417 17.7612 66.6408 18.5221 65.8399ZM15.1582 69.4441C14.3973 70.245 13.6364 71.0459 12.9156 71.8469C13.6765 71.0459 14.3973 70.245 15.1582 69.4441ZM8.67062 76.3321C7.98983 77.0529 7.30903 77.7738 6.66829 78.4546C7.30903 77.7738 7.98983 77.093 8.67062 76.3321Z" fill="url(#paint7_radial_9_17159)"/>
<defs>
<linearGradient id="paint0_linear_9_17159" x1="67.0588" y1="136.963" x2="67.0588" y2="91.4697" gradientUnits="userSpaceOnUse">
<stop offset="0.43" stop-color="#884329"/>
<stop offset="1" stop-color="#57280C"/>
</linearGradient>
<radialGradient id="paint1_radial_9_17159" cx="0" cy="0" r="1" gradientUnits="userSpaceOnUse" gradientTransform="translate(-2.82274 -18.1781) scale(139.122 139.122)">
<stop stop-color="#C28958"/>
<stop offset="1" stop-color="#734324"/>
</radialGradient>
<radialGradient id="paint2_radial_9_17159" cx="0" cy="0" r="1" gradientUnits="userSpaceOnUse" gradientTransform="translate(44.3119 -50.8963) scale(200.914 200.914)">
<stop stop-color="#B6753E"/>
<stop offset="1" stop-color="#64381C"/>
</radialGradient>
<radialGradient id="paint3_radial_9_17159" cx="0" cy="0" r="1" gradientUnits="userSpaceOnUse" gradientTransform="translate(-14.757 63.9577) scale(154.941 154.941)">
<stop stop-color="#C28653"/>
<stop offset="1" stop-color="#734324"/>
</radialGradient>
<radialGradient id="paint4_radial_9_17159" cx="0" cy="0" r="1" gradientUnits="userSpaceOnUse" gradientTransform="translate(201.335 266.193) scale(199.633 199.633)">
<stop stop-color="#C28653"/>
<stop offset="1" stop-color="#734324"/>
</radialGradient>
<linearGradient id="paint5_linear_9_17159" x1="128.17" y1="120.464" x2="16.6398" y2="8.89349" gradientUnits="userSpaceOnUse">
<stop stop-color="#85451A"/>
<stop offset="1" stop-color="#D49765"/>
</linearGradient>
<radialGradient id="paint6_radial_9_17159" cx="0" cy="0" r="1" gradientUnits="userSpaceOnUse" gradientTransform="translate(52.6019 65.1991) scale(130.032 130.032)">
<stop stop-color="#160E0C"/>
<stop offset="0.15" stop-color="#19100C"/>
<stop offset="0.31" stop-color="#25160D"/>
<stop offset="0.46" stop-color="#39220F"/>
<stop offset="0.61" stop-color="#553112"/>
<stop offset="0.77" stop-color="#7A4516"/>
<stop offset="0.92" stop-color="#A55E1A"/>
<stop offset="1" stop-color="#C06D1D"/>
</radialGradient>
<radialGradient id="paint7_radial_9_17159" cx="0" cy="0" r="1" gradientUnits="userSpaceOnUse" gradientTransform="translate(2.3032 -0.116987) scale(166.955 166.955)">
<stop stop-color="#F39200"/>
<stop offset="0.45" stop-color="#B63000"/>
<stop offset="0.52" stop-color="#9D2900"/>
<stop offset="0.85" stop-color="#2E0B00"/>
<stop offset="1" stop-color="#030000"/>
</radialGradient>
</defs>
</svg>
