<svg width="140" height="142" viewBox="0 0 140 142" fill="none" xmlns="http://www.w3.org/2000/svg">
<path fill-rule="evenodd" clip-rule="evenodd" d="M134.339 87.7077C135.281 98.9995 136.263 110.448 137.283 122.132C135.752 126.719 134.221 131.346 132.69 136.012C125.506 138.952 117.851 140.638 111.256 141.501C94.1394 141.03 78.3972 139.932 62.6942 139.109C46.9912 138.286 31.3275 137.698 14.2505 138.246C9.46109 137.109 5.10351 132.64 4.16133 129.895C3.21915 127.268 2.19846 123.112 1.33479 119.192C1.76663 108.801 1.92365 97.8233 0.274841 87.7469H67.2873C89.6248 87.7469 111.962 87.7469 134.339 87.7469V87.7077Z" fill="url(#paint0_linear_9_16068)"/>
<path fill-rule="evenodd" clip-rule="evenodd" d="M67.6014 0C73.4508 5.25384 81.3808 12.8601 87.5442 16.8985C91.1559 19.251 92.0981 19.2118 95.435 18.31C101.127 13.6443 106.82 8.50808 112.433 2.86216C105.485 2.31326 96.2986 1.45069 91.3915 0.744947C84.2859 0.313662 74.707 0.0392077 67.5622 0.0392077L67.6014 0Z" fill="url(#paint1_radial_9_16068)"/>
<path fill-rule="evenodd" clip-rule="evenodd" d="M91.352 26.7005C88.1722 33.0129 84.1287 41.8347 79.6141 52.1463C77.3371 57.4001 74.9032 63.0461 72.4299 68.9664C69.9175 74.9652 67.3657 81.2384 64.7747 87.7469C62.223 94.0986 59.632 100.607 57.1195 107.155C54.5678 113.781 52.0553 120.485 49.6606 127.111C60.4172 127.033 71.0952 127.072 81.891 127.19C92.6868 127.308 103.64 127.543 114.985 127.856C121.855 126.955 129.785 125.23 137.283 122.211C137.558 111.35 137.558 100.646 137.401 90.0602C137.244 79.6701 137.008 69.4369 136.694 59.3997C136.223 43.1285 136.694 25.4458 135.634 9.48829C132.337 7.37107 121.305 2.86218 114.161 2.86218C109.371 7.68473 104.386 12.4289 99.2821 17.2122C95.0422 21.1722 93.943 21.5643 91.3913 26.7005H91.352Z" fill="url(#paint2_radial_9_16068)"/>
<path fill-rule="evenodd" clip-rule="evenodd" d="M62.0268 87.7077C66.5414 76.1414 71.213 64.928 76.081 54.0675C80.8704 43.403 85.8561 33.0521 90.9988 23.0541C91.1166 20.8193 90.4885 20.5841 87.3479 18.5453C80.1637 13.8403 71.6056 5.76354 65.3244 0C54.3716 0 44.9891 0.705739 34.0755 0.940986C25.2818 2.11722 14.0149 3.37187 6.8308 4.66572C5.84936 4.82255 2.27693 7.21422 2.19842 7.95917C1.96287 10.2724 0.745892 19.7215 0.628119 23.407C0.353317 30.2684 0.196287 37.2081 0.117772 44.1479C0 51.2837 0 58.4195 0 65.6337C0 72.9264 0.15703 80.3366 0.31406 87.7861C0.549605 98.137 0.902922 108.605 1.37401 119.231C2.31619 122.054 6.87006 126.68 11.8558 127.856C24.1433 127.464 35.9991 127.229 47.6978 127.111C50.014 120.289 52.3695 113.585 54.7642 106.998C57.1589 100.489 59.5928 94.0593 62.0661 87.7469L62.0268 87.7077Z" fill="url(#paint3_radial_9_16068)"/>
<path fill-rule="evenodd" clip-rule="evenodd" d="M49.6214 127.072C53.3116 116.917 57.2374 106.645 61.1631 96.6471C65.0496 86.8059 68.9753 77.2392 72.6655 68.3391C76.3165 59.5958 79.8104 51.4798 82.9902 44.4224C86.1308 37.4042 88.9574 31.3662 91.3128 26.7005C93.9038 21.5643 95.003 21.1722 99.2036 17.2122C104.307 12.4289 109.253 7.68472 114.082 2.86216H112.433C106.78 8.50808 101.127 13.6835 95.4349 18.31C92.0587 19.251 91.1558 19.251 87.5441 16.8985C81.3414 12.8601 73.4114 5.25384 67.6013 0H65.3244C71.5663 5.76354 80.1637 13.8403 87.3478 18.5453C90.4884 20.5841 91.1165 20.8193 90.9595 23.0541C86.9945 30.7389 83.108 38.6196 79.3786 46.6572C75.6098 54.8124 71.9196 63.2029 68.3472 71.7894C64.7355 80.4935 61.1631 89.4328 57.7477 98.5682C54.2538 107.821 50.8776 117.349 47.58 127.111C48.2474 127.111 48.9148 127.111 49.5821 127.111L49.6214 127.072Z" fill="url(#paint4_linear_9_16068)"/>
<path style="mix-blend-mode:screen" fill-rule="evenodd" clip-rule="evenodd" d="M39.6108 133.581C31.7593 133.542 18.1369 135.071 14.6038 135.384C13.1905 135.502 6.83078 131.973 5.06419 129.582C4.23978 128.484 3.57241 127.229 2.90503 126.014C3.2976 127.504 3.72944 128.876 4.12201 129.974C5.02493 132.718 9.38251 137.188 14.1719 138.286C22.73 138.011 30.8956 138.05 38.9434 138.246C46.9519 138.403 54.8034 138.756 62.6549 139.187C70.5064 139.619 78.3579 140.089 86.3664 140.521C94.4142 140.952 102.658 141.344 111.216 141.579C117.772 140.756 125.428 139.07 132.651 136.129C133.632 133.149 134.575 130.209 135.556 127.268C134.81 128.052 134.064 128.876 133.397 129.738C131.669 131.934 122.287 134.6 112.747 136.6C103.169 138.599 93.3935 140.011 91.0773 139.815C82.8725 139.031 73.8825 137.502 65.0103 136.168C56.1381 134.835 47.3837 133.659 39.5715 133.62L39.6108 133.581Z" fill="url(#paint5_radial_9_16068)"/>
<path style="mix-blend-mode:screen" opacity="0.35" fill-rule="evenodd" clip-rule="evenodd" d="M139.552 90.021C139.395 79.6309 139.159 69.3977 138.845 59.3605C138.374 43.0893 138.845 25.4066 137.785 9.44906C134.487 7.33185 123.456 2.82296 116.311 2.82296H114.662C107.714 2.27405 98.5276 1.41148 93.6204 0.705739C86.5148 0.274454 76.936 0 69.7911 0H67.5142C56.6006 0 47.2181 0.705739 36.3045 0.940986C27.5108 2.11722 16.2439 3.37187 9.0598 4.66572C8.07837 4.82255 4.50593 7.21422 4.42742 7.95917C4.19188 10.2724 2.9749 19.7215 2.85712 23.407C2.58232 30.2684 2.42529 37.2081 2.34677 44.1479C2.229 51.2445 2.229 58.3803 2.229 65.5945C2.229 72.8872 2.38603 80.2582 2.54306 87.7077H2.46455C2.5038 88.0214 2.54306 88.335 2.58232 88.6095C2.81787 98.2546 3.13193 108.017 3.56376 117.937C3.56376 118.329 3.56376 118.721 3.56376 119.152C4.07411 121.544 4.66297 123.936 5.25183 126.092C5.25183 126.053 5.21257 126.014 5.17331 125.974C5.56589 127.464 5.99772 128.837 6.39029 129.934C7.29322 132.679 11.6508 137.149 16.4402 138.246C24.9983 137.972 33.1639 138.011 41.2117 138.207C49.2202 138.364 57.0717 138.717 64.9232 139.148C72.7747 139.58 80.6262 140.05 88.6347 140.481C96.6825 140.913 104.927 141.305 113.485 141.54C120.041 140.717 127.696 139.031 134.919 136.09C136.45 131.424 137.981 126.798 139.512 122.211C139.512 122.132 139.512 122.014 139.512 121.936C139.787 111.193 139.787 100.568 139.63 90.0994L139.552 90.021ZM80.5084 55.1261C80.3121 55.5966 80.0766 56.1063 79.8803 56.616C80.0766 56.1063 80.3121 55.6358 80.5084 55.1261ZM70.0659 80.023C69.2022 82.1794 68.2993 84.3358 67.4357 86.5707C68.3386 84.375 69.2022 82.1794 70.0659 80.023ZM82.7461 49.9507C82.7461 49.9507 82.7853 49.833 82.8246 49.7938C82.8246 49.8722 82.7853 49.9114 82.7461 49.9507Z" fill="url(#paint6_radial_9_16068)"/>
<defs>
<linearGradient id="paint0_linear_9_16068" x1="68.7399" y1="141.54" x2="68.7399" y2="87.7077" gradientUnits="userSpaceOnUse">
<stop stop-color="#57280C"/>
<stop offset="0.57" stop-color="#884329"/>
</linearGradient>
<radialGradient id="paint1_radial_9_16068" cx="0" cy="0" r="1" gradientUnits="userSpaceOnUse" gradientTransform="translate(74.707 -6.35165) scale(119.892 119.74)">
<stop stop-color="#CD9463"/>
<stop offset="1" stop-color="#734324"/>
</radialGradient>
<radialGradient id="paint2_radial_9_16068" cx="0" cy="0" r="1" gradientUnits="userSpaceOnUse" gradientTransform="translate(39.9248 20.3488) scale(163.154 162.947)">
<stop stop-color="#B6753E"/>
<stop offset="1" stop-color="#64381C"/>
</radialGradient>
<radialGradient id="paint3_radial_9_16068" cx="0" cy="0" r="1" gradientUnits="userSpaceOnUse" gradientTransform="translate(1.45252 0.313662) scale(131.434 131.267)">
<stop stop-color="#C28653"/>
<stop offset="1" stop-color="#734324"/>
</radialGradient>
<linearGradient id="paint4_linear_9_16068" x1="96.3378" y1="80.4151" x2="40.6628" y2="24.6695" gradientUnits="userSpaceOnUse">
<stop stop-color="#8F5630"/>
<stop offset="1" stop-color="#AE8361"/>
</linearGradient>
<radialGradient id="paint5_radial_9_16068" cx="0" cy="0" r="1" gradientUnits="userSpaceOnUse" gradientTransform="translate(71.9589 87.198) scale(119.578 119.427)">
<stop stop-color="#160E0C"/>
<stop offset="0.15" stop-color="#19100C"/>
<stop offset="0.31" stop-color="#25160D"/>
<stop offset="0.46" stop-color="#39220F"/>
<stop offset="0.61" stop-color="#553112"/>
<stop offset="0.77" stop-color="#7A4516"/>
<stop offset="0.92" stop-color="#A55E1A"/>
<stop offset="1" stop-color="#C06D1D"/>
</radialGradient>
<radialGradient id="paint6_radial_9_16068" cx="0" cy="0" r="1" gradientUnits="userSpaceOnUse" gradientTransform="translate(2.77861 -11.7231) scale(142.269 142.089)">
<stop stop-color="#F39200"/>
<stop offset="0.45" stop-color="#B63000"/>
<stop offset="0.52" stop-color="#9D2900"/>
<stop offset="0.85" stop-color="#2E0B00"/>
<stop offset="1" stop-color="#030000"/>
</radialGradient>
</defs>
</svg>
