<svg width="141" height="136" viewBox="0 0 141 136" fill="none" xmlns="http://www.w3.org/2000/svg">
<path d="M69.9642 0.730476C68.7479 0.973747 67.2883 1.217 65.8693 1.46027C39.1915 3.2442 16.6492 3.81183 4.28333 9.73122C2.78321 17.4345 0.756022 41.031 0.350585 53.6401C0.350585 53.6401 0.350585 53.6401 0.350585 53.6807C0.350585 54.1266 0.391128 54.5726 0.431672 54.9781C2.37777 84.6561 5.4591 118.429 7.72955 124.592C14.8247 129.538 28.6096 132.579 37.7319 134.201C38.0968 134.282 38.4617 134.322 38.8266 134.403C38.8672 134.403 38.9077 134.403 38.9483 134.403C47.4219 135.133 82.8977 136.674 96.6826 135.255C97.6151 135.295 98.4665 135.376 99.2368 135.417C99.845 135.336 100.494 135.295 101.183 135.214C107.467 134.241 114.927 131.727 119.874 129.497C120.968 129.092 122.022 128.687 123.036 128.241C127.901 126.213 131.388 124.308 133.942 122.727C135.361 121.875 136.497 121.105 137.267 120.578C137.186 113.077 139.213 79.7503 140.794 59.7622C139.821 34.5845 137.51 13.9072 133.375 6.2039L123.158 3.12256C101.872 0.0412333 80.5867 0.811576 69.9642 0.649406L69.9642 0.730476Z" fill="#924000"/>
<path fill-rule="evenodd" clip-rule="evenodd" d="M92.5876 129.092L103.088 134.768C106.575 134.16 114.846 131.403 119.914 129.579C129.28 126.051 134.469 122.605 137.307 120.659C137.226 113.158 139.253 79.8313 140.835 59.8433C139.862 34.6656 137.551 13.9883 133.415 6.28495L123.198 3.20361L92.5876 2.636L92.5876 129.092Z" fill="url(#paint0_linear_9_16149)"/>
<path style="mix-blend-mode:screen" fill-rule="evenodd" clip-rule="evenodd" d="M132.564 14.6368C132.442 16.9073 134.51 18.7723 134.875 21.0428C135.24 23.2321 139.335 56.924 139.294 57.2889C137.145 68.9249 135.28 86.9669 134.632 92.5214C134.388 94.5486 133.659 111.09 133.902 118.794C125.671 121.672 125.306 124.024 119.874 129.578C128.145 126.497 134.753 122.483 137.267 120.659C137.186 113.158 139.213 79.8312 140.794 59.8431C139.821 34.6655 137.51 13.9881 133.375 6.28482L128.834 4.90633C131.834 8.3931 132.604 13.4205 132.523 14.5963L132.564 14.6368Z" fill="url(#paint1_radial_9_16149)"/>
<path fill-rule="evenodd" clip-rule="evenodd" d="M101.223 135.295C107.508 134.322 114.968 131.808 119.914 129.579L128.509 85.6291C128.509 59.8027 126.482 24.3269 123.239 3.20363C101.953 0.122308 80.6678 0.89265 70.0453 0.730465C63.9637 10.2988 61.6122 15.4073 56.828 25.7865C40.6916 60.3704 40.4078 96.4138 38.8672 134.403C38.9077 134.403 38.9482 134.403 38.9888 134.403C47.4624 135.133 82.9382 136.674 96.7231 135.255L101.223 135.255L101.223 135.295Z" fill="url(#paint2_radial_9_16149)"/>
<path fill-rule="evenodd" clip-rule="evenodd" d="M41.7052 61.7488C28.1636 62.6002 13.4056 59.3567 0.431624 55.0185C2.37773 84.656 5.45905 118.429 7.7295 124.592C14.8247 129.538 28.6095 132.579 37.7319 134.2C38.0562 125.889 38.2995 118.307 38.5022 112.631C39.1104 94.6297 39.4347 85.5074 41.7052 61.7082L41.7052 61.7488Z" fill="url(#paint3_radial_9_16149)"/>
<path fill-rule="evenodd" clip-rule="evenodd" d="M0.350586 53.6399C10.1216 56.8429 21.2306 58.789 31.8936 59.1539C39.7997 59.3971 42.6783 57.7348 43.4486 54.0859C45.6785 43.4229 50.0978 33.8545 54.3954 24.57C58.7742 15.1639 62.4636 8.35251 65.8693 1.41953C39.1915 3.20346 16.6492 3.77107 4.28333 9.69046C2.78321 17.4343 0.756023 41.0308 0.350586 53.6399Z" fill="url(#paint4_radial_9_16149)"/>
<path fill-rule="evenodd" clip-rule="evenodd" d="M38.8672 134.403C40.4078 96.4138 40.6916 60.3704 56.747 25.746C61.5717 15.3668 63.8827 10.2583 69.9642 0.689934C68.7479 0.933205 67.2883 1.17646 65.8693 1.41973C61.8555 9.12304 58.7741 15.1641 54.3954 24.5702C50.0978 33.8547 45.6785 43.4636 43.4486 54.0861C42.6783 57.735 39.7997 59.3973 31.8936 59.1541C21.2306 58.7892 10.1216 56.8431 0.350585 53.6401C0.350585 53.6401 0.350585 53.6401 0.350585 53.6806C0.350585 54.1266 0.391128 54.5726 0.431672 54.9781C13.4057 59.3162 28.2042 62.5597 41.7052 61.7083C39.4348 85.5075 39.1104 94.5893 38.5023 112.631C38.2995 118.307 38.0968 125.889 37.7319 134.201C38.0968 134.282 38.4617 134.322 38.8266 134.403L38.8672 134.403ZM112.697 106.104C107.305 114.983 101.994 124.389 96.7231 135.295C97.6556 135.336 98.507 135.417 99.2774 135.457C99.8855 135.376 100.534 135.336 101.223 135.255C105.44 120.456 118.576 101.076 128.469 85.5886C123.685 88.6699 115.738 101.036 112.697 106.063L112.697 106.104Z" fill="url(#paint5_linear_9_16149)"/>
<path style="mix-blend-mode:screen" opacity="0.35" d="M69.9642 0.730476C68.7479 0.973747 67.2883 1.217 65.8693 1.46027C39.1915 3.2442 16.6492 3.81183 4.28333 9.73122C2.78321 17.4345 0.756022 41.031 0.350585 53.6401C0.350585 53.6401 0.350585 53.6401 0.350585 53.6807C0.350585 54.1266 0.391128 54.5726 0.431672 54.9781C2.37777 84.6561 5.4591 118.429 7.72955 124.592C14.8247 129.538 28.6096 132.579 37.7319 134.201C38.0968 134.282 38.4617 134.322 38.8266 134.403C38.8672 134.403 38.9077 134.403 38.9483 134.403C47.4219 135.133 82.8977 136.674 96.6826 135.255C97.6151 135.295 98.4665 135.376 99.2368 135.417C99.845 135.336 100.494 135.295 101.183 135.214C107.467 134.241 114.927 131.727 119.874 129.497C120.968 129.092 122.022 128.687 123.036 128.241C127.901 126.213 131.388 124.308 133.942 122.727C135.361 121.875 136.497 121.105 137.267 120.578C137.186 113.077 139.213 79.7503 140.794 59.7622C139.821 34.5845 137.51 13.9072 133.375 6.2039L123.158 3.12256C101.872 0.0412333 80.5867 0.811576 69.9642 0.649406L69.9642 0.730476Z" fill="url(#paint6_radial_9_16149)"/>
<defs>
<linearGradient id="paint0_linear_9_16149" x1="140.835" y1="68.7223" x2="92.5876" y2="68.7223" gradientUnits="userSpaceOnUse">
<stop offset="0.43" stop-color="#884329"/>
<stop offset="1" stop-color="#57280C"/>
</linearGradient>
<radialGradient id="paint1_radial_9_16149" cx="0" cy="0" r="1" gradientUnits="userSpaceOnUse" gradientTransform="translate(63.7205 95.2379) rotate(-90) scale(143.768 143.768)">
<stop stop-color="#160E0C"/>
<stop offset="0.15" stop-color="#19100C"/>
<stop offset="0.31" stop-color="#25160D"/>
<stop offset="0.46" stop-color="#39220F"/>
<stop offset="0.61" stop-color="#553112"/>
<stop offset="0.77" stop-color="#7A4516"/>
<stop offset="0.92" stop-color="#A55E1A"/>
<stop offset="1" stop-color="#C06D1D"/>
</radialGradient>
<radialGradient id="paint2_radial_9_16149" cx="0" cy="0" r="1" gradientUnits="userSpaceOnUse" gradientTransform="translate(8.58096 123.092) rotate(-90) scale(168.297)">
<stop stop-color="#CD9463"/>
<stop offset="1" stop-color="#734324"/>
</radialGradient>
<radialGradient id="paint3_radial_9_16149" cx="0" cy="0" r="1" gradientUnits="userSpaceOnUse" gradientTransform="translate(78.6 68.925) rotate(-90) scale(131.767 131.767)">
<stop stop-color="#CD9463"/>
<stop offset="1" stop-color="#734324"/>
</radialGradient>
<radialGradient id="paint4_radial_9_16149" cx="0" cy="0" r="1" gradientUnits="userSpaceOnUse" gradientTransform="translate(88.5738 108.82) rotate(-90) scale(139.592 139.592)">
<stop stop-color="#CD9463"/>
<stop offset="1" stop-color="#734324"/>
</radialGradient>
<linearGradient id="paint5_linear_9_16149" x1="107.264" y1="37.9902" x2="24.393" y2="120.862" gradientUnits="userSpaceOnUse">
<stop stop-color="#85451A"/>
<stop offset="1" stop-color="#D49765"/>
</linearGradient>
<radialGradient id="paint6_radial_9_16149" cx="0" cy="0" r="1" gradientUnits="userSpaceOnUse" gradientTransform="translate(5.37801 119.97) rotate(-90) scale(132.821 132.821)">
<stop stop-color="#F39200"/>
<stop offset="0.45" stop-color="#B63000"/>
<stop offset="0.52" stop-color="#9D2900"/>
<stop offset="0.85" stop-color="#2E0B00"/>
<stop offset="1" stop-color="#030000"/>
</radialGradient>
</defs>
</svg>
