<svg width="346" height="148" viewBox="0 0 346 148" fill="none" xmlns="http://www.w3.org/2000/svg">
<path d="M35.0611 92.2372C71.3624 129.663 129.14 121.76 175.588 111.148C190.074 107.817 203.715 103.753 218.371 98.8982L218.766 100.084C208.901 103.358 199.488 106.293 189.962 108.833C188.665 109.172 187.707 110.301 187.594 111.656L186.861 119.615L186.072 111.599C186.072 111.148 185.79 110.809 185.452 110.527C185.114 110.244 184.663 110.188 184.268 110.301C181.506 110.978 178.688 111.656 175.869 112.333C166.85 114.365 157.55 116.115 147.516 117.583C146.276 117.752 145.374 118.768 145.318 120.01L144.416 138.074L143.57 120.913C143.57 120.179 143.232 119.558 142.668 119.05C142.105 118.542 141.428 118.373 140.696 118.486C136.637 118.994 132.466 119.446 128.182 119.841C119.67 120.631 111.779 120.913 104.451 120.744C103.549 120.744 102.816 121.421 102.76 122.268L101.914 134.066L101.069 122.099C100.899 120.066 97.1228 119.954 97.01 122.099L96.5027 130.453L95.9954 121.816C95.9954 120.97 95.319 120.349 94.4734 120.292C85.0036 119.502 76.6047 117.865 69.1077 115.607C53.6627 110.865 42.1072 103.301 33.1446 94.0436L35.1175 92.3501L35.0611 92.2372Z" fill="url(#paint0_radial_9_15761)"/>
<path d="M88.2165 103.753C110.764 125.655 140.414 130.961 172.036 127.574C203.715 124.131 237.424 111.938 268.032 98.8982L268.257 99.4627C254.391 105.39 239.848 111.148 225.135 115.946C224.233 116.228 223.67 117.018 223.613 117.978L223.106 126.615L222.599 118.147C222.599 117.809 222.43 117.526 222.148 117.357C221.866 117.188 221.584 117.131 221.246 117.244C208.958 121.139 196.557 124.357 184.325 126.502C183.592 126.615 183.085 127.179 183.028 127.913L182.521 134.404L182.07 128.534C182.07 128.082 181.844 127.687 181.506 127.461C181.168 127.179 180.773 127.066 180.323 127.123C177.56 127.518 174.855 127.913 172.149 128.195C171.36 128.308 170.796 128.929 170.74 129.719L170.233 147.952L169.725 130.058C169.725 129.606 169.556 129.211 169.218 128.929C168.88 128.647 168.485 128.477 168.034 128.534C137.708 131.13 109.467 125.316 87.7092 104.148L88.1602 103.696L88.2165 103.753Z" fill="url(#paint1_radial_9_15761)"/>
<path fill-rule="evenodd" clip-rule="evenodd" d="M51.6335 105.39C25.0839 105.898 0.789158 85.6327 0 49.3362H345.876C345.087 85.6327 320.793 105.898 294.243 105.39C213.523 103.809 132.635 103.866 51.6335 105.39Z" fill="url(#paint2_linear_9_15761)"/>
<path fill-rule="evenodd" clip-rule="evenodd" d="M49.266 0.0564575H296.667C323.724 0.0564575 345.876 22.2408 345.876 49.3362C345.876 76.4316 323.724 98.6159 296.667 98.6159H49.266C22.2091 98.6159 0.056366 76.4316 0.056366 49.3362C0.056366 22.2408 22.2091 0.0564575 49.266 0.0564575Z" fill="url(#paint3_linear_9_15761)"/>
<path fill-rule="evenodd" clip-rule="evenodd" d="M49.266 9.70917H296.667C318.425 9.70917 336.237 27.547 336.237 49.3362C336.237 71.1254 318.425 88.9632 296.667 88.9632H49.266C27.5078 88.9632 9.69537 71.1254 9.69537 49.3362C9.69537 27.547 27.5078 9.70917 49.266 9.70917Z" fill="url(#paint4_linear_9_15761)"/>
<g style="mix-blend-mode:multiply" opacity="0.55">
<path fill-rule="evenodd" clip-rule="evenodd" d="M296.667 98.6159C297.287 98.2773 297.851 97.995 298.471 97.6563C306.193 93.592 314.028 89.7535 322.033 86.1972C326.091 84.3909 330.15 82.6974 334.208 81.0604C332.799 82.7539 331.221 84.3344 329.586 85.8585C322.765 88.4552 316.058 91.2212 309.35 94.1001C306.193 95.4548 303.036 96.9789 299.936 98.503C298.809 98.5595 297.738 98.6159 296.611 98.6159H296.667ZM344.467 61.0211C339.338 64.1822 334.039 67.1176 328.628 69.8835C320.454 74.1172 312.112 78.0686 303.938 82.3023C302.022 83.2619 300.162 84.278 298.245 85.294C290.466 89.5277 282.913 93.9872 275.36 98.5595H271.188C285.055 89.8664 299.034 81.3991 313.859 74.2865C320.06 71.2948 326.26 68.1901 332.292 64.7467C336.745 62.263 341.029 59.6099 345.313 56.8439C345.087 58.2551 344.805 59.6099 344.467 60.9646V61.0211ZM45.7711 98.503C50.957 95.6242 56.0302 92.6324 61.1033 89.5842C67.5857 85.6892 74.1808 81.8507 80.945 78.4638C86.6382 75.6413 92.4442 73.1576 98.532 71.4077C104.563 69.6578 110.708 68.7546 116.964 68.4159C124.574 68.0207 132.24 68.5288 139.737 69.3755C144.81 69.94 149.996 70.9561 154.9 72.3108C159.973 73.6656 170.233 76.9961 172.544 82.2458C174.629 87.044 172.826 92.463 170.684 96.9789C170.402 97.5434 170.12 98.1079 169.838 98.7288H165.61C165.836 98.2208 166.118 97.7128 166.343 97.2047C168.372 92.9711 168.823 89.0761 166.963 84.7296C164.878 79.9879 158.902 77.3348 154.337 75.6978C136.355 69.4884 117.641 68.811 99.2647 73.6656C85.7363 77.2783 73.7299 83.9393 61.4979 90.4873C56.5939 93.084 51.8026 95.85 46.9549 98.6724C46.5039 98.6724 46.053 98.6724 45.6584 98.6159L45.7711 98.503ZM25.704 92.5759C31.6227 90.3744 37.4286 87.9471 43.1782 85.4634C48.7587 83.0361 54.2828 80.4959 59.8069 77.9557C69.4459 73.5527 79.0849 69.0933 89.0057 65.3112C92.8951 63.7871 96.7845 62.263 100.73 60.9082C104.056 59.7228 107.382 58.7067 110.764 57.86C118.317 56.0536 125.758 55.602 133.537 55.7714C138.497 55.8843 143.458 56.1101 148.418 56.5052C154.675 56.9568 160.988 57.5777 167.189 58.3116C170.233 58.7067 173.22 59.1018 176.264 59.6099C181.281 60.4002 186.298 61.3598 191.202 62.7146C194.809 63.6742 198.868 64.9725 202.081 66.8353C203.264 67.5127 204.392 68.4159 205.294 69.4884C206.083 70.448 206.759 71.5206 207.154 72.706C207.548 73.9479 207.661 75.3026 207.548 76.6574C207.436 78.0122 207.041 79.3669 206.365 80.5524C205.801 81.6813 205.068 82.7539 204.392 83.7699C203.434 85.1812 202.419 86.5359 201.461 87.8907C199.037 91.1647 196.444 94.4387 193.907 97.5999C193.625 97.9386 193.344 98.2773 193.062 98.6724H190.187C190.187 98.6724 190.469 98.2773 190.638 98.1079C193.005 95.0032 195.373 91.8421 197.628 88.6245C198.586 87.2698 199.488 85.915 200.333 84.5602C201.01 83.5441 201.686 82.4716 202.25 81.3426C204.786 76.5445 202.87 71.5206 198.304 68.8675C195.204 67.0611 191.765 65.6499 188.383 64.5209C183.93 62.9968 179.364 61.8678 174.742 61.134C168.429 60.1179 162.115 59.2147 155.746 58.4809C150.391 57.86 145.036 57.4084 139.681 57.239C130.549 56.9003 121.643 57.4084 112.68 59.1018C104.451 60.6824 96.5591 63.1661 88.7802 66.1579C79.1412 69.8271 69.615 74.1736 60.2578 78.5202C54.6773 81.0604 49.1532 83.7135 43.6291 86.3101C38.2741 88.7939 32.9191 91.2776 27.4514 93.5356C26.8877 93.2533 26.3804 92.9711 25.8167 92.6888L25.704 92.5759ZM11.7246 81.1733C18.827 78.746 25.8731 76.1494 32.8628 73.3834C44.0237 68.9804 55.0719 64.2951 66.1201 59.5534C73.2225 56.5616 80.2122 53.4005 87.371 50.5216C95.5444 47.2476 104.169 44.2558 112.85 42.7317C117.641 41.885 122.545 41.6592 127.393 41.6592C132.578 41.6592 137.821 41.9979 143.007 42.5059C151.744 43.2962 160.368 44.5945 169.049 45.6106C180.041 46.9089 190.976 48.2637 201.968 49.3362C213.242 50.4652 241.2 53.457 249.205 60.9646C250.163 61.8678 251.008 62.9968 251.403 64.2951C252.643 68.3594 248.866 72.5366 246.217 75.0204C236.86 83.7699 227.277 90.318 217.864 98.5595H213.805C219.611 93.4791 225.755 88.7939 231.787 83.9957C233.985 82.2458 236.127 80.4959 238.213 78.6331C239.904 77.1654 241.595 75.5849 243.061 73.8914C244.977 71.6899 247.288 68.5852 246.724 65.4805C246.274 62.9403 244.132 61.2469 241.99 60.0615C240.411 59.2147 238.664 58.4809 236.973 57.9164C234.662 57.1261 232.351 56.5616 229.983 55.9972C227.728 55.4891 225.417 55.0375 223.162 54.6424C218.822 53.9086 214.425 53.3441 210.085 52.8925C206.816 52.5538 203.49 52.2715 200.221 51.9328C193.907 51.3119 187.65 50.4087 181.393 49.5056C174.404 48.4895 167.414 47.4734 160.368 46.5138C151.913 45.3283 143.458 44.2558 134.946 43.5784C131.057 43.2962 127.223 43.0704 123.334 43.0139C119.896 43.0139 116.457 43.0139 113.019 43.3526C103.887 44.1994 94.6425 47.6427 86.2436 51.2555C79.5922 54.0779 73.1098 57.239 66.4583 60.1179C60.7088 62.6017 54.9592 65.1419 49.2096 67.6256C37.7668 72.6495 26.3804 77.7299 14.6558 82.1894C14.1485 82.3587 13.6412 82.5845 13.1338 82.7539C12.6265 82.2458 12.1756 81.6813 11.6683 81.1168L11.7246 81.1733ZM5.74958 72.3673C8.96257 71.3512 12.1756 70.3351 15.3886 69.2062C34.892 62.6017 53.2118 53.0618 72.0952 44.8768C80.4377 41.264 88.9493 37.9336 97.6301 35.3369C104.789 33.2483 112.004 31.7242 119.388 30.9339C126.829 30.1436 134.27 30.0307 141.767 30.2565C150.898 30.5388 160.03 31.2726 169.162 32.0064C194.471 34.0386 219.893 35.5627 245.259 36.1272C249.205 36.2401 253.15 36.1272 257.04 36.0143C261.211 35.9014 265.382 35.7321 269.554 35.6192C274.683 35.4498 279.869 35.3934 284.999 35.6192C289.677 35.7885 294.412 36.1836 298.978 37.1997C299.542 37.3126 300.162 37.482 300.725 37.5949C303.995 38.4416 308.673 40.1915 310.252 43.522C311.435 45.8928 310.59 48.5459 309.406 50.691C307.771 53.6263 305.066 56.3358 302.529 58.5373C292.496 67.3433 281.504 74.9639 271.019 83.2055C264.424 88.3987 257.829 93.4791 251.234 98.6724H246.781C253.094 93.3098 259.464 87.9471 266.002 82.8667C276.092 74.9639 286.633 67.6256 296.272 59.1583C298.696 57.0132 301.289 54.5859 303.149 51.9328C304.502 50.0136 305.742 47.5863 305.178 45.2154C304.277 41.3205 299.147 39.7964 295.821 39.119C291.425 38.1594 286.802 37.7642 282.293 37.5949C277.333 37.4255 272.372 37.482 267.412 37.5949C263.41 37.7078 259.464 37.8771 255.462 37.99C251.741 38.1029 248.021 38.1594 244.301 38.1029C219.837 37.5384 195.429 36.1272 171.078 34.1515C165.159 33.6999 159.241 33.079 153.322 32.5709C148.023 32.0629 142.668 31.6677 137.37 31.442C131.395 31.2162 125.42 31.2726 119.445 31.7242C109.073 32.5145 99.0956 34.7724 89.2312 38.1594C79.9868 41.3205 71.1369 45.4412 62.3998 49.7878C54.7901 53.5699 47.2367 57.5777 39.5706 61.2469C31.7918 65.029 23.9002 68.4723 15.6704 71.2383C12.6829 72.2544 9.69536 73.2705 6.70784 74.2865C6.36963 73.6656 5.97505 73.0447 5.63684 72.4237L5.74958 72.3673ZM309.744 1.80637L309.237 1.97572C301.345 4.8546 293.51 7.78994 285.506 10.443C278.404 12.8139 271.245 14.9589 263.917 16.5395C256.927 18.0636 249.937 19.0797 242.835 19.5313C234.831 20.0393 226.77 19.87 218.766 19.1926C213.467 18.741 208.168 18.4023 202.87 18.2894C197.684 18.233 192.554 18.4023 187.369 18.8539C177.279 19.7571 167.245 19.7571 157.155 19.7006C139.681 19.5877 122.15 19.5313 105.014 23.652C94.1352 26.2487 83.538 30.6517 73.3917 35.224C64.88 39.0625 56.4248 43.1268 47.8004 46.796C35.963 51.8764 24.1257 56.9003 12.1192 61.4727C8.96257 62.6581 5.80594 63.8435 2.59295 64.9725C2.3111 64.2387 2.08563 63.4484 1.86016 62.7146C4.4531 61.8114 6.98968 60.8517 9.52626 59.8921C20.969 55.602 32.1864 50.8603 43.46 46.0622C44.6438 45.5541 45.8839 45.0461 47.0676 44.5381C55.8047 40.8124 64.4291 36.9739 73.2225 33.3612C83.4252 29.184 93.9661 25.289 104.732 22.6924C112.342 20.886 120.008 19.5877 127.844 18.7974C135.002 18.0636 142.217 17.7249 149.433 17.5556C155.464 17.3862 161.552 17.3298 167.583 17.1604C173.953 16.9911 180.379 16.6524 186.748 16.0879C191.934 15.6363 197.064 15.4105 202.306 15.5234C207.661 15.5799 212.96 15.975 218.315 16.4266C226.432 17.104 234.605 17.3862 242.779 16.9911C250.05 16.6524 257.209 15.8057 264.311 14.4509C279.249 11.6284 293.792 6.54806 308.053 1.29833C308.617 1.41123 309.181 1.58057 309.688 1.74992L309.744 1.80637ZM239.171 0.0564575C238.382 0.112906 237.536 0.169355 236.747 0.282253C228.912 0.903189 221.077 1.52413 213.242 2.37086C201.63 3.61273 190.018 4.57236 178.406 5.53199C168.429 6.37872 158.452 7.22545 148.531 8.29797C139.117 9.31405 129.704 10.4995 120.347 12.1929C113.526 13.4348 106.818 15.3541 100.223 17.5556C93.1206 19.9264 86.0745 22.6924 79.1412 25.6277C67.9239 30.313 56.8757 35.4498 45.7148 40.248C41.7126 41.9979 37.7105 43.6913 33.7083 45.4412C23.8438 49.6184 13.9794 53.7392 3.88942 57.3519C2.87479 57.7471 1.86016 58.0858 0.845526 58.4244C0.676421 57.6906 0.563684 56.9003 0.450947 56.1101C1.29647 55.8278 2.19837 55.4891 3.04389 55.2069C13.0211 51.5942 22.8856 47.5298 32.6373 43.3526C36.7522 41.6027 40.8671 39.7964 44.9256 38.0465C52.028 34.9418 59.1304 31.8935 66.2892 28.9018C74.4063 25.5148 82.5797 22.1844 90.9222 19.249C100.392 15.8621 110.144 12.9832 120.065 11.1769C129.478 9.4834 138.948 8.07218 148.418 6.77386C158.395 5.41909 168.429 4.17722 178.406 3.04824C187.369 2.03216 196.275 1.07253 205.237 0.112906H239.058L239.171 0.0564575ZM150.673 0.0564575C143.57 0.733842 136.411 1.35478 129.309 2.31441C120.065 3.49983 110.933 5.19329 101.97 7.90283C86.0745 12.7574 70.7987 19.4184 55.6356 26.2487C38.9506 33.6999 22.3219 41.3769 5.29863 48.1508C3.55121 48.8282 1.80379 49.562 0 50.2394C0 49.9571 0 49.6749 0 49.3927C0 48.8282 0 48.2637 0 47.6992C18.6579 40.8689 36.9777 33.0225 55.241 25.3455C70.5732 18.9103 85.9618 12.4187 101.914 7.56414C108.396 5.58843 114.879 4.00787 121.53 2.82245C127.731 1.69347 133.988 0.84674 140.188 0.0564575H150.56H150.673ZM109.242 0.0564575C108.058 0.338701 106.818 0.677394 105.634 0.959638C92.106 4.45946 78.7466 9.2576 65.7255 14.3944C51.6334 19.9264 37.7105 25.91 23.7875 31.7806C16.1214 34.9982 8.45526 38.1594 0.789157 41.2076C0.958263 40.1351 1.18374 39.0625 1.40921 38.0465C8.45526 35.4498 15.4449 32.7403 22.491 29.9743C27.7332 27.9421 32.9191 25.8535 38.1614 23.7649C48.7023 19.5877 59.1868 15.2412 69.7841 11.2333C80.7195 7.0561 91.8241 3.10469 103.098 0.112906H109.242V0.0564575ZM73.1098 0.0564575C68.1494 1.80637 63.2453 3.66918 58.3977 5.58843C45.8275 10.4995 33.3701 15.8621 21.0818 21.3941C15.6704 23.8214 10.259 26.1922 4.79131 28.3937C5.63684 26.5874 6.5951 24.8375 7.6661 23.144C11.8374 21.5634 16.0086 19.9264 20.1799 18.2894C32.8064 13.3784 45.4329 8.52377 58.1722 3.95142C61.8361 2.6531 65.5001 1.35478 69.2204 0.0564575H73.1098ZM72.0952 98.6724C76.9992 95.7371 81.9596 92.8582 87.0328 90.2615C91.8241 87.8342 96.7845 85.1812 101.97 83.5441C106.818 82.02 111.891 80.9475 117.021 80.8911C122.939 80.8346 129.422 82.4716 135.002 84.5038C139.343 86.0843 144.98 88.8503 147.854 92.6324C148.136 92.9711 148.362 93.3098 148.531 93.7049C149.32 95.229 149.545 96.9789 149.433 98.6724H147.347C147.347 97.0918 147.009 95.5113 146.22 94.0436C143.965 89.7535 138.497 87.3262 134.213 85.5763C129.084 83.4877 122.601 81.4555 117.021 81.4555C112.286 81.4555 107.607 82.3587 103.154 83.8264C98.3628 85.3505 93.797 87.4956 89.3439 89.81C84.2707 92.463 79.4231 95.5677 74.6318 98.7288H72.0388L72.0952 98.6724ZM99.0956 96.4145C100.843 95.4548 102.647 94.6081 104.507 93.8178C106.198 93.1404 107.889 92.5759 109.637 92.1808C111.384 91.7857 113.131 91.5034 114.935 91.3905C116.063 91.3341 117.246 91.3905 118.374 91.6728C119.501 91.8986 120.572 92.2937 121.643 92.6888C122.77 93.1404 123.898 93.7049 124.969 94.3259C125.927 94.8903 126.829 95.6242 127.674 96.358C128.351 97.0354 129.027 97.7692 129.591 98.5595H129.027C128.633 98.0515 128.182 97.5999 127.731 97.2047C123.334 92.9711 117.754 92.2372 112.004 93.592C108.847 94.3258 104.112 96.1887 100.167 98.6159H95.6008C96.7282 97.7692 97.8555 97.0354 99.0393 96.358L99.0956 96.4145Z" fill="#D3C8C1"/>
</g>
<path style="mix-blend-mode:multiply" opacity="0.45" fill-rule="evenodd" clip-rule="evenodd" d="M38.105 23.7649C48.6459 19.5877 59.1304 15.2412 69.7277 11.2333C80.6632 7.05611 91.7114 3.16115 103.041 0.112915H73.1098C68.2058 1.86283 63.3017 3.72563 58.454 5.64489C45.8839 10.5559 33.4265 15.9186 21.1381 21.4505C15.7268 23.8778 10.3154 26.2487 4.84768 28.4502C3.3821 31.4984 2.25473 34.716 1.46558 38.0465C8.51163 35.4498 15.5013 32.7403 22.5474 29.9743C27.7896 27.9421 32.9755 25.8535 38.2178 23.7649H38.105Z" fill="url(#paint5_radial_9_15761)"/>
<path style="mix-blend-mode:multiply" opacity="0.45" fill-rule="evenodd" clip-rule="evenodd" d="M105.071 23.7085C94.1916 26.3051 83.5943 30.7081 73.448 35.2805C64.9364 39.119 56.4811 43.1833 47.8568 46.8525C36.0194 51.9329 24.1821 56.9568 12.1756 61.5292C9.01895 62.7146 5.86232 63.9 2.64932 65.029C3.49485 67.5692 4.56585 69.9965 5.80595 72.3673C9.01895 71.3512 12.2319 70.3352 15.4449 69.2062C34.9484 62.6017 53.2681 53.0618 72.1516 44.8768C80.4941 41.2641 89.0057 37.9336 97.6864 35.3369C104.845 33.2483 112.06 31.7242 119.445 30.9339C126.885 30.1437 134.326 30.0308 141.823 30.2566C150.955 30.5388 160.086 31.2726 169.218 32.0065C194.527 34.0386 219.949 35.5627 245.315 36.1272C249.261 36.2401 253.207 36.1272 257.096 36.0143C261.268 35.9014 265.439 35.7321 269.61 35.6192C274.74 35.4498 279.925 35.3934 285.055 35.6192C289.734 35.7885 294.469 36.1837 299.034 37.1998C299.598 37.3126 300.218 37.482 300.782 37.5949C304.051 38.4416 308.73 40.1915 310.308 43.522C311.492 45.8929 310.646 48.5459 309.462 50.691C307.828 53.6263 305.122 56.3359 302.586 58.5374C292.552 67.3434 281.56 74.964 271.076 83.2055C264.48 88.3988 257.885 93.4791 251.347 98.6724H271.245C285.111 89.9793 299.091 81.512 313.916 74.3995C320.116 71.4077 326.317 68.303 332.348 64.8596C336.801 62.3759 341.085 59.7228 345.313 56.9568C345.707 54.4731 345.876 51.9329 345.876 49.3362C345.876 26.7567 330.488 7.56417 309.688 1.8064L309.237 1.97574C301.345 4.85463 293.51 7.78996 285.506 10.4431C278.404 12.8139 271.245 14.959 263.917 16.5395C256.927 18.0636 249.937 19.0797 242.835 19.5313C234.831 20.0393 226.77 19.87 218.766 19.1926C213.467 18.741 208.168 18.4023 202.87 18.2894C197.684 18.233 192.554 18.4023 187.369 18.8539C177.279 19.7571 167.245 19.7571 157.155 19.7006C139.681 19.5877 122.15 19.5313 105.014 23.6521L105.071 23.7085Z" fill="url(#paint6_radial_9_15761)"/>
<path style="mix-blend-mode:multiply" opacity="0.45" fill-rule="evenodd" clip-rule="evenodd" d="M160.481 46.6267C152.026 45.4412 143.57 44.3687 135.059 43.6913C131.169 43.4091 127.336 43.1833 123.447 43.1268C120.008 43.1268 116.57 43.1268 113.131 43.4655C104 44.3123 94.7553 47.7556 86.3564 51.3683C79.7049 54.1908 73.2226 57.3519 66.5711 60.2308C60.8215 62.7145 55.0719 65.2547 49.3223 67.7385C37.8796 72.7624 26.4932 77.8428 14.7685 82.3023C14.2612 82.4716 13.7539 82.6974 13.3029 82.8667C16.9105 86.7617 21.1382 90.0922 25.8167 92.6324C31.679 90.4309 37.5414 88.0036 43.2909 85.5198C48.8714 83.0925 54.3955 80.5523 59.9196 78.0121C69.5586 73.6091 79.1976 69.1497 89.1184 65.3676C93.0079 63.8435 96.8973 62.3194 100.843 60.9646C104.169 59.7792 107.495 58.7631 110.877 57.9164C118.43 56.11 125.871 55.6584 133.649 55.8278C138.61 55.9407 143.57 56.1665 148.531 56.5616C154.788 57.0132 161.101 57.6342 167.301 58.368C170.345 58.7631 173.333 59.1583 176.377 59.6663C181.393 60.4566 186.41 61.4162 191.314 62.771C194.922 63.7306 198.98 65.0289 202.193 66.8917C203.377 67.5691 204.505 68.4723 205.406 69.5448C206.196 70.5045 206.872 71.577 207.267 72.7624C207.661 74.0043 207.774 75.3591 207.661 76.7138C207.548 78.0686 207.154 79.4234 206.477 80.6088C205.914 81.7378 205.181 82.8103 204.505 83.8264C203.546 85.2376 202.532 86.5924 201.573 87.9471C199.15 91.2212 196.557 94.4952 194.02 97.6563C193.738 97.995 193.456 98.3337 193.174 98.6724H214.031C219.837 93.592 225.981 88.9068 232.012 84.1086C234.211 82.3587 236.353 80.6088 238.438 78.746C240.129 77.2783 241.82 75.6978 243.286 74.0043C245.203 71.8028 247.514 68.6981 246.95 65.5934C246.499 63.0532 244.357 61.3598 242.215 60.1743C240.637 59.3276 238.889 58.5938 237.198 58.0293C234.887 57.239 232.576 56.6745 230.209 56.11C227.954 55.602 225.643 55.1504 223.388 54.7553C219.048 54.0214 214.651 53.4569 210.31 53.0054C207.041 52.6667 203.715 52.3844 200.446 52.0457C194.133 51.4248 187.876 50.5216 181.619 49.6184C174.629 48.6024 167.64 47.5863 160.594 46.6267H160.481Z" fill="url(#paint7_radial_9_15761)"/>
<path fill-rule="evenodd" clip-rule="evenodd" d="M49.266 13.3219H296.667C317.241 13.3219 334.265 29.2404 336.068 49.3926C336.068 50.0136 336.181 50.5781 336.181 51.199C336.181 50.5781 336.181 50.0136 336.181 49.3926C336.181 27.6034 318.369 9.76562 296.611 9.76562H49.266C27.5078 9.76562 9.69537 27.6034 9.69537 49.3926C9.69537 50.0136 9.69537 50.5781 9.69537 51.199C9.69537 50.5781 9.75174 50.0136 9.80811 49.3926C11.6119 29.2404 28.6352 13.3219 49.2096 13.3219H49.266Z" fill="url(#paint8_linear_9_15761)"/>
<path style="mix-blend-mode:screen" fill-rule="evenodd" clip-rule="evenodd" d="M48.4205 1.58056H297.512C313.465 1.58056 327.726 9.20114 336.858 20.9425C327.895 8.29796 313.183 0 296.667 0H49.266C32.6937 0 17.9815 8.29796 9.07532 20.9425C18.207 9.14469 32.4682 1.58056 48.4205 1.58056Z" fill="url(#paint9_radial_9_15761)"/>
<g style="mix-blend-mode:screen" opacity="0.2">
<path fill-rule="evenodd" clip-rule="evenodd" d="M296.667 88.9632H49.266C34.3847 88.9632 21.3636 80.6088 14.5994 68.3594C21.1382 81.1168 34.4411 89.9228 49.7169 89.9228H296.216C311.492 89.9228 324.795 81.1168 331.333 68.3594C324.569 80.6088 311.548 88.9632 296.667 88.9632Z" fill="#B9B4D3"/>
</g>
<path fill-rule="evenodd" clip-rule="evenodd" d="M49.266 12.1365H296.667C317.129 12.1365 333.814 28.9017 333.814 49.3362C333.814 69.7706 317.072 86.5359 296.667 86.5359H49.266C28.8042 86.5359 12.1192 69.7706 12.1192 49.3362C12.1192 28.9017 28.8606 12.1365 49.266 12.1365Z" fill="url(#paint10_linear_9_15761)"/>
<path fill-rule="evenodd" clip-rule="evenodd" d="M49.266 19.3619H296.667C313.126 19.3619 326.598 32.8532 326.598 49.3362C326.598 65.8193 313.126 79.3105 296.667 79.3105H49.266C32.8064 79.3105 19.3344 65.8193 19.3344 49.3362C19.3344 32.8532 32.8064 19.3619 49.266 19.3619Z" fill="url(#paint11_linear_9_15761)"/>
<path style="mix-blend-mode:screen" fill-rule="evenodd" clip-rule="evenodd" d="M49.266 20.8296H296.667C305.404 20.8296 313.296 24.8375 318.481 31.1033C321.3 34.4902 324.569 41.7156 322.709 45.667C320.849 49.6749 314.367 49.3362 309.97 49.3362H35.963C31.5663 49.3362 25.0839 49.6749 23.2238 45.667C21.3636 41.6592 24.633 34.4902 27.4514 31.1033C32.6937 24.8375 40.5289 20.8296 49.266 20.8296Z" fill="url(#paint12_linear_9_15761)"/>
<path style="mix-blend-mode:screen" fill-rule="evenodd" clip-rule="evenodd" d="M19.3344 49.3362C19.3344 32.8532 32.8064 19.3619 49.266 19.3619H296.667C313.126 19.3619 326.598 32.8532 326.598 49.3362H333.814C333.814 28.8453 317.072 12.1365 296.667 12.1365H49.266C28.8042 12.1365 12.1192 28.9017 12.1192 49.3362H19.3344Z" fill="url(#paint13_linear_9_15761)"/>
<path style="mix-blend-mode:multiply" fill-rule="evenodd" clip-rule="evenodd" d="M49.266 79.3105C32.8064 79.3105 19.3344 65.8192 19.3344 49.3362H12.1192C12.1192 69.8271 28.8606 86.5359 49.266 86.5359H296.667C317.129 86.5359 333.814 69.7706 333.814 49.3362H326.598C326.598 65.8192 313.126 79.3105 296.667 79.3105H49.266Z" fill="url(#paint14_linear_9_15761)"/>
<path style="mix-blend-mode:screen" fill-rule="evenodd" clip-rule="evenodd" d="M21.5891 38.0465C26.0986 27.1518 36.8086 19.4184 49.266 19.4184H296.667C309.124 19.4184 319.891 27.1518 324.344 38.0465C320.116 26.6438 309.124 18.4587 296.329 18.4587H49.6042C36.8086 18.4587 25.8167 26.6438 21.5891 38.0465Z" fill="url(#paint15_radial_9_15761)"/>
<g style="mix-blend-mode:screen" opacity="0.5">
<path d="M91.9369 1.12898C91.0913 1.12898 90.4149 1.07253 90.4149 0.95963C90.4149 0.846732 91.0913 0.790283 91.9369 0.790283C92.7824 0.790283 93.4588 0.846732 93.4588 0.95963C93.4588 1.07253 92.7824 1.12898 91.9369 1.12898Z" fill="#00FFA3"/>
</g>
<g style="mix-blend-mode:screen">
<path d="M91.9369 19.1926C91.3168 19.1926 90.8095 19.1361 90.8095 19.0232C90.8095 18.9103 91.3168 18.8539 91.9369 18.8539C92.5569 18.8539 93.0642 18.9103 93.0642 19.0232C93.0642 19.1361 92.5569 19.1926 91.9369 19.1926Z" fill="#FFED44"/>
</g>
<g style="mix-blend-mode:screen">
<path d="M272.034 79.4798C271.527 79.4798 271.076 79.4234 271.076 79.3105C271.076 79.1976 271.47 79.1411 272.034 79.1411C272.598 79.1411 272.992 79.1976 272.992 79.3105C272.992 79.4234 272.598 79.4798 272.034 79.4798Z" fill="#FF6633"/>
</g>
<g style="mix-blend-mode:screen">
<path d="M241.313 79.4234C241.313 79.4234 240.975 79.4234 240.975 79.3105C240.975 79.1976 241.144 79.1976 241.313 79.1976C241.482 79.1976 241.651 79.1976 241.651 79.3105C241.651 79.4234 241.482 79.4234 241.313 79.4234Z" fill="#FF6633"/>
</g>
<g filter="url(#filter0_d_9_15761)">
<path d="M125.188 59.9521H123H120.812H118.625H116.438H114.25H112.062V57.7646H109.875V55.5771V53.3896H112.062H114.25V55.5771H116.438H118.625H120.812H123H125.188V53.3896V51.2021V49.0146H123H120.812H118.625H116.438H114.25H112.062V46.8271H109.875V44.6396V42.4521V40.2646V38.0771V35.8896H112.062V33.7021H114.25H116.438H118.625H120.812H123H125.188H127.375V35.8896H129.562V38.0771V40.2646H127.375H125.188V38.0771H123H120.812H118.625H116.438H114.25V40.2646V42.4521V44.6396H116.438H118.625H120.812H123H125.188H127.375V46.8271H129.562V49.0146V51.2021V53.3896V55.5771V57.7646H127.375V59.9521H125.188ZM144.875 59.9521H142.688V57.7646V55.5771V53.3896V51.2021V49.0146V46.8271V44.6396V42.4521V40.2646V38.0771H140.5H138.312H136.125H133.938V35.8896V33.7021H136.125H138.312H140.5H142.688H144.875H147.062H149.25H151.438H153.625H155.812V35.8896V38.0771H153.625H151.438H149.25H147.062V40.2646V42.4521V44.6396V46.8271V49.0146V51.2021V53.3896V55.5771V57.7646V59.9521H144.875ZM184.25 59.9521H182.062V57.7646V55.5771H179.875V53.3896V51.2021H177.688H175.5H173.312H171.125H168.938H166.75V53.3896V55.5771H164.562V57.7646V59.9521H162.375H160.188V57.7646V55.5771H162.375V53.3896V51.2021H164.562V49.0146V46.8271H166.75V44.6396V42.4521H168.938V40.2646V38.0771H171.125V35.8896V33.7021H173.312H175.5V35.8896V38.0771H177.688V40.2646V42.4521H179.875V44.6396V46.8271H182.062V49.0146V51.2021H184.25V53.3896V55.5771H186.438V57.7646V59.9521H184.25ZM173.312 46.8271H175.5V44.6396V42.4521H173.312H171.125V44.6396V46.8271H173.312ZM208.312 59.9521H206.125V57.7646V55.5771V53.3896V51.2021H203.938V49.0146H201.75H199.562H197.375H195.188V51.2021V53.3896V55.5771V57.7646V59.9521H193H190.812V57.7646V55.5771V53.3896V51.2021V49.0146V46.8271V44.6396V42.4521V40.2646V38.0771V35.8896V33.7021H193H195.188H197.375H199.562H201.75H203.938H206.125H208.312V35.8896H210.5V38.0771V40.2646V42.4521V44.6396V46.8271H208.312V49.0146V51.2021H210.5V53.3896V55.5771V57.7646V59.9521H208.312ZM203.938 44.6396H206.125V42.4521V40.2646V38.0771H203.938H201.75H199.562H197.375H195.188V40.2646V42.4521V44.6396H197.375H199.562H201.75H203.938ZM225.812 59.9521H223.625V57.7646V55.5771V53.3896V51.2021V49.0146V46.8271V44.6396V42.4521V40.2646V38.0771H221.438H219.25H217.062H214.875V35.8896V33.7021H217.062H219.25H221.438H223.625H225.812H228H230.188H232.375H234.562H236.75V35.8896V38.0771H234.562H232.375H230.188H228V40.2646V42.4521V44.6396V46.8271V49.0146V51.2021V53.3896V55.5771V57.7646V59.9521H225.812Z" fill="white"/>
<path d="M112.062 59.9521H111.062V60.9521H112.062V59.9521ZM112.062 57.7646H113.062V56.7646H112.062V57.7646ZM109.875 57.7646H108.875V58.7646H109.875V57.7646ZM109.875 53.3896V52.3896H108.875V53.3896H109.875ZM114.25 53.3896H115.25V52.3896H114.25V53.3896ZM114.25 55.5771H113.25V56.5771H114.25V55.5771ZM125.188 55.5771V56.5771H126.188V55.5771H125.188ZM125.188 49.0146H126.188V48.0146H125.188V49.0146ZM112.062 49.0146H111.062V50.0146H112.062V49.0146ZM112.062 46.8271H113.062V45.8271H112.062V46.8271ZM109.875 46.8271H108.875V47.8271H109.875V46.8271ZM109.875 35.8896V34.8896H108.875V35.8896H109.875ZM112.062 35.8896V36.8896H113.062V35.8896H112.062ZM112.062 33.7021V32.7021H111.062V33.7021H112.062ZM127.375 33.7021H128.375V32.7021H127.375V33.7021ZM127.375 35.8896H126.375V36.8896H127.375V35.8896ZM129.562 35.8896H130.562V34.8896H129.562V35.8896ZM129.562 40.2646V41.2646H130.562V40.2646H129.562ZM125.188 40.2646H124.188V41.2646H125.188V40.2646ZM125.188 38.0771H126.188V37.0771H125.188V38.0771ZM114.25 38.0771V37.0771H113.25V38.0771H114.25ZM114.25 44.6396H113.25V45.6396H114.25V44.6396ZM127.375 44.6396H128.375V43.6396H127.375V44.6396ZM127.375 46.8271H126.375V47.8271H127.375V46.8271ZM129.562 46.8271H130.562V45.8271H129.562V46.8271ZM129.562 57.7646V58.7646H130.562V57.7646H129.562ZM127.375 57.7646V56.7646H126.375V57.7646H127.375ZM127.375 59.9521V60.9521H128.375V59.9521H127.375ZM125.188 58.9521H123V60.9521H125.188V58.9521ZM123 58.9521H120.812V60.9521H123V58.9521ZM120.812 58.9521H118.625V60.9521H120.812V58.9521ZM118.625 58.9521H116.438V60.9521H118.625V58.9521ZM116.438 58.9521H114.25V60.9521H116.438V58.9521ZM114.25 58.9521H112.062V60.9521H114.25V58.9521ZM113.062 59.9521V57.7646H111.062V59.9521H113.062ZM112.062 56.7646H109.875V58.7646H112.062V56.7646ZM110.875 57.7646V55.5771H108.875V57.7646H110.875ZM110.875 55.5771V53.3896H108.875V55.5771H110.875ZM109.875 54.3896H112.062V52.3896H109.875V54.3896ZM112.062 54.3896H114.25V52.3896H112.062V54.3896ZM113.25 53.3896V55.5771H115.25V53.3896H113.25ZM114.25 56.5771H116.438V54.5771H114.25V56.5771ZM116.438 56.5771H118.625V54.5771H116.438V56.5771ZM118.625 56.5771H120.812V54.5771H118.625V56.5771ZM120.812 56.5771H123V54.5771H120.812V56.5771ZM123 56.5771H125.188V54.5771H123V56.5771ZM126.188 55.5771V53.3896H124.188V55.5771H126.188ZM126.188 53.3896V51.2021H124.188V53.3896H126.188ZM126.188 51.2021V49.0146H124.188V51.2021H126.188ZM125.188 48.0146H123V50.0146H125.188V48.0146ZM123 48.0146H120.812V50.0146H123V48.0146ZM120.812 48.0146H118.625V50.0146H120.812V48.0146ZM118.625 48.0146H116.438V50.0146H118.625V48.0146ZM116.438 48.0146H114.25V50.0146H116.438V48.0146ZM114.25 48.0146H112.062V50.0146H114.25V48.0146ZM113.062 49.0146V46.8271H111.062V49.0146H113.062ZM112.062 45.8271H109.875V47.8271H112.062V45.8271ZM110.875 46.8271V44.6396H108.875V46.8271H110.875ZM110.875 44.6396V42.4521H108.875V44.6396H110.875ZM110.875 42.4521V40.2646H108.875V42.4521H110.875ZM110.875 40.2646V38.0771H108.875V40.2646H110.875ZM110.875 38.0771V35.8896H108.875V38.0771H110.875ZM109.875 36.8896H112.062V34.8896H109.875V36.8896ZM113.062 35.8896V33.7021H111.062V35.8896H113.062ZM112.062 34.7021H114.25V32.7021H112.062V34.7021ZM114.25 34.7021H116.438V32.7021H114.25V34.7021ZM116.438 34.7021H118.625V32.7021H116.438V34.7021ZM118.625 34.7021H120.812V32.7021H118.625V34.7021ZM120.812 34.7021H123V32.7021H120.812V34.7021ZM123 34.7021H125.188V32.7021H123V34.7021ZM125.188 34.7021H127.375V32.7021H125.188V34.7021ZM126.375 33.7021V35.8896H128.375V33.7021H126.375ZM127.375 36.8896H129.562V34.8896H127.375V36.8896ZM128.562 35.8896V38.0771H130.562V35.8896H128.562ZM128.562 38.0771V40.2646H130.562V38.0771H128.562ZM129.562 39.2646H127.375V41.2646H129.562V39.2646ZM127.375 39.2646H125.188V41.2646H127.375V39.2646ZM126.188 40.2646V38.0771H124.188V40.2646H126.188ZM125.188 37.0771H123V39.0771H125.188V37.0771ZM123 37.0771H120.812V39.0771H123V37.0771ZM120.812 37.0771H118.625V39.0771H120.812V37.0771ZM118.625 37.0771H116.438V39.0771H118.625V37.0771ZM116.438 37.0771H114.25V39.0771H116.438V37.0771ZM113.25 38.0771V40.2646H115.25V38.0771H113.25ZM113.25 40.2646V42.4521H115.25V40.2646H113.25ZM113.25 42.4521V44.6396H115.25V42.4521H113.25ZM114.25 45.6396H116.438V43.6396H114.25V45.6396ZM116.438 45.6396H118.625V43.6396H116.438V45.6396ZM118.625 45.6396H120.812V43.6396H118.625V45.6396ZM120.812 45.6396H123V43.6396H120.812V45.6396ZM123 45.6396H125.188V43.6396H123V45.6396ZM125.188 45.6396H127.375V43.6396H125.188V45.6396ZM126.375 44.6396V46.8271H128.375V44.6396H126.375ZM127.375 47.8271H129.562V45.8271H127.375V47.8271ZM128.562 46.8271V49.0146H130.562V46.8271H128.562ZM128.562 49.0146V51.2021H130.562V49.0146H128.562ZM128.562 51.2021V53.3896H130.562V51.2021H128.562ZM128.562 53.3896V55.5771H130.562V53.3896H128.562ZM128.562 55.5771V57.7646H130.562V55.5771H128.562ZM129.562 56.7646H127.375V58.7646H129.562V56.7646ZM126.375 57.7646V59.9521H128.375V57.7646H126.375ZM127.375 58.9521H125.188V60.9521H127.375V58.9521ZM142.688 59.9521H141.688V60.9521H142.688V59.9521ZM142.688 38.0771H143.688V37.0771H142.688V38.0771ZM133.938 38.0771H132.938V39.0771H133.938V38.0771ZM133.938 33.7021V32.7021H132.938V33.7021H133.938ZM155.812 33.7021H156.812V32.7021H155.812V33.7021ZM155.812 38.0771V39.0771H156.812V38.0771H155.812ZM147.062 38.0771V37.0771H146.062V38.0771H147.062ZM147.062 59.9521V60.9521H148.062V59.9521H147.062ZM144.875 58.9521H142.688V60.9521H144.875V58.9521ZM143.688 59.9521V57.7646H141.688V59.9521H143.688ZM143.688 57.7646V55.5771H141.688V57.7646H143.688ZM143.688 55.5771V53.3896H141.688V55.5771H143.688ZM143.688 53.3896V51.2021H141.688V53.3896H143.688ZM143.688 51.2021V49.0146H141.688V51.2021H143.688ZM143.688 49.0146V46.8271H141.688V49.0146H143.688ZM143.688 46.8271V44.6396H141.688V46.8271H143.688ZM143.688 44.6396V42.4521H141.688V44.6396H143.688ZM143.688 42.4521V40.2646H141.688V42.4521H143.688ZM143.688 40.2646V38.0771H141.688V40.2646H143.688ZM142.688 37.0771H140.5V39.0771H142.688V37.0771ZM140.5 37.0771H138.312V39.0771H140.5V37.0771ZM138.312 37.0771H136.125V39.0771H138.312V37.0771ZM136.125 37.0771H133.938V39.0771H136.125V37.0771ZM134.938 38.0771V35.8896H132.938V38.0771H134.938ZM134.938 35.8896V33.7021H132.938V35.8896H134.938ZM133.938 34.7021H136.125V32.7021H133.938V34.7021ZM136.125 34.7021H138.312V32.7021H136.125V34.7021ZM138.312 34.7021H140.5V32.7021H138.312V34.7021ZM140.5 34.7021H142.688V32.7021H140.5V34.7021ZM142.688 34.7021H144.875V32.7021H142.688V34.7021ZM144.875 34.7021H147.062V32.7021H144.875V34.7021ZM147.062 34.7021H149.25V32.7021H147.062V34.7021ZM149.25 34.7021H151.438V32.7021H149.25V34.7021ZM151.438 34.7021H153.625V32.7021H151.438V34.7021ZM153.625 34.7021H155.812V32.7021H153.625V34.7021ZM154.812 33.7021V35.8896H156.812V33.7021H154.812ZM154.812 35.8896V38.0771H156.812V35.8896H154.812ZM155.812 37.0771H153.625V39.0771H155.812V37.0771ZM153.625 37.0771H151.438V39.0771H153.625V37.0771ZM151.438 37.0771H149.25V39.0771H151.438V37.0771ZM149.25 37.0771H147.062V39.0771H149.25V37.0771ZM146.062 38.0771V40.2646H148.062V38.0771H146.062ZM146.062 40.2646V42.4521H148.062V40.2646H146.062ZM146.062 42.4521V44.6396H148.062V42.4521H146.062ZM146.062 44.6396V46.8271H148.062V44.6396H146.062ZM146.062 46.8271V49.0146H148.062V46.8271H146.062ZM146.062 49.0146V51.2021H148.062V49.0146H146.062ZM146.062 51.2021V53.3896H148.062V51.2021H146.062ZM146.062 53.3896V55.5771H148.062V53.3896H146.062ZM146.062 55.5771V57.7646H148.062V55.5771H146.062ZM146.062 57.7646V59.9521H148.062V57.7646H146.062ZM147.062 58.9521H144.875V60.9521H147.062V58.9521ZM182.062 59.9521H181.062V60.9521H182.062V59.9521ZM182.062 55.5771H183.062V54.5771H182.062V55.5771ZM179.875 55.5771H178.875V56.5771H179.875V55.5771ZM179.875 51.2021H180.875V50.2021H179.875V51.2021ZM166.75 51.2021V50.2021H165.75V51.2021H166.75ZM166.75 55.5771V56.5771H167.75V55.5771H166.75ZM164.562 55.5771V54.5771H163.562V55.5771H164.562ZM164.562 59.9521V60.9521H165.562V59.9521H164.562ZM160.188 59.9521H159.188V60.9521H160.188V59.9521ZM160.188 55.5771V54.5771H159.188V55.5771H160.188ZM162.375 55.5771V56.5771H163.375V55.5771H162.375ZM162.375 51.2021V50.2021H161.375V51.2021H162.375ZM164.562 51.2021V52.2021H165.562V51.2021H164.562ZM164.562 46.8271V45.8271H163.562V46.8271H164.562ZM166.75 46.8271V47.8271H167.75V46.8271H166.75ZM166.75 42.4521V41.4521H165.75V42.4521H166.75ZM168.938 42.4521V43.4521H169.938V42.4521H168.938ZM168.938 38.0771V37.0771H167.938V38.0771H168.938ZM171.125 38.0771V39.0771H172.125V38.0771H171.125ZM171.125 33.7021V32.7021H170.125V33.7021H171.125ZM175.5 33.7021H176.5V32.7021H175.5V33.7021ZM175.5 38.0771H174.5V39.0771H175.5V38.0771ZM177.688 38.0771H178.688V37.0771H177.688V38.0771ZM177.688 42.4521H176.688V43.4521H177.688V42.4521ZM179.875 42.4521H180.875V41.4521H179.875V42.4521ZM179.875 46.8271H178.875V47.8271H179.875V46.8271ZM182.062 46.8271H183.062V45.8271H182.062V46.8271ZM182.062 51.2021H181.062V52.2021H182.062V51.2021ZM184.25 51.2021H185.25V50.2021H184.25V51.2021ZM184.25 55.5771H183.25V56.5771H184.25V55.5771ZM186.438 55.5771H187.438V54.5771H186.438V55.5771ZM186.438 59.9521V60.9521H187.438V59.9521H186.438ZM175.5 46.8271V47.8271H176.5V46.8271H175.5ZM175.5 42.4521H176.5V41.4521H175.5V42.4521ZM171.125 42.4521V41.4521H170.125V42.4521H171.125ZM171.125 46.8271H170.125V47.8271H171.125V46.8271ZM184.25 58.9521H182.062V60.9521H184.25V58.9521ZM183.062 59.9521V57.7646H181.062V59.9521H183.062ZM183.062 57.7646V55.5771H181.062V57.7646H183.062ZM182.062 54.5771H179.875V56.5771H182.062V54.5771ZM180.875 55.5771V53.3896H178.875V55.5771H180.875ZM180.875 53.3896V51.2021H178.875V53.3896H180.875ZM179.875 50.2021H177.688V52.2021H179.875V50.2021ZM177.688 50.2021H175.5V52.2021H177.688V50.2021ZM175.5 50.2021H173.312V52.2021H175.5V50.2021ZM173.312 50.2021H171.125V52.2021H173.312V50.2021ZM171.125 50.2021H168.938V52.2021H171.125V50.2021ZM168.938 50.2021H166.75V52.2021H168.938V50.2021ZM165.75 51.2021V53.3896H167.75V51.2021H165.75ZM165.75 53.3896V55.5771H167.75V53.3896H165.75ZM166.75 54.5771H164.562V56.5771H166.75V54.5771ZM163.562 55.5771V57.7646H165.562V55.5771H163.562ZM163.562 57.7646V59.9521H165.562V57.7646H163.562ZM164.562 58.9521H162.375V60.9521H164.562V58.9521ZM162.375 58.9521H160.188V60.9521H162.375V58.9521ZM161.188 59.9521V57.7646H159.188V59.9521H161.188ZM161.188 57.7646V55.5771H159.188V57.7646H161.188ZM160.188 56.5771H162.375V54.5771H160.188V56.5771ZM163.375 55.5771V53.3896H161.375V55.5771H163.375ZM163.375 53.3896V51.2021H161.375V53.3896H163.375ZM162.375 52.2021H164.562V50.2021H162.375V52.2021ZM165.562 51.2021V49.0146H163.562V51.2021H165.562ZM165.562 49.0146V46.8271H163.562V49.0146H165.562ZM164.562 47.8271H166.75V45.8271H164.562V47.8271ZM167.75 46.8271V44.6396H165.75V46.8271H167.75ZM167.75 44.6396V42.4521H165.75V44.6396H167.75ZM166.75 43.4521H168.938V41.4521H166.75V43.4521ZM169.938 42.4521V40.2646H167.938V42.4521H169.938ZM169.938 40.2646V38.0771H167.938V40.2646H169.938ZM168.938 39.0771H171.125V37.0771H168.938V39.0771ZM172.125 38.0771V35.8896H170.125V38.0771H172.125ZM172.125 35.8896V33.7021H170.125V35.8896H172.125ZM171.125 34.7021H173.312V32.7021H171.125V34.7021ZM173.312 34.7021H175.5V32.7021H173.312V34.7021ZM174.5 33.7021V35.8896H176.5V33.7021H174.5ZM174.5 35.8896V38.0771H176.5V35.8896H174.5ZM175.5 39.0771H177.688V37.0771H175.5V39.0771ZM176.688 38.0771V40.2646H178.688V38.0771H176.688ZM176.688 40.2646V42.4521H178.688V40.2646H176.688ZM177.688 43.4521H179.875V41.4521H177.688V43.4521ZM178.875 42.4521V44.6396H180.875V42.4521H178.875ZM178.875 44.6396V46.8271H180.875V44.6396H178.875ZM179.875 47.8271H182.062V45.8271H179.875V47.8271ZM181.062 46.8271V49.0146H183.062V46.8271H181.062ZM181.062 49.0146V51.2021H183.062V49.0146H181.062ZM182.062 52.2021H184.25V50.2021H182.062V52.2021ZM183.25 51.2021V53.3896H185.25V51.2021H183.25ZM183.25 53.3896V55.5771H185.25V53.3896H183.25ZM184.25 56.5771H186.438V54.5771H184.25V56.5771ZM185.438 55.5771V57.7646H187.438V55.5771H185.438ZM185.438 57.7646V59.9521H187.438V57.7646H185.438ZM186.438 58.9521H184.25V60.9521H186.438V58.9521ZM173.312 47.8271H175.5V45.8271H173.312V47.8271ZM176.5 46.8271V44.6396H174.5V46.8271H176.5ZM176.5 44.6396V42.4521H174.5V44.6396H176.5ZM175.5 41.4521H173.312V43.4521H175.5V41.4521ZM173.312 41.4521H171.125V43.4521H173.312V41.4521ZM170.125 42.4521V44.6396H172.125V42.4521H170.125ZM170.125 44.6396V46.8271H172.125V44.6396H170.125ZM171.125 47.8271H173.312V45.8271H171.125V47.8271ZM206.125 59.9521H205.125V60.9521H206.125V59.9521ZM206.125 51.2021H207.125V50.2021H206.125V51.2021ZM203.938 51.2021H202.938V52.2021H203.938V51.2021ZM203.938 49.0146H204.938V48.0146H203.938V49.0146ZM195.188 49.0146V48.0146H194.188V49.0146H195.188ZM195.188 59.9521V60.9521H196.188V59.9521H195.188ZM190.812 59.9521H189.812V60.9521H190.812V59.9521ZM190.812 33.7021V32.7021H189.812V33.7021H190.812ZM208.312 33.7021H209.312V32.7021H208.312V33.7021ZM208.312 35.8896H207.312V36.8896H208.312V35.8896ZM210.5 35.8896H211.5V34.8896H210.5V35.8896ZM210.5 46.8271V47.8271H211.5V46.8271H210.5ZM208.312 46.8271V45.8271H207.312V46.8271H208.312ZM208.312 51.2021H207.312V52.2021H208.312V51.2021ZM210.5 51.2021H211.5V50.2021H210.5V51.2021ZM210.5 59.9521V60.9521H211.5V59.9521H210.5ZM206.125 44.6396V45.6396H207.125V44.6396H206.125ZM206.125 38.0771H207.125V37.0771H206.125V38.0771ZM195.188 38.0771V37.0771H194.188V38.0771H195.188ZM195.188 44.6396H194.188V45.6396H195.188V44.6396ZM208.312 58.9521H206.125V60.9521H208.312V58.9521ZM207.125 59.9521V57.7646H205.125V59.9521H207.125ZM207.125 57.7646V55.5771H205.125V57.7646H207.125ZM207.125 55.5771V53.3896H205.125V55.5771H207.125ZM207.125 53.3896V51.2021H205.125V53.3896H207.125ZM206.125 50.2021H203.938V52.2021H206.125V50.2021ZM204.938 51.2021V49.0146H202.938V51.2021H204.938ZM203.938 48.0146H201.75V50.0146H203.938V48.0146ZM201.75 48.0146H199.562V50.0146H201.75V48.0146ZM199.562 48.0146H197.375V50.0146H199.562V48.0146ZM197.375 48.0146H195.188V50.0146H197.375V48.0146ZM194.188 49.0146V51.2021H196.188V49.0146H194.188ZM194.188 51.2021V53.3896H196.188V51.2021H194.188ZM194.188 53.3896V55.5771H196.188V53.3896H194.188ZM194.188 55.5771V57.7646H196.188V55.5771H194.188ZM194.188 57.7646V59.9521H196.188V57.7646H194.188ZM195.188 58.9521H193V60.9521H195.188V58.9521ZM193 58.9521H190.812V60.9521H193V58.9521ZM191.812 59.9521V57.7646H189.812V59.9521H191.812ZM191.812 57.7646V55.5771H189.812V57.7646H191.812ZM191.812 55.5771V53.3896H189.812V55.5771H191.812ZM191.812 53.3896V51.2021H189.812V53.3896H191.812ZM191.812 51.2021V49.0146H189.812V51.2021H191.812ZM191.812 49.0146V46.8271H189.812V49.0146H191.812ZM191.812 46.8271V44.6396H189.812V46.8271H191.812ZM191.812 44.6396V42.4521H189.812V44.6396H191.812ZM191.812 42.4521V40.2646H189.812V42.4521H191.812ZM191.812 40.2646V38.0771H189.812V40.2646H191.812ZM191.812 38.0771V35.8896H189.812V38.0771H191.812ZM191.812 35.8896V33.7021H189.812V35.8896H191.812ZM190.812 34.7021H193V32.7021H190.812V34.7021ZM193 34.7021H195.188V32.7021H193V34.7021ZM195.188 34.7021H197.375V32.7021H195.188V34.7021ZM197.375 34.7021H199.562V32.7021H197.375V34.7021ZM199.562 34.7021H201.75V32.7021H199.562V34.7021ZM201.75 34.7021H203.938V32.7021H201.75V34.7021ZM203.938 34.7021H206.125V32.7021H203.938V34.7021ZM206.125 34.7021H208.312V32.7021H206.125V34.7021ZM207.312 33.7021V35.8896H209.312V33.7021H207.312ZM208.312 36.8896H210.5V34.8896H208.312V36.8896ZM209.5 35.8896V38.0771H211.5V35.8896H209.5ZM209.5 38.0771V40.2646H211.5V38.0771H209.5ZM209.5 40.2646V42.4521H211.5V40.2646H209.5ZM209.5 42.4521V44.6396H211.5V42.4521H209.5ZM209.5 44.6396V46.8271H211.5V44.6396H209.5ZM210.5 45.8271H208.312V47.8271H210.5V45.8271ZM207.312 46.8271V49.0146H209.312V46.8271H207.312ZM207.312 49.0146V51.2021H209.312V49.0146H207.312ZM208.312 52.2021H210.5V50.2021H208.312V52.2021ZM209.5 51.2021V53.3896H211.5V51.2021H209.5ZM209.5 53.3896V55.5771H211.5V53.3896H209.5ZM209.5 55.5771V57.7646H211.5V55.5771H209.5ZM209.5 57.7646V59.9521H211.5V57.7646H209.5ZM210.5 58.9521H208.312V60.9521H210.5V58.9521ZM203.938 45.6396H206.125V43.6396H203.938V45.6396ZM207.125 44.6396V42.4521H205.125V44.6396H207.125ZM207.125 42.4521V40.2646H205.125V42.4521H207.125ZM207.125 40.2646V38.0771H205.125V40.2646H207.125ZM206.125 37.0771H203.938V39.0771H206.125V37.0771ZM203.938 37.0771H201.75V39.0771H203.938V37.0771ZM201.75 37.0771H199.562V39.0771H201.75V37.0771ZM199.562 37.0771H197.375V39.0771H199.562V37.0771ZM197.375 37.0771H195.188V39.0771H197.375V37.0771ZM194.188 38.0771V40.2646H196.188V38.0771H194.188ZM194.188 40.2646V42.4521H196.188V40.2646H194.188ZM194.188 42.4521V44.6396H196.188V42.4521H194.188ZM195.188 45.6396H197.375V43.6396H195.188V45.6396ZM197.375 45.6396H199.562V43.6396H197.375V45.6396ZM199.562 45.6396H201.75V43.6396H199.562V45.6396ZM201.75 45.6396H203.938V43.6396H201.75V45.6396ZM223.625 59.9521H222.625V60.9521H223.625V59.9521ZM223.625 38.0771H224.625V37.0771H223.625V38.0771ZM214.875 38.0771H213.875V39.0771H214.875V38.0771ZM214.875 33.7021V32.7021H213.875V33.7021H214.875ZM236.75 33.7021H237.75V32.7021H236.75V33.7021ZM236.75 38.0771V39.0771H237.75V38.0771H236.75ZM228 38.0771V37.0771H227V38.0771H228ZM228 59.9521V60.9521H229V59.9521H228ZM225.812 58.9521H223.625V60.9521H225.812V58.9521ZM224.625 59.9521V57.7646H222.625V59.9521H224.625ZM224.625 57.7646V55.5771H222.625V57.7646H224.625ZM224.625 55.5771V53.3896H222.625V55.5771H224.625ZM224.625 53.3896V51.2021H222.625V53.3896H224.625ZM224.625 51.2021V49.0146H222.625V51.2021H224.625ZM224.625 49.0146V46.8271H222.625V49.0146H224.625ZM224.625 46.8271V44.6396H222.625V46.8271H224.625ZM224.625 44.6396V42.4521H222.625V44.6396H224.625ZM224.625 42.4521V40.2646H222.625V42.4521H224.625ZM224.625 40.2646V38.0771H222.625V40.2646H224.625ZM223.625 37.0771H221.438V39.0771H223.625V37.0771ZM221.438 37.0771H219.25V39.0771H221.438V37.0771ZM219.25 37.0771H217.062V39.0771H219.25V37.0771ZM217.062 37.0771H214.875V39.0771H217.062V37.0771ZM215.875 38.0771V35.8896H213.875V38.0771H215.875ZM215.875 35.8896V33.7021H213.875V35.8896H215.875ZM214.875 34.7021H217.062V32.7021H214.875V34.7021ZM217.062 34.7021H219.25V32.7021H217.062V34.7021ZM219.25 34.7021H221.438V32.7021H219.25V34.7021ZM221.438 34.7021H223.625V32.7021H221.438V34.7021ZM223.625 34.7021H225.812V32.7021H223.625V34.7021ZM225.812 34.7021H228V32.7021H225.812V34.7021ZM228 34.7021H230.188V32.7021H228V34.7021ZM230.188 34.7021H232.375V32.7021H230.188V34.7021ZM232.375 34.7021H234.562V32.7021H232.375V34.7021ZM234.562 34.7021H236.75V32.7021H234.562V34.7021ZM235.75 33.7021V35.8896H237.75V33.7021H235.75ZM235.75 35.8896V38.0771H237.75V35.8896H235.75ZM236.75 37.0771H234.562V39.0771H236.75V37.0771ZM234.562 37.0771H232.375V39.0771H234.562V37.0771ZM232.375 37.0771H230.188V39.0771H232.375V37.0771ZM230.188 37.0771H228V39.0771H230.188V37.0771ZM227 38.0771V40.2646H229V38.0771H227ZM227 40.2646V42.4521H229V40.2646H227ZM227 42.4521V44.6396H229V42.4521H227ZM227 44.6396V46.8271H229V44.6396H227ZM227 46.8271V49.0146H229V46.8271H227ZM227 49.0146V51.2021H229V49.0146H227ZM227 51.2021V53.3896H229V51.2021H227ZM227 53.3896V55.5771H229V53.3896H227ZM227 55.5771V57.7646H229V55.5771H227ZM227 57.7646V59.9521H229V57.7646H227ZM228 58.9521H225.812V60.9521H228V58.9521Z" fill="#4D2000"/>
</g>
<defs>
<filter id="filter0_d_9_15761" x="109.875" y="33.7021" width="128.875" height="27.25" filterUnits="userSpaceOnUse" color-interpolation-filters="sRGB">
<feFlood flood-opacity="0" result="BackgroundImageFix"/>
<feColorMatrix in="SourceAlpha" type="matrix" values="0 0 0 0 0 0 0 0 0 0 0 0 0 0 0 0 0 0 127 0" result="hardAlpha"/>
<feOffset dx="2" dy="1"/>
<feComposite in2="hardAlpha" operator="out"/>
<feColorMatrix type="matrix" values="0 0 0 0 0.383333 0 0 0 0 0.092 0 0 0 0 0 0 0 0 1 0"/>
<feBlend mode="normal" in2="BackgroundImageFix" result="effect1_dropShadow_9_15761"/>
<feBlend mode="normal" in="SourceGraphic" in2="effect1_dropShadow_9_15761" result="shape"/>
</filter>
<radialGradient id="paint0_radial_9_15761" cx="0" cy="0" r="1" gradientUnits="userSpaceOnUse" gradientTransform="translate(125.927 115.155) scale(67.5857 67.682)">
<stop stop-color="#B7C0CF"/>
<stop offset="1" stop-color="#7C7FA3"/>
</radialGradient>
<radialGradient id="paint1_radial_9_15761" cx="0" cy="0" r="1" gradientUnits="userSpaceOnUse" gradientTransform="translate(178.011 123.397) scale(66.1201 66.2144)">
<stop stop-color="#B7C0CF"/>
<stop offset="1" stop-color="#7C7FA3"/>
</radialGradient>
<linearGradient id="paint2_linear_9_15761" x1="0.0563684" y1="77.3912" x2="345.877" y2="77.3912" gradientUnits="userSpaceOnUse">
<stop stop-color="#2F2B33"/>
<stop offset="0.06" stop-color="#312C35"/>
<stop offset="0.09" stop-color="#38333D"/>
<stop offset="0.11" stop-color="#3F3945"/>
<stop offset="0.13" stop-color="#3A343F"/>
<stop offset="0.23" stop-color="#2D2931"/>
<stop offset="0.32" stop-color="#29252D"/>
<stop offset="1" stop-color="#27242B"/>
</linearGradient>
<linearGradient id="paint3_linear_9_15761" x1="172.938" y1="98.6159" x2="172.938" y2="0.0564575" gradientUnits="userSpaceOnUse">
<stop stop-color="#3A3642"/>
<stop offset="1" stop-color="#47424D"/>
</linearGradient>
<linearGradient id="paint4_linear_9_15761" x1="172.995" y1="88.9632" x2="172.995" y2="9.70917" gradientUnits="userSpaceOnUse">
<stop stop-color="#413D47"/>
<stop offset="1" stop-color="#2F2C36"/>
</linearGradient>
<radialGradient id="paint5_radial_9_15761" cx="0" cy="0" r="1" gradientUnits="userSpaceOnUse" gradientTransform="translate(10.259 -57.1826) scale(211.1 211.401)">
<stop stop-color="#B39DA3"/>
<stop offset="1" stop-color="white"/>
</radialGradient>
<radialGradient id="paint6_radial_9_15761" cx="0" cy="0" r="1" gradientUnits="userSpaceOnUse" gradientTransform="translate(126.66 -28.055) scale(298.245 298.67)">
<stop stop-color="#B39DA3"/>
<stop offset="1" stop-color="white"/>
</radialGradient>
<radialGradient id="paint7_radial_9_15761" cx="0" cy="0" r="1" gradientUnits="userSpaceOnUse" gradientTransform="translate(31.7354 179.733) scale(312.788 313.234)">
<stop stop-color="#B39DA3"/>
<stop offset="1" stop-color="white"/>
</radialGradient>
<linearGradient id="paint8_linear_9_15761" x1="9.69537" y1="30.4259" x2="336.237" y2="30.4259" gradientUnits="userSpaceOnUse">
<stop stop-color="#221F26"/>
<stop offset="0.1" stop-color="#2B2830"/>
<stop offset="0.25" stop-color="#332F38"/>
<stop offset="0.5" stop-color="#36323B"/>
<stop offset="0.75" stop-color="#332F38"/>
<stop offset="0.9" stop-color="#2B2830"/>
<stop offset="1" stop-color="#221F26"/>
</linearGradient>
<radialGradient id="paint9_radial_9_15761" cx="0" cy="0" r="1" gradientUnits="userSpaceOnUse" gradientTransform="translate(53.55 -194.748) scale(423.327 423.93)">
<stop stop-color="#00FFA3"/>
<stop offset="1"/>
</radialGradient>
<linearGradient id="paint10_linear_9_15761" x1="172.938" y1="86.5359" x2="172.938" y2="12.1365" gradientUnits="userSpaceOnUse">
<stop stop-color="#FF4B19"/>
<stop offset="1" stop-color="#FF7E33"/>
</linearGradient>
<linearGradient id="paint11_linear_9_15761" x1="172.938" y1="79.3105" x2="172.938" y2="19.3619" gradientUnits="userSpaceOnUse">
<stop stop-color="#FA5819"/>
<stop offset="1" stop-color="#FF9633"/>
</linearGradient>
<linearGradient id="paint12_linear_9_15761" x1="172.938" y1="49.3362" x2="172.938" y2="20.8296" gradientUnits="userSpaceOnUse">
<stop stop-color="#471808"/>
<stop offset="1" stop-color="#E94E1B"/>
</linearGradient>
<linearGradient id="paint13_linear_9_15761" x1="172.938" y1="49.3362" x2="172.938" y2="12.1365" gradientUnits="userSpaceOnUse">
<stop/>
<stop offset="1" stop-color="#E94E1B"/>
</linearGradient>
<linearGradient id="paint14_linear_9_15761" x1="172.938" y1="86.5359" x2="172.938" y2="49.3362" gradientUnits="userSpaceOnUse">
<stop stop-color="#BF9E94"/>
<stop offset="1" stop-color="white"/>
</linearGradient>
<radialGradient id="paint15_radial_9_15761" cx="0" cy="0" r="1" gradientUnits="userSpaceOnUse" gradientTransform="translate(63.2454 5.92713) scale(344.129 344.62)">
<stop stop-color="#FFED44"/>
<stop offset="1"/>
</radialGradient>
</defs>
</svg>
