<svg width="312" height="340" viewBox="0 0 312 340" fill="none" xmlns="http://www.w3.org/2000/svg">
<path opacity="0.45" fill-rule="evenodd" clip-rule="evenodd" d="M176.608 185.394C120.695 172.303 301.156 52.8501 301.156 52.8501L300.768 48.614C300.768 48.614 250.609 79.6447 227.981 72.5505C205.329 65.4563 288.265 -50.1684 288.265 -50.1684L287.755 -55.4253C287.755 -55.4253 248.569 -76.2229 284.453 -112L232.109 -111.872C231.259 -109.856 230.288 -107.943 229.292 -106.182C221.596 -92.5803 208.801 -83.3681 196.055 -75.4063C184.887 -68.4398 162.065 -54.3024 148.663 -61.3966C135.31 -68.4398 143.759 -87.6808 148.518 -97.4799C150.751 -102.073 153.325 -107.024 156.384 -111.694L-12.4971 -111.285L-15.9689 -54.3025C-15.9689 -54.3025 8.35813 -61.4221 22.1969 -33.0455C36.0599 -4.64326 -27.3312 131.192 -27.3312 131.192L-29.2735 137.495C-29.2735 137.495 2.72553 139.766 5.59039 178.044C8.45525 216.322 -37.4068 282.135 -37.4068 282.135L-37.771 288.03C-37.771 288.03 75.828 212.188 101.709 221.987C127.59 231.786 -40.8058 335.8 -40.8058 335.8L-41 339.118C-41 339.118 78.5472 255.519 311.693 163.779V157.961C311.693 157.961 232.497 198.459 176.608 185.394ZM183.697 133.872C174.641 138.924 159.807 149.234 148.955 147.575C136.039 145.61 144.73 130.707 148.154 123.486C155.267 108.404 165.513 97.3035 178.405 87.4023C187.072 80.7164 198.07 70.7131 209.335 70.7642C213.657 66.7322 219.605 84.7994 219.799 90.4135C220.552 111.671 198.944 125.374 183.697 133.872ZM157.331 82.3496C161.507 84.9525 162.502 88.8824 160.293 93.2971C152.572 108.812 127.93 94.8282 145.531 83.6766L142.472 87.5299C146.454 82.911 151.553 78.7515 157.331 82.3496ZM147.377 173.936H149.222C158.86 169.189 156.433 183.658 149.805 187.18C146.745 188.813 139.073 190.395 136.84 186.185C133.708 180.367 143.662 175.008 147.377 173.936ZM191.442 -55.5018C209.36 -68.9246 238.858 -81.148 260.539 -71.0682C266.802 -68.159 281.709 -59.7634 278.626 -50.4236C279.694 -45.7282 274.644 -38.6851 270.833 -33.0455C262.845 -21.2303 256.314 -8.42001 248.594 3.57372C235.726 23.5803 225.408 44.7863 206.738 59.7912C192.413 71.3001 169.737 81.3034 153.495 67.8806C111.032 32.7415 161.021 -32.7137 191.442 -55.5018ZM150.436 -52.363C160.681 -53.5624 159.807 -37.4857 152.791 -31.5399C146.673 -26.3851 135.723 -24.6754 132.591 -33.9641C128.585 -45.9068 141.89 -52.2099 150.436 -52.363ZM48.6361 -47.8463C57.3521 -74.1814 86.729 -49.607 72.7689 -24.5988C67.6462 -15.4376 48.2234 0.664604 38.7548 -10.2063C31.2285 -18.8316 38.0264 -45.1413 48.6361 -47.8463ZM-4.77652 110.088C-11.6473 103.096 6.97426 71.147 10.2519 63.7721C18.1666 45.8325 29.5047 25.0859 43.4891 11.0762C69.7098 -15.1314 137.228 -39.2465 137.107 19.2932C137.058 45.7049 120.355 70.3049 103.117 89.2141C88.9141 104.78 64.7328 125.272 43.1978 129.61C26.6641 132.953 -21.213 129.431 -4.75222 110.114L-4.77652 110.088ZM40.2115 146.325C47.3736 151.148 42.2266 162.988 38.1478 168.143C34.4575 172.839 19.3077 185.649 13.8936 177.662C10.1305 172.099 17.6083 158.497 21.8813 154.261C20.7645 154.924 30.6215 139.817 40.2115 146.325ZM109.988 172.941C105.715 184.373 95.2022 192.743 86.5348 200.348C74.6141 210.785 60.9696 219.308 46.7181 225.79C42.5422 227.678 -7.03441 250.185 -3.51403 238.396C-2.68856 227.933 6.85287 215.276 12.267 206.982C23.1923 190.242 37.6137 175.646 54.3173 165.311C66.5294 157.732 90.7593 144.87 105.035 153.878C111.687 158.089 112.586 166.051 109.988 172.941ZM194.234 209.407C182.046 218.772 165.683 222.855 152.111 229.388C143.953 233.318 124.895 245.567 115.402 242.3C100.034 236.992 133.635 200.041 141.865 195.831C147.741 188.762 163.716 192.513 173.597 192.615C183.454 192.718 214.24 193.993 194.234 209.407Z" fill="url(#paint0_radial_9_4594)"/>
<defs>
<radialGradient id="paint0_radial_9_4594" cx="0" cy="0" r="1" gradientUnits="userSpaceOnUse" gradientTransform="translate(135.182 114.803) scale(203.053 202.842)">
<stop stop-color="#848DB0"/>
<stop offset="0.97" stop-color="#8B77A9"/>
</radialGradient>
</defs>
</svg>
