<svg width="528" height="125" viewBox="0 0 528 125" fill="none" xmlns="http://www.w3.org/2000/svg">
<path d="M446.116 16.3297C427.91 32.149 404.771 45.4168 377.718 55.6229C372.784 57.494 369.551 61.9166 369.381 67.1897L366.829 118.73L364.277 67.1897C364.277 65.4887 363.426 64.1279 362.065 63.2774C360.704 62.2568 359.172 62.0867 357.641 62.597C322.251 73.1432 281.757 78.5864 238.711 77.7359C234.287 77.7359 230.544 80.9679 230.204 85.3905L227.992 116.349L225.61 84.3699C225.27 80.2875 222.037 77.0555 217.953 76.7153C171.675 73.4834 123.014 62.9372 75.5436 43.3757C74.863 43.0354 74.0123 43.2055 73.3317 43.5457C72.6512 43.8859 72.3109 44.5663 72.3109 45.4168L70.7796 71.102L69.4184 46.0973C69.2483 42.6952 67.2066 39.8035 63.9739 38.2726C62.4426 37.5922 60.9113 36.9118 59.38 36.2314C58.3591 35.7211 57.3383 35.8912 56.4876 36.2314C55.6368 36.7417 55.1264 37.5922 54.9563 38.7829L52.4041 80.9678L50.0221 39.1231C49.6818 34.3603 47.1297 30.2779 42.8761 28.0666C28.4139 20.7523 13.9517 12.4173 0 3.23192L8.67731 0C83.5403 49.159 159.764 71.9525 235.308 74.1638C321.911 76.7153 393.371 55.6229 440.331 13.0977L446.286 16.3297H446.116Z" fill="url(#paint0_radial_9_17184)"/>
<path d="M527.66 13.9321C506.066 30.0902 485.323 43.697 465.089 54.9226C460.159 57.644 457.268 62.2363 457.098 67.8491L455.908 89.9602L454.548 67.1688C454.548 65.8081 453.697 64.4474 452.507 63.7671C451.317 63.0868 449.787 63.0868 448.597 63.7671C429.213 73.632 410.51 81.2859 391.977 87.2389C388.406 88.4295 386.026 91.491 385.856 95.2329L384.666 124.317L383.306 94.2124C383.306 93.1919 382.795 92.3414 381.945 91.6611C381.095 90.9807 380.075 90.8107 379.055 91.1508C355.761 97.444 332.977 100.846 310.533 101.866C301.522 102.206 292.68 102.206 283.669 101.866C280.608 101.866 277.888 104.077 277.718 107.139L276.357 123.807L274.997 106.118C274.827 103.397 272.617 101.186 269.726 100.846C216.167 96.0833 162.948 78.2243 106.159 53.3919L107.009 51.691C177.741 82.6466 243.032 102.717 310.363 99.9953C377.695 97.2739 447.236 72.1013 526.81 12.5714L528 14.1022L527.66 13.9321Z" fill="url(#paint1_radial_9_17184)"/>
<defs>
<radialGradient id="paint0_radial_9_17184" cx="0" cy="0" r="1" gradientUnits="userSpaceOnUse" gradientTransform="translate(222.888 59.3651) scale(163.167 163.126)">
<stop stop-color="#B7C0CF"/>
<stop offset="1" stop-color="#7C7FA3"/>
</radialGradient>
<radialGradient id="paint1_radial_9_17184" cx="0" cy="0" r="1" gradientUnits="userSpaceOnUse" gradientTransform="translate(316.824 68.5295) scale(154.216 154.267)">
<stop stop-color="#B7C0CF"/>
<stop offset="1" stop-color="#7C7FA3"/>
</radialGradient>
</defs>
</svg>
