<svg width="631" height="167" viewBox="0 0 631 167" fill="none" xmlns="http://www.w3.org/2000/svg">
<path d="M638.756 12.3811C612.69 35.0315 579.558 54.0287 540.823 68.6419C533.759 71.3209 529.13 77.6533 528.886 85.2035L525.232 159L521.578 85.2035C521.578 82.7679 520.36 80.8195 518.411 79.6018C516.462 78.1404 514.27 77.8969 512.077 78.6275C461.405 93.7278 403.425 101.521 341.791 100.304C335.457 100.304 330.097 104.931 329.61 111.264L326.443 155.59L323.032 109.802C322.545 103.957 317.917 99.3295 312.07 98.8424C245.807 94.2149 176.133 79.1146 108.165 51.106C107.19 50.6189 105.972 50.8625 104.998 51.3496C104.023 51.8367 103.536 52.8109 103.536 54.0287L101.343 90.8052L99.3946 55.0029C99.151 50.1318 96.2276 45.9914 91.5989 43.7994C89.4064 42.8252 87.2139 41.851 85.0213 40.8768C83.5597 40.1462 82.098 40.3897 80.8799 40.8768C79.6618 41.6075 78.931 42.8252 78.6874 44.5301L75.0332 104.931L71.6226 45.0172C71.1353 38.1977 67.4811 32.3524 61.3908 29.1862C40.6836 18.7135 19.9764 6.77938 0 -6.37248L12.4243 -11C119.615 59.3868 228.754 92.0229 336.918 95.1891C460.918 98.8424 563.236 68.6419 630.473 7.75359L639 12.3811H638.756Z" fill="url(#paint0_radial_9_13253)"/>
<path d="M755.513 8.94825C724.595 32.0837 694.894 51.5662 665.923 67.6393C658.863 71.5358 654.725 78.1111 654.481 86.1476L652.777 117.807L650.829 85.1735C650.829 83.2253 649.612 81.277 647.908 80.3029C646.204 79.3288 644.013 79.3288 642.309 80.3029C614.555 94.4277 587.776 105.387 561.24 113.91C556.127 115.615 552.719 119.998 552.476 125.356L550.771 167L548.824 123.895C548.824 122.434 548.094 121.216 546.876 120.242C545.659 119.268 544.198 119.024 542.738 119.511C509.385 128.522 476.763 133.393 444.627 134.854C431.724 135.341 419.065 135.341 406.162 134.854C401.78 134.854 397.885 138.02 397.641 142.403L395.694 166.269L393.746 140.942C393.503 137.046 390.338 133.88 386.199 133.393C309.512 126.574 233.312 101.003 152 65.4475L153.217 63.0122C254.493 107.335 347.977 136.072 444.384 132.175C540.79 128.279 640.361 92.2359 754.296 7L756 9.19178L755.513 8.94825Z" fill="url(#paint1_radial_9_13253)"/>
<defs>
<radialGradient id="paint0_radial_9_13253" cx="0" cy="0" r="1" gradientUnits="userSpaceOnUse" gradientTransform="translate(319.135 74) scale(233.626 233.567)">
<stop stop-color="#B7C0CF"/>
<stop offset="1" stop-color="#7C7FA3"/>
</radialGradient>
<radialGradient id="paint1_radial_9_13253" cx="0" cy="0" r="1" gradientUnits="userSpaceOnUse" gradientTransform="translate(453.635 87.1218) scale(220.809 220.883)">
<stop stop-color="#B7C0CF"/>
<stop offset="1" stop-color="#7C7FA3"/>
</radialGradient>
</defs>
</svg>
